<svg xmlns="http://www.w3.org/2000/svg" xmlns:xlink="http://www.w3.org/1999/xlink" width="262.223" height="219.824" viewBox="0 0 262.223 219.824">
  <defs>
    <linearGradient id="linear-gradient" x1="-7.44" y1="-14.267" x2="12.184" y2="22.23" gradientUnits="objectBoundingBox">
      <stop offset="0" stop-color="#ffb477"/>
      <stop offset="1" stop-color="#de00a2"/>
    </linearGradient>
    <linearGradient id="linear-gradient-2" x1="0.201" y1="-0.229" x2="0.61" y2="0.767" xlink:href="#linear-gradient"/>
  </defs>
  <g id="Group_16503" data-name="Group 16503" transform="translate(639.907 -130.098)">
    <g id="_1" data-name="1" transform="translate(-604.053 143.281)">
      <path id="Path_79719" data-name="Path 79719" d="M-389.4,318.169c-6.28-42.816-157.562-55.375-161.536-91.572l-3.827-20.46c24.357,38.389,187.056,18.979,170.5,86.343Z" transform="translate(567.518 -170.899)" fill="#5e1739"/>
      <path id="Path_79720" data-name="Path 79720" d="M-387.161,162.34l-4.984-5.766a10.411,10.411,0,0,0-7.013-3.567l-32.3-2.691-14,15.525Z" transform="translate(520.609 -146.945)" fill="#d94600" opacity="0.4" style="mix-blend-mode: multiply;isolation: isolate"/>
      <path id="Path_79721" data-name="Path 79721" d="M-316.855,198.046a4.336,4.336,0,0,0-2.758-5.375l-45.68-15.438a4.337,4.337,0,0,0-3.368.25,4.337,4.337,0,0,0-2.167,2.591l-24.291,79.509a4.336,4.336,0,0,0,2.759,5.375L-346.68,280.4a4.333,4.333,0,0,0,3.368-.251,4.332,4.332,0,0,0,2.167-2.591Z" transform="translate(499.091 -158.398)" fill="#ead371"/>
      <path id="Path_79722" data-name="Path 79722" d="M-355.685,197.141l-21.384,65.734,36.971,13.311,21.17-67.231Z" transform="translate(491.263 -167.039)" fill="#d1a35a"/>
      <g id="Group_16490" data-name="Group 16490" transform="translate(133.301 35.113)">
        <g id="Group_16482" data-name="Group 16482" transform="translate(26.442 4.976)">
          <path id="Path_79723" data-name="Path 79723" d="M-295.282,232.873l-2-10.387,7.048-7.85,2.423,10.219Zm-.918-10.087,1.528,7.953,5.758-6.176-1.855-7.827Z" transform="translate(297.282 -214.636)" fill="#f4c076"/>
        </g>
        <g id="Group_16483" data-name="Group 16483" transform="translate(21.644 21.262)">
          <path id="Path_79724" data-name="Path 79724" d="M-304.176,261.143l-1.51-10.466,7.412-7.513,1.939,10.321Zm-.442-10.117,1.154,8.016,6.041-5.9-1.486-7.9Z" transform="translate(305.686 -243.164)" fill="#f4c076"/>
        </g>
        <g id="Group_16484" data-name="Group 16484" transform="translate(16.493 37.723)">
          <path id="Path_79725" data-name="Path 79725" d="M-313.2,289.978l-1.51-10.468L-307.3,272l1.94,10.322Zm-.444-10.118,1.155,8.017,6.041-5.9-1.487-7.9Z" transform="translate(314.709 -271.998)" fill="#f4c076"/>
        </g>
        <g id="Group_16485" data-name="Group 16485" transform="translate(11.467 53.431)">
          <path id="Path_79726" data-name="Path 79726" d="M-322,317.493l-1.509-10.467,7.411-7.513,1.939,10.321Zm-.442-10.118,1.154,8.017,6.041-5.9-1.486-7.9Z" transform="translate(323.513 -299.513)" fill="#f4c076"/>
        </g>
        <g id="Group_16486" data-name="Group 16486" transform="translate(18.273 2.086)">
          <path id="Path_79727" data-name="Path 79727" d="M-309.592,227.809l-2-10.385,7.051-7.851,2.421,10.22Zm-.917-10.087,1.53,7.955,5.756-6.176-1.855-7.827Z" transform="translate(311.592 -209.573)" fill="#f4c076"/>
        </g>
        <g id="Group_16487" data-name="Group 16487" transform="translate(13.478 18.373)">
          <path id="Path_79728" data-name="Path 79728" d="M-318.483,256.081l-1.508-10.468,7.409-7.512,1.94,10.321Zm-.441-10.118,1.155,8.016,6.039-5.9-1.483-7.905Z" transform="translate(319.991 -238.102)" fill="#f4c076"/>
        </g>
        <g id="Group_16488" data-name="Group 16488" transform="translate(8.325 34.833)">
          <path id="Path_79729" data-name="Path 79729" d="M-327.507,284.915l-1.511-10.468,7.412-7.513,1.939,10.322Zm-.442-10.117,1.154,8.015,6.041-5.9-1.486-7.9Z" transform="translate(329.018 -266.935)" fill="#f4c076"/>
        </g>
        <g id="Group_16489" data-name="Group 16489" transform="translate(3.299 50.54)">
          <path id="Path_79730" data-name="Path 79730" d="M-336.313,312.429l-1.508-10.468,7.41-7.512,1.939,10.322Zm-.442-10.118,1.155,8.017,6.039-5.9-1.485-7.9Z" transform="translate(337.821 -294.449)" fill="#f4c076"/>
        </g>
        <path id="Path_79731" data-name="Path 79731" d="M-324.174,224.156l-2-10.386,7.049-7.85,2.422,10.219Zm-.915-10.087,1.528,7.953,5.759-6.176-1.857-7.827Z" transform="translate(336.121 -205.919)" fill="#f4c076"/>
        <path id="Path_79732" data-name="Path 79732" d="M-333.064,252.426l-1.508-10.467,7.41-7.512,1.939,10.32Zm-.442-10.117,1.153,8.016,6.042-5.9-1.485-7.906Z" transform="translate(339.726 -218.161)" fill="#f4c076"/>
        <path id="Path_79733" data-name="Path 79733" d="M-342.088,281.261l-1.512-10.467,7.411-7.513,1.938,10.322Zm-.444-10.118,1.155,8.017,6.041-5.9-1.488-7.9Z" transform="translate(343.6 -230.534)" fill="#f4c076"/>
      </g>
      <path id="Path_79734" data-name="Path 79734" d="M-362.031,188.7l-25.142,75.8,44.16,15.573,24.877-77.528Zm18.188,90.071-42.389-15.1,24.455-73.726,42.364,13.261Z" transform="translate(495.599 -163.418)" fill="#9e6e52"/>
      <path id="Path_79735" data-name="Path 79735" d="M-355.074,269.934l15.064-84.156-25.282-8.544a4.337,4.337,0,0,0-3.369.25,4.339,4.339,0,0,0-2.165,2.592l-24.292,79.508a4.337,4.337,0,0,0,2.758,5.375l19.984,6.753,12.428,1.75A4.335,4.335,0,0,0-355.074,269.934Z" transform="translate(499.09 -158.399)" fill="#cec395" opacity="0.8" style="mix-blend-mode: multiply;isolation: isolate"/>
      <path id="Path_79736" data-name="Path 79736" d="M-364.189,172.87a4.337,4.337,0,0,0-.736-3.279,4.338,4.338,0,0,0-2.859-1.768l-51.411-8.084a4.338,4.338,0,0,0-3.3.831,4.335,4.335,0,0,0-1.684,2.953L-434.6,253.414a4.335,4.335,0,0,0,3.7,4.793l46.034,6.483a4.336,4.336,0,0,0,4.872-3.53Z" transform="translate(515.964 -150.966)" fill="#ffefae"/>
      <g id="Group_16491" data-name="Group 16491" transform="translate(101.659 42.998)">
        <path id="Path_79737" data-name="Path 79737" d="M-384.158,234.721c-3.182,19.38-15.36-3.044-14.853,10.848.271,7.4,9.264,6.932,13.009,2.542,0,0,15.525,10.8,17.243-.536C-366.807,234.69-384.533,252.939-384.158,234.721Z" transform="translate(399.027 -226.163)" fill="#564f2f"/>
        <path id="Path_79738" data-name="Path 79738" d="M-386.233,262.6l10.151,1.737a15.109,15.109,0,0,1-4.047-10.651A19.306,19.306,0,0,1-386.233,262.6Z" transform="translate(393.537 -234.302)" fill="#564f2f"/>
        <path id="Path_79739" data-name="Path 79739" d="M-379.812,237.157c-1.5-6.1-5.849-18.355,2.8-17.371s6.683,7.864,1.6,17.856Z" transform="translate(391.822 -219.73)" fill="#564f2f"/>
      </g>
      <path id="Path_79740" data-name="Path 79740" d="M-366.31,183.033a3.424,3.424,0,0,0-2.39-1.423L-400.47,177.7l-.089.719,31.655,4.1c1.957.242,2.532,2.476,2.1,4.39L-382.7,257.2a3.477,3.477,0,0,1-3.809,2.75l-37.545-4.872a3.38,3.38,0,0,1-2.842-3.763l5.07-51.148-.982-.087-5.237,52.594a3.523,3.523,0,0,0,2.956,3.922l39.1,5.108a3.621,3.621,0,0,0,3.969-2.864l16.249-73.07A3.443,3.443,0,0,0-366.31,183.033Z" transform="translate(513.147 -158.696)" fill="#564f2f"/>
      <g id="Group_16492" data-name="Group 16492" transform="translate(115.866 27.208)">
        <path id="Path_79741" data-name="Path 79741" d="M-369.96,192.546l-.075.429c-.417.007-.668.266-.758.772l-.357,2.018a12.9,12.9,0,0,0,3.962-2.871l1.061,1.2-1.071.8a.728.728,0,0,0-.477-.374q-.547-.1-1.481.812a12.714,12.714,0,0,1,.839,1.245,8.917,8.917,0,0,1,.69,1.417,7.648,7.648,0,0,1,.421,1.581,6.442,6.442,0,0,1,.041,1.734l-2.316-.412.061-.344a.749.749,0,0,0,.267-.256.979.979,0,0,0,.127-.348,2.6,2.6,0,0,0,.026-.6,4.146,4.146,0,0,0-.112-.685,4.767,4.767,0,0,0-.236-.695,3.718,3.718,0,0,0-.359-.65,4.345,4.345,0,0,0-.611-.74.963.963,0,0,0-.422-.241.6.6,0,0,0-.552.178l-.485,2.736a.786.786,0,0,0,.414.961l-.062.343-2.715-.482.063-.344a.812.812,0,0,0,.736-.778l1-5.643c.082-.466-.042-.73-.37-.8l.077-.429Z" transform="translate(374.141 -192.071)" fill="#564f2f"/>
      </g>
      <g id="Group_16493" data-name="Group 16493" transform="translate(104.965 75.325)">
        <path id="Path_79742" data-name="Path 79742" d="M-393.236,311.078l26.136,3.68a4.339,4.339,0,0,0,4.875-3.53l5.482-30.638-24.774-4.231Z" transform="translate(393.236 -276.358)" fill="#e5dbaa" opacity="0.8" style="mix-blend-mode: multiply;isolation: isolate"/>
      </g>
      <path id="Path_79743" data-name="Path 79743" d="M-401.569,245.176l8.074-81.421-14.255-2.242a4.333,4.333,0,0,0-3.3.831,4.334,4.334,0,0,0-1.684,2.954l-9.728,83.864,16.593-.077A4.339,4.339,0,0,0-401.569,245.176Z" transform="translate(510.74 -151.728)" fill="#e5dbaa" opacity="0.8" style="mix-blend-mode: multiply;isolation: isolate"/>
      <path id="Path_79744" data-name="Path 79744" d="M-439.8,148.822a4.339,4.339,0,0,0-1.323-3.194,4.34,4.34,0,0,0-3.239-1.21l-61.065,3.2a4.336,4.336,0,0,0-3.1,1.549,4.337,4.337,0,0,0-.974,3.326l11.453,90.253a4.336,4.336,0,0,0,4.676,3.774l48.081-4.162a4.336,4.336,0,0,0,3.961-4.246Z" transform="translate(548.106 -144.412)" fill="#c6b054"/>
      <path id="Path_79745" data-name="Path 79745" d="M-440.682,149.186a4.242,4.242,0,0,0-1.294-3.12,4.23,4.23,0,0,0-3.161-1.182l-59.636,3.124a4.235,4.235,0,0,0-3.029,1.513,4.238,4.238,0,0,0-.952,3.249l11.186,88.143A4.235,4.235,0,0,0-493,244.6l46.956-4.065c2.16-.187,4.476-2.344,4.513-4.512Z" transform="translate(547.787 -144.612)" fill="#fce37a"/>
      <path id="Path_79746" data-name="Path 79746" d="M-440.779,151.633a4.024,4.024,0,0,0-1.229-2.966,4.027,4.027,0,0,0-3.007-1.124l-56.705,2.971a4.026,4.026,0,0,0-2.879,1.439,4.027,4.027,0,0,0-.9,3.088l10.636,83.81a4.026,4.026,0,0,0,4.342,3.5l44.649-3.865a4.027,4.027,0,0,0,3.679-3.942Z" transform="translate(546.391 -145.753)" fill="#ffefae"/>
      <path id="Path_79747" data-name="Path 79747" d="M-440.166,158.6a3.535,3.535,0,0,0-2.641-.986l-32.627,1.708.069.738,32.546-1.507c1.975-.1,2.987,2,2.954,3.957l-1.444,70.138a3.4,3.4,0,0,1-3.1,3.327l-37.667,3.261a3.4,3.4,0,0,1-3.664-2.957l-6.418-50.577-1.026.1,6.6,52a3.536,3.536,0,0,0,3.814,3.078l39.212-3.394a3.537,3.537,0,0,0,3.232-3.463l1.246-72.82A3.536,3.536,0,0,0-440.166,158.6Z" transform="translate(541.093 -150.073)" fill="#564f2f"/>
      <g id="Group_16494" data-name="Group 16494" transform="translate(60.565 30.897)">
        <path id="Path_79748" data-name="Path 79748" d="M-457.849,198.533c-1.363,14.683-18.447,17.464-11.51,26.919,4.377,5.965,10.307,3.578,12.669-1.686,0,0,10.328,7.667,16.257-2.147C-434.346,211.547-455.257,212.806-457.849,198.533Z" transform="translate(471.01 -198.533)" fill="#564f2f"/>
        <path id="Path_79749" data-name="Path 79749" d="M-451.5,249.342l10.23-1.179a15.11,15.11,0,0,1-6.869-9.09A19.309,19.309,0,0,1-451.5,249.342Z" transform="translate(462.636 -215.929)" fill="#564f2f"/>
      </g>
      <path id="Path_79750" data-name="Path 79750" d="M-479.7,259.888c-22.441-4.316-42.888,16.26-34.749,38.271,11.029,29.832,46.72,21.422,56.91.433C-450.169,283.41-457.478,264.161-479.7,259.888Z" transform="translate(550.998 -193.717)" fill="#ff8018" opacity="0.2" style="mix-blend-mode: multiply;isolation: isolate"/>
      <path id="Path_79751" data-name="Path 79751" d="M-299.806,294.943l-20.933,15.711,14.718,19.954,19.41-14.08Z" transform="translate(467.091 -209.008)" fill="#ff5f5f"/>
      <path id="Path_79752" data-name="Path 79752" d="M-302.252,299.9l-17.268,12.96,9.764,9.957,16.586-5.7Z" transform="translate(466.568 -211.136)" fill="#ff7676"/>
      <path id="Path_79753" data-name="Path 79753" d="M-229.8,295.716l-22.061-11-9.518,22.153,18.215,10.322Z" transform="translate(441.62 -204.62)" fill="#ff5f5f"/>
      <path id="Path_79754" data-name="Path 79754" d="M-254.067,301.407c0-.377,5.4-12.942,5.4-12.942l16.714,7.288-6.913,10.053Z" transform="translate(438.48 -206.228)" fill="#ff7676"/>
      <path id="Path_79755" data-name="Path 79755" d="M-516.891,300.247l-47.791.5-.188,27.583,47.5,5.295Z" transform="translate(571.853 -211.284)" fill="#6f7723"/>
      <path id="Path_79756" data-name="Path 79756" d="M-519.324,299.042l-50.1-3.458-.36,11.22,49.448,2.1Z" transform="translate(573.963 -209.284)" fill="#acc449"/>
      <path id="Path_79757" data-name="Path 79757" d="M-520.446,320.548l-51.1-2.513v11.225l50.394.5Z" transform="translate(574.718 -218.918)" fill="#acc449"/>
      <path id="Path_79758" data-name="Path 79758" d="M-518.24,341.469l-48.168-.837.307,10.9,47.58-.677Z" transform="translate(572.513 -228.614)" fill="#acc449"/>
      <path id="Path_79759" data-name="Path 79759" d="M-494.6,301.345l-26.471-2.679-1.173,34.513,24.964.166Z" transform="translate(553.56 -210.606)" fill="#e5dbaa" opacity="0.8" style="mix-blend-mode: multiply;isolation: isolate"/>
      <path id="Path_79760" data-name="Path 79760" d="M-414.674,323.554l-59.145-6.106V341.4h59.148Z" transform="translate(532.781 -218.666)" fill="#79afd3"/>
      <path id="Path_79761" data-name="Path 79761" d="M-393.687,342.771l-26.137-.377-10.556,8.041,35.561.126Z" transform="translate(514.14 -229.37)" fill="#79afd3"/>
      <rect id="Rectangle_373" data-name="Rectangle 373" width="9.801" height="8.67" transform="translate(104.307 113.023)" fill="#bbe7ff"/>
      <rect id="Rectangle_374" data-name="Rectangle 374" width="9.801" height="9.173" transform="translate(80.745 112.52)" fill="#bbe7ff"/>
      <rect id="Rectangle_375" data-name="Rectangle 375" width="9.801" height="7.979" transform="translate(92.934 104.227)" fill="#bbe7ff"/>
      <path id="Path_79762" data-name="Path 79762" d="M-411.4,270.289l-61.771-.264L-474,301.512l59.247,1.783Z" transform="translate(532.857 -198.315)" fill="#ffc933"/>
      <path id="Path_79763" data-name="Path 79763" d="M-384.879,268.654l-34.641.88,5.529,6.367,28.357.418Z" transform="translate(509.48 -197.727)" fill="#ffc933"/>
      <path id="Path_79764" data-name="Path 79764" d="M-376.942,301.232l-17.34.376-.879,7.54,17.466-.251Z" transform="translate(499.027 -211.707)" fill="#ffc933"/>
      <rect id="Rectangle_376" data-name="Rectangle 376" width="8.753" height="6.053" transform="translate(85.647 97.86)" fill="#ffe197"/>
      <rect id="Rectangle_377" data-name="Rectangle 377" width="8.54" height="6.053" transform="translate(108.228 98.11)" fill="#ffe197"/>
      <rect id="Rectangle_378" data-name="Rectangle 378" width="8.539" height="7.787" transform="translate(98.007 89.841)" fill="#ffe197"/>
      <path id="Path_79765" data-name="Path 79765" d="M-379.111,268.915l-8.713.312.173,7.475h8.54Z" transform="translate(495.878 -197.839)" fill="#ffe197"/>
      <path id="Path_79766" data-name="Path 79766" d="M-407.641,269.21l-8.712.311-.083,6.45,8.8,1.026Z" transform="translate(508.157 -197.965)" fill="#ffe197"/>
      <path id="Path_79767" data-name="Path 79767" d="M-552.459,297.08l-10.933-1.13-.669,11.266,10.847.293Z" transform="translate(571.506 -209.44)" fill="#e2f476"/>
      <path id="Path_79768" data-name="Path 79768" d="M-527.933,320.255l-10.556-.754-.628,10.3,10.807.5Z" transform="translate(560.802 -219.547)" fill="#e2f476"/>
      <path id="Path_79769" data-name="Path 79769" d="M-564.687,318.463l-6.786-.5v11.183l7.037.126Z" transform="translate(574.686 -218.885)" fill="#e2f476"/>
      <path id="Path_79770" data-name="Path 79770" d="M-544.128,341.417l-11.058-.125.252,10.3H-544.5Z" transform="translate(567.697 -228.898)" fill="#e2f476"/>
      <path id="Path_79771" data-name="Path 79771" d="M-502.3,340.757l-11.058-.125.252,10.3h10.429Z" transform="translate(549.75 -228.614)" fill="#e2f476"/>
      <rect id="Rectangle_379" data-name="Rectangle 379" width="8.539" height="10.239" transform="translate(88.375 78.677)" fill="#ffe197"/>
      <rect id="Rectangle_380" data-name="Rectangle 380" width="8.539" height="9.319" transform="translate(110.322 79.431)" fill="#ffe197"/>
      <path id="Path_79772" data-name="Path 79772" d="M-395.714,281.671l-40.168-1.132.126,1.007,39.834,1.507Z" transform="translate(516.501 -202.827)" fill="#d8812a"/>
      <path id="Path_79773" data-name="Path 79773" d="M-395.745,299.34l-37.715.326,1.13,1.006,36.441.124Z" transform="translate(515.462 -210.895)" fill="#d8812a"/>
      <path id="Path_79774" data-name="Path 79774" d="M-395.258,314.879l-34.682.5.5.754h34.178Z" transform="translate(513.951 -217.563)" fill="#d8812a"/>
      <path id="Path_79775" data-name="Path 79775" d="M-395.9,325.828l-34.538-.24.5.764,34.037.732Z" transform="translate(514.167 -222.159)" fill="#d8812a"/>
      <path id="Path_79776" data-name="Path 79776" d="M-403.632,340.443l-43.477-.251-.88.754,44.357.881Z" transform="translate(521.697 -228.425)" fill="#477893"/>
      <path id="Path_79777" data-name="Path 79777" d="M-414.211,355.38l-54.535,1.256-3.9,1.383,58.431-.5Z" transform="translate(532.276 -234.943)" fill="#477893"/>
      <path id="Path_79778" data-name="Path 79778" d="M-446.376,270.14l-26.8-.115-.71,27.074-.014,0v.527l-.1,3.888.1,0v19.539h18.423C-432.193,312.27-424.6,283.874-446.376,270.14Z" transform="translate(532.857 -198.315)" fill="#ffbf41" opacity="0.8" style="mix-blend-mode: multiply;isolation: isolate"/>
      <g id="Group_16495" data-name="Group 16495" transform="translate(26.801 73.817)">
        <path id="Path_79779" data-name="Path 79779" d="M-514.078,273.884l20.455-.167.669,26.046.013,0v.507l.1,3.74-.1,0v18.8l-21.47-.838C-536.322,313.519-534.57,287.1-514.078,273.884Z" transform="translate(530.155 -273.717)" fill="#e5dbaa" opacity="0.8" style="mix-blend-mode: multiply;isolation: isolate"/>
      </g>
      <g id="Group_16496" data-name="Group 16496" transform="translate(29.616 63.331)">
        <path id="Path_79780" data-name="Path 79780" d="M-488.251,255.93c-22.685-4.352-43.356,16.4-35.129,38.6,11.151,30.09,47.231,21.608,57.532.437C-458.4,279.656-465.788,260.24-488.251,255.93Z" transform="translate(525.223 -255.348)" fill="#d8a321"/>
        <path id="Path_79781" data-name="Path 79781" d="M-488.251,257.692c-22.685-4.354-43.356,16.4-35.129,38.6,11.151,30.089,47.231,21.607,57.532.436C-458.4,281.417-465.788,262-488.251,257.692Z" transform="translate(525.223 -256.104)" fill="#ffc933"/>
        <path id="Path_79782" data-name="Path 79782" d="M-478.37,268.967c-21.108-10.277-43.664,8.8-36.036,29.384,8.805,23.766,36.293,18.182,46.038,2.32C-462.467,291.06-462.8,276.543-478.37,268.967Z" transform="translate(521.232 -259.96)" fill="#ffebb3"/>
        <path id="Path_79783" data-name="Path 79783" d="M-475.548,274.48c-19.347-11.644-41.268,5.922-34.223,24.935,7.931,21.4,33.176,15.522,41.5,1.074C-463.625,292.411-464.254,281.274-475.548,274.48Z" transform="translate(519.171 -261.953)" fill="#f4b925"/>
        <path id="Path_79784" data-name="Path 79784" d="M-477.924,276.574c-16.59-7.408-33.949,7.578-27.963,23.73,6.7,18.092,26.955,14.377,35.5,3.022C-464.1,294.97-464.55,282.544-477.924,276.574Z" transform="translate(517.444 -263.621)" fill="#ffebb3"/>
      </g>
      <path id="Path_79785" data-name="Path 79785" d="M-447.989,337.921l2.89,5.027a28.757,28.757,0,0,0,7.792-6.66l-5.279-3.143Z" transform="translate(521.697 -225.402)" fill="#ffebb3"/>
      <path id="Path_79786" data-name="Path 79786" d="M-427.445,305.764l5.88,1.094a24.852,24.852,0,0,0,0-10.194l-5.5,1.865Z" transform="translate(512.881 -209.747)" fill="#ffebb3"/>
      <path id="Path_79787" data-name="Path 79787" d="M-443.544,272.319l4.485-4.519a31.683,31.683,0,0,0-8.529-5.42l-1.847,5.782Z" transform="translate(522.317 -195.035)" fill="#ffebb3"/>
      <path id="Path_79788" data-name="Path 79788" d="M-476.927,263.388l.764-6.418a31.823,31.823,0,0,0-10.152,1.226l2.191,5.636Z" transform="translate(538.143 -192.703)" fill="#ffebb3"/>
      <path id="Path_79789" data-name="Path 79789" d="M-511.536,278.766l-4.285-4.336a28.317,28.317,0,0,0-5.576,8.452l5.7,1.771Z" transform="translate(553.198 -200.206)" fill="#ffebb3"/>
      <path id="Path_79790" data-name="Path 79790" d="M-517.683,317.492l-6.631.723a40.237,40.237,0,0,0,3.782,9.555l4.822-3.341Z" transform="translate(554.449 -218.685)" fill="#ffebb3"/>
      <path id="Path_79791" data-name="Path 79791" d="M-492.8,346.1l-2.945,5.752a46.465,46.465,0,0,0,10.174,2.35l-.323-6.019Z" transform="translate(542.19 -230.962)" fill="#ffebb3"/>
      <g id="Group_16497" data-name="Group 16497" transform="translate(46.243 82.924)">
        <path id="Path_79792" data-name="Path 79792" d="M-487.177,294.755a18.785,18.785,0,0,1,1.049,2.608q.442,1.395.9,2.866l.014.046c.031.12-.042.206-.222.255q-1.24.342-2.46.752t-2.6.96a1.652,1.652,0,0,0,.056.288c.025.1.051.192.077.282.033.12.066.24.1.359a3.38,3.38,0,0,0,.129.376c.248-.1.489-.191.724-.272s.467-.153.693-.216a6.144,6.144,0,0,1,3.766-.057,3.157,3.157,0,0,1,1.986,2.277,4.551,4.551,0,0,1,.037,2.68,4.563,4.563,0,0,1-1.351,2,8.921,8.921,0,0,1-2.4,1.461,23.923,23.923,0,0,1-3.074,1.068.38.38,0,0,1-.452-.142c-.17-.324-.34-.641-.506-.951a7.935,7.935,0,0,1-.43-.949.208.208,0,0,1,.123-.252,12.719,12.719,0,0,0,1.675-.741,4.586,4.586,0,0,0,1.016-.716,1.689,1.689,0,0,0,.45-.695,1.267,1.267,0,0,0,0-.7,1.735,1.735,0,0,0-.174-.413.716.716,0,0,0-.321-.287,1.2,1.2,0,0,0-.558-.088,4.02,4.02,0,0,0-.912.165,8.481,8.481,0,0,0-.844.282,5.387,5.387,0,0,0-.868.457,1.133,1.133,0,0,1-.425.215c-.106.029-.176-.023-.213-.16q-.591-1.169-1.17-2.476t-1.107-2.6q-.528-1.3-.946-2.5c-.277-.8-.505-1.52-.679-2.151q-.062-.227.3-.506a5.681,5.681,0,0,1,1.239-.646q.881-.364,2.367-.823t3.671-1.062a5.451,5.451,0,0,1,.951-.2A.374.374,0,0,1-487.177,294.755Z" transform="translate(496.099 -291.756)" fill="#f4b925"/>
        <path id="Path_79793" data-name="Path 79793" d="M-468.1,289.947a6.644,6.644,0,0,1,2.992-.183,6.183,6.183,0,0,1,2.5,1.045,7.408,7.408,0,0,1,1.9,2.021,9.753,9.753,0,0,1,1.218,2.742,12.772,12.772,0,0,1,.466,3.313,9.315,9.315,0,0,1-.486,3.117,6.743,6.743,0,0,1-1.523,2.518,5.736,5.736,0,0,1-2.669,1.526,6.544,6.544,0,0,1-2.936.167,6.22,6.22,0,0,1-2.587-1.116,8.323,8.323,0,0,1-2.1-2.3,12.329,12.329,0,0,1-1.455-3.38,9.9,9.9,0,0,1-.376-3.157,7.24,7.24,0,0,1,.679-2.77,6.436,6.436,0,0,1,1.689-2.174A7.006,7.006,0,0,1-468.1,289.947Zm3.24,12.344a1.258,1.258,0,0,0,.831-1.115,4.809,4.809,0,0,0-.166-2.172,3.035,3.035,0,0,0-.77-1.522,1.246,1.246,0,0,0-1.175-.172,1.461,1.461,0,0,0-1.1.8,3,3,0,0,0,.118,1.7,4.662,4.662,0,0,0,.992,1.969A1.26,1.26,0,0,0-464.86,302.291Z" transform="translate(486.26 -289.669)" fill="#f4b925"/>
      </g>
      <g id="Group_16498" data-name="Group 16498" transform="translate(47.804 19.873)">
        <path id="Path_79794" data-name="Path 79794" d="M-489.919,179.223c-.291,3.983-4.9,4.826-2.975,7.349,1.217,1.594,2.809.916,3.422-.522,0,0,2.837,2.021,4.392-.667C-483.485,182.623-489.14,183.074-489.919,179.223Z" transform="translate(493.364 -179.223)" fill="#564f2f"/>
        <path id="Path_79795" data-name="Path 79795" d="M-487.979,192.988l2.764-.373a4.1,4.1,0,0,1-1.908-2.426A5.227,5.227,0,0,1-487.979,192.988Z" transform="translate(491.053 -183.928)" fill="#564f2f"/>
      </g>
      <g id="Group_16499" data-name="Group 16499" transform="translate(45.117 6.765)">
        <path id="Path_79796" data-name="Path 79796" d="M-497.829,166.185a.555.555,0,0,0,.3.045,1.428,1.428,0,0,0,.768-.583,5.279,5.279,0,0,0,.819-1.6,13.243,13.243,0,0,0,.575-2.659,18.666,18.666,0,0,0,.033-3.746l-.063-.658,5.462-.716.082.614c-.381.051-.526.457-.436,1.222l1.547,6.384q.373,1.555,1.211,1.444l.079.6-5.415.71-.075-.573q2.524-.343,2.353-1.656a.719.719,0,0,0-.018-.084.481.481,0,0,1-.021-.1l-.527-2.173-3.322.434a11.892,11.892,0,0,1-1.678,4.749c-.292-.207-.6-.422-.913-.639s-.654-.448-1.007-.686Zm3.267-8.648a16.053,16.053,0,0,1,.171,3.783l2.846-.373-.643-2.628a1.1,1.1,0,0,0-.373-.8,1.255,1.255,0,0,0-.883-.133Z" transform="translate(498.071 -156.262)" fill="#564f2f"/>
      </g>
      <path id="Path_79797" data-name="Path 79797" d="M-376.44,276.319l.755-7.665-15.876,1.383-6.534,50.263,15.919.166v-1.553l1.211,0,1.132-7.789-2.343-.035,0-8.386.788-7.755,2.436-.035.754-7.664-2.414.052,1.119-11.031Z" transform="translate(500.286 -197.727)" fill="#e5dbaa" opacity="0.8" style="mix-blend-mode: multiply;isolation: isolate"/>
      <path id="Path_79798" data-name="Path 79798" d="M-394.812,301.9l16.763-.079-14.37,1.418Z" transform="translate(498.877 -211.958)" fill="#ffc933"/>
      <path id="Path_79799" data-name="Path 79799" d="M-401.762,317.048l18.511-.041-16.022,1.632Z" transform="translate(501.859 -218.476)" fill="#ffc933"/>
      <path id="Path_79800" data-name="Path 79800" d="M-397.033,327.644l14.53.309-14.214,1.137Z" transform="translate(499.83 -223.041)" fill="#79afd3"/>
      <path id="Path_79801" data-name="Path 79801" d="M-398.574,283.846l18.687.493-16.075.928Z" transform="translate(500.492 -204.246)" fill="#ffc933"/>
      <path id="Path_79802" data-name="Path 79802" d="M-404.366,342.366l18.509.408-16.835.8Z" transform="translate(502.977 -229.358)" fill="#79afd3"/>
      <path id="Path_79803" data-name="Path 79803" d="M-280.552,318.847l-18.93-17.425,8.8-6.48,13.2,21.585Z" transform="translate(457.968 -209.008)" fill="#dd4b4b"/>
      <path id="Path_79804" data-name="Path 79804" d="M-261.384,313.359l15.78,5.579,11.058-19.1,4.741,2.367-13.117,22.262Z" transform="translate(441.62 -211.109)" fill="#dd4b4b"/>
      <path id="Path_79805" data-name="Path 79805" d="M-249.806,313.282c.4-1,.226-2.012-.4-2.267s-1.459.344-1.862,1.342-.228,2.012.4,2.269S-250.211,314.281-249.806,313.282Z" transform="translate(437.714 -215.88)" fill="#ffceb3"/>
      <path id="Path_79806" data-name="Path 79806" d="M-241.662,296.113c.4-1,.226-2.013-.4-2.269s-1.457.345-1.862,1.343-.226,2.012.4,2.269S-242.067,297.111-241.662,296.113Z" transform="translate(434.22 -208.512)" fill="#ffceb3"/>
      <path id="Path_79807" data-name="Path 79807" d="M-238.761,308.878c.4-1,.227-2.015-.4-2.27s-1.457.346-1.862,1.344-.227,2.012.4,2.268S-239.166,309.875-238.761,308.878Z" transform="translate(432.975 -213.989)" fill="#ffceb3"/>
      <path id="Path_79808" data-name="Path 79808" d="M-306.792,325.2c-.613-.885-1.56-1.3-2.116-.912s-.511,1.408.1,2.295,1.561,1.292,2.117.911S-306.181,326.088-306.792,325.2Z" transform="translate(462.181 -221.54)" fill="#ffceb3"/>
      <path id="Path_79809" data-name="Path 79809" d="M-293.148,330.485c-.611-.887-1.558-1.295-2.115-.912s-.51,1.407.1,2.294,1.557,1.293,2.114.911S-292.535,331.371-293.148,330.485Z" transform="translate(456.325 -223.807)" fill="#ffceb3"/>
      <path id="Path_79810" data-name="Path 79810" d="M-277.52,334.446c-.613-.884-1.558-1.292-2.115-.911s-.512,1.408.1,2.295,1.557,1.292,2.114.911S-276.907,335.332-277.52,334.446Z" transform="translate(449.619 -225.507)" fill="#ffceb3"/>
      <path id="Path_79811" data-name="Path 79811" d="M-276.554,317.922c-.608-.885-1.439-1.562-1.858-1.509s-.263.811.346,1.7,1.44,1.562,1.858,1.511S-275.944,318.809-276.554,317.922Z" transform="translate(449.028 -218.22)" fill="#ff8080"/>
      <path id="Path_79812" data-name="Path 79812" d="M-227.669,327.574c.56-.917.839-1.953.619-2.314s-.849.091-1.409,1.01-.836,1.953-.619,2.314S-228.229,328.493-227.669,327.574Z" transform="translate(427.789 -221.965)" fill="#ff8080"/>
      <path id="Path_79813" data-name="Path 79813" d="M-213.8,310.845c.56-.917.837-1.952.619-2.314s-.848.092-1.411,1.01-.835,1.953-.616,2.314S-214.361,311.764-213.8,310.845Z" transform="translate(421.837 -214.786)" fill="#ff8080"/>
      <path id="Path_79814" data-name="Path 79814" d="M-235.46,322.743c.4-1,.227-2.012-.4-2.268s-1.456.345-1.862,1.343-.224,2.012.4,2.268S-235.863,323.741-235.46,322.743Z" transform="translate(431.558 -219.939)" fill="#ffceb3"/>
      <path id="Path_79815" data-name="Path 79815" d="M-221.373,302.494c.4-1,.226-2.013-.4-2.269s-1.458.345-1.863,1.343-.226,2.013.4,2.269S-221.777,303.491-221.373,302.494Z" transform="translate(425.513 -211.25)" fill="#ffceb3"/>
      <path id="Path_79816" data-name="Path 79816" d="M-550.579,197.7a2.066,2.066,0,0,0-1.022-2.676,2.075,2.075,0,0,0-2.859.228,2.065,2.065,0,0,0,1.021,2.676A2.075,2.075,0,0,0-550.579,197.7Z" transform="translate(567.475 -165.941)" fill="#ffe161"/>
      <path id="Path_79817" data-name="Path 79817" d="M-305.815,311.7c3.368-2.169,4.111-2.284,7.649,1.141A12.842,12.842,0,0,0-305.815,311.7Z" transform="translate(460.686 -215.534)" fill="#ffad94"/>
      <path id="Path_79818" data-name="Path 79818" d="M-555.863,199.975c2.365.092,4.343-1.4,4.419-3.332s-1.78-3.573-4.142-3.666-4.341,1.4-4.415,3.33S-558.225,199.88-555.863,199.975Z" transform="translate(569.765 -165.25)" fill="url(#linear-gradient)"/>
      <path id="Path_79819" data-name="Path 79819" d="M-234.548,293.351l-17.318-8.634-9.518,22.153,18.461,11.108,13.117-22.262-4.741-2.367Z" transform="translate(441.62 -204.62)" fill="url(#linear-gradient-2)"/>
      <path id="Path_79820" data-name="Path 79820" d="M-245.6,318.938c.365-.331,11.058-19.1,11.058-19.1l4.741,2.366-13.118,22.262s-18.623-11.408-18.462-11.108S-245.6,318.938-245.6,318.938Z" transform="translate(441.621 -211.109)" fill="#491900" opacity="0.2" style="mix-blend-mode: multiply;isolation: isolate"/>
      <path id="Path_79821" data-name="Path 79821" d="M-280.389,318.178-299.1,300.8l8.849-7.421,12.928,22.476Z" transform="translate(457.805 -208.339)" fill="#491900" opacity="0.2" style="mix-blend-mode: multiply;isolation: isolate"/>
      <path id="Path_79822" data-name="Path 79822" d="M-550.94,216.089c.74-16.134,16.534-29.454,35.563-18.417l-1.691-4.721c-10.678-16.212-31.611-14.689-37.7,2.677Z" transform="translate(567.518 -160.391)" fill="#ce4e7c"/>
      <path id="Path_79823" data-name="Path 79823" d="M-498.935,190.883c2.546.762,8.295,7.095,11.18,6.851,4.21-.357,3.425-3.925,1.07-5.923,5.281,1.07,6.208,10.561-1.641,10.7-2.188.039-5.209-2.284-10.062-4.067Z" transform="translate(543.559 -164.354)" fill="#ce4e7c"/>
      <path id="Path_79824" data-name="Path 79824" d="M-529.181,192.119c3.521-.381,11.206,1.4,11.512.1s-3.45-5.367-7.992-7.421c-7.6-3.441-17.259-1.584-22.03,5.674l.717,16.019C-544.6,199.731-534.982,192.746-529.181,192.119Z" transform="translate(564.481 -161.022)" fill="#ce4e7c" style="mix-blend-mode: screen;isolation: isolate"/>
      <path id="Path_79825" data-name="Path 79825" d="M-475.486,452.313c-42.245-41.674-79.093,2.567-96.5-34.933l-5.114-37c24.628,53.511,83.919,14.272,124.451,43.387Z" transform="translate(577.102 -245.672)" fill="#5e1739"/>
      <path id="Path_79826" data-name="Path 79826" d="M-543.1,189.38s3.044,19.981,3.806-2.664Z" transform="translate(562.512 -162.565)" fill="#ce4e7c" style="mix-blend-mode: screen;isolation: isolate"/>
    </g>
    <g id="_2" data-name="2" transform="translate(-639.907 130.098)">
      <path id="Path_79827" data-name="Path 79827" d="M-584.1,343.964l8.563,47.594c12.559-57.94,156.42,31.039,175.572-26.911l4.825-31.319C-430.01,386.709-545.188,285.876-584.1,343.964Z" transform="translate(615.96 -208.84)" fill="#ce4e7c"/>
      <g id="Group_16500" data-name="Group 16500" transform="translate(207.454 0.921)">
        <path id="Path_79828" data-name="Path 79828" d="M-229.468,197.146c14.213,10.175,31.454,14.682,52.15,18.469l-10.1,20.211c-18.7-5.8-32.657-16.519-44.67-29.681Z" transform="translate(232.088 -197.146)" fill="#e1fc81"/>
        <path id="Path_79829" data-name="Path 79829" d="M-225.811,201.878c12.437,8.9,28.037,14.009,46.149,17.325l-7.655,15.208a90.47,90.47,0,0,1-40.22-25.916Z" transform="translate(230.135 -199.177)" fill="#bccc5c"/>
        <path id="Path_79830" data-name="Path 79830" d="M-223.213,205.385c10.977,7.858,25.655,13.716,41.637,16.642l-6,11.97a84.45,84.45,0,0,1-36.529-23.53Z" transform="translate(228.663 -200.682)" fill="#e1fc81"/>
        <path id="Path_79831" data-name="Path 79831" d="M-202.257,222.336c1.7-1.564,5.445-.468,8.192,2.236,2.56,2.524,3.366,5.6,1.935,7.039-1.449,1.46-4.789.833-7.615-1.562C-202.78,227.469-203.989,223.927-202.257,222.336Z" transform="translate(219.629 -207.647)" fill="#bccc5c"/>
        <path id="Path_79832" data-name="Path 79832" d="M-193,234.726s-5.365,1.133-8.54-5.607C-201.537,229.119-197.059,229.4-193,234.726Z" transform="translate(218.978 -210.866)" fill="#dcef6f"/>
        <path id="Path_79833" data-name="Path 79833" d="M-193.851,225.436c1.274.855,3.417,5.97-.186,4.107C-194.037,229.543-197.641,222.89-193.851,225.436Z" transform="translate(216.424 -209.037)" fill="#dcef6f"/>
        <path id="Path_79834" data-name="Path 79834" d="M-196.743,228.268s-1.734-5.14,1.664-3.155l.491,4.387Z" transform="translate(217.111 -208.951)" fill="#dcef6f"/>
        <path id="Path_79835" data-name="Path 79835" d="M-171.091,248.325l.653-2-10.4-3.824-.094,1.4Z" transform="translate(210.135 -216.61)" fill="#cae264"/>
        <path id="Path_79836" data-name="Path 79836" d="M-172.489,240.3a1.383,1.383,0,0,1,2.019-.179,1.612,1.612,0,0,1,.58,2.081,1.382,1.382,0,0,1-2.018.179A1.616,1.616,0,0,1-172.489,240.3Z" transform="translate(206.592 -215.438)" fill="#cae264"/>
        <path id="Path_79837" data-name="Path 79837" d="M-213.6,213.888l-.466,1.136L-221.222,210l.056-1.224Z" transform="translate(227.425 -202.137)" fill="#cae264"/>
      </g>
      <g id="Group_16501" data-name="Group 16501" transform="translate(1.998 69.378)">
        <path id="Path_79838" data-name="Path 79838" d="M-636.407,271.1c13.013-5.535,23.384-15.548,34.714-28.251l9.71,15.486c-11.883,10.479-25.16,15.605-39.31,18.363Z" transform="translate(636.407 -242.847)" fill="#e1fc81"/>
        <path id="Path_79839" data-name="Path 79839" d="M-631.881,273.781c11.385-4.844,21.482-13.47,31.4-24.585l7.283,11.691a73.182,73.182,0,0,1-34.836,16.873Z" transform="translate(634.465 -245.571)" fill="#bccc5c"/>
        <path id="Path_79840" data-name="Path 79840" d="M-628.628,276.023c10.05-4.276,20.276-11.948,29.026-21.759l5.742,9.186a68.325,68.325,0,0,1-31.633,15.329Z" transform="translate(633.069 -247.746)" fill="#e1fc81"/>
        <path id="Path_79841" data-name="Path 79841" d="M-607.781,281.568c-.363-1.836,1.969-3.958,4.993-4.718,2.822-.706,5.287.033,5.677,1.626.4,1.616-1.44,3.659-4.286,4.6C-604.455,284.09-607.411,283.435-607.781,281.568Z" transform="translate(624.139 -257.323)" fill="#bccc5c"/>
        <path id="Path_79842" data-name="Path 79842" d="M-595.921,281.66s-1.476,4.183-7.468,3.539C-603.389,285.2-601.307,282.225-595.921,281.66Z" transform="translate(622.238 -259.503)" fill="#dcef6f"/>
        <path id="Path_79843" data-name="Path 79843" d="M-602.6,280.153c1.127-.521,5.562.153,2.759,1.858C-599.844,282.011-605.956,281.7-602.6,280.153Z" transform="translate(622.332 -258.782)" fill="#dcef6f"/>
        <path id="Path_79844" data-name="Path 79844" d="M-601.771,283.241s-4.28-.966-1.479-2.478l3.237,1.508Z" transform="translate(622.586 -259.118)" fill="#dcef6f"/>
        <path id="Path_79845" data-name="Path 79845" d="M-577.274,270.674l-1.1-1.292-7.019,5.573.93.656Z" transform="translate(614.517 -254.234)" fill="#cae264"/>
        <path id="Path_79846" data-name="Path 79846" d="M-583.174,271.373a1.118,1.118,0,0,1,.726-1.47,1.3,1.3,0,0,1,1.682.476,1.119,1.119,0,0,1-.727,1.47A1.306,1.306,0,0,1-583.174,271.373Z" transform="translate(613.603 -254.406)" fill="#cae264"/>
        <path id="Path_79847" data-name="Path 79847" d="M-618.971,287.438l.589.8-6.485,2.83-.822-.555Z" transform="translate(631.808 -261.982)" fill="#cae264"/>
      </g>
      <g id="Group_16502" data-name="Group 16502" transform="translate(0 27.27)">
        <path id="Path_79848" data-name="Path 79848" d="M-599.246,185.448c-12.518-1.376-24.393-7.744-37.963-16.361l-2.7,17.429c13.269,6.361,25.866,7.276,38.374,5.705Z" transform="translate(639.907 -169.087)" fill="#e1fc81"/>
        <path id="Path_79849" data-name="Path 79849" d="M-599.474,188.571c-10.953-1.206-22.133-6.349-34.008-13.889l-2,13.144a60.61,60.61,0,0,0,34.209,5.62Z" transform="translate(638.007 -171.488)" fill="#bccc5c"/>
        <path id="Path_79850" data-name="Path 79850" d="M-599.608,191.113c-9.668-1.064-20.631-5.273-31.11-11.927l-1.586,10.333a56.585,56.585,0,0,0,31.066,5.11Z" transform="translate(636.645 -173.421)" fill="#e1fc81"/>
        <path id="Path_79851" data-name="Path 79851" d="M-601.859,197.335c-.324-1.835-2.951-3.146-5.682-2.97-2.547.167-4.313,1.588-4.093,3.2.221,1.637,2.417,3.019,5.065,3.068C-603.725,200.688-601.529,199.2-601.859,197.335Z" transform="translate(627.782 -179.928)" fill="#bccc5c"/>
        <path id="Path_79852" data-name="Path 79852" d="M-610.006,201.06s2.624,3.5,7.308,1.131A8.863,8.863,0,0,0-610.006,201.06Z" transform="translate(627.076 -182.684)" fill="#dcef6f"/>
        <path id="Path_79853" data-name="Path 79853" d="M-603.1,196.575c-1.1-.159-4.5,1.781-1.628,2.56C-604.729,199.135-599.834,197.043-603.1,196.575Z" transform="translate(625.294 -180.879)" fill="#dcef6f"/>
        <path id="Path_79854" data-name="Path 79854" d="M-602.284,199.6s3.174-2.169.371-2.766l-2.138,2.371Z" transform="translate(624.52 -180.993)" fill="#dcef6f"/>
        <path id="Path_79855" data-name="Path 79855" d="M-629.052,196.329l.466-1.541,7.629,3.178-.539.891Z" transform="translate(635.249 -180.116)" fill="#cae264"/>
        <path id="Path_79856" data-name="Path 79856" d="M-620.71,193.958a1.166,1.166,0,0,0-1.092-1.169,1.058,1.058,0,0,0-1.215.943,1.167,1.167,0,0,0,1.092,1.169A1.06,1.06,0,0,0-620.71,193.958Z" transform="translate(632.66 -179.255)" fill="#cae264"/>
        <path id="Path_79857" data-name="Path 79857" d="M-588.891,199.76l-.211.926,6.263.753.485-.764Z" transform="translate(618.105 -182.249)" fill="#cae264"/>
      </g>
      <path id="Path_79858" data-name="Path 79858" d="M-569.82,381.872l-4.282-36.251s7.587-32.308,114.461,7.707c60.227,22.55,25.094,33.309,7.992,31.113C-482.762,380.444-544.987,354.755-569.82,381.872Z" transform="translate(611.669 -212.284)" fill="#ce4e7c" style="mix-blend-mode: screen;isolation: isolate"/>
      <path id="Path_79859" data-name="Path 79859" d="M-567.6,345.749l7.136,31.113,19.124-6.85,5.994-30.827S-555.328,336.9-567.6,345.749Z" transform="translate(608.879 -214.696)" fill="#ce4e7c" style="mix-blend-mode: screen;isolation: isolate"/>
      <path id="Path_79860" data-name="Path 79860" d="M-274.6,359.661s1.713,51.093,9.7-8.278Z" transform="translate(483.146 -220.044)" fill="#ce4e7c" opacity="0.4" style="mix-blend-mode: screen;isolation: isolate"/>
      <path id="Path_79861" data-name="Path 79861" d="M-365.6,401.879c26.282,3.506,33.682,8.849,51.379-4C-314.223,397.883-331.064,423.572-365.6,401.879Z" transform="translate(522.196 -239.999)" fill="#ce4e7c"/>
      <path id="Path_79862" data-name="Path 79862" d="M-524.474,349.367c-3.928,8.68,27.185,4.113,58.012,10.678C-466.462,360.045-520.41,344.061-524.474,349.367Z" transform="translate(590.517 -218.716)" fill="#e26498"/>
      <path id="Path_79863" data-name="Path 79863" d="M-216.651,204.54a77.993,77.993,0,0,1-12.817-7.394l-2.62,9c8.909,9.761,18.891,18.172,31.081,24.236Z" transform="translate(439.542 -197.146)" fill="#491900" opacity="0.2" style="mix-blend-mode: multiply;isolation: isolate"/>
      <path id="Path_79864" data-name="Path 79864" d="M-618.359,179.472a170.029,170.029,0,0,1-18.3-10.385l-1.96,12.664Z" transform="translate(639.353 -141.817)" fill="#491900" opacity="0.2" style="mix-blend-mode: multiply;isolation: isolate"/>
    </g>
  </g>
</svg>
