<svg xmlns="http://www.w3.org/2000/svg" width="33.127" height="44.27" viewBox="0 0 33.127 44.27">
  <g id="king-of-spades" transform="translate(-64.437)">
    <path id="Path_73866" data-name="Path 73866" d="M69.21,5.374a.447.447,0,0,1,.445-.445H94.137V.445A.447.447,0,0,0,93.692,0H64.882a.447.447,0,0,0-.445.445V39.184a.447.447,0,0,0,.445.445H69.21Z" fill="#d0d5d5"/>
    <g id="Group_14938" data-name="Group 14938" transform="translate(64.437)" opacity="0.1">
      <path id="Path_73867" data-name="Path 73867" d="M65.964,39.184V.445A.447.447,0,0,1,66.409,0H64.882a.447.447,0,0,0-.445.445V39.184a.447.447,0,0,0,.445.445h1.527A.446.446,0,0,1,65.964,39.184Z" transform="translate(-64.437)"/>
    </g>
    <path id="Path_73868" data-name="Path 73868" d="M97.181,35.372a.447.447,0,0,1,.445-.445h21.834V33.282a.447.447,0,0,0-.445-.445H95.5a.447.447,0,0,0-.445.445v33.06a.447.447,0,0,0,.445.445h1.68Z" transform="translate(-27.972 -29.998)" fill="#ee3835"/>
    <g id="Group_14939" data-name="Group 14939" transform="translate(67.084 2.839)">
      <path id="Path_73869" data-name="Path 73869" d="M97.181,35.372a.447.447,0,0,1,.445-.445h1.118l2.084-2.089H99l-3.941,3.951v1.837l2.125-2.131Z" transform="translate(-95.056 -32.837)" fill="#c0272d"/>
      <path id="Path_73870" data-name="Path 73870" d="M169.27,34.926l2.083-2.089h-1.831l-2.082,2.089Z" transform="translate(-161.18 -32.837)" fill="#c0272d"/>
      <path id="Path_73871" data-name="Path 73871" d="M97.181,104.956l-2.125,2.132v1.837l2.125-2.132Z" transform="translate(-95.056 -98.72)" fill="#c0272d"/>
      <path id="Path_73872" data-name="Path 73872" d="M220.147,34.926l2.082-2.089H220.4l-2.082,2.089Z" transform="translate(-207.658 -32.837)" fill="#c0272d"/>
      <path id="Path_73873" data-name="Path 73873" d="M97.181,156.036l-2.125,2.133v1.837l2.125-2.133Z" transform="translate(-95.056 -145.384)" fill="#c0272d"/>
      <path id="Path_73874" data-name="Path 73874" d="M271.008,34.926l2.081-2.089h-1.831l-2.081,2.089Z" transform="translate(-254.122 -32.837)" fill="#c0272d"/>
      <path id="Path_73875" data-name="Path 73875" d="M97.181,207.119l-2.125,2.134v1.838l2.125-2.134Z" transform="translate(-95.056 -192.05)" fill="#c0272d"/>
      <path id="Path_73876" data-name="Path 73876" d="M97.181,258.246l-2.125,2.134v1.838l2.125-2.134Z" transform="translate(-95.056 -238.756)" fill="#c0272d"/>
      <path id="Path_73877" data-name="Path 73877" d="M321.914,34.926l2.081-2.089h-1.831l-2.081,2.089Z" transform="translate(-300.626 -32.837)" fill="#c0272d"/>
      <path id="Path_73878" data-name="Path 73878" d="M97.181,309.3l-2.125,2.134v1.838l2.125-2.134Z" transform="translate(-95.056 -285.4)" fill="#c0272d"/>
      <path id="Path_73879" data-name="Path 73879" d="M97.181,360.381l-2.125,2.134v1.838l2.125-2.134Z" transform="translate(-95.056 -332.06)" fill="#c0272d"/>
      <path id="Path_73880" data-name="Path 73880" d="M106.875,411.461l-1.208,1.213h1.208Z" transform="translate(-104.75 -378.723)" fill="#c0272d"/>
    </g>
    <path id="Path_73881" data-name="Path 73881" d="M146.5,93.732a.447.447,0,0,1-.445.445h-27.6a.447.447,0,0,1-.445-.445V55.076a.447.447,0,0,1,.445-.445h27.6a.447.447,0,0,1,.445.445V93.732Z" transform="translate(-48.935 -49.907)" fill="#e9eaec"/>
    <path id="Path_73882" data-name="Path 73882" d="M199.352,216.538a.824.824,0,0,1-.657-.392l-3.473-6.439a.925.925,0,0,1,0-.784l3.473-6.439a.824.824,0,0,1,.657-.392h6.9a.824.824,0,0,1,.657.392l3.473,6.439a.925.925,0,0,1,0,.784l-3.473,6.439a.824.824,0,0,1-.657.392Z" transform="translate(-119.397 -184.618)" fill="#c0272d"/>
    <path id="Path_73883" data-name="Path 73883" d="M119.781,93.732V55.076a.447.447,0,0,1,.445-.445h-1.777a.447.447,0,0,0-.445.445V93.732a.447.447,0,0,0,.445.445h1.777A.447.447,0,0,1,119.781,93.732Z" transform="translate(-48.935 -49.907)" opacity="0.1"/>
    <path id="Path_73884" data-name="Path 73884" d="M249.186,216.128s-1.812-4.22-1.812-7.243a24.246,24.246,0,0,1,1.347-6.375.679.679,0,0,1,.595-.42h-6.74a.679.679,0,0,1,.595.42,24.248,24.248,0,0,1,1.347,6.375c0,3.023-1.812,7.243-1.812,7.243a.759.759,0,0,1-.343.392.612.612,0,0,0,.133.017h6.9a.609.609,0,0,0,.133-.017A.759.759,0,0,1,249.186,216.128Z" transform="translate(-162.542 -184.617)" fill="#005289"/>
    <rect id="Rectangle_139" data-name="Rectangle 139" width="4.764" height="1.297" transform="translate(81 23.577)" fill="#fff"/>
    <g id="Group_14940" data-name="Group 14940" transform="translate(78.795 17.474)">
      <path id="Path_73885" data-name="Path 73885" d="M231.516,216.52a.759.759,0,0,0,.343-.392s1.812-4.22,1.812-7.243a24.248,24.248,0,0,0-1.347-6.375.679.679,0,0,0-.595-.42h-.08a.824.824,0,0,0-.657.392l-.3.551a.941.941,0,0,0,.031.188,26.2,26.2,0,0,1,.973,5.643,28.34,28.34,0,0,1-1.209,6.349l.5.933A.834.834,0,0,0,231.516,216.52Z" transform="translate(-230.489 -202.091)" fill="#f8b816"/>
      <path id="Path_73886" data-name="Path 73886" d="M301.665,202.511a24.246,24.246,0,0,0-1.347,6.375c0,3.023,1.812,7.243,1.812,7.243a.759.759,0,0,0,.343.392.834.834,0,0,0,.522-.371l0,0,.564-1.045a30.693,30.693,0,0,1-1.136-6.23,25.937,25.937,0,0,1,.9-5.416,1.06,1.06,0,0,0,.031-.3l-.363-.673a.824.824,0,0,0-.657-.392h-.08A.679.679,0,0,0,301.665,202.511Z" transform="translate(-294.28 -202.092)" fill="#f8b816"/>
    </g>
    <path id="Path_73887" data-name="Path 73887" d="M252.645,203.158a1.423,1.423,0,0,0,2.739.551,1.426,1.426,0,1,0,2.265-1.617h-4.53A1.432,1.432,0,0,0,252.645,203.158Z" transform="translate(-171.935 -184.618)" fill="#fff"/>
    <path id="Path_73888" data-name="Path 73888" d="M246.461,116.5a1.34,1.34,0,0,1-1.336,1.336h-5.954a1.34,1.34,0,0,1-1.336-1.336v-6.156a1.34,1.34,0,0,1,1.336-1.336h5.954a1.34,1.34,0,0,1,1.336,1.336Z" transform="translate(-158.405 -99.585)" fill="#fed0a5"/>
    <path id="Path_73889" data-name="Path 73889" d="M214.044,107.73a2.151,2.151,0,0,0-.231.013.367.367,0,0,0-.325.365V114.1a1.131,1.131,0,0,0-.4-.073,1.147,1.147,0,0,0-1.144,1.151h.007a.37.37,0,0,0,0,.119,2.113,2.113,0,0,0,4.209-.29v-5.15A2.123,2.123,0,0,0,214.044,107.73Z" transform="translate(-134.755 -98.415)" fill="#8c6239"/>
    <path id="Path_73890" data-name="Path 73890" d="M216.345,85.372a.28.28,0,0,0-.278.413l1.082,2.673a.716.716,0,0,0,.612.413h8.258a.716.716,0,0,0,.612-.413l1.082-2.673a.28.28,0,0,0-.278-.413Z" transform="translate(-138.492 -77.99)" fill="#fecf05"/>
    <path id="Path_73891" data-name="Path 73891" d="M233.584,109.21l.454-1.122H223.647l.454,1.122a.716.716,0,0,0,.612.413h8.258A.716.716,0,0,0,233.584,109.21Z" transform="translate(-145.444 -98.742)" fill="#ee3835"/>
    <path id="Path_73892" data-name="Path 73892" d="M218.694,88.459l-1.082-2.673a.28.28,0,0,1,.278-.413h-1.547a.28.28,0,0,0-.278.413l1.082,2.673a.716.716,0,0,0,.612.413h1.547A.716.716,0,0,1,218.694,88.459Z" transform="translate(-138.491 -77.991)" opacity="0.1"/>
    <g id="Group_14941" data-name="Group 14941" transform="translate(82.313 12.488)">
      <path id="Path_73893" data-name="Path 73893" d="M285.5,147.569h.759a.648.648,0,0,0,.648-.648v-1.838a.648.648,0,1,0-1.3,0v1.189H285.5a.648.648,0,1,0,0,1.3Z" transform="translate(-283.666 -144.434)" fill="#8c6239"/>
      <path id="Path_73894" data-name="Path 73894" d="M281.04,182.688h-1.607a.648.648,0,0,0,0,1.3h1.607a.648.648,0,1,0,0-1.3Z" transform="translate(-278.128 -179.38)" fill="#8c6239"/>
      <path id="Path_73895" data-name="Path 73895" d="M272.479,146.818V146.1a.648.648,0,1,0-1.3,0v.721a.648.648,0,0,0,1.3,0Z" transform="translate(-271.182 -145.361)" fill="#8c6239"/>
      <path id="Path_73896" data-name="Path 73896" d="M311.861,145.449a.648.648,0,0,0-.648.648v.721a.648.648,0,0,0,1.3,0V146.1A.649.649,0,0,0,311.861,145.449Z" transform="translate(-307.751 -145.361)" fill="#8c6239"/>
    </g>
    <path id="Path_73897" data-name="Path 73897" d="M359.95,112.032v-9.225a1.608,1.608,0,0,0-.262-.805l-.606-.832a.306.306,0,0,0-.524,0l-.606.832a1.606,1.606,0,0,0-.262.805v9.225Z" transform="translate(-267.897 -92.286)" fill="#fff"/>
    <g id="Group_14942" data-name="Group 14942" transform="translate(89.793 8.735)" opacity="0.1">
      <path id="Path_73898" data-name="Path 73898" d="M358.785,112.032v-9.225a1.607,1.607,0,0,1,.262-.805l.321-.44-.285-.392a.306.306,0,0,0-.524,0l-.606.832a1.606,1.606,0,0,0-.262.805v9.225Z" transform="translate(-357.69 -101.021)"/>
    </g>
    <path id="Path_73899" data-name="Path 73899" d="M345.607,227.165a.447.447,0,0,1-.445.445h-4.368a.447.447,0,0,1-.445-.445v-.72a.447.447,0,0,1,.445-.445h4.368a.447.447,0,0,1,.445.445Z" transform="translate(-252.054 -206.459)" fill="#f8b816"/>
    <path id="Path_73900" data-name="Path 73900" d="M350.445,246.982a.893.893,0,0,1-.891.891h-2.379a.893.893,0,0,1-.891-.891v-2.709a.893.893,0,0,1,.891-.891h2.379a.893.893,0,0,1,.891.891Z" transform="translate(-257.477 -222.339)" fill="#fed0a5"/>
    <g id="Group_14943" data-name="Group 14943" transform="translate(88.807 22.106)">
      <path id="Path_73901" data-name="Path 73901" d="M348.282,255.663h-2v.865h2a.432.432,0,1,0,0-.865Z" transform="translate(-346.285 -255.663)" fill="#ebb272"/>
      <path id="Path_73902" data-name="Path 73902" d="M348.282,273.03h-2v.865h2a.432.432,0,1,0,0-.865Z" transform="translate(-346.285 -271.528)" fill="#ebb272"/>
    </g>
    <g id="Group_14944" data-name="Group 14944" transform="translate(70.755 6.412)">
      <path id="Path_73903" data-name="Path 73903" d="M141,77.956l-1.418-1.338,1.338-1.262a.648.648,0,0,0-.89-.943l-1.224,1.155v-.758a.648.648,0,1,0-1.3,0v3.619a.648.648,0,0,0,1.3,0v-.758l1.3,1.23a.648.648,0,1,0,.89-.943Z" transform="translate(-137.509 -74.16)" fill="#005289"/>
      <path id="Path_73904" data-name="Path 73904" d="M385.754,439.5a.648.648,0,0,0-.648.648v.758l-1.3-1.23a.648.648,0,0,0-.89.943l1.418,1.338-1.338,1.262a.648.648,0,1,0,.89.943L385.105,443v.758a.648.648,0,0,0,1.3,0v-3.618A.648.648,0,0,0,385.754,439.5Z" transform="translate(-361.507 -407.907)" fill="#005289"/>
    </g>
    <g id="Group_14945" data-name="Group 14945" transform="translate(70.224 12.124)">
      <path id="Path_73905" data-name="Path 73905" d="M135.783,142.213l-1.958-1.965a.1.1,0,0,0-.073-.031.1.1,0,0,0-.073.03l-1.891,1.9a1.2,1.2,0,0,0,.783,2.117,1.19,1.19,0,0,0,.529-.124v.744a.648.648,0,0,0,1.3,0v-.744a1.192,1.192,0,0,0,.529.124,1.205,1.205,0,0,0,.858-2.047Z" transform="translate(-131.37 -140.217)" fill="#0059ad"/>
      <path id="Path_73906" data-name="Path 73906" d="M380.125,370.137a1.19,1.19,0,0,0-.529.124v-.744a.648.648,0,0,0-1.3,0v.744a1.19,1.19,0,0,0-.529-.124,1.205,1.205,0,0,0-.858,2.047l1.957,1.965a.1.1,0,0,0,.146,0l1.892-1.9a1.2,1.2,0,0,0-.783-2.117Z" transform="translate(-355.369 -349.099)" fill="#0059ad"/>
    </g>
    <path id="Path_73907" data-name="Path 73907" d="M257.766,326.812a1.423,1.423,0,0,0-2.739-.551,1.426,1.426,0,1,0-2.265,1.617h4.53A1.432,1.432,0,0,0,257.766,326.812Z" transform="translate(-171.609 -297.245)" fill="#fff"/>
    <path id="Path_73908" data-name="Path 73908" d="M230.685,346.593a1.34,1.34,0,0,1,1.336-1.336h5.954a1.34,1.34,0,0,1,1.336,1.336v6.156a1.34,1.34,0,0,1-1.336,1.336h-5.954a1.34,1.34,0,0,1-1.336-1.336Z" transform="translate(-151.873 -315.405)" fill="#fed0a5"/>
    <path id="Path_73909" data-name="Path 73909" d="M309.744,349.277a2.152,2.152,0,0,0,.231-.013.367.367,0,0,0,.325-.365v-5.993a1.131,1.131,0,0,0,.4.073,1.147,1.147,0,0,0,1.144-1.151h-.007a.371.371,0,0,0,0-.119,2.113,2.113,0,0,0-4.209.29v5.15A2.123,2.123,0,0,0,309.744,349.277Z" transform="translate(-222.165 -310.485)" fill="#8c6239"/>
    <path id="Path_73910" data-name="Path 73910" d="M228.254,434.037a.28.28,0,0,0,.278-.413l-1.082-2.673a.716.716,0,0,0-.612-.413h-8.258a.716.716,0,0,0-.612.413l-1.082,2.673a.28.28,0,0,0,.278.413Z" transform="translate(-139.239 -393.312)" fill="#fecf05"/>
    <path id="Path_73911" data-name="Path 73911" d="M224.919,430.95l-.454,1.122h10.391l-.454-1.122a.716.716,0,0,0-.612-.413h-8.258A.715.715,0,0,0,224.919,430.95Z" transform="translate(-146.191 -393.311)" fill="#ee3835"/>
    <path id="Path_73912" data-name="Path 73912" d="M315.031,430.95l1.082,2.673a.28.28,0,0,1-.278.413h1.547a.28.28,0,0,0,.278-.413l-1.082-2.673a.716.716,0,0,0-.612-.413h-1.547A.716.716,0,0,1,315.031,430.95Z" transform="translate(-228.367 -393.311)" opacity="0.1"/>
    <g id="Group_14946" data-name="Group 14946" transform="translate(79.796 31.014)">
      <path id="Path_73913" data-name="Path 73913" d="M261.067,375.686h-.759a.648.648,0,0,0-.648.648v1.838a.648.648,0,1,0,1.3,0v-1.189h.111a.648.648,0,1,0,0-1.3Z" transform="translate(-258.139 -374.216)" fill="#8c6239"/>
      <path id="Path_73914" data-name="Path 73914" d="M256.569,359.982h1.607a.648.648,0,0,0,0-1.3h-1.607a.648.648,0,1,0,0,1.3Z" transform="translate(-254.724 -358.685)" fill="#8c6239"/>
      <path id="Path_73915" data-name="Path 73915" d="M282.105,388.234v.721a.648.648,0,0,0,1.3,0v-.721a.648.648,0,1,0-1.3,0Z" transform="translate(-278.644 -385.086)" fill="#8c6239"/>
      <path id="Path_73916" data-name="Path 73916" d="M242.724,389.6a.648.648,0,0,0,.648-.648v-.721a.648.648,0,1,0-1.3,0v.721A.649.649,0,0,0,242.724,389.6Z" transform="translate(-242.076 -385.086)" fill="#8c6239"/>
    </g>
    <path id="Path_73917" data-name="Path 73917" d="M184.465,328v9.225a1.607,1.607,0,0,0,.262.805l.606.832a.305.305,0,0,0,.524,0l.606-.832a1.606,1.606,0,0,0,.262-.805V328Z" transform="translate(-109.65 -299.641)" fill="#fff"/>
    <g id="Group_14947" data-name="Group 14947" transform="translate(75.398 28.361)" opacity="0.1">
      <path id="Path_73918" data-name="Path 73918" d="M191.784,328v9.225a1.606,1.606,0,0,1-.262.805l-.32.44.285.392a.305.305,0,0,0,.524,0l.606-.832a1.606,1.606,0,0,0,.262-.805V328Z" transform="translate(-191.201 -328.001)"/>
    </g>
    <path id="Path_73919" data-name="Path 73919" d="M167.121,312.189a.447.447,0,0,1,.445-.445h4.368a.447.447,0,0,1,.445.445v.72a.447.447,0,0,1-.445.445h-4.368a.447.447,0,0,1-.445-.445Z" transform="translate(-93.805 -284.789)" fill="#f8b816"/>
    <path id="Path_73920" data-name="Path 73920" d="M173.881,261.951a.893.893,0,0,1,.891-.891h2.379a.893.893,0,0,1,.891.891v2.709a.893.893,0,0,1-.891.891h-2.379a.893.893,0,0,1-.891-.891v-2.709Z" transform="translate(-99.981 -238.488)" fill="#fed0a5"/>
    <g id="Group_14948" data-name="Group 14948" transform="translate(75.631 23.634)">
      <path id="Path_73921" data-name="Path 73921" d="M194.334,291.574h2v-.865h-2a.432.432,0,1,0,0,.865Z" transform="translate(-193.902 -289.207)" fill="#ebb272"/>
      <path id="Path_73922" data-name="Path 73922" d="M194.334,274.207h2v-.865h-2a.432.432,0,1,0,0,.865Z" transform="translate(-193.902 -273.342)" fill="#ebb272"/>
    </g>
  </g>
</svg>
