<svg xmlns="http://www.w3.org/2000/svg" width="35.13" height="46.092" viewBox="0 0 35.13 46.092">
  <g id="horse" transform="translate(-54.226 0)">
    <g id="Group_15009" data-name="Group 15009" transform="translate(55.074 0.754)">
      <path id="Path_73947" data-name="Path 73947" d="M94.028,12.516A16.171,16.171,0,0,0,82.5,7.462a17.384,17.384,0,0,0-5.272.857l-1.617.526,1.3.809a4.358,4.358,0,0,0-1.6-.5h-.226l-.21.1A28.486,28.486,0,0,0,70.021,12.1c-.429.307-.849.639-1.334,1.051l-1.569,1.334,2.062.089H68.7a11.576,11.576,0,0,0-1.3.073h-.3l-.2.226a16.488,16.488,0,0,0-3.4,5.814L63.019,22.1l1.189-.307a2.425,2.425,0,0,0-1.124.728l-.121.154v.194a20.363,20.363,0,0,0-.162,6.42L63,30.9l1.108-1.172.081-.073a6.688,6.688,0,0,0-.962,1.148l-.186.283.073.332a25.615,25.615,0,0,0,1.771,5.321l.089.194,4.5,3.154-.485-2.07a20.6,20.6,0,0,1,.388-9.792c3.234-12.582,15.21-15.832,15.363-15.865l4.746,3.889,5.232-2.984Z" transform="translate(-62.62 -7.462)" fill="#cc9640"/>
      <path id="Path_73948" data-name="Path 73948" d="M101.284,407.862H127.66v4.027H101.284Z" transform="translate(-97.376 -367.392)" fill="#cc9640"/>
    </g>
    <g id="Group_15010" data-name="Group 15010" transform="translate(61.026 5.67)">
      <path id="Path_73949" data-name="Path 73949" d="M125.284,368.022H146.8v4.027H125.284Z" transform="translate(-124.902 -336.495)" fill="#ffcf70"/>
      <path id="Path_73950" data-name="Path 73950" d="M136.016,69.29l3.889,1.4.429,4.2,5.507,2.482,3.234-5.393-.259-.42c-2.62-4.229-5.66-9.428-6.364-11.32l-.073-.21L137.625,56.1l-.42.137c-1.981.631-12.008,4.374-14.9,15.743-2.547,9.994,1.771,14.611,2.66,15.436l.234.218h15.687l.234-.388c.663-1.092,2.07-3.841.72-5.87-1.172-1.771-6.7-9.638-8.369-12l-.049-.073,1.819-4.2Z" transform="translate(-121.509 -56.102)" fill="#ffcf70"/>
    </g>
    <path id="Path_73951" data-name="Path 73951" d="M82.9,9.924,87.55,7.28a.809.809,0,0,0,.243-1.2,17.231,17.231,0,0,0-20.5-4.431l-.137.065A28.549,28.549,0,0,0,62,4.7c-8.183,5.895-8.417,14.094-7.277,19.689a.809.809,0,0,0,.081.388,25.876,25.876,0,0,0,1.957,5.854.809.809,0,0,0,.251.291l4.56,3.234a11.91,11.91,0,0,0,1.342,2.232h-1.5a.809.809,0,0,0-.809.809v3.234H58.982a.809.809,0,0,0-.809.809v4.043a.809.809,0,0,0,.809.809H85.359a.809.809,0,0,0,.809-.809V41.24a.809.809,0,0,0-.809-.809H83.741V37.2a.809.809,0,0,0-.809-.809H81.8c.736-1.464,1.552-3.905.234-5.895-1.2-1.811-6.865-9.9-8.175-11.725l.582-1.342.291,1.617a.809.809,0,0,0,.517.615l3.4,1.229.429,3.655a.809.809,0,0,0,.469.655l5.507,2.482a.805.805,0,0,0,.186.049h.089a.532.532,0,0,0,.5-.146,9.9,9.9,0,0,1,.178-.21l3.234-5.393a.809.809,0,0,0,0-.809c-1.472-2.458-5.272-8.717-6.347-11.248ZM61.068,21.349a21.216,21.216,0,0,0-.388,10.172L58.06,29.71a24.771,24.771,0,0,1-1.706-5.143,3.7,3.7,0,0,1,2.151-1.722.814.814,0,1,0-.186-1.617A4.084,4.084,0,0,0,56,22.457a19.59,19.59,0,0,1,.154-6.161c.057-.073.809-.946,2.951-.485a.826.826,0,0,0,.34-1.617,5.886,5.886,0,0,0-2.749,0,15.622,15.622,0,0,1,3.234-5.531,8.482,8.482,0,0,1,3.914.388.811.811,0,1,0,.647-1.488,8.086,8.086,0,0,0-2.838-.582A13.926,13.926,0,0,1,62.936,5.97,27.5,27.5,0,0,1,67.658,3.2a2.951,2.951,0,0,1,2.1,1.221.809.809,0,1,0,1.367-.865,3.881,3.881,0,0,0-1.2-1.2,15.145,15.145,0,0,1,15.97,4L81.979,8.589,77.661,5.056a.809.809,0,0,0-.712-.162c-.121.032-12.566,3.323-15.905,16.455h.024ZM84.55,42.033v2.426H59.791V42.033ZM82.124,37.99v2.426H62.217V37.99H82.124Zm3.428-13.01-.9-2.887a.809.809,0,1,0-1.544.485l.938,2.871L80.6,23.912l-.388-3.736a.809.809,0,0,0-.534-.679L76.23,18.252l-.687-3.744a.809.809,0,0,0-1.536-.178l-1.819,4.2a.809.809,0,0,0,.081.809c.073.1,7.091,10.067,8.409,12.056,1.1,1.666-.194,4.116-.736,5.005h-14.9c-.922-.857-4.852-5.151-2.426-14.644C65.394,10.845,74.944,7.207,76.973,6.592l4.237,3.469c.914,2.531,5.3,9.7,6.469,11.514Z" fill="#35231a"/>
  </g>
</svg>
