<svg xmlns="http://www.w3.org/2000/svg" width="42.124" height="50.723" viewBox="0 0 42.124 50.723">
  <g id="Group_16525" data-name="Group 16525" transform="translate(-1397.687 -951.639)">
    <g id="Group_14958" data-name="Group 14958" transform="translate(1397.687 951.639)">
      <g id="Group_14955" data-name="Group 14955" transform="translate(0 0)">
        <rect id="Rectangle_140" data-name="Rectangle 140" width="19.329" height="23.624" fill="#9f9f9f"/>
      </g>
      <g id="Group_14957" data-name="Group 14957" transform="translate(0 0)">
        <g id="Group_14956" data-name="Group 14956" opacity="0.6">
          <rect id="Rectangle_141" data-name="Rectangle 141" width="19.329" height="23.624" fill="#9f9f9f"/>
        </g>
      </g>
    </g>
    <g id="Group_14962" data-name="Group 14962" transform="translate(1420.482 951.639)">
      <g id="Group_14959" data-name="Group 14959" transform="translate(0 0)">
        <rect id="Rectangle_142" data-name="Rectangle 142" width="19.329" height="23.624" fill="#9f9f9f"/>
      </g>
      <g id="Group_14961" data-name="Group 14961" transform="translate(0 0)">
        <g id="Group_14960" data-name="Group 14960" opacity="0.6">
          <rect id="Rectangle_143" data-name="Rectangle 143" width="19.329" height="23.624" fill="#9f9f9f"/>
        </g>
      </g>
    </g>
    <g id="Group_14966" data-name="Group 14966" transform="translate(1409.151 978.737)">
      <g id="Group_14963" data-name="Group 14963" transform="translate(0 0)">
        <rect id="Rectangle_144" data-name="Rectangle 144" width="19.329" height="23.624" fill="#9f9f9f"/>
      </g>
      <g id="Group_14965" data-name="Group 14965" transform="translate(0 0)">
        <g id="Group_14964" data-name="Group 14964" opacity="0.6">
          <rect id="Rectangle_145" data-name="Rectangle 145" width="19.329" height="23.624" fill="#9f9f9f"/>
        </g>
      </g>
    </g>
    <g id="Group_14972" data-name="Group 14972" transform="translate(1402.923 955.137)">
      <g id="Group_14968" data-name="Group 14968" transform="translate(0 0)">
        <g id="Group_14967" data-name="Group 14967">
          <path id="Path_73941" data-name="Path 73941" d="M1371.424,134.94a4.242,4.242,0,0,1-3.533-1.486,6.023,6.023,0,0,1-1.183-3.867,5.435,5.435,0,0,1,1.385-3.922,5.549,5.549,0,0,1,6.91-.451l-1.167,2.054a3.056,3.056,0,0,0-1.992-.685,2.444,2.444,0,0,0-1.7.661,2.2,2.2,0,0,0-.724,1.7v.125a2.781,2.781,0,0,1,1.082-.856,3.4,3.4,0,0,1,1.47-.327,3.753,3.753,0,0,1,2.545.91,3.133,3.133,0,0,1,1.05,2.5,3.323,3.323,0,0,1-1.167,2.622A4.355,4.355,0,0,1,1371.424,134.94Zm-.171-2.366a1.788,1.788,0,0,0,1.159-.358,1.043,1.043,0,0,0,.443-.825,1.012,1.012,0,0,0-.506-.918,2.226,2.226,0,0,0-1.191-.311,2.333,2.333,0,0,0-1.743.7,2.01,2.01,0,0,0,.514,1.214A1.694,1.694,0,0,0,1371.253,132.575Z" transform="translate(-1366.708 -124.217)" fill="#de2f3a"/>
        </g>
      </g>
      <g id="Group_14971" data-name="Group 14971" transform="translate(0 0)">
        <g id="Group_14970" data-name="Group 14970" opacity="0.23">
          <g id="Group_14969" data-name="Group 14969">
            <path id="Path_73942" data-name="Path 73942" d="M1371.424,134.94a4.242,4.242,0,0,1-3.533-1.486,6.023,6.023,0,0,1-1.183-3.867,5.435,5.435,0,0,1,1.385-3.922,5.549,5.549,0,0,1,6.91-.451l-1.167,2.054a3.056,3.056,0,0,0-1.992-.685,2.444,2.444,0,0,0-1.7.661,2.2,2.2,0,0,0-.724,1.7v.125a2.781,2.781,0,0,1,1.082-.856,3.4,3.4,0,0,1,1.47-.327,3.753,3.753,0,0,1,2.545.91,3.133,3.133,0,0,1,1.05,2.5,3.323,3.323,0,0,1-1.167,2.622A4.355,4.355,0,0,1,1371.424,134.94Zm-.171-2.366a1.788,1.788,0,0,0,1.159-.358,1.043,1.043,0,0,0,.443-.825,1.012,1.012,0,0,0-.506-.918,2.226,2.226,0,0,0-1.191-.311,2.333,2.333,0,0,0-1.743.7,2.01,2.01,0,0,0,.514,1.214A1.694,1.694,0,0,0,1371.253,132.575Z" transform="translate(-1366.708 -124.217)" fill="#070707"/>
          </g>
        </g>
      </g>
    </g>
    <g id="Group_14976" data-name="Group 14976" transform="translate(1405.631 968.525)">
      <g id="Group_14973" data-name="Group 14973" transform="translate(0 0)">
        <ellipse id="Ellipse_1196" data-name="Ellipse 1196" cx="1.72" cy="1.72" rx="1.72" ry="1.72" fill="#ecf7fd"/>
      </g>
      <g id="Group_14975" data-name="Group 14975" transform="translate(0 0)">
        <g id="Group_14974" data-name="Group 14974" opacity="0.23">
          <ellipse id="Ellipse_1197" data-name="Ellipse 1197" cx="1.72" cy="1.72" rx="1.72" ry="1.72" fill="#070707"/>
        </g>
      </g>
    </g>
    <g id="Group_14980" data-name="Group 14980" transform="translate(1406.327 969.221)">
      <g id="Group_14977" data-name="Group 14977" transform="translate(0 0)">
        <circle id="Ellipse_1198" data-name="Ellipse 1198" cx="1.024" cy="1.024" r="1.024" fill="#de2f3a"/>
      </g>
      <g id="Group_14979" data-name="Group 14979" transform="translate(0 0)">
        <g id="Group_14978" data-name="Group 14978" opacity="0.23">
          <circle id="Ellipse_1199" data-name="Ellipse 1199" cx="1.024" cy="1.024" r="1.024" fill="#070707"/>
        </g>
      </g>
    </g>
    <g id="Group_14984" data-name="Group 14984" transform="translate(1428.427 968.525)">
      <g id="Group_14981" data-name="Group 14981" transform="translate(0 0)">
        <ellipse id="Ellipse_1200" data-name="Ellipse 1200" cx="1.72" cy="1.72" rx="1.72" ry="1.72" fill="#ecf7fd"/>
      </g>
      <g id="Group_14983" data-name="Group 14983" transform="translate(0 0)">
        <g id="Group_14982" data-name="Group 14982" opacity="0.23">
          <ellipse id="Ellipse_1201" data-name="Ellipse 1201" cx="1.72" cy="1.72" rx="1.72" ry="1.72" fill="#070707"/>
        </g>
      </g>
    </g>
    <g id="Group_14988" data-name="Group 14988" transform="translate(1417.096 995.623)">
      <g id="Group_14985" data-name="Group 14985" transform="translate(0 0)">
        <ellipse id="Ellipse_1202" data-name="Ellipse 1202" cx="1.72" cy="1.72" rx="1.72" ry="1.72" fill="#ecf7fd"/>
      </g>
      <g id="Group_14987" data-name="Group 14987" transform="translate(0 0)">
        <g id="Group_14986" data-name="Group 14986" opacity="0.23">
          <ellipse id="Ellipse_1203" data-name="Ellipse 1203" cx="1.72" cy="1.72" rx="1.72" ry="1.72" fill="#070707"/>
        </g>
      </g>
    </g>
    <g id="Group_14992" data-name="Group 14992" transform="translate(1429.123 969.221)">
      <g id="Group_14989" data-name="Group 14989" transform="translate(0 0)">
        <circle id="Ellipse_1204" data-name="Ellipse 1204" cx="1.024" cy="1.024" r="1.024" fill="#de2f3a"/>
      </g>
      <g id="Group_14991" data-name="Group 14991" transform="translate(0 0)">
        <g id="Group_14990" data-name="Group 14990" opacity="0.23">
          <circle id="Ellipse_1205" data-name="Ellipse 1205" cx="1.024" cy="1.024" r="1.024" fill="#070707"/>
        </g>
      </g>
    </g>
    <g id="Group_14996" data-name="Group 14996" transform="translate(1417.792 996.319)">
      <g id="Group_14993" data-name="Group 14993" transform="translate(0 0)">
        <circle id="Ellipse_1206" data-name="Ellipse 1206" cx="1.024" cy="1.024" r="1.024" fill="#de2f3a"/>
      </g>
      <g id="Group_14995" data-name="Group 14995" transform="translate(0 0)">
        <g id="Group_14994" data-name="Group 14994" opacity="0.23">
          <circle id="Ellipse_1207" data-name="Ellipse 1207" cx="1.024" cy="1.024" r="1.024" fill="#070707"/>
        </g>
      </g>
    </g>
    <g id="Group_15002" data-name="Group 15002" transform="translate(1425.931 955.109)">
      <g id="Group_14998" data-name="Group 14998" transform="translate(0 0)">
        <g id="Group_14997" data-name="Group 14997">
          <path id="Path_73943" data-name="Path 73943" d="M1502.806,134.809h-3.046l3.643-8.333h-5.238v-2.418h8.429v1.918Z" transform="translate(-1498.164 -124.059)" fill="#de2f3a"/>
        </g>
      </g>
      <g id="Group_15001" data-name="Group 15001" transform="translate(0 0)">
        <g id="Group_15000" data-name="Group 15000" opacity="0.23">
          <g id="Group_14999" data-name="Group 14999">
            <path id="Path_73944" data-name="Path 73944" d="M1502.806,134.809h-3.046l3.643-8.333h-5.238v-2.418h8.429v1.918Z" transform="translate(-1498.164 -124.059)" fill="#070707"/>
          </g>
        </g>
      </g>
    </g>
    <g id="Group_15008" data-name="Group 15008" transform="translate(1414.419 982.234)">
      <g id="Group_15004" data-name="Group 15004" transform="translate(0 0)">
        <g id="Group_15003" data-name="Group 15003">
          <path id="Path_73945" data-name="Path 73945" d="M1631.752,134.94a6.109,6.109,0,0,1-3.121-.747,2.443,2.443,0,0,1-.7-3.735,3.618,3.618,0,0,1,1.517-1.058,2.524,2.524,0,0,1-1.93-2.412,2.244,2.244,0,0,1,.366-1.268,2.56,2.56,0,0,1,.988-.872,5.435,5.435,0,0,1,1.354-.475,7.313,7.313,0,0,1,1.525-.156,7.234,7.234,0,0,1,2.008.265,3.628,3.628,0,0,1,1.572.91,2.154,2.154,0,0,1,.654,1.6,2.545,2.545,0,0,1-1.945,2.412,3.617,3.617,0,0,1,1.517,1.058,2.373,2.373,0,0,1,.583,1.556,2.319,2.319,0,0,1-.646,1.649,3.629,3.629,0,0,1-1.611.981A7.261,7.261,0,0,1,1631.752,134.94Zm0-2.226a2.345,2.345,0,0,0,1.206-.28.775.775,0,0,0-.07-1.455,3.361,3.361,0,0,0-1.136-.366,3.294,3.294,0,0,0-1.144.366.78.78,0,0,0-.07,1.455A2.337,2.337,0,0,0,1631.752,132.715Zm0-4.358a2.89,2.89,0,0,0,1.035-.335.747.747,0,0,0,.459-.646.767.767,0,0,0-.413-.685,2.075,2.075,0,0,0-1.082-.249,2.108,2.108,0,0,0-1.1.249.766.766,0,0,0-.413.685.747.747,0,0,0,.467.646A2.963,2.963,0,0,0,1631.752,128.357Z" transform="translate(-1627.348 -124.217)" fill="#de2f3a"/>
        </g>
      </g>
      <g id="Group_15007" data-name="Group 15007" transform="translate(0 0)">
        <g id="Group_15006" data-name="Group 15006" opacity="0.23">
          <g id="Group_15005" data-name="Group 15005">
            <path id="Path_73946" data-name="Path 73946" d="M1631.752,134.94a6.109,6.109,0,0,1-3.121-.747,2.443,2.443,0,0,1-.7-3.735,3.618,3.618,0,0,1,1.517-1.058,2.524,2.524,0,0,1-1.93-2.412,2.244,2.244,0,0,1,.366-1.268,2.56,2.56,0,0,1,.988-.872,5.435,5.435,0,0,1,1.354-.475,7.313,7.313,0,0,1,1.525-.156,7.234,7.234,0,0,1,2.008.265,3.628,3.628,0,0,1,1.572.91,2.154,2.154,0,0,1,.654,1.6,2.545,2.545,0,0,1-1.945,2.412,3.617,3.617,0,0,1,1.517,1.058,2.373,2.373,0,0,1,.583,1.556,2.319,2.319,0,0,1-.646,1.649,3.629,3.629,0,0,1-1.611.981A7.261,7.261,0,0,1,1631.752,134.94Zm0-2.226a2.345,2.345,0,0,0,1.206-.28.775.775,0,0,0-.07-1.455,3.361,3.361,0,0,0-1.136-.366,3.294,3.294,0,0,0-1.144.366.78.78,0,0,0-.07,1.455A2.337,2.337,0,0,0,1631.752,132.715Zm0-4.358a2.89,2.89,0,0,0,1.035-.335.747.747,0,0,0,.459-.646.767.767,0,0,0-.413-.685,2.075,2.075,0,0,0-1.082-.249,2.108,2.108,0,0,0-1.1.249.766.766,0,0,0-.413.685.747.747,0,0,0,.467.646A2.963,2.963,0,0,0,1631.752,128.357Z" transform="translate(-1627.348 -124.217)" fill="#070707"/>
          </g>
        </g>
      </g>
    </g>
  </g>
</svg>
