<svg xmlns="http://www.w3.org/2000/svg" width="43.004" height="43.004" viewBox="0 0 43.004 43.004">
  <g id="suit" transform="translate(0 0)">
    <path id="Path_73923" data-name="Path 73923" d="M167.752.694l-6.137,7.78a1.825,1.825,0,0,0,0,2.26l6.137,7.78a1.823,1.823,0,0,0,2.863,0l6.137-7.78a1.825,1.825,0,0,0,0-2.26L170.615.694A1.823,1.823,0,0,0,167.752.694Z" transform="translate(-147.681 0)" fill="#ff5368"/>
    <path id="Path_73924" data-name="Path 73924" d="M239.4.694a1.823,1.823,0,0,0-2.863,0l-.222.281L241.859,8a2.6,2.6,0,0,1,0,3.215l-5.539,7.022.222.281a1.823,1.823,0,0,0,2.863,0l6.137-7.78a1.825,1.825,0,0,0,0-2.26Z" transform="translate(-216.471 0)" fill="#c5324f"/>
    <path id="Path_73925" data-name="Path 73925" d="M13.583,148.288a4.974,4.974,0,0,0-9.948.025,4.975,4.975,0,1,0,4.195,8.865H9.476a4.975,4.975,0,1,0,4.107-8.889Z" transform="translate(0 -131.343)" fill="#6c7a88"/>
    <path id="Path_73926" data-name="Path 73926" d="M17.081,151.5h0a4.985,4.985,0,0,0-3.459-3.214,4.975,4.975,0,0,0-4.974-4.9,3.964,3.964,0,0,0,1.5,3.132,2.378,2.378,0,0,1,.88,1.808h0a2.6,2.6,0,0,0,1.944,2.475,2.378,2.378,0,0,1,1.779,2.3,1.7,1.7,0,0,1-1.354,1.668,4.988,4.988,0,0,1-1.026.106c-2.029,0-2.17-.9-3.739-.9a2.787,2.787,0,0,0-1.3.33,4.983,4.983,0,0,1-6.256-1.364.573.573,0,0,0-1.029.371c0,.017,0,.035,0,.052a4.974,4.974,0,0,0,7.823,3.812l-1.669,2.2a.952.952,0,0,0,.747,1.542h3.489a.952.952,0,0,0,.747-1.542l-1.669-2.2a4.969,4.969,0,0,0,7.1-1.478h0A4.981,4.981,0,0,0,17.081,151.5Z" transform="translate(-0.04 -131.344)" fill="#35404a"/>
    <path id="Path_73927" data-name="Path 73927" d="M164.809,336.5a4.948,4.948,0,0,0-7.321-.139,4.948,4.948,0,0,0-7.321.139,5.539,5.539,0,0,0,.215,7.439l4.409,4.591a3.708,3.708,0,0,0,5.394,0l4.409-4.591A5.539,5.539,0,0,0,164.809,336.5Z" transform="translate(-136.334 -306.688)" fill="#ff5368"/>
    <path id="Path_73928" data-name="Path 73928" d="M210.878,342.248a5.105,5.105,0,0,0-1.512-1.163,5.6,5.6,0,0,1-.967,6.338l-4.409,4.591a3.7,3.7,0,0,1-4.862.461l1.732,1.8a3.708,3.708,0,0,0,5.394,0l4.409-4.591A5.539,5.539,0,0,0,210.878,342.248Z" transform="translate(-182.403 -312.437)" fill="#c5324f"/>
    <path id="Path_73929" data-name="Path 73929" d="M307.3,156.426a4.987,4.987,0,0,0,7.321.137,4.987,4.987,0,0,0,7.321-.137,5.427,5.427,0,0,0-.215-7.353l-4.409-4.537a3.739,3.739,0,0,0-5.394,0l-4.409,4.537A5.427,5.427,0,0,0,307.3,156.426Z" transform="translate(-280.265 -131.343)" fill="#6c7a88"/>
    <path id="Path_73930" data-name="Path 73930" d="M322.388,149.265l-4.409-4.537a3.754,3.754,0,0,0-2.337-1.132,2.6,2.6,0,0,0,.475,2.941l4.409,4.537q.045.047.088.095a2.373,2.373,0,0,1-1.872,3.915,4.965,4.965,0,0,1-2.189-.575,2.708,2.708,0,0,0-2.532-.006,4.984,4.984,0,0,1-6.061-1.087l-.015-.017a.715.715,0,0,0-1.245.579,5.146,5.146,0,0,0,1.261,2.639,4.983,4.983,0,0,0,6.521.809l-1.691,2.143a.952.952,0,0,0,.747,1.542h3.489a.952.952,0,0,0,.747-1.542l-1.691-2.143a4.985,4.985,0,0,0,6.52-.808A5.43,5.43,0,0,0,322.388,149.265Z" transform="translate(-280.931 -131.535)" fill="#35404a"/>
  </g>
</svg>
