<svg xmlns="http://www.w3.org/2000/svg" width="272.594" height="345.539" viewBox="0 0 272.594 345.539">
  <g id="Group_13780" data-name="Group 13780" transform="translate(-697.973 -458.955)">
    <path id="Path_72630" data-name="Path 72630" d="M874.4,568.586c-.012.723-.012,1.433-.048,2.156,0,.325-.024.662-.036.988A358.791,358.791,0,0,0,863.195,617.7a169.184,169.184,0,0,0-5.48,35.855c-.12,2.373-.193,4.806-.217,7.275a129.817,129.817,0,0,0,1.325,22.619c1.168,17.343,4.709,34.325,11.972,48.935,0,0,.157.747.373,1.951q.434,3.631.626,7.287c.048.9.084,1.819.108,2.722.036,1.578.06,3.156.036,4.733l-.019.935-.463.222c-1.291.534-2.271.936-3.532,1.537-.029.013.026-.013,0,0-15.838,5.745-32.082,7.544-46.607,7.315-.169.012-.337,0-.518,0a176.532,176.532,0,0,1-46.526-7.287.171.171,0,0,1-.072-.024c-3.035-.915-4.709-1.542-4.709-1.542-.012-.048-.036-.1-.048-.145a18.422,18.422,0,0,1,0-5.311c.1-1.012.217-2.084.361-3.156.373-2.854.867-5.709,1.18-7.479v-.012c.193-1.084.325-1.746.325-1.746,7.275-14.609,10.8-31.591,11.984-48.935,1.566-22.86-.952-46.345-4.4-65.869,0-.012,0-.012-.012-.024a359.359,359.359,0,0,0-11.081-45.827c-.06-.193-.1-.289-.1-.289l.06-.7,1.662-20.668,3.987-49.3c1.313-.566,2.626-1.108,3.914-1.614a.16.16,0,0,1,.084-.036,119.484,119.484,0,0,1,43.647-8.648,107.411,107.411,0,0,1,43.635,8.648.4.4,0,0,1,.072.036c2.168.976,3.3,1.614,3.3,1.614l4.613,49.3Z" transform="translate(14.254 6.443)" fill="#dedede"/>
    <path id="Path_72631" data-name="Path 72631" d="M771.814,562.707l4.086-57.945s44.314-21.768,88.94-.181l5.61,58.126S821.239,543.773,771.814,562.707Z" transform="translate(15.093 7.374)" fill="orange"/>
    <path id="Path_72632" data-name="Path 72632" d="M867.622,712.716c-.024.012-.048.012-.072.024-15.838,5.745-32,7.515-46.526,7.287-.169.012-.337,0-.518,0a176.535,176.535,0,0,1-46.526-7.287.172.172,0,0,1-.072-.024c-3.035-.915-4.709-1.542-4.709-1.542-.012-.048-.036-.1-.048-.144v31.1H871.608V711.175C870.284,711.716,868.959,712.234,867.622,712.716Zm-74.89,23.028h-10.3a5.083,5.083,0,0,1,0-10.165h10.3Zm66.35,0h-10.3V725.579h10.3a5.083,5.083,0,0,1,0,10.165Z" transform="translate(14.549 51.524)" fill="#dedede"/>
    <path id="Path_72633" data-name="Path 72633" d="M781.043,723.11h10.3v10.165h-10.3a5.083,5.083,0,0,1,0-10.165Z" transform="translate(15.941 53.994)" fill="#dedede"/>
    <path id="Path_72634" data-name="Path 72634" d="M850.65,728.193a5.084,5.084,0,0,1-5.083,5.083h-10.3V723.11h10.3A5.084,5.084,0,0,1,850.65,728.193Z" transform="translate(28.064 53.994)" fill="#dedede"/>
    <path id="Path_72635" data-name="Path 72635" d="M850.65,728.193a5.084,5.084,0,0,1-5.083,5.083h-10.3V723.11h10.3A5.084,5.084,0,0,1,850.65,728.193Z" transform="translate(28.064 53.994)" fill="#fff"/>
    <path id="Path_72636" data-name="Path 72636" d="M791.34,723.11v10.165h-10.3a5.083,5.083,0,0,1,0-10.165Z" transform="translate(15.941 53.994)" fill="#fff"/>
    <path id="Rectangle_4258" data-name="Rectangle 4258" d="M7.259,0h7.428a7.259,7.259,0,0,1,7.259,7.259V8.743a0,0,0,0,1,0,0H0a0,0,0,0,1,0,0V7.259A7.259,7.259,0,0,1,7.259,0Z" transform="translate(876.078 804.494) rotate(180)" fill="#dedede"/>
    <path id="Rectangle_4259" data-name="Rectangle 4259" d="M7.259,0h7.428a7.259,7.259,0,0,1,7.259,7.259V8.743a0,0,0,0,1,0,0H0a0,0,0,0,1,0,0V7.259A7.259,7.259,0,0,1,7.259,0Z" transform="translate(815.323 804.494) rotate(180)" fill="#dedede"/>
    <path id="Path_72637" data-name="Path 72637" d="M774.055,497.368c.024-.012.048-.012.072-.024,15.838-5.745,32-7.515,46.526-7.287.169-.012.337,0,.518,0a176.535,176.535,0,0,1,46.526,7.287.172.172,0,0,1,.072.024c3.035.915,4.709,1.542,4.709,1.542.012.048.036.1.048.144v-26.34a4.757,4.757,0,0,0-4.757-4.757H774.825a4.758,4.758,0,0,0-4.757,4.757v26.2C771.393,498.368,772.718,497.85,774.055,497.368Zm74.89-23.028h10.078a5.231,5.231,0,0,1,5.278,4.583,5.084,5.084,0,0,1-5.058,5.582h-10.3Zm-66.13,0h10.077v10.165h-10.3a5.084,5.084,0,0,1-5.059-5.582A5.232,5.232,0,0,1,782.814,474.34Z" transform="translate(14.736 1.84)" fill="#dedede"/>
    <path id="Path_72638" data-name="Path 72638" d="M845.856,483.422h-10.3V473.257h10.3a5.083,5.083,0,0,1,0,10.165Z" transform="translate(28.122 2.923)" fill="#dedede"/>
    <path id="Path_72639" data-name="Path 72639" d="M776.248,478.34a5.084,5.084,0,0,1,5.083-5.083h10.3v10.165h-10.3A5.084,5.084,0,0,1,776.248,478.34Z" transform="translate(15.999 2.923)" fill="#dedede"/>
    <path id="Path_72640" data-name="Path 72640" d="M776.248,478.34a5.084,5.084,0,0,1,5.083-5.083h10.3v10.165h-10.3A5.084,5.084,0,0,1,776.248,478.34Z" transform="translate(15.999 2.923)" fill="#fff"/>
    <path id="Path_72641" data-name="Path 72641" d="M835.558,483.422V473.257h10.3a5.083,5.083,0,0,1,0,10.165Z" transform="translate(28.122 2.923)" fill="#fff"/>
    <path id="Rectangle_4260" data-name="Rectangle 4260" d="M7.259,0h7.428a7.259,7.259,0,0,1,7.259,7.259V8.743a0,0,0,0,1,0,0H0a0,0,0,0,1,0,0V7.259A7.259,7.259,0,0,1,7.259,0Z" transform="translate(794.883 458.955)" fill="#dedede"/>
    <path id="Rectangle_4261" data-name="Rectangle 4261" d="M7.259,0h7.428a7.259,7.259,0,0,1,7.259,7.259V8.743a0,0,0,0,1,0,0H0a0,0,0,0,1,0,0V7.259A7.259,7.259,0,0,1,7.259,0Z" transform="translate(855.639 458.955)" fill="#dedede"/>
    <path id="Path_72642" data-name="Path 72642" d="M725.21,765.963h-8.592a4.215,4.215,0,0,1-3.813-2.42l-.889-1.892a4.213,4.213,0,0,0-3.321-2.392h0a4.215,4.215,0,0,1-3.722-4.184V734.482a4.2,4.2,0,0,1,4.816-4.161,19.861,19.861,0,1,0,0-39.3,4.2,4.2,0,0,1-4.816-4.161V570.984a4.2,4.2,0,0,1,4.816-4.161,19.861,19.861,0,1,0,0-39.3,4.2,4.2,0,0,1-4.816-4.161V506.1a4.213,4.213,0,0,1,4.561-4.2l26.67,2.215a4.213,4.213,0,0,1,3.778,3.349l9.369,45.541a4.176,4.176,0,0,0,1.338,2.308c3.2,2.82,13.229,12.463,22.308,29.974,7.889,15.224,15.067,36.4,16.4,64.195.12,2.373.193,4.806.217,7.275a130.5,130.5,0,0,1-4.541,37.866,54.556,54.556,0,0,1-10.31,19.836c-6.1,7.393-14.423,13.394-25.2,17.984a4.19,4.19,0,0,0-2.529,3.858v21.52a4.213,4.213,0,0,1-4.213,4.212h-9.848a4.216,4.216,0,0,0-2.759,1.03l-2.154,1.867A4.207,4.207,0,0,1,725.21,765.963Z" transform="translate(1.411 8.776)" fill="#dedede"/>
    <path id="Path_72643" data-name="Path 72643" d="M710.385,663.522V612.407l72.133,15.285c.293,2.017.426,3.247.565,4.425.142,1.2.311,2.452.413,3.66.4,4.773,1.239,20.413-3.337,36.292L735.81,687.345C730.185,661.92,710.385,663.522,710.385,663.522Z" transform="translate(2.537 31.366)" fill="none" stroke="#000" stroke-miterlimit="10" stroke-width="1" opacity="0.1"/>
    <path id="Path_72644" data-name="Path 72644" d="M735.091,545.518s-2.944,17.664-23.821,19.538v57.811l70.569,14.988S784.873,596.638,735.091,545.518Z" transform="translate(2.718 17.693)" fill="#ee2a3a"/>
    <path id="Path_72645" data-name="Path 72645" d="M773.607,664.743l-34.255,13.692.583,16.688S756.6,691.466,773.607,664.743Z" transform="translate(8.458 42.063)" fill="none" stroke="#000" stroke-width="1" opacity="0.1"/>
    <path id="Path_72646" data-name="Path 72646" d="M735.983,508.389,711.27,505V521.95s20.966,0,26.676,20.7Z" transform="translate(2.718 9.411)" fill="none" stroke="#000" stroke-width="1" opacity="0.1"/>
    <path id="Path_72647" data-name="Path 72647" d="M711.27,718.786l5.264,5h8.074l4.059-5H735.8V683.814s-8.386,18.914-24.535,17.487Z" transform="translate(2.718 45.961)" fill="none" stroke="#000" stroke-width="1" opacity="0.1"/>
    <path id="Path_72648" data-name="Path 72648" d="M911.443,767h8.592a4.214,4.214,0,0,0,3.813-2.42l.889-1.892a4.214,4.214,0,0,1,3.322-2.392h0a4.214,4.214,0,0,0,3.72-4.184V735.521a4.2,4.2,0,0,0-4.815-4.161,19.861,19.861,0,1,1,0-39.3,4.2,4.2,0,0,0,4.815-4.161V572.024a4.2,4.2,0,0,0-4.815-4.161,19.861,19.861,0,1,1,0-39.3,4.2,4.2,0,0,0,4.815-4.161V507.143a4.213,4.213,0,0,0-4.561-4.2l-26.67,2.215a4.212,4.212,0,0,0-3.777,3.349L887.4,554.05a4.19,4.19,0,0,1-1.338,2.308c-3.2,2.819-13.23,12.463-22.309,29.974-7.889,15.224-15.067,36.4-16.4,64.195-.12,2.373-.193,4.806-.217,7.275a130.493,130.493,0,0,0,4.541,37.866,54.556,54.556,0,0,0,10.31,19.837c6.1,7.393,14.424,13.394,25.2,17.984a4.188,4.188,0,0,1,2.529,3.858v21.52a4.213,4.213,0,0,0,4.213,4.212h9.848a4.214,4.214,0,0,1,2.759,1.03l2.153,1.867A4.21,4.21,0,0,0,911.443,767Z" transform="translate(30.476 8.988)" fill="#dedede"/>
    <path id="Path_72649" data-name="Path 72649" d="M924.357,664.562V613.447l-72.134,15.285c-.292,2.017-.426,3.247-.565,4.425-.142,1.2-.31,2.452-.412,3.66-.406,4.773-1.241,20.413,3.336,36.292l44.35,15.275C904.557,662.96,924.357,664.562,924.357,664.562Z" transform="translate(31.261 31.578)" fill="none" stroke="#000" stroke-miterlimit="10" stroke-width="1" opacity="0.1"/>
    <path id="Path_72650" data-name="Path 72650" d="M899.169,546.558s2.945,17.664,23.821,19.538v57.811L852.42,638.895S849.387,597.678,899.169,546.558Z" transform="translate(31.562 17.906)" fill="none" stroke="#000" stroke-width="1" opacity="0.1"/>
    <path id="Path_72651" data-name="Path 72651" d="M854.485,665.783l34.254,13.692-.583,16.688S871.486,692.506,854.485,665.783Z" transform="translate(31.991 42.276)" fill="none" stroke="#000" stroke-width="1" opacity="0.1"/>
    <path id="Path_72652" data-name="Path 72652" d="M890.821,509.429l24.713-3.39V522.99s-20.965,0-26.675,20.7Z" transform="translate(39.017 9.624)" fill="none" stroke="#000" stroke-width="1" opacity="0.1"/>
    <path id="Path_72653" data-name="Path 72653" d="M915.171,719.826l-5.263,5h-8.074l-4.059-5h-7.137V684.854s8.386,18.914,24.534,17.487Z" transform="translate(39.381 46.174)" fill="none" stroke="#000" stroke-width="1" opacity="0.1"/>
    <rect id="Rectangle_4262" data-name="Rectangle 4262" width="63.768" height="48.511" transform="translate(803.968 642.524)" fill="#59b061"/>
    <path id="Path_72654" data-name="Path 72654" d="M773.361,557.389s15.2,44.251,15.2,63.521h63.767s6.067-51.031,16.059-63.521C868.386,557.389,823.223,534.55,773.361,557.389Z" transform="translate(15.409 18.045)" fill="#fff"/>
    <path id="Path_72655" data-name="Path 72655" d="M787.263,654.667H851.03s0,29.262,6.469,38c0,0-35.864,19.985-77.795-.535C779.7,692.137,785.413,672.688,787.263,654.667Z" transform="translate(16.706 40.004)" fill="#fff"/>
    <path id="Path_72656" data-name="Path 72656" d="M778.714,689.967s40.985,22.71,81.31,0a22.976,22.976,0,0,0,5.263,12.574s-39.917,22.794-90.081,1.651C775.207,704.192,778.59,699.027,778.714,689.967Z" transform="translate(15.787 47.219)" fill="none" stroke="#000" stroke-width="1" opacity="0.1"/>
    <g id="Group_13770" data-name="Group 13770" transform="translate(938.535 541.047)">
      <g id="Group_13769" data-name="Group 13769">
        <g id="Group_13768" data-name="Group 13768">
          <path id="Path_72657" data-name="Path 72657" d="M912.819,531.548A10.677,10.677,0,1,0,923.5,542.225,10.689,10.689,0,0,0,912.819,531.548Zm5.462,3.988a.668.668,0,0,1,.47-.219.659.659,0,0,1,.485.182,9.294,9.294,0,0,1,2.718,4.824.669.669,0,0,1-.347.734,4.812,4.812,0,0,1-2.172.5,3.475,3.475,0,0,1-2.417-.809C915.887,539.616,916.359,537.669,918.281,535.536Zm-10.924,13.482a.669.669,0,0,1-.47.22h-.026a.672.672,0,0,1-.459-.183,9.292,9.292,0,0,1-2.718-4.825.667.667,0,0,1,.347-.732c1.5-.777,3.649-.632,4.589.308C909.749,544.937,909.278,546.886,907.357,549.018Zm1.262-8.271a3.476,3.476,0,0,1-2.417.809,4.814,4.814,0,0,1-2.172-.5.669.669,0,0,1-.347-.734A9.294,9.294,0,0,1,906.4,535.5a.643.643,0,0,1,.485-.182.663.663,0,0,1,.469.219C909.279,537.669,909.75,539.616,908.619,540.747Zm7.043,10.376a9.32,9.32,0,0,1-5.687,0,.668.668,0,0,1-.465-.682c.167-2.4,1.59-4.213,3.308-4.213s3.141,1.811,3.308,4.213A.668.668,0,0,1,915.663,551.123Zm-5.512-8.9a2.669,2.669,0,1,1,2.669,2.669A2.672,2.672,0,0,1,910.15,542.225Zm5.977-8.163c-.167,2.4-1.59,4.212-3.308,4.212s-3.141-1.811-3.308-4.212a.667.667,0,0,1,.464-.682,9.346,9.346,0,0,1,5.69,0A.667.667,0,0,1,916.128,534.062Zm5.827,10.064a9.293,9.293,0,0,1-2.718,4.825.671.671,0,0,1-.459.182h-.026a.673.673,0,0,1-.47-.219c-1.922-2.133-2.394-4.082-1.262-5.213.939-.939,3.083-1.083,4.589-.307A.667.667,0,0,1,921.954,544.126Z" transform="translate(-896.803 -526.209)" fill="#dedede"/>
          <path id="Path_72658" data-name="Path 72658" d="M913.725,527.115a16.016,16.016,0,1,0,16.016,16.016A16.034,16.034,0,0,0,913.725,527.115Zm0,28.028a12.012,12.012,0,1,1,12.011-12.011A12.025,12.025,0,0,1,913.725,555.143Z" transform="translate(-897.709 -527.115)" fill="#dedede"/>
        </g>
      </g>
    </g>
    <g id="Group_13773" data-name="Group 13773" transform="translate(938.535 704.688)">
      <g id="Group_13772" data-name="Group 13772">
        <g id="Group_13771" data-name="Group 13771">
          <path id="Path_72659" data-name="Path 72659" d="M912.819,667.416A10.678,10.678,0,1,0,923.5,678.094,10.69,10.69,0,0,0,912.819,667.416Zm5.462,3.989a.668.668,0,0,1,.955-.039,9.3,9.3,0,0,1,2.718,4.825.667.667,0,0,1-.347.732,4.8,4.8,0,0,1-2.172.5,3.47,3.47,0,0,1-2.417-.809C915.887,675.486,916.359,673.537,918.281,671.405Zm-10.924,13.482a.669.669,0,0,1-.47.22h-.026a.67.67,0,0,1-.459-.182,9.3,9.3,0,0,1-2.718-4.825.669.669,0,0,1,.347-.734c1.5-.776,3.649-.631,4.589.308C909.749,680.807,909.278,682.754,907.357,684.887Zm1.262-8.272a3.47,3.47,0,0,1-2.417.809,4.8,4.8,0,0,1-2.172-.5.667.667,0,0,1-.347-.732,9.3,9.3,0,0,1,2.718-4.825.653.653,0,0,1,.485-.182.664.664,0,0,1,.469.22C909.279,673.537,909.75,675.486,908.619,676.615Zm7.043,10.377a9.319,9.319,0,0,1-5.687,0,.669.669,0,0,1-.465-.682c.167-2.4,1.59-4.213,3.308-4.213s3.141,1.811,3.308,4.213A.669.669,0,0,1,915.663,686.992Zm-5.512-8.9a2.669,2.669,0,1,1,2.669,2.669A2.672,2.672,0,0,1,910.15,678.094Zm5.977-8.165c-.167,2.4-1.59,4.212-3.308,4.212s-3.141-1.81-3.308-4.212a.668.668,0,0,1,.464-.682,9.363,9.363,0,0,1,5.69,0A.668.668,0,0,1,916.128,669.93Zm5.827,10.064a9.3,9.3,0,0,1-2.718,4.826.671.671,0,0,1-.459.182h-.026a.669.669,0,0,1-.47-.22c-1.922-2.132-2.394-4.081-1.262-5.211.939-.941,3.083-1.083,4.589-.308A.668.668,0,0,1,921.954,679.994Z" transform="translate(-896.803 -662.078)" fill="#dedede"/>
          <path id="Path_72660" data-name="Path 72660" d="M913.725,662.984A16.016,16.016,0,1,0,929.741,679,16.033,16.033,0,0,0,913.725,662.984Zm0,28.028A12.012,12.012,0,1,1,925.737,679,12.025,12.025,0,0,1,913.725,691.012Z" transform="translate(-897.709 -662.984)" fill="#dedede"/>
        </g>
      </g>
    </g>
    <g id="Group_13776" data-name="Group 13776" transform="translate(697.973 703.435)">
      <g id="Group_13775" data-name="Group 13775">
        <g id="Group_13774" data-name="Group 13774">
          <path id="Path_72661" data-name="Path 72661" d="M713.082,666.376a10.678,10.678,0,1,0,10.678,10.678A10.69,10.69,0,0,0,713.082,666.376Zm5.463,3.989a.667.667,0,0,1,.954-.039,9.3,9.3,0,0,1,2.72,4.825.669.669,0,0,1-.347.732,4.8,4.8,0,0,1-2.172.5,3.475,3.475,0,0,1-2.418-.809C716.151,674.445,716.623,672.5,718.545,670.365ZM707.62,683.847a.667.667,0,0,1-.47.22h-.025a.669.669,0,0,1-.459-.182,9.3,9.3,0,0,1-2.72-4.825.671.671,0,0,1,.347-.733c1.5-.776,3.649-.631,4.59.308C710.013,679.767,709.541,681.714,707.62,683.847Zm1.263-8.272a3.475,3.475,0,0,1-2.418.809,4.8,4.8,0,0,1-2.172-.5.667.667,0,0,1-.347-.732,9.3,9.3,0,0,1,2.72-4.825.648.648,0,0,1,.484-.182.667.667,0,0,1,.47.22C709.542,672.5,710.014,674.445,708.883,675.575Zm7.043,10.377a9.324,9.324,0,0,1-5.688,0,.669.669,0,0,1-.464-.682c.166-2.4,1.589-4.213,3.307-4.213s3.142,1.811,3.309,4.213A.669.669,0,0,1,715.927,685.952Zm-5.514-8.9a2.67,2.67,0,1,1,2.669,2.669A2.673,2.673,0,0,1,710.413,677.054Zm5.977-8.165c-.166,2.4-1.589,4.212-3.309,4.212s-3.141-1.81-3.307-4.212a.668.668,0,0,1,.463-.682,9.367,9.367,0,0,1,5.691,0A.668.668,0,0,1,716.391,668.89Zm5.828,10.064a9.3,9.3,0,0,1-2.72,4.826.669.669,0,0,1-.459.182h-.025a.667.667,0,0,1-.47-.22c-1.922-2.132-2.394-4.081-1.263-5.211.941-.941,3.084-1.083,4.59-.308A.67.67,0,0,1,722.219,678.954Z" transform="translate(-697.067 -661.038)" fill="#dedede"/>
          <path id="Path_72662" data-name="Path 72662" d="M713.988,661.944A16.016,16.016,0,1,0,730,677.96,16.033,16.033,0,0,0,713.988,661.944Zm0,28.028A12.012,12.012,0,1,1,726,677.96,12.025,12.025,0,0,1,713.988,689.972Z" transform="translate(-697.973 -661.944)" fill="#dedede"/>
        </g>
      </g>
    </g>
    <g id="Group_13779" data-name="Group 13779" transform="translate(697.973 539.794)">
      <g id="Group_13778" data-name="Group 13778">
        <g id="Group_13777" data-name="Group 13777">
          <path id="Path_72663" data-name="Path 72663" d="M713.082,530.508a10.677,10.677,0,1,0,10.678,10.677A10.689,10.689,0,0,0,713.082,530.508Zm5.463,3.988a.666.666,0,0,1,.47-.219.656.656,0,0,1,.484.182,9.3,9.3,0,0,1,2.72,4.824.671.671,0,0,1-.347.733,4.814,4.814,0,0,1-2.172.5,3.481,3.481,0,0,1-2.418-.809C716.151,538.576,716.623,536.628,718.545,534.5ZM707.62,547.978a.667.667,0,0,1-.47.22h-.025a.67.67,0,0,1-.459-.183,9.3,9.3,0,0,1-2.72-4.825.668.668,0,0,1,.347-.732c1.5-.777,3.649-.632,4.59.308C710.013,543.9,709.541,545.846,707.62,547.978Zm1.263-8.271a3.481,3.481,0,0,1-2.418.809,4.818,4.818,0,0,1-2.172-.5.669.669,0,0,1-.347-.733,9.3,9.3,0,0,1,2.72-4.824.639.639,0,0,1,.484-.182.666.666,0,0,1,.47.219C709.542,536.628,710.014,538.576,708.883,539.707Zm7.043,10.376a9.323,9.323,0,0,1-5.688,0,.668.668,0,0,1-.464-.682c.166-2.4,1.589-4.213,3.307-4.213s3.142,1.811,3.309,4.213A.668.668,0,0,1,715.927,550.083Zm-5.514-8.9a2.67,2.67,0,1,1,2.669,2.669A2.673,2.673,0,0,1,710.413,541.185Zm5.977-8.165c-.166,2.4-1.589,4.213-3.309,4.213s-3.141-1.811-3.307-4.213a.667.667,0,0,1,.463-.68,9.35,9.35,0,0,1,5.691,0A.667.667,0,0,1,716.391,533.02Zm5.828,10.065a9.3,9.3,0,0,1-2.72,4.825.668.668,0,0,1-.459.182h-.025a.67.67,0,0,1-.47-.219c-1.922-2.133-2.394-4.082-1.263-5.213.941-.939,3.084-1.083,4.59-.307A.668.668,0,0,1,722.219,543.086Z" transform="translate(-697.067 -525.169)" fill="#dedede"/>
          <path id="Path_72664" data-name="Path 72664" d="M713.988,526.075A16.016,16.016,0,1,0,730,542.091,16.033,16.033,0,0,0,713.988,526.075Zm0,28.028A12.012,12.012,0,1,1,726,542.091,12.025,12.025,0,0,1,713.988,554.1Z" transform="translate(-697.973 -526.075)" fill="#dedede"/>
        </g>
      </g>
    </g>
  </g>
</svg>
