<svg xmlns="http://www.w3.org/2000/svg" width="60.472" height="21" viewBox="0 0 60.472 21">
  <g id="Group_14966" data-name="Group 14966" transform="translate(-323 229.151)">
    <g id="Group_14964" data-name="Group 14964">
      <circle id="Ellipse_1152" data-name="Ellipse 1152" cx="10.5" cy="10.5" r="10.5" transform="translate(323 -229.151)" fill="#ed0723"/>
      <g id="Group_14767" data-name="Group 14767" transform="translate(297.712 -268.29)">
        <path id="Path_71698" data-name="Path 71698" d="M40.9,46.1H39.222L36.4,49.059l-1.453-1.524a3.369,3.369,0,1,0-.009,4.773l.009.009L36.4,50.794l2.827,2.977h1.682l-3.672-3.84Zm-6.79,5.363-.009-.009a2.149,2.149,0,0,1-1.532.634,2.175,2.175,0,1,1,0-4.35,2.119,2.119,0,0,1,1.532.634l1.471,1.55Z" transform="translate(-1.002 -0.507)" fill="#fff"/>
        <path id="Path_71699" data-name="Path 71699" d="M144.255,46.1,140.6,49.931l3.655,3.84h1.682l-3.672-3.84,3.672-3.831Z" transform="translate(-102.591 -0.507)" fill="#fff"/>
      </g>
    </g>
    <g id="Group_14965" data-name="Group 14965">
      <path id="Path_73781" data-name="Path 73781" d="M764.837,256.936a.839.839,0,0,1,.263-.622.866.866,0,0,1,.627-.258.815.815,0,0,1,.612.258.865.865,0,0,1,.248.622v2.944l3.956-3.622a.868.868,0,0,1,.607-.243.849.849,0,0,1,.87.915.858.858,0,0,1-.283.6l-3.106,2.843,3.51,3.733a.887.887,0,0,1,.182.293.927.927,0,0,1,.061.329.87.87,0,0,1-.066.329.785.785,0,0,1-.2.283.892.892,0,0,1-.617.243.876.876,0,0,1-.334-.066.916.916,0,0,1-.3-.207l-3.531-3.754-.748.7v2.448a.905.905,0,0,1-.066.344.827.827,0,0,1-.182.278.909.909,0,0,1-.273.187.814.814,0,0,1-.339.071.859.859,0,0,1-.632-.258.849.849,0,0,1-.258-.622Z" transform="translate(-417.916 -479.16)" fill="#fff"/>
      <path id="Path_73779" data-name="Path 73779" d="M867.063,256.936a.839.839,0,0,1,.263-.622.865.865,0,0,1,.627-.258.815.815,0,0,1,.612.258.865.865,0,0,1,.248.622v2.944l3.956-3.622a.868.868,0,0,1,.607-.243.849.849,0,0,1,.87.915.858.858,0,0,1-.283.6l-3.106,2.843,3.51,3.733a.885.885,0,0,1,.182.293.925.925,0,0,1,.061.329.869.869,0,0,1-.066.329.785.785,0,0,1-.2.283.891.891,0,0,1-.617.243.876.876,0,0,1-.334-.066.912.912,0,0,1-.3-.207l-3.531-3.754-.749.7v2.448a.906.906,0,0,1-.066.344.824.824,0,0,1-.182.278.912.912,0,0,1-.273.187.815.815,0,0,1-.339.071.859.859,0,0,1-.632-.258.848.848,0,0,1-.258-.622Z" transform="translate(-510.491 -479.16)" fill="#fff"/>
      <path id="Path_73780" data-name="Path 73780" d="M958.807,258.195h-2.984a.888.888,0,0,1-.632-.243.8.8,0,0,1-.258-.607.872.872,0,0,1,.258-.642.861.861,0,0,1,.632-.258h7.648a.852.852,0,0,1,.632.263.878.878,0,0,1,.258.638.791.791,0,0,1-.258.617.91.91,0,0,1-.632.232h-2.914v6.89a.852.852,0,0,1-.263.632.878.878,0,0,1-.638.258.794.794,0,0,1-.612-.258.9.9,0,0,1-.238-.632Z" transform="translate(-590.064 -479.549)" fill="#fff"/>
      <path id="Path_73778" data-name="Path 73778" d="M1067.927,264.74a4.092,4.092,0,0,1-.713.566,4.99,4.99,0,0,1-.85.43,5.12,5.12,0,0,1-.936.268,5.268,5.268,0,0,1-.971.091,4.983,4.983,0,0,1-1.932-.374,4.874,4.874,0,0,1-1.568-1.032,4.768,4.768,0,0,1-1.052-1.573,5.074,5.074,0,0,1-.384-1.988,4.238,4.238,0,0,1,.4-1.836,4.848,4.848,0,0,1,1.082-1.487,5.1,5.1,0,0,1,1.573-1,4.928,4.928,0,0,1,1.876-.364,5.346,5.346,0,0,1,.976.091,5.132,5.132,0,0,1,.941.268,5.033,5.033,0,0,1,.85.43,3.869,3.869,0,0,1,.713.577,1.018,1.018,0,0,1,.314.693.771.771,0,0,1-.283.632,1.045,1.045,0,0,1-.309.2.806.806,0,0,1-.288.056.848.848,0,0,1-.415-.111q-.162-.1-.319-.217l-.308-.228a3.282,3.282,0,0,0-.911-.491,3.226,3.226,0,0,0-1.012-.147,3.117,3.117,0,0,0-1.209.238,3.184,3.184,0,0,0-1,.647,3.038,3.038,0,0,0-.673.971,2.982,2.982,0,0,0-.248,1.219,2.952,2.952,0,0,0,.238,1.174,3.107,3.107,0,0,0,2.888,1.892,3.257,3.257,0,0,0,.992-.142,3.432,3.432,0,0,0,.931-.485q.323-.243.627-.445a.851.851,0,0,1,.415-.111.815.815,0,0,1,.288.056,1.058,1.058,0,0,1,.309.2.777.777,0,0,1,.283.637A1.007,1.007,0,0,1,1067.927,264.74Z" transform="translate(-684.779 -479.549)" fill="#fff"/>
    </g>
  </g>
</svg>
