<svg id="Group_11566" data-name="Group 11566" xmlns="http://www.w3.org/2000/svg" width="194" height="39.672" viewBox="0 0 194 39.672">
  <path id="Path_1" data-name="Path 1" d="M507.931,234.906H499.25l-14.606,15.306-7.514-7.871a17.441,17.441,0,1,0-.05,24.68l.05.05,7.514-7.871,14.606,15.378h8.682l-19-19.873Zm-35.143,27.746-.053-.025a11.235,11.235,0,1,1,0-15.917l7.617,8Z" transform="translate(-447.373 -234.906)" fill="#0466c8"/>
  <path id="Path_2" data-name="Path 2" d="M650.691,234.906,631.8,254.717l18.892,19.862h8.692l-19-19.862,19-19.811Z" transform="translate(-581.022 -234.906)" fill="#023047"/>
  <path id="Path_3" data-name="Path 3" d="M764.837,258.7a2.447,2.447,0,0,1,.766-1.814,2.524,2.524,0,0,1,1.83-.752,2.377,2.377,0,0,1,1.784.752,2.523,2.523,0,0,1,.723,1.814v8.586l11.536-10.562a2.532,2.532,0,0,1,1.77-.708,2.477,2.477,0,0,1,2.537,2.67,2.5,2.5,0,0,1-.826,1.756l-9.057,8.29,10.237,10.887a2.586,2.586,0,0,1,.531.856,2.7,2.7,0,0,1,.178.958,2.531,2.531,0,0,1-.192.96,2.288,2.288,0,0,1-.575.826,2.655,2.655,0,0,1-.841.531,2.626,2.626,0,0,1-.958.176,2.553,2.553,0,0,1-.974-.192,2.668,2.668,0,0,1-.885-.6l-10.3-10.947-2.183,2.036v7.139a2.645,2.645,0,0,1-.192,1,2.417,2.417,0,0,1-.531.812,2.658,2.658,0,0,1-.8.545,2.376,2.376,0,0,1-.988.206,2.507,2.507,0,0,1-1.844-.752,2.475,2.475,0,0,1-.752-1.815Z" transform="translate(-677.432 -250.204)" fill="#023047"/>
  <path id="Path_4" data-name="Path 4" d="M867.063,258.7a2.446,2.446,0,0,1,.767-1.814,2.524,2.524,0,0,1,1.829-.752,2.377,2.377,0,0,1,1.784.752,2.523,2.523,0,0,1,.723,1.814v8.586L883.7,256.724a2.531,2.531,0,0,1,1.77-.708,2.477,2.477,0,0,1,2.537,2.67,2.5,2.5,0,0,1-.826,1.756l-9.058,8.29,10.237,10.887a2.585,2.585,0,0,1,.531.856,2.707,2.707,0,0,1,.178.958,2.533,2.533,0,0,1-.192.96,2.293,2.293,0,0,1-.575.826,2.6,2.6,0,0,1-1.8.708,2.552,2.552,0,0,1-.974-.192,2.662,2.662,0,0,1-.884-.6l-10.3-10.947-2.183,2.036v7.139a2.645,2.645,0,0,1-.192,1,2.413,2.413,0,0,1-.531.812,2.662,2.662,0,0,1-.8.545,2.378,2.378,0,0,1-.988.206,2.507,2.507,0,0,1-1.844-.752,2.475,2.475,0,0,1-.752-1.815Z" transform="translate(-751.513 -250.204)" fill="#023047"/>
  <path id="Path_5" data-name="Path 5" d="M966.232,261.548h-8.7a2.589,2.589,0,0,1-1.844-.708,2.329,2.329,0,0,1-.752-1.77,2.544,2.544,0,0,1,.752-1.874,2.51,2.51,0,0,1,1.844-.752h22.3a2.486,2.486,0,0,1,1.844.766,2.561,2.561,0,0,1,.752,1.859,2.308,2.308,0,0,1-.752,1.8,2.655,2.655,0,0,1-1.844.678h-8.5v20.093a2.484,2.484,0,0,1-.766,1.844,2.56,2.56,0,0,1-1.859.752,2.316,2.316,0,0,1-1.785-.752,2.619,2.619,0,0,1-.693-1.844Z" transform="translate(-815.189 -250.515)" fill="#023047"/>
  <path id="Path_6" data-name="Path 6" d="M1084.037,280.637a11.961,11.961,0,0,1-2.08,1.652,14.553,14.553,0,0,1-2.478,1.254,14.929,14.929,0,0,1-2.729.782,15.36,15.36,0,0,1-2.832.266,14.532,14.532,0,0,1-5.636-1.092,14.21,14.21,0,0,1-4.572-3.009,13.916,13.916,0,0,1-3.068-4.588,14.8,14.8,0,0,1-1.121-5.8,12.368,12.368,0,0,1,1.179-5.355,14.155,14.155,0,0,1,3.157-4.336,14.871,14.871,0,0,1,4.588-2.906,14.371,14.371,0,0,1,5.473-1.062,15.588,15.588,0,0,1,2.847.265,14.959,14.959,0,0,1,2.744.782,14.7,14.7,0,0,1,2.479,1.254,11.308,11.308,0,0,1,2.08,1.681,2.972,2.972,0,0,1,.914,2.021,2.249,2.249,0,0,1-.826,1.844,3.046,3.046,0,0,1-.9.575,2.353,2.353,0,0,1-.841.162,2.473,2.473,0,0,1-1.209-.325q-.473-.294-.93-.634t-.9-.664a9.56,9.56,0,0,0-2.656-1.431,9.406,9.406,0,0,0-2.95-.428,9.093,9.093,0,0,0-3.526.694,9.3,9.3,0,0,0-2.906,1.888,8.866,8.866,0,0,0-1.961,2.832,8.7,8.7,0,0,0-.723,3.556,8.6,8.6,0,0,0,.693,3.423,9.063,9.063,0,0,0,8.423,5.516,9.5,9.5,0,0,0,2.892-.413,10.008,10.008,0,0,0,2.714-1.415q.943-.709,1.829-1.3a2.481,2.481,0,0,1,1.209-.325,2.378,2.378,0,0,1,.841.162,3.078,3.078,0,0,1,.9.576,2.266,2.266,0,0,1,.826,1.858A2.939,2.939,0,0,1,1084.037,280.637Z" transform="translate(-890.982 -250.515)" fill="#023047"/>
</svg>
