<svg xmlns="http://www.w3.org/2000/svg" width="130.778" height="26.744" viewBox="0 0 130.778 26.744">
  <g id="Group_14766" data-name="Group 14766" transform="translate(-447.373 -234.906)">
    <path id="Path_1" data-name="Path 1" d="M488.2,234.906h-5.852L472.5,245.224l-5.066-5.306a11.757,11.757,0,1,0-.034,16.637l.034.034,5.066-5.306,9.846,10.367H488.2l-12.806-13.4Zm-23.69,18.7-.036-.017a7.574,7.574,0,1,1,0-10.73l5.135,5.39Z" transform="translate(0 0)" fill="#007bff"/>
    <path id="Path_2" data-name="Path 2" d="M644.534,234.906,631.8,248.261l12.736,13.389h5.859l-12.809-13.389,12.809-13.355Z" transform="translate(-150.197 0)" fill="#023047"/>
    <path id="Path_3" data-name="Path 3" d="M764.837,257.825a1.649,1.649,0,0,1,.517-1.223,1.7,1.7,0,0,1,1.233-.507,1.6,1.6,0,0,1,1.2.507,1.7,1.7,0,0,1,.488,1.223v5.788l7.776-7.12a1.707,1.707,0,0,1,1.193-.477,1.67,1.67,0,0,1,1.71,1.8A1.687,1.687,0,0,1,778.4,259l-6.106,5.588,6.9,7.339a1.746,1.746,0,0,1,.358.577,1.824,1.824,0,0,1,.12.646,1.707,1.707,0,0,1-.13.647,1.542,1.542,0,0,1-.388.557,1.789,1.789,0,0,1-.567.358,1.77,1.77,0,0,1-.646.119,1.722,1.722,0,0,1-.656-.129,1.8,1.8,0,0,1-.6-.407l-6.942-7.379-1.471,1.372V273.1a1.783,1.783,0,0,1-.13.677,1.629,1.629,0,0,1-.358.547,1.792,1.792,0,0,1-.537.368,1.6,1.6,0,0,1-.666.139,1.69,1.69,0,0,1-1.243-.507,1.668,1.668,0,0,1-.507-1.224Z" transform="translate(-258.543 -17.192)" fill="#023047"/>
    <path id="Path_4" data-name="Path 4" d="M867.063,257.825a1.649,1.649,0,0,1,.517-1.223,1.7,1.7,0,0,1,1.233-.507,1.6,1.6,0,0,1,1.2.507,1.7,1.7,0,0,1,.488,1.223v5.788l7.777-7.12a1.706,1.706,0,0,1,1.193-.477,1.67,1.67,0,0,1,1.71,1.8,1.687,1.687,0,0,1-.557,1.184l-6.106,5.588,6.9,7.339a1.742,1.742,0,0,1,.358.577,1.824,1.824,0,0,1,.12.646,1.707,1.707,0,0,1-.129.647,1.546,1.546,0,0,1-.388.557,1.752,1.752,0,0,1-1.213.477,1.721,1.721,0,0,1-.656-.129,1.794,1.794,0,0,1-.6-.407l-6.942-7.379-1.472,1.372V273.1a1.783,1.783,0,0,1-.13.677,1.623,1.623,0,0,1-.358.547,1.793,1.793,0,0,1-.537.368,1.6,1.6,0,0,1-.666.139,1.69,1.69,0,0,1-1.243-.507,1.668,1.668,0,0,1-.507-1.224Z" transform="translate(-341.796 -17.192)" fill="#023047"/>
    <path id="Path_5" data-name="Path 5" d="M962.549,259.885h-5.867a1.745,1.745,0,0,1-1.243-.477,1.57,1.57,0,0,1-.507-1.193,1.715,1.715,0,0,1,.507-1.263,1.692,1.692,0,0,1,1.243-.507h15.036a1.676,1.676,0,0,1,1.243.517,1.726,1.726,0,0,1,.507,1.254,1.556,1.556,0,0,1-.507,1.213,1.789,1.789,0,0,1-1.243.457H965.99V273.43a1.675,1.675,0,0,1-.516,1.243,1.726,1.726,0,0,1-1.254.507,1.561,1.561,0,0,1-1.2-.507,1.765,1.765,0,0,1-.467-1.243Z" transform="translate(-413.356 -17.541)" fill="#023047"/>
    <path id="Path_6" data-name="Path 6" d="M1076.047,272.753a8.065,8.065,0,0,1-1.4,1.114,9.811,9.811,0,0,1-1.671.846,10.064,10.064,0,0,1-1.84.527,10.355,10.355,0,0,1-1.909.179,9.8,9.8,0,0,1-3.8-.736,9.58,9.58,0,0,1-3.082-2.028,9.38,9.38,0,0,1-2.068-3.093,9.98,9.98,0,0,1-.756-3.908,8.336,8.336,0,0,1,.795-3.61,9.539,9.539,0,0,1,2.128-2.923,10.024,10.024,0,0,1,3.093-1.959,9.688,9.688,0,0,1,3.689-.716,10.508,10.508,0,0,1,1.919.179,10.081,10.081,0,0,1,1.85.527,9.9,9.9,0,0,1,1.671.846,7.617,7.617,0,0,1,1.4,1.133,2,2,0,0,1,.616,1.362,1.516,1.516,0,0,1-.557,1.243,2.053,2.053,0,0,1-.607.388,1.587,1.587,0,0,1-.567.109,1.666,1.666,0,0,1-.815-.219q-.319-.2-.627-.427l-.606-.447a6.444,6.444,0,0,0-1.79-.965,6.342,6.342,0,0,0-1.989-.289,6.129,6.129,0,0,0-2.377.468,6.269,6.269,0,0,0-1.959,1.273,5.977,5.977,0,0,0-1.322,1.909,5.861,5.861,0,0,0-.487,2.4,5.8,5.8,0,0,0,.467,2.307,6.109,6.109,0,0,0,5.678,3.719,6.4,6.4,0,0,0,1.949-.278,6.746,6.746,0,0,0,1.83-.954q.636-.478,1.233-.875a1.672,1.672,0,0,1,.815-.219,1.6,1.6,0,0,1,.567.109,2.074,2.074,0,0,1,.607.388,1.527,1.527,0,0,1,.557,1.253A1.982,1.982,0,0,1,1076.047,272.753Z" transform="translate(-498.533 -17.541)" fill="#023047"/>
  </g>
</svg>
