<svg xmlns="http://www.w3.org/2000/svg" width="180.328" height="36.877" viewBox="0 0 180.328 36.877">
  <g id="Group_1" data-name="Group 1" transform="translate(-447.373 -234.906)">
    <path id="Path_1" data-name="Path 1" d="M503.664,234.906h-8.07l-13.577,14.227-6.985-7.316a16.212,16.212,0,1,0-.047,22.94l.047.047,6.985-7.316,13.577,14.295h8.07L486.005,253.31ZM471,260.7l-.049-.023a10.443,10.443,0,1,1,0-14.8l7.08,7.433Z" transform="translate(0 0)" fill="#ffc107"/>
    <path id="Path_2" data-name="Path 2" d="M649.36,234.906,631.8,253.321l17.561,18.462h8.079l-17.662-18.462,17.662-18.415Z" transform="translate(-137.228 0)" fill="#fff"/>
    <path id="Path_3" data-name="Path 3" d="M764.837,258.511a2.274,2.274,0,0,1,.712-1.686,2.347,2.347,0,0,1,1.7-.7,2.209,2.209,0,0,1,1.659.7,2.345,2.345,0,0,1,.672,1.686v7.981l10.723-9.818a2.354,2.354,0,0,1,1.646-.658,2.3,2.3,0,0,1,2.359,2.482,2.325,2.325,0,0,1-.768,1.632l-8.419,7.706,9.515,10.12a2.407,2.407,0,0,1,.494.8,2.515,2.515,0,0,1,.165.891,2.354,2.354,0,0,1-.179.892,2.125,2.125,0,0,1-.535.768,2.466,2.466,0,0,1-.782.494,2.44,2.44,0,0,1-.891.164,2.374,2.374,0,0,1-.905-.178,2.478,2.478,0,0,1-.822-.561l-9.572-10.175-2.029,1.892v6.636a2.459,2.459,0,0,1-.179.933,2.247,2.247,0,0,1-.494.754,2.471,2.471,0,0,1-.74.507,2.207,2.207,0,0,1-.918.192,2.33,2.33,0,0,1-1.714-.7,2.3,2.3,0,0,1-.7-1.687Z" transform="translate(-236.219 -15.708)" fill="#fff"/>
    <path id="Path_4" data-name="Path 4" d="M867.063,258.511a2.273,2.273,0,0,1,.713-1.686,2.346,2.346,0,0,1,1.7-.7,2.209,2.209,0,0,1,1.659.7,2.346,2.346,0,0,1,.672,1.686v7.981l10.723-9.818a2.353,2.353,0,0,1,1.645-.658,2.3,2.3,0,0,1,2.358,2.482,2.326,2.326,0,0,1-.767,1.632l-8.419,7.706,9.515,10.12a2.4,2.4,0,0,1,.494.8,2.517,2.517,0,0,1,.165.891,2.355,2.355,0,0,1-.178.892,2.132,2.132,0,0,1-.535.768,2.415,2.415,0,0,1-1.673.658,2.372,2.372,0,0,1-.905-.178,2.471,2.471,0,0,1-.822-.561l-9.572-10.175-2.029,1.892v6.636a2.458,2.458,0,0,1-.179.933,2.237,2.237,0,0,1-.494.754,2.473,2.473,0,0,1-.74.507,2.21,2.21,0,0,1-.919.192,2.33,2.33,0,0,1-1.714-.7,2.3,2.3,0,0,1-.7-1.687Z" transform="translate(-312.283 -15.708)" fill="#fff"/>
    <path id="Path_5" data-name="Path 5" d="M965.436,261.189h-8.09a2.406,2.406,0,0,1-1.714-.658,2.165,2.165,0,0,1-.7-1.645,2.365,2.365,0,0,1,.7-1.742,2.333,2.333,0,0,1,1.714-.7h20.733a2.311,2.311,0,0,1,1.714.712,2.38,2.38,0,0,1,.7,1.728,2.146,2.146,0,0,1-.7,1.673,2.468,2.468,0,0,1-1.714.63h-7.9v18.677a2.309,2.309,0,0,1-.712,1.714,2.379,2.379,0,0,1-1.728.7,2.153,2.153,0,0,1-1.659-.7,2.434,2.434,0,0,1-.645-1.714Z" transform="translate(-377.664 -16.027)" fill="#fff"/>
    <path id="Path_6" data-name="Path 6" d="M1082.309,278.932a11.122,11.122,0,0,1-1.934,1.536,13.526,13.526,0,0,1-2.3,1.166,13.879,13.879,0,0,1-2.537.727,14.279,14.279,0,0,1-2.632.247,13.508,13.508,0,0,1-5.239-1.015,13.21,13.21,0,0,1-4.25-2.8,12.937,12.937,0,0,1-2.852-4.265,13.762,13.762,0,0,1-1.042-5.389,11.5,11.5,0,0,1,1.1-4.978,13.152,13.152,0,0,1,2.934-4.031,13.82,13.82,0,0,1,4.265-2.7,13.357,13.357,0,0,1,5.087-.987,14.491,14.491,0,0,1,2.646.246,13.9,13.9,0,0,1,2.55.727,13.649,13.649,0,0,1,2.3,1.166,10.5,10.5,0,0,1,1.934,1.563,2.762,2.762,0,0,1,.85,1.878,2.09,2.09,0,0,1-.767,1.714,2.829,2.829,0,0,1-.837.535,2.189,2.189,0,0,1-.782.151,2.3,2.3,0,0,1-1.124-.3q-.439-.273-.865-.589t-.836-.617a8.886,8.886,0,0,0-2.468-1.33,8.746,8.746,0,0,0-2.743-.4,8.452,8.452,0,0,0-3.277.645,8.648,8.648,0,0,0-2.7,1.755,8.243,8.243,0,0,0-1.823,2.632,8.082,8.082,0,0,0-.672,3.3,8,8,0,0,0,.645,3.182,8.424,8.424,0,0,0,7.829,5.128,8.827,8.827,0,0,0,2.688-.384,9.3,9.3,0,0,0,2.523-1.316q.877-.659,1.7-1.207a2.305,2.305,0,0,1,1.124-.3,2.211,2.211,0,0,1,.782.151,2.859,2.859,0,0,1,.837.535,2.105,2.105,0,0,1,.767,1.727A2.732,2.732,0,0,1,1082.309,278.932Z" transform="translate(-455.486 -16.027)" fill="#fff"/>
  </g>
</svg>
