<svg xmlns="http://www.w3.org/2000/svg" xmlns:xlink="http://www.w3.org/1999/xlink" width="367.735" height="424.014" viewBox="0 0 367.735 424.014">
  <defs>
    <clipPath id="clip-path">
      <path id="Path_74174" data-name="Path 74174" d="M231.319,286.989s-18.837,4.989-26.771,12.485-11.584,21.344-11.584,21.344-10.672,9.078-15.673,11.8a34.352,34.352,0,0,0-17.243,20.2c-4.089,12.266-9.078,39.961-9.078,39.961l12.7,5.914s.231-7.3,11.584-18.387,18.374-29.971,19.287-30.421,20.881-13.617,20.881-13.617,15.442,10.66,32.916,13.617,36.773-.231,36.773-.231l-5.452,16.8S267.179,371.9,264,378.484s-18.155,31.553-18.155,31.553l10.672,8.627A184.539,184.539,0,0,1,283.29,402.09c15.661-7.946,19.47-13.617,24.057-22.925a211.274,211.274,0,0,0,10.441-28.6c.231-1.594,4.77-5.671,5.451-15.442l.681-9.735,23.826-21.331a104.284,104.284,0,0,0,34.51-24.739c15.661-17.255,18.155-25.651,19.75-41.093s7.946-76.491,8.165-77.4,2.275-5.439,5-5.9S432.878,167.64,434.922,169s6.084,2.044,6.571-2.276-3.176-14.979-14.748-26.552-19.981-13.385-22.694-10.441-.913,9.3-2.726,18.606-13.166,42.906-18.849,58.8-3.857,37.455-3.857,37.455a57.544,57.544,0,0,0-13.166,6.8c-5.439,4.089-13.836,9.735-13.836,9.735l-2.263-1.156s12.716-12.716,16.573-19.981,4.989-7.715,2.945-12.022-18.606-25.189-25.87-34.51-16.123-24.97-17.985-29.509a16.379,16.379,0,0,1-.231-12.254c1.363-3.176,14.079-9.528,14.31-19.287s-6.084-7.046-12.035-5-21.794,17.486-25.42,27.245-.462,12.935,5.9,18.837,14.115,17.936,18.2,29.29,9.309,22.244,17.705,25.2c0,0-13.385,6.352-22.244,12.7S308.041,250,308.041,250s-12.035,3.407-16.574,9.309a59.813,59.813,0,0,0-6.352,9.735S244.035,276.086,231.319,286.989Z" transform="translate(-150.97 -125.442)" fill="#fff" stroke="#263238" stroke-linecap="round" stroke-linejoin="round" stroke-width="1"/>
    </clipPath>
    <clipPath id="clip-path-2">
      <path id="Path_74179" data-name="Path 74179" d="M293.878,236.93c-2.86,0-6.4.268-9.735.608a53.233,53.233,0,0,0-4.563,7.3s-41.13,7.07-53.846,17.973c0,0-18.837,4.989-26.771,12.485s-11.584,21.344-11.584,21.344-5.658,4.807-10.66,8.518c3.93-.28,10.538-.122,14.055,3.553s3.322,10.27,2.811,14.067c6.157-4,16.257-10.66,16.257-10.66s15.442,10.66,32.916,13.617,36.773-.231,36.773-.231l-.876,2.7c3.273-2.434,10.343-6.084,20.626-2.02a15.819,15.819,0,0,1,9.82,10.234c1.752-5.147,3.018-9.272,3.115-10,.231-1.594,4.77-5.671,5.452-15.442l.681-9.735,20.078-17.985c.426-4.368-.122-11.086-4.186-20.382C326.3,244.645,300.863,236.93,293.878,236.93Z" transform="translate(-176.72 -236.93)" fill="#0466c8" stroke="#263238" stroke-linecap="round" stroke-linejoin="round" stroke-width="1"/>
    </clipPath>
    <clipPath id="clip-path-3">
      <path id="Path_74185" data-name="Path 74185" d="M257.722,273.9s1.813,21.794-4.32,32.685-17.255,3.176-19.749.681,11.584-12.935,14.76-21.112S256.578,269.422,257.722,273.9Z" transform="translate(-233.358 -272.667)" fill="#fff" stroke="#263238" stroke-linecap="round" stroke-linejoin="round" stroke-width="1"/>
    </clipPath>
    <clipPath id="clip-path-4">
      <path id="Path_74191" data-name="Path 74191" d="M227.534,268.226,205.12,264.15s.256,7.131,3.821,11.207,10.952,4.588,13.75,3.565,2.288-8.919,5.354-8.153,2.543,4.076,3.821,7.131,2.543,2.8,8.141,3.565,10.952.256,13-2.543,3.054-11.463,1.022-11.974-8.92.511-16.306.767S227.534,268.226,227.534,268.226Z" transform="translate(-205.12 -264.15)" fill="#fff" stroke="#263238" stroke-linecap="round" stroke-linejoin="round" stroke-width="1"/>
    </clipPath>
  </defs>
  <g id="Mission_Impossible-bro" data-name="Mission Impossible-bro" transform="translate(-111.847 -73.04)">
    <g id="freepik--Character--inject-138" transform="translate(118.785 73.54)">
      <path id="Path_74169" data-name="Path 74169" d="M251.7,435.894l38-42.066L169.686,353.27,135.48,395.336Z" transform="translate(-113.808 -12.88)" fill="#0466c8" stroke="#263238" stroke-linecap="round" stroke-linejoin="round" stroke-width="1"/>
      <path id="Path_74170" data-name="Path 74170" d="M244.28,422.629,269.8,395.1,178.5,362.87,152.98,392.415Z" transform="translate(-110.013 -10.799)" fill="#263238" stroke="#263238" stroke-linecap="round" stroke-linejoin="round" stroke-width="1"/>
      <path id="Path_74171" data-name="Path 74171" d="M231.319,286.989s-18.837,4.989-26.771,12.485-11.584,21.344-11.584,21.344-10.672,9.078-15.673,11.8a34.352,34.352,0,0,0-17.243,20.2c-4.089,12.266-9.078,39.961-9.078,39.961l12.7,5.914s.231-7.3,11.584-18.387,18.374-29.971,19.287-30.421,20.881-13.617,20.881-13.617,15.442,10.66,32.916,13.617,36.773-.231,36.773-.231l-5.452,16.8S267.179,371.9,264,378.484s-18.155,31.553-18.155,31.553l10.672,8.627A184.539,184.539,0,0,1,283.29,402.09c15.661-7.946,19.47-13.617,24.057-22.925a211.274,211.274,0,0,0,10.441-28.6c.231-1.594,4.77-5.671,5.451-15.442l.681-9.735,23.826-21.331a104.284,104.284,0,0,0,34.51-24.739c15.661-17.255,18.155-25.651,19.75-41.093s7.946-76.491,8.165-77.4,2.275-5.439,5-5.9S432.878,167.64,434.922,169s6.084,2.044,6.571-2.276-3.176-14.979-14.748-26.552-19.981-13.385-22.694-10.441-.913,9.3-2.726,18.606-13.166,42.906-18.849,58.8-3.857,37.455-3.857,37.455a57.544,57.544,0,0,0-13.166,6.8c-5.439,4.089-13.836,9.735-13.836,9.735l-2.263-1.156s12.716-12.716,16.573-19.981,4.989-7.715,2.945-12.022-18.606-25.189-25.87-34.51-16.123-24.97-17.985-29.509a16.379,16.379,0,0,1-.231-12.254c1.363-3.176,14.079-9.528,14.31-19.287s-6.084-7.046-12.035-5-21.794,17.486-25.42,27.245-.462,12.935,5.9,18.837,14.115,17.936,18.2,29.29,9.309,22.244,17.705,25.2c0,0-13.385,6.352-22.244,12.7S308.041,250,308.041,250s-12.035,3.407-16.574,9.309a59.813,59.813,0,0,0-6.352,9.735S244.035,276.086,231.319,286.989Z" transform="translate(-110.449 -62.285)" fill="#fff"/>
      <g id="Group_14853" data-name="Group 14853" transform="translate(40.521 63.157)" clip-path="url(#clip-path)">
        <path id="Path_74172" data-name="Path 74172" d="M321.555,275.89l-19.384,8.993s.937,14.663-4.259,22.232-7.094,9.93-7.094,9.93-.475,11.353-3.784,18.447-8.518,9.455-8.518,9.455a19.336,19.336,0,0,1-6.145,14.189c-6.62,6.157-23.12,16.087-33.585,22.706-1.083.694-2.117,1.424-3.115,2.178l2.434,2a184.528,184.528,0,0,1,26.771-16.574c15.661-7.946,19.47-13.617,24.057-22.925a211.275,211.275,0,0,0,10.441-28.6c.231-1.594,4.77-5.671,5.451-15.442l.681-9.735,17.425-15.6Z" transform="translate(-132.603 -92.817)" opacity="0.2"/>
        <path id="Path_74173" data-name="Path 74173" d="M247.01,314.287c15.819,2.677,33.171.316,36.286-.146,1-2.616,1.631-5.549,0-6.668-2.835-1.9-1.886-7.094-1.886-7.094s-2.361,5.2-21.283,5.2S215.664,289.5,215.664,289.5s-1.886,5.671-7.094,7.569-19.4,9.93-19.4,9.93-.475,13.239-9.93,21.283-20.358,26.771-20.358,26.771l-1.716,5.634,5.159,2.434s.231-7.3,11.584-18.387,18.374-29.971,19.287-30.421S214.082,300.7,214.082,300.7,229.524,311.33,247.01,314.287Z" transform="translate(-149.626 -89.866)" opacity="0.2"/>
      </g>
      <path id="Path_74175" data-name="Path 74175" d="M231.319,286.989s-18.837,4.989-26.771,12.485-11.584,21.344-11.584,21.344-10.672,9.078-15.673,11.8a34.352,34.352,0,0,0-17.243,20.2c-4.089,12.266-9.078,39.961-9.078,39.961l12.7,5.914s.231-7.3,11.584-18.387,18.374-29.971,19.287-30.421,20.881-13.617,20.881-13.617,15.442,10.66,32.916,13.617,36.773-.231,36.773-.231l-5.452,16.8S267.179,371.9,264,378.484s-18.155,31.553-18.155,31.553l10.672,8.627A184.539,184.539,0,0,1,283.29,402.09c15.661-7.946,19.47-13.617,24.057-22.925a211.274,211.274,0,0,0,10.441-28.6c.231-1.594,4.77-5.671,5.451-15.442l.681-9.735,23.826-21.331a104.284,104.284,0,0,0,34.51-24.739c15.661-17.255,18.155-25.651,19.75-41.093s7.946-76.491,8.165-77.4,2.275-5.439,5-5.9S432.878,167.64,434.922,169s6.084,2.044,6.571-2.276-3.176-14.979-14.748-26.552-19.981-13.385-22.694-10.441-.913,9.3-2.726,18.606-13.166,42.906-18.849,58.8-3.857,37.455-3.857,37.455a57.544,57.544,0,0,0-13.166,6.8c-5.439,4.089-13.836,9.735-13.836,9.735l-2.263-1.156s12.716-12.716,16.573-19.981,4.989-7.715,2.945-12.022-18.606-25.189-25.87-34.51-16.123-24.97-17.985-29.509a16.379,16.379,0,0,1-.231-12.254c1.363-3.176,14.079-9.528,14.31-19.287s-6.084-7.046-12.035-5-21.794,17.486-25.42,27.245-.462,12.935,5.9,18.837,14.115,17.936,18.2,29.29,9.309,22.244,17.705,25.2c0,0-13.385,6.352-22.244,12.7S308.041,250,308.041,250s-12.035,3.407-16.574,9.309a59.813,59.813,0,0,0-6.352,9.735S244.035,276.086,231.319,286.989Z" transform="translate(-110.449 -62.285)" fill="none" stroke="#263238" stroke-linecap="round" stroke-linejoin="round" stroke-width="1"/>
      <path id="Path_74176" data-name="Path 74176" d="M293.878,236.93c-2.86,0-6.4.268-9.735.608a53.233,53.233,0,0,0-4.563,7.3s-41.13,7.07-53.846,17.973c0,0-18.837,4.989-26.771,12.485s-11.584,21.344-11.584,21.344-5.658,4.807-10.66,8.518c3.93-.28,10.538-.122,14.055,3.553s3.322,10.27,2.811,14.067c6.157-4,16.257-10.66,16.257-10.66s15.442,10.66,32.916,13.617,36.773-.231,36.773-.231l-.876,2.7c3.273-2.434,10.343-6.084,20.626-2.02a15.819,15.819,0,0,1,9.82,10.234c1.752-5.147,3.018-9.272,3.115-10,.231-1.594,4.77-5.671,5.452-15.442l.681-9.735,20.078-17.985c.426-4.368-.122-11.086-4.186-20.382C326.3,244.645,300.863,236.93,293.878,236.93Z" transform="translate(-104.865 -38.109)" fill="#0466c8"/>
      <g id="Group_14854" data-name="Group 14854" transform="translate(71.855 198.821)" clip-path="url(#clip-path-2)">
        <path id="Path_74177" data-name="Path 74177" d="M247.01,314.287c15.819,2.677,33.171.316,36.286-.146,1-2.616,1.631-5.549,0-6.668-2.835-1.9-1.886-7.094-1.886-7.094s-2.361,5.2-21.283,5.2S215.664,289.5,215.664,289.5s-1.886,5.671-7.094,7.569-19.4,9.93-19.4,9.93-.475,13.239-9.93,21.283-20.358,26.771-20.358,26.771l-1.716,5.634,5.159,2.434s.231-7.3,11.584-18.387,18.374-29.971,19.287-30.421S214.082,300.7,214.082,300.7,229.524,311.33,247.01,314.287Z" transform="translate(-180.959 -225.53)" opacity="0.2"/>
        <path id="Path_74178" data-name="Path 74178" d="M321.555,275.89l-19.384,8.993s.937,14.663-4.259,22.232-7.094,9.93-7.094,9.93-.475,11.353-3.784,18.447-8.518,9.455-8.518,9.455a19.336,19.336,0,0,1-6.145,14.189c-6.62,6.157-23.12,16.087-33.585,22.706-1.083.694-2.117,1.424-3.115,2.178l2.434,2a184.528,184.528,0,0,1,26.771-16.574c15.661-7.946,19.47-13.617,24.057-22.925a211.275,211.275,0,0,0,10.441-28.6c.231-1.594,4.77-5.671,5.451-15.442l.681-9.735,17.425-15.6Z" transform="translate(-163.937 -228.481)" opacity="0.2"/>
      </g>
      <path id="Path_74180" data-name="Path 74180" d="M293.878,236.93c-2.86,0-6.4.268-9.735.608a53.233,53.233,0,0,0-4.563,7.3s-41.13,7.07-53.846,17.973c0,0-18.837,4.989-26.771,12.485s-11.584,21.344-11.584,21.344-5.658,4.807-10.66,8.518c3.93-.28,10.538-.122,14.055,3.553s3.322,10.27,2.811,14.067c6.157-4,16.257-10.66,16.257-10.66s15.442,10.66,32.916,13.617,36.773-.231,36.773-.231l-.876,2.7c3.273-2.434,10.343-6.084,20.626-2.02a15.819,15.819,0,0,1,9.82,10.234c1.752-5.147,3.018-9.272,3.115-10,.231-1.594,4.77-5.671,5.452-15.442l.681-9.735,20.078-17.985c.426-4.368-.122-11.086-4.186-20.382C326.3,244.645,300.863,236.93,293.878,236.93Z" transform="translate(-104.865 -38.109)" fill="none" stroke="#263238" stroke-linecap="round" stroke-linejoin="round" stroke-width="1"/>
      <path id="Path_74181" data-name="Path 74181" d="M269.337,285.43a22.439,22.439,0,0,0-9.078,12.947c-2.263,8.846.231,14.067.231,14.067" transform="translate(-86.955 -27.592)" fill="none" stroke="#263238" stroke-linecap="round" stroke-linejoin="round" stroke-width="1"/>
      <path id="Path_74182" data-name="Path 74182" d="M212.592,261.1s-10.185,4.575-13.75,2.543-3.054-10.7,1.217-15.539,12.74-5.354,9.942-6.084-8.153-2.3-2.3-6.875,22.925-8.664,36.944-4.588,19.1,11.718,20.115,15.284a21.318,21.318,0,0,1,1.022,4.867s6.084-2.543,7.131-.5a2.689,2.689,0,0,1-.511,3.31s2.3,2.288,2.8,7.642-3.054,10.185-5.086,12.168-5.1,2.555-8.664-.5-5.6-13.507-7.9-13.507-11.974.511-12.168-1.217l-.243-1.777-25.992,6.62Z" transform="translate(-100.581 -39.853)" fill="#263238" stroke="#263238" stroke-linecap="round" stroke-linejoin="round" stroke-width="1"/>
      <path id="Path_74183" data-name="Path 74183" d="M257.722,273.9s1.813,21.794-4.32,32.685-17.255,3.176-19.749.681,11.584-12.935,14.76-21.112S256.578,269.422,257.722,273.9Z" transform="translate(-92.583 -30.359)" fill="#fff"/>
      <g id="Group_14855" data-name="Group 14855" transform="translate(140.775 242.307)" clip-path="url(#clip-path-3)">
        <path id="Path_74184" data-name="Path 74184" d="M257.722,273.9s1.813,21.794-4.32,32.685-17.255,3.176-19.749.681,11.584-12.935,14.76-21.112S256.578,269.422,257.722,273.9Z" transform="translate(-233.358 -272.667)" opacity="0.2"/>
      </g>
      <path id="Path_74186" data-name="Path 74186" d="M257.722,273.9s1.813,21.794-4.32,32.685-17.255,3.176-19.749.681,11.584-12.935,14.76-21.112S256.578,269.422,257.722,273.9Z" transform="translate(-92.583 -30.359)" fill="none" stroke="#263238" stroke-linecap="round" stroke-linejoin="round" stroke-width="1"/>
      <path id="Path_74187" data-name="Path 74187" d="M209.72,257.4a126.4,126.4,0,0,0,7.131,35.4c6.62,18.082,17.827,24.2,22.67,24.459s14.006-8.919,18.082-17.583a139.684,139.684,0,0,0,6.887-18.593s5.853-2.032,7.386-7.386,1.217-10.185-2.811-10.7-5.853,5.354-5.853,5.354a19.47,19.47,0,0,1-7.131-9.942c-2.044-6.62,2.032-11.718,0-10.441s-6.084,5.354-8.153,4.588,1.217-6.62,1.217-6.62S216.145,254.592,209.72,257.4Z" transform="translate(-97.709 -36.155)" fill="#fff" stroke="#263238" stroke-linecap="round" stroke-linejoin="round" stroke-width="1"/>
      <line id="Line_16" data-name="Line 16" y1="4.332" x2="11.207" transform="translate(155.319 230.411)" fill="none" stroke="#263238" stroke-linecap="round" stroke-linejoin="round" stroke-width="1"/>
      <path id="Path_74188" data-name="Path 74188" d="M227.534,268.226,205.12,264.15s.256,7.131,3.821,11.207,10.952,4.588,13.75,3.565,2.288-8.919,5.354-8.153,2.543,4.076,3.821,7.131,2.543,2.8,8.141,3.565,10.952.256,13-2.543,3.054-11.463,1.022-11.974-8.92.511-16.306.767S227.534,268.226,227.534,268.226Z" transform="translate(-98.706 -32.206)" fill="#fff"/>
      <g id="Group_14856" data-name="Group 14856" transform="translate(106.414 231.944)" clip-path="url(#clip-path-4)">
        <path id="Path_74189" data-name="Path 74189" d="M235.013,280.611c5.61.767,10.952.256,13-2.543,1.472-2.032,2.434-7.119,2.044-9.978l-21.9,10.952C229.257,280.039,231.058,280.076,235.013,280.611Z" transform="translate(-200.126 -263.296)" fill="#0466c8"/>
        <path id="Path_74190" data-name="Path 74190" d="M221.8,278.294c2.8-1.022,2.288-8.919,5.354-8.153,1.813.462,2.373,1.825,2.8,3.5l7.715-6.6h-.84c-2.19.073-3.979.146-5.4.219l-22.171,8.518a15.527,15.527,0,0,0,12.546,2.507Z" transform="translate(-204.224 -263.521)" fill="#0466c8"/>
      </g>
      <path id="Path_74192" data-name="Path 74192" d="M227.534,268.226,205.12,264.15s.256,7.131,3.821,11.207,10.952,4.588,13.75,3.565,2.288-8.919,5.354-8.153,2.543,4.076,3.821,7.131,2.543,2.8,8.141,3.565,10.952.256,13-2.543,3.054-11.463,1.022-11.974-8.92.511-16.306.767S227.534,268.226,227.534,268.226Z" transform="translate(-98.706 -32.206)" fill="none" stroke="#263238" stroke-linecap="round" stroke-linejoin="round" stroke-width="1"/>
      <path id="Path_74193" data-name="Path 74193" d="M222.326,274.2s-.256,6.62-.256,10.7,1.533,4.076,4.332,3.821a8.347,8.347,0,0,0,4.332-1.533" transform="translate(-95.031 -30.027)" fill="none" stroke="#263238" stroke-linecap="round" stroke-linejoin="round" stroke-width="1"/>
      <path id="Path_74194" data-name="Path 74194" d="M229.692,293.146s5.342-7.131,10.7-6.376,5.342,5.61,2.543,7.4-9.93,2.8-11.718,2.288S228.67,294.156,229.692,293.146Z" transform="translate(-93.478 -27.313)" fill="none" stroke="#263238" stroke-linecap="round" stroke-linejoin="round" stroke-width="1"/>
      <path id="Path_74195" data-name="Path 74195" d="M243.059,288.22s-6.62,5.61-13.239,5.853" transform="translate(-93.35 -26.987)" fill="none" stroke="#263238" stroke-linecap="round" stroke-linejoin="round" stroke-width="1"/>
      <path id="Path_74196" data-name="Path 74196" d="M224.58,263.824s3.31,3.565,4.588,2.555,5.865-5.61,11.207-6.084,6.084.511,5.354-.511-4.332-2.8-8.664-2.288-7.386,4.867-8.92,5.6a9.236,9.236,0,0,1-3.565.73Z" transform="translate(-94.487 -33.669)" fill="#263238" stroke="#263238" stroke-linecap="round" stroke-linejoin="round" stroke-width="1"/>
      <path id="Path_74197" data-name="Path 74197" d="M221.95,262.309s-.511,2.032-1.278,2.288-1.022.256-5.342-1.022-5.61-1.521-5.61-1.521-.256-2.044,2.8-2.3,6.887,2.044,6.887,2.044S221.184,263.063,221.95,262.309Z" transform="translate(-97.71 -33.164)" fill="#263238" stroke="#263238" stroke-linecap="round" stroke-linejoin="round" stroke-width="1"/>
      <path id="Path_74198" data-name="Path 74198" d="M244.26,233.61s11.463,4.867,12.485,23.935l2.288-.256a42.431,42.431,0,0,0-3.565-17.036C251.646,232.077,244.26,233.61,244.26,233.61Z" transform="translate(-90.219 -38.853)" fill="#fff" stroke="#263238" stroke-linecap="round" stroke-linejoin="round" stroke-width="1"/>
      <path id="Path_74199" data-name="Path 74199" d="M253.114,261.8a3.651,3.651,0,0,1-1.217-7.058l10.72-3.833a3.651,3.651,0,0,1,2.434,6.839l-10.72,3.833a3.577,3.577,0,0,1-1.217.219Z" transform="translate(-89.071 -35.099)" fill="#fff" stroke="#263238" stroke-miterlimit="10" stroke-width="1"/>
      <path id="Path_74200" data-name="Path 74200" d="M254.181,256.867c.584,1.57.122,3.2-1.046,3.651s-2.592-.475-3.188-2.056-.122-3.2,1.046-3.651S253.584,255.3,254.181,256.867Z" transform="translate(-89.042 -34.256)" fill="#fff" stroke="#263238" stroke-linecap="round" stroke-linejoin="round" stroke-width="1"/>
      <path id="Path_74201" data-name="Path 74201" d="M253.2,274.339a2.434,2.434,0,1,1-4.867,0c0-1.351,2.434-6.729,2.434-6.729S253.2,272.952,253.2,274.339Z" transform="translate(-89.336 -31.456)" fill="none" stroke="#263238" stroke-linecap="round" stroke-linejoin="round" stroke-width="1"/>
      <path id="Path_74202" data-name="Path 74202" d="M380.034,129.686c-2.726,2.945-.913,9.3-2.726,18.606s-13.166,42.906-18.849,58.8-3.857,37.455-3.857,37.455a57.544,57.544,0,0,0-13.166,6.8c-5.439,4.089-13.836,9.735-13.836,9.735l-2.324-1.107s12.716-12.716,16.573-19.981,4.989-7.715,2.945-12.022-18.606-25.189-25.87-34.51-16.123-24.97-17.985-29.509a16.379,16.379,0,0,1-.231-12.254c1.363-3.176,14.079-9.528,14.31-19.287s-6.084-7.046-12.035-5-21.794,17.486-25.42,27.245-.462,12.935,5.9,18.837,14.115,17.936,18.2,29.29,9.309,22.244,17.705,25.2c0,0-13.385,6.352-22.244,12.7S283.964,250,283.964,250s-12.035,3.407-16.574,9.309a69.7,69.7,0,0,0-5.391,7.97c5.184-1.9,17.742-4.807,32.4,3.821,18.192,10.7,22.049,28.45,22.049,39.389l7.228-6.474a104.285,104.285,0,0,0,34.51-24.739c15.661-17.255,18.155-25.651,19.749-41.093s7.946-76.491,8.165-77.4,2.276-5.439,5-5.9,17.705,12.716,19.75,14.079,6.084,2.044,6.571-2.276-3.176-14.979-14.748-26.552S382.7,126.729,380.034,129.686Z" transform="translate(-86.372 -62.285)" fill="#263238" stroke="#263238" stroke-linecap="round" stroke-linejoin="round" stroke-width="1"/>
      <path id="Path_74203" data-name="Path 74203" d="M294.41,229.28s24.069,3.188,36.773,22.706" transform="translate(-79.344 -39.768)" fill="none" stroke="#fff" stroke-linecap="round" stroke-linejoin="round" stroke-width="1"/>
      <path id="Path_74204" data-name="Path 74204" d="M397.105,166.144c.462-4.308-3.176-14.979-14.748-26.552s-19.981-13.385-22.694-10.441-.913,9.3-2.726,18.606c-.243,1.217-.669,2.945-1.217,4.965a10.611,10.611,0,0,1,7.569,1.85,15.66,15.66,0,0,1,3.651,3.237c.9-1.521,2.251-3.2,3.857-3.468,2.714-.45,17.705,12.716,19.75,14.079S396.655,170.464,397.105,166.144Z" transform="translate(-66.049 -61.751)" fill="#263238" stroke="#263238" stroke-linecap="round" stroke-linejoin="round" stroke-width="1"/>
      <path id="Path_74205" data-name="Path 74205" d="M281,173.493a45.735,45.735,0,0,1,3.894,4.174,17.766,17.766,0,0,0,15.722-9.26c-.986-1.886-1.74-3.456-2.142-4.454a16.379,16.379,0,0,1-.231-12.254c1.363-3.176,14.079-9.528,14.31-19.287s-6.084-7.046-12.035-5S278.729,144.9,275.1,154.656,274.64,167.591,281,173.493Z" transform="translate(-83.862 -62.285)" fill="#263238" stroke="#263238" stroke-linecap="round" stroke-linejoin="round" stroke-width="1"/>
      <path id="Path_74206" data-name="Path 74206" d="M300.523,127.412c-5.9,2.044-21.794,17.486-25.42,27.245-2.86,7.654-1.5,11.268,2.288,15.308a13.227,13.227,0,0,0,4.746-2.373c5.452-4.089,7.715-11.353,11.122-13.848,1.935-1.424,5.415-3.651,8.944-6.023,4.21-3.565,10.2-8.64,10.355-15.308C312.777,122.642,306.425,125.367,300.523,127.412Z" transform="translate(-83.863 -62.286)" fill="#fff" stroke="#263238" stroke-linecap="round" stroke-linejoin="round" stroke-width="1"/>
      <path id="Path_74207" data-name="Path 74207" d="M300.523,127.412c-5.9,2.044-21.794,17.486-25.42,27.245-2.032,5.439-1.935,8.834-.353,11.8a8.518,8.518,0,0,0,6.936-1.825c7.484-5.439,4.758-11.122,11.341-14.3a69.251,69.251,0,0,0,18.362-13.093,12.534,12.534,0,0,0,1.217-4.867C312.777,122.642,306.425,125.368,300.523,127.412Z" transform="translate(-83.863 -62.286)" fill="#fff" stroke="#263238" stroke-linecap="round" stroke-linejoin="round" stroke-width="1"/>
      <path id="Path_74208" data-name="Path 74208" d="M396.656,166.144c.462-4.308-3.176-14.979-14.748-26.552s-19.981-13.385-22.694-10.441a6.328,6.328,0,0,0-1.424,3.407c2.142-.767,5.744-1.217,10.5.9,7.946,3.651,22.463,21.794,24.739,26.771,1.326,2.92.949,6.51.633,9.187C395.123,169.393,396.413,168.469,396.656,166.144Z" transform="translate(-65.6 -61.751)" fill="#fff" stroke="#263238" stroke-linecap="round" stroke-linejoin="round" stroke-width="1"/>
      <path id="Path_74209" data-name="Path 74209" d="M317.12,263.966,306.5,272.581a.888.888,0,0,0-.316.718l.365,9.394a.888.888,0,0,0,1.436.645l10.952-8.834a.888.888,0,0,0,.414-.706l-.73-9.212a.876.876,0,0,0-1.5-.621Z" transform="translate(-76.792 -32.302)" fill="#263238" stroke="#263238" stroke-linecap="round" stroke-linejoin="round" stroke-width="1"/>
      <path id="Path_74210" data-name="Path 74210" d="M311.243,208.756q-.487-68.436,0-135.216" transform="translate(-75.746 -73.54)" fill="none" stroke="#263238" stroke-linecap="round" stroke-linejoin="round" stroke-width="1"/>
      <line id="Line_17" data-name="Line 17" y1="100.159" transform="translate(235.497 135.216)" fill="none" stroke="#fff" stroke-linecap="round" stroke-linejoin="round" stroke-width="1"/>
      <path id="Path_74211" data-name="Path 74211" d="M256.73,281.213c.243-69.36.243-138.721,0-207.643" transform="translate(-87.515 -73.533)" fill="none" stroke="#263238" stroke-linecap="round" stroke-linejoin="round" stroke-width="1"/>
      <path id="Path_74212" data-name="Path 74212" d="M250.636,344.2c-5.269-2.811-8.177-3.4-9.735-3.419-1.971,3.456-4.21,7.3-6.291,10.83,3.748.608,9.345,2.008,12.8,5.1a30.069,30.069,0,0,1,5.026,5.744c2.9-1.764,6.084-3.651,9.638-5.5C260.176,353.216,256.4,347.278,250.636,344.2Z" transform="translate(-92.312 -15.589)" fill="#263238" stroke="#263238" stroke-linecap="round" stroke-linejoin="round" stroke-width="1"/>
      <path id="Path_74213" data-name="Path 74213" d="M251.995,337.56,234.18,359l10.891,6.936,21.112-21.125Z" transform="translate(-92.405 -16.287)" fill="#263238" stroke="#263238" stroke-linecap="round" stroke-linejoin="round" stroke-width="1"/>
      <path id="Path_74214" data-name="Path 74214" d="M252.02,340.63l-13.41,15.843,5.269,3.079,15.405-15.624Z" transform="translate(-91.444 -15.621)" fill="#fff" stroke="#263238" stroke-linecap="round" stroke-linejoin="round" stroke-width="1"/>
      <path id="Path_74215" data-name="Path 74215" d="M154.477,362.649c.122-5.6-2.434-13.787-3.054-15.564-1.424-4.393-4.588-6.206-7.094-3.93-2,1.837-.791,5.963-.316,8.177a85.757,85.757,0,0,0,2.823,11.73c.548,1.533,1.217,4.441,3.1,4.867C153.26,368.636,154.392,366.154,154.477,362.649Z" transform="translate(-112.13 -15.287)" fill="#fff" stroke="#263238" stroke-linecap="round" stroke-linejoin="round" stroke-width="1"/>
      <path id="Path_74216" data-name="Path 74216" d="M148.247,365.6c.1-4.21-1.862-10.355-2.288-11.694-1.083-3.3-3.456-4.661-5.33-2.945-1.509,1.375-.6,4.478-.243,6.145a64.5,64.5,0,0,0,2.117,8.81c.414,1.144.913,3.322,2.336,3.651C147.347,370.079,148.186,368.205,148.247,365.6Z" transform="translate(-112.873 -13.542)" fill="#fff" stroke="#263238" stroke-linecap="round" stroke-linejoin="round" stroke-width="1"/>
      <path id="Path_74217" data-name="Path 74217" d="M163.824,347.67s5.159,6.352,9.516,6.948a10.392,10.392,0,0,1,7.946,4.953c1.387,2.19-3.176,9.528-3.383,12.108s-1.983,2.981-4.356,1.594-3.176-5.159-2.434-7.946,1.217-3.565.6-3.772a59.2,59.2,0,0,1-7.143-2.373C163.227,358.39,163.824,347.67,163.824,347.67Z" transform="translate(-107.69 -14.095)" fill="#fff" stroke="#263238" stroke-linecap="round" stroke-linejoin="round" stroke-width="1"/>
      <path id="Path_74218" data-name="Path 74218" d="M161.057,361.229c.122-5.6-2.434-13.787-3.054-15.564-1.424-4.393-4.6-6.206-7.094-3.93-2,1.837-.791,5.963-.316,8.177a85.748,85.748,0,0,0,2.823,11.73c.548,1.533,1.217,4.441,3.1,4.867C159.84,367.192,161,364.71,161.057,361.229Z" transform="translate(-110.703 -15.595)" fill="#fff" stroke="#263238" stroke-linecap="round" stroke-linejoin="round" stroke-width="1"/>
      <path id="Path_74219" data-name="Path 74219" d="M168.877,363.069c.122-5.6-2.434-13.8-3.054-15.564-1.424-4.393-4.6-6.206-7.094-3.93-2,1.825-.791,5.963-.329,8.177a85.783,85.783,0,0,0,2.835,11.73c.548,1.521,1.217,4.441,3.1,4.867C167.66,369.032,168.792,366.55,168.877,363.069Z" transform="translate(-109.008 -15.196)" fill="#fff" stroke="#263238" stroke-linecap="round" stroke-linejoin="round" stroke-width="1"/>
      <path id="Path_74220" data-name="Path 74220" d="M228.574,383.764c1.716-6.194,7.131-13.86,8.323-15.515,2.933-4.076,6.839-4.466,8.688-.718,1.485,3.018-1.144,6.936-2.361,9.126a89.826,89.826,0,0,1-6.827,11.414c-1.071,1.387-2.726,4.259-4.867,3.736C227.868,390.9,227.5,387.61,228.574,383.764Z" transform="translate(-93.735 -10.349)" fill="#fff" stroke="#263238" stroke-linecap="round" stroke-linejoin="round" stroke-width="1"/>
      <path id="Path_74221" data-name="Path 74221" d="M236.141,386.118c1.29-4.648,5.354-10.4,6.242-11.645,2.215-3.066,5.135-3.358,6.522-.535,1.12,2.263-.852,5.2-1.764,6.839a66.286,66.286,0,0,1-5.123,8.579c-.815,1.046-2.044,3.2-3.651,2.8C235.605,391.473,235.337,389.039,236.141,386.118Z" transform="translate(-92.065 -8.822)" fill="#fff" stroke="#263238" stroke-linecap="round" stroke-linejoin="round" stroke-width="1"/>
      <path id="Path_74222" data-name="Path 74222" d="M227.413,358.36s-7.471,4.356-12.229,2.8-7.739-.256-9.905,1.424.158,12.035-.487,14.967,1.1,4.259,4.028,3.93,5.013-4.04,5.111-7.484-.061-4.514.621-4.429,6.522,1.217,8.238,1S227.413,358.36,227.413,358.36Z" transform="translate(-98.877 -11.777)" fill="#fff" stroke="#263238" stroke-linecap="round" stroke-linejoin="round" stroke-width="1"/>
      <path id="Path_74223" data-name="Path 74223" d="M225.1,374.964c1.716-6.194,7.119-13.86,8.311-15.515,2.945-4.076,6.839-4.466,8.688-.706,1.485,3.006-1.132,6.924-2.361,9.114a88.361,88.361,0,0,1-6.814,11.414c-1.083,1.4-2.726,4.259-4.867,3.736C224.366,382.095,224,378.821,225.1,374.964Z" transform="translate(-94.492 -12.257)" fill="#fff" stroke="#263238" stroke-linecap="round" stroke-linejoin="round" stroke-width="1"/>
      <path id="Path_74224" data-name="Path 74224" d="M216.314,373.034c1.716-6.194,7.131-13.86,8.323-15.515,2.933-4.076,6.839-4.466,8.688-.718,1.485,3.018-1.144,6.936-2.361,9.126a89.834,89.834,0,0,1-6.827,11.414c-1.071,1.387-2.726,4.259-4.867,3.736C215.608,380.165,215.243,376.88,216.314,373.034Z" transform="translate(-96.393 -12.676)" fill="#fff" stroke="#263238" stroke-linecap="round" stroke-linejoin="round" stroke-width="1"/>
      <path id="Path_74225" data-name="Path 74225" d="M117.67,339.15,139.342,398.4l116.221,40.558-6.656-56.6Z" transform="translate(-117.67 -15.942)" fill="#0466c8" stroke="#263238" stroke-linecap="round" stroke-linejoin="round" stroke-width="1"/>
    </g>
    <g id="freepik--Graphics--inject-138" transform="translate(112.53 128.104)">
      <line id="Line_18" data-name="Line 18" x2="36.931" transform="translate(268.182 234.901)" fill="none" stroke="#263238" stroke-linecap="round" stroke-linejoin="round" stroke-width="1"/>
      <line id="Line_19" data-name="Line 19" x2="12.899" transform="translate(241.812 234.901)" fill="none" stroke="#263238" stroke-linecap="round" stroke-linejoin="round" stroke-width="1"/>
      <line id="Line_20" data-name="Line 20" x2="6.449" transform="translate(298.664 241.642)" fill="none" stroke="#263238" stroke-linecap="round" stroke-linejoin="round" stroke-width="1"/>
      <line id="Line_21" data-name="Line 21" x2="12.899" transform="translate(280.496 241.642)" fill="none" stroke="#263238" stroke-linecap="round" stroke-linejoin="round" stroke-width="1"/>
      <line id="Line_22" data-name="Line 22" x2="29.886" transform="translate(241.812 241.642)" fill="none" stroke="#263238" stroke-linecap="round" stroke-linejoin="round" stroke-width="1"/>
      <line id="Line_23" data-name="Line 23" x2="32.818" transform="translate(272.295 248.371)" fill="none" stroke="#263238" stroke-linecap="round" stroke-linejoin="round" stroke-width="1"/>
      <line id="Line_24" data-name="Line 24" x2="23.449" transform="translate(241.812 248.371)" fill="none" stroke="#263238" stroke-linecap="round" stroke-linejoin="round" stroke-width="1"/>
      <line id="Line_25" data-name="Line 25" x2="14.067" transform="translate(291.046 255.113)" fill="none" stroke="#263238" stroke-linecap="round" stroke-linejoin="round" stroke-width="1"/>
      <line id="Line_26" data-name="Line 26" x2="29.302" transform="translate(255.879 255.113)" fill="none" stroke="#263238" stroke-linecap="round" stroke-linejoin="round" stroke-width="1"/>
      <line id="Line_27" data-name="Line 27" x2="7.617" transform="translate(241.812 255.113)" fill="none" stroke="#263238" stroke-linecap="round" stroke-linejoin="round" stroke-width="1"/>
      <line id="Line_28" data-name="Line 28" x2="36.931" transform="translate(268.182 261.002)" fill="none" stroke="#263238" stroke-linecap="round" stroke-linejoin="round" stroke-width="1"/>
      <line id="Line_29" data-name="Line 29" x2="12.899" transform="translate(241.812 261.002)" fill="none" stroke="#263238" stroke-linecap="round" stroke-linejoin="round" stroke-width="1"/>
      <line id="Line_30" data-name="Line 30" x2="6.449" transform="translate(298.664 267.744)" fill="none" stroke="#263238" stroke-linecap="round" stroke-linejoin="round" stroke-width="1"/>
      <line id="Line_31" data-name="Line 31" x2="12.899" transform="translate(280.496 267.744)" fill="none" stroke="#263238" stroke-linecap="round" stroke-linejoin="round" stroke-width="1"/>
      <line id="Line_32" data-name="Line 32" x2="29.886" transform="translate(241.812 267.744)" fill="none" stroke="#263238" stroke-linecap="round" stroke-linejoin="round" stroke-width="1"/>
      <line id="Line_33" data-name="Line 33" x2="32.818" transform="translate(272.295 274.473)" fill="none" stroke="#263238" stroke-linecap="round" stroke-linejoin="round" stroke-width="1"/>
      <line id="Line_34" data-name="Line 34" x2="23.449" transform="translate(241.812 274.473)" fill="none" stroke="#263238" stroke-linecap="round" stroke-linejoin="round" stroke-width="1"/>
      <line id="Line_35" data-name="Line 35" x2="6.449" transform="translate(298.664 287.128)" fill="none" stroke="#263238" stroke-linecap="round" stroke-linejoin="round" stroke-width="1"/>
      <line id="Line_36" data-name="Line 36" x2="12.899" transform="translate(280.496 287.128)" fill="none" stroke="#263238" stroke-linecap="round" stroke-linejoin="round" stroke-width="1"/>
      <line id="Line_37" data-name="Line 37" x2="29.886" transform="translate(241.812 287.128)" fill="none" stroke="#263238" stroke-linecap="round" stroke-linejoin="round" stroke-width="1"/>
      <line id="Line_38" data-name="Line 38" x2="32.818" transform="translate(272.295 293.857)" fill="none" stroke="#263238" stroke-linecap="round" stroke-linejoin="round" stroke-width="1"/>
      <line id="Line_39" data-name="Line 39" x2="23.449" transform="translate(241.812 293.857)" fill="none" stroke="#263238" stroke-linecap="round" stroke-linejoin="round" stroke-width="1"/>
      <line id="Line_40" data-name="Line 40" x2="14.067" transform="translate(291.046 300.599)" fill="none" stroke="#263238" stroke-linecap="round" stroke-linejoin="round" stroke-width="1"/>
      <line id="Line_41" data-name="Line 41" x2="29.302" transform="translate(255.879 300.599)" fill="none" stroke="#263238" stroke-linecap="round" stroke-linejoin="round" stroke-width="1"/>
      <line id="Line_42" data-name="Line 42" x2="7.617" transform="translate(241.812 300.599)" fill="none" stroke="#263238" stroke-linecap="round" stroke-linejoin="round" stroke-width="1"/>
      <line id="Line_43" data-name="Line 43" x2="36.931" transform="translate(268.182 306.488)" fill="none" stroke="#263238" stroke-linecap="round" stroke-linejoin="round" stroke-width="1"/>
      <line id="Line_44" data-name="Line 44" x2="12.899" transform="translate(241.812 306.488)" fill="none" stroke="#263238" stroke-linecap="round" stroke-linejoin="round" stroke-width="1"/>
      <line id="Line_45" data-name="Line 45" x2="6.449" transform="translate(298.664 313.217)" fill="none" stroke="#263238" stroke-linecap="round" stroke-linejoin="round" stroke-width="1"/>
      <line id="Line_46" data-name="Line 46" x2="12.899" transform="translate(280.496 313.217)" fill="none" stroke="#263238" stroke-linecap="round" stroke-linejoin="round" stroke-width="1"/>
      <line id="Line_47" data-name="Line 47" x2="29.886" transform="translate(241.812 313.217)" fill="none" stroke="#263238" stroke-linecap="round" stroke-linejoin="round" stroke-width="1"/>
      <path id="Path_74226" data-name="Path 74226" d="M369.6,403.386l4.746-21.392,4.758,13.471,6.34-57.825,8.713,44.354,10.295-76.844,11.1,88.721,4.746-8.713,2.373,17.438" transform="translate(-56.784 -77.879)" fill="none" stroke="#263238" stroke-linecap="round" stroke-linejoin="round" stroke-width="1"/>
      <path id="Path_74227" data-name="Path 74227" d="M315.34,306.867l27.245-27.233,20.042,17.985L379.59,282.2l25.177,19.019,27.245-28.791" transform="translate(-68.551 -84.974)" fill="none" stroke="#263238" stroke-linecap="round" stroke-linejoin="round" stroke-width="1"/>
      <path id="Path_74228" data-name="Path 74228" d="M341.981,279.011a3.651,3.651,0,1,0-3.59,3.59,3.65,3.65,0,0,0,3.59-3.59Z" transform="translate(-64.357 -84.352)" fill="#0466c8" stroke="#263238" stroke-linecap="round" stroke-linejoin="round" stroke-width="1"/>
      <path id="Path_74229" data-name="Path 74229" d="M372.391,281.11a3.651,3.651,0,1,0-3.59,3.651,3.65,3.65,0,0,0,3.59-3.651Z" transform="translate(-57.762 -83.883)" fill="#0466c8" stroke="#263238" stroke-linecap="round" stroke-linejoin="round" stroke-width="1"/>
      <circle id="Ellipse_1159" data-name="Ellipse 1159" cx="3.602" cy="3.602" r="3.602" transform="translate(332.614 212.645)" fill="#0466c8" stroke="#263238" stroke-linecap="round" stroke-linejoin="round" stroke-width="1"/>
      <path id="Path_74230" data-name="Path 74230" d="M415.061,273.081a3.651,3.651,0,1,0-3.651,3.651,3.65,3.65,0,0,0,3.651-3.651Z" transform="translate(-48.509 -85.625)" fill="#0466c8" stroke="#263238" stroke-linecap="round" stroke-linejoin="round" stroke-width="1"/>
      <circle id="Ellipse_1160" data-name="Ellipse 1160" cx="3.602" cy="3.602" r="3.602" transform="translate(243.188 218.291)" fill="#0466c8" stroke="#263238" stroke-linecap="round" stroke-linejoin="round" stroke-width="1"/>
      <circle id="Ellipse_1161" data-name="Ellipse 1161" cx="3.602" cy="3.602" r="3.602" transform="translate(290.474 208.008)" fill="#0466c8" stroke="#263238" stroke-linecap="round" stroke-linejoin="round" stroke-width="1"/>
      <line id="Line_48" data-name="Line 48" y1="6.109" x2="10.587" transform="translate(51.619 98.175)" fill="none" stroke="#263238" stroke-linecap="round" stroke-linejoin="round" stroke-width="1"/>
      <path id="Path_74231" data-name="Path 74231" d="M112.53,202.261V238.17l31.1,17.961,31.1-17.961V202.261l-31.1-17.961Z" transform="translate(-112.53 -104.085)" fill="none" stroke="#263238" stroke-linecap="round" stroke-linejoin="round" stroke-width="1"/>
      <path id="Path_74232" data-name="Path 74232" d="M121.22,206.192v23.692l20.528,11.852,20.516-11.852V206.192L141.748,194.34Z" transform="translate(-110.646 -101.908)" fill="none" stroke="#263238" stroke-linecap="round" stroke-linejoin="round" stroke-width="1"/>
      <line id="Line_49" data-name="Line 49" y1="26.673" transform="translate(31.103 53.541)" fill="none" stroke="#263238" stroke-linecap="round" stroke-linejoin="round" stroke-width="1"/>
      <circle id="Ellipse_1162" data-name="Ellipse 1162" cx="5.245" cy="5.245" r="5.245" transform="translate(25.858 46.97)" fill="#0466c8" stroke="#263238" stroke-linecap="round" stroke-linejoin="round" stroke-width="1"/>
      <line id="Line_50" data-name="Line 50" y2="26.673" transform="translate(31.103 151.291)" fill="none" stroke="#263238" stroke-linecap="round" stroke-linejoin="round" stroke-width="1"/>
      <path id="Path_74233" data-name="Path 74233" d="M133.77,266.655a5.257,5.257,0,1,0,5.257-5.245,5.257,5.257,0,0,0-5.257,5.245Z" transform="translate(-107.924 -87.364)" fill="#0466c8" stroke="#263238" stroke-linecap="round" stroke-linejoin="round" stroke-width="1"/>
      <line id="Line_51" data-name="Line 51" x1="10.574" y1="6.109" transform="translate(0 98.175)" fill="none" stroke="#263238" stroke-linecap="round" stroke-linejoin="round" stroke-width="1"/>
      <path id="Path_74234" data-name="Path 74234" d="M121.96,225.812l20.516-11.852L162.1,225.63" transform="translate(-110.485 -97.653)" fill="none" stroke="#263238" stroke-linecap="round" stroke-linejoin="round" stroke-width="1"/>
      <line id="Line_52" data-name="Line 52" y1="23.875" transform="translate(31.991 92.432)" fill="none" stroke="#263238" stroke-linecap="round" stroke-linejoin="round" stroke-width="1"/>
      <line id="Line_53" data-name="Line 53" x2="14.067" transform="translate(95.012)" fill="none" stroke="#263238" stroke-linecap="round" stroke-linejoin="round" stroke-width="1"/>
      <line id="Line_54" data-name="Line 54" x2="29.314" transform="translate(59.845)" fill="none" stroke="#263238" stroke-linecap="round" stroke-linejoin="round" stroke-width="1"/>
      <line id="Line_55" data-name="Line 55" x2="7.617" transform="translate(45.778)" fill="none" stroke="#263238" stroke-linecap="round" stroke-linejoin="round" stroke-width="1"/>
      <line id="Line_56" data-name="Line 56" x2="36.919" transform="translate(72.159 5.89)" fill="none" stroke="#263238" stroke-linecap="round" stroke-linejoin="round" stroke-width="1"/>
      <line id="Line_57" data-name="Line 57" x2="12.899" transform="translate(45.778 5.89)" fill="none" stroke="#263238" stroke-linecap="round" stroke-linejoin="round" stroke-width="1"/>
      <line id="Line_58" data-name="Line 58" x2="6.437" transform="translate(102.641 12.631)" fill="none" stroke="#263238" stroke-linecap="round" stroke-linejoin="round" stroke-width="1"/>
      <line id="Line_59" data-name="Line 59" x2="12.899" transform="translate(84.462 12.631)" fill="none" stroke="#263238" stroke-linecap="round" stroke-linejoin="round" stroke-width="1"/>
      <line id="Line_60" data-name="Line 60" x2="29.898" transform="translate(45.778 12.631)" fill="none" stroke="#263238" stroke-linecap="round" stroke-linejoin="round" stroke-width="1"/>
      <line id="Line_61" data-name="Line 61" x2="32.818" transform="translate(76.26 19.36)" fill="none" stroke="#263238" stroke-linecap="round" stroke-linejoin="round" stroke-width="1"/>
      <line id="Line_62" data-name="Line 62" x2="23.449" transform="translate(45.778 19.36)" fill="none" stroke="#263238" stroke-linecap="round" stroke-linejoin="round" stroke-width="1"/>
      <line id="Line_63" data-name="Line 63" x2="14.067" transform="translate(95.012 26.101)" fill="none" stroke="#263238" stroke-linecap="round" stroke-linejoin="round" stroke-width="1"/>
      <line id="Line_64" data-name="Line 64" x2="29.314" transform="translate(59.845 26.101)" fill="none" stroke="#263238" stroke-linecap="round" stroke-linejoin="round" stroke-width="1"/>
      <line id="Line_65" data-name="Line 65" x2="7.617" transform="translate(45.778 26.101)" fill="none" stroke="#263238" stroke-linecap="round" stroke-linejoin="round" stroke-width="1"/>
      <line id="Line_66" data-name="Line 66" x2="36.919" transform="translate(72.159 31.991)" fill="none" stroke="#263238" stroke-linecap="round" stroke-linejoin="round" stroke-width="1"/>
      <line id="Line_67" data-name="Line 67" x2="12.899" transform="translate(45.778 31.991)" fill="none" stroke="#263238" stroke-linecap="round" stroke-linejoin="round" stroke-width="1"/>
      <line id="Line_68" data-name="Line 68" x2="6.437" transform="translate(102.641 38.72)" fill="none" stroke="#263238" stroke-linecap="round" stroke-linejoin="round" stroke-width="1"/>
      <line id="Line_69" data-name="Line 69" x2="12.899" transform="translate(84.462 38.72)" fill="none" stroke="#263238" stroke-linecap="round" stroke-linejoin="round" stroke-width="1"/>
      <line id="Line_70" data-name="Line 70" x2="29.898" transform="translate(45.778 38.72)" fill="none" stroke="#263238" stroke-linecap="round" stroke-linejoin="round" stroke-width="1"/>
      <line id="Line_71" data-name="Line 71" x2="32.818" transform="translate(76.26 45.462)" fill="none" stroke="#263238" stroke-linecap="round" stroke-linejoin="round" stroke-width="1"/>
      <line id="Line_72" data-name="Line 72" x2="23.449" transform="translate(45.778 45.462)" fill="none" stroke="#263238" stroke-linecap="round" stroke-linejoin="round" stroke-width="1"/>
      <line id="Line_73" data-name="Line 73" x2="14.067" transform="translate(95.012 52.191)" fill="none" stroke="#263238" stroke-linecap="round" stroke-linejoin="round" stroke-width="1"/>
      <line id="Line_74" data-name="Line 74" x2="29.314" transform="translate(59.845 52.191)" fill="none" stroke="#263238" stroke-linecap="round" stroke-linejoin="round" stroke-width="1"/>
      <line id="Line_75" data-name="Line 75" x2="7.617" transform="translate(45.778 52.191)" fill="none" stroke="#263238" stroke-linecap="round" stroke-linejoin="round" stroke-width="1"/>
      <line id="Line_76" data-name="Line 76" x2="36.919" transform="translate(72.159 58.092)" fill="none" stroke="#263238" stroke-linecap="round" stroke-linejoin="round" stroke-width="1"/>
      <line id="Line_77" data-name="Line 77" x2="12.899" transform="translate(45.778 58.092)" fill="none" stroke="#263238" stroke-linecap="round" stroke-linejoin="round" stroke-width="1"/>
      <line id="Line_78" data-name="Line 78" x1="6.437" transform="translate(102.641 64.822)" fill="none" stroke="#263238" stroke-linecap="round" stroke-linejoin="round" stroke-width="1"/>
      <line id="Line_79" data-name="Line 79" x2="12.899" transform="translate(84.462 64.822)" fill="none" stroke="#263238" stroke-linecap="round" stroke-linejoin="round" stroke-width="1"/>
      <line id="Line_80" data-name="Line 80" x2="29.898" transform="translate(45.778 64.822)" fill="none" stroke="#263238" stroke-linecap="round" stroke-linejoin="round" stroke-width="1"/>
      <line id="Line_81" data-name="Line 81" x2="32.818" transform="translate(76.26 71.563)" fill="none" stroke="#263238" stroke-linecap="round" stroke-linejoin="round" stroke-width="1"/>
      <line id="Line_82" data-name="Line 82" x2="23.449" transform="translate(45.778 71.563)" fill="none" stroke="#263238" stroke-linecap="round" stroke-linejoin="round" stroke-width="1"/>
      <line id="Line_83" data-name="Line 83" x2="14.067" transform="translate(95.012 78.292)" fill="none" stroke="#263238" stroke-linecap="round" stroke-linejoin="round" stroke-width="1"/>
      <line id="Line_84" data-name="Line 84" x2="29.314" transform="translate(59.845 78.292)" fill="none" stroke="#263238" stroke-linecap="round" stroke-linejoin="round" stroke-width="1"/>
      <line id="Line_85" data-name="Line 85" x2="7.617" transform="translate(45.778 78.292)" fill="none" stroke="#263238" stroke-linecap="round" stroke-linejoin="round" stroke-width="1"/>
    </g>
  </g>
</svg>
