<svg xmlns="http://www.w3.org/2000/svg" xmlns:xlink="http://www.w3.org/1999/xlink" width="401.969" height="383.29" viewBox="0 0 401.969 383.29">
  <defs>
    <clipPath id="clip-path">
      <path id="Path_74092" data-name="Path 74092" d="M373.36,208.72c12.39,6.59,60.49,39.21,70,49.4s-4.58,89.95-4.58,89.95H414.91l5.59-76.95-54.15-21.3Z" fill="#0466c8" stroke="#263238" stroke-linecap="round" stroke-linejoin="round" stroke-width="1"/>
    </clipPath>
    <clipPath id="clip-path-2">
      <path id="Path_74097" data-name="Path 74097" d="M365,316.62V268.35l10.8-3.81,28.02,15.82,1.77,43.85Z" fill="#757575" stroke="#263238" stroke-linecap="round" stroke-linejoin="round" stroke-width="1"/>
    </clipPath>
    <clipPath id="clip-path-3">
      <path id="Path_74101" data-name="Path 74101" d="M386.86,312.32l-5.32-42.03,9.37-7.98,33.92,11.53,4.81,42.78Z" fill="#0466c8" stroke="#263238" stroke-linecap="round" stroke-linejoin="round" stroke-width="1"/>
    </clipPath>
    <clipPath id="clip-path-4">
      <path id="Path_74108" data-name="Path 74108" d="M345.38,299.41l54.39-7.09,48.6,10.7-2.02,54.61-44.05,6.96-60.73-5.44Z" fill="#999" stroke="#263238" stroke-linecap="round" stroke-linejoin="round" stroke-width="1"/>
    </clipPath>
    <clipPath id="clip-path-5">
      <path id="Path_74121" data-name="Path 74121" d="M371.76,242.94a180.809,180.809,0,0,1-10.51,39c-15.81,40.07-.35,64-12.54,70.42-8.11,4.26-88.17,1.56-94.52-9.77-8.53-15.22.71-134.3,10.32-139,21.53-10.64,74.06-8.63,108.85,5.21,0,0,.18,1.68.29,4.75" fill="#0466c8" stroke="#263238" stroke-linecap="round" stroke-linejoin="round" stroke-width="1"/>
    </clipPath>
    <clipPath id="clip-path-6">
      <path id="Path_74128" data-name="Path 74128" d="M272,234.79a59.79,59.79,0,0,1-2.55,10.81l-64.2,39.82s-10.06-4.5-3-30.33,62.24-51.58,62.24-51.58a24.3,24.3,0,0,1,2.65,3.83" fill="#0466c8" stroke="#263238" stroke-linecap="round" stroke-linejoin="round" stroke-width="1"/>
    </clipPath>
  </defs>
  <g id="Quitting_a_job-bro" data-name="Quitting a job-bro" transform="translate(-56.97 -57.9)">
    <g id="freepik--Door--inject-66">
      <path id="Path_74038" data-name="Path 74038" d="M70.48,273.7h49.63V440.59" fill="none" stroke="#263238" stroke-linecap="round" stroke-linejoin="round" stroke-width="1"/>
      <path id="Path_74039" data-name="Path 74039" d="M189.12,348.42H133.57v7.26h7.25v85.01h48.3Z" fill="#999"/>
      <path id="Path_74040" data-name="Path 74040" d="M126.5,298.41s1.4-6.73,0-10.74a3.58,3.58,0,0,1,1.53,0c.76.18,1.27,4.77,1.27,4.77s3.57-3.68,4.33-3.37a3.62,3.62,0,0,1,1.65,2c.13.56,1,1.37,1.28,1.79s.63,2,1,2.84-1.78,5-7,6.24Z" fill="#fff" stroke="#263238" stroke-linecap="round" stroke-linejoin="round" stroke-width="1"/>
      <path id="Path_74041" data-name="Path 74041" d="M97.84,291.11a5.33,5.33,0,0,0-2.46,1.05c-.85.52-1.81,1.17-2.75,1.84-2.17,1.55-4.17,3.14-4.17,3.14l-6-7,2.93-6.25S99.28,291.41,97.84,291.11Z" fill="#fff" stroke="#263238" stroke-linecap="round" stroke-linejoin="round" stroke-width="1"/>
      <path id="Path_74042" data-name="Path 74042" d="M95.38,292.16c-.85.52-1.81,1.17-2.75,1.84a10.5,10.5,0,0,1-5.18-7.74S92.28,289.52,95.38,292.16Z" fill="#263238"/>
      <path id="Path_74043" data-name="Path 74043" d="M80.78,291.21l1.58-3.54s8.49,2.5,10.35,8.09l-7.43,2.65Z" fill="#0466c8" stroke="#263238" stroke-linecap="round" stroke-linejoin="round" stroke-width="1"/>
      <path id="Path_74044" data-name="Path 74044" d="M87,267.54c3.47-4.82,14.62-.44,16.31,5.17s.32,18.38-3.64,19.73C89.51,295.9,78.61,279.14,87,267.54Z" fill="#fff" stroke="#263238" stroke-linecap="round" stroke-linejoin="round" stroke-width="1"/>
      <path id="Path_74045" data-name="Path 74045" d="M93,273.76s2.21-2,8-1.52l-1.72,1.93s4.79.84,5.91-1.77-5.72-13.71-18.76-7.13c-9,4.52-2.37,21-2.37,21l2.33-1.18L88,283.36s-3.21-3.11-.91-5.61S91.4,279,91.4,279,93.83,276.13,93,273.76Z" fill="#263238"/>
      <path id="Path_74046" data-name="Path 74046" d="M94.25,277.15a7.47,7.47,0,0,1,3.12,0" fill="none" stroke="#263238" stroke-linecap="round" stroke-linejoin="round" stroke-width="1"/>
      <path id="Path_74047" data-name="Path 74047" d="M101.59,277.06a5,5,0,0,1,1.72-.38" fill="none" stroke="#263238" stroke-linecap="round" stroke-linejoin="round" stroke-width="1"/>
      <path id="Path_74048" data-name="Path 74048" d="M96.42,280.07c0,.63-.27,1.13-.61,1.13s-.62-.5-.62-1.13.28-1.13.62-1.13S96.42,279.45,96.42,280.07Z" fill="#263238"/>
      <path id="Path_74049" data-name="Path 74049" d="M102.21,280.07c0,.63-.28,1.13-.62,1.13s-.62-.5-.62-1.13.28-1.13.62-1.13S102.21,279.45,102.21,280.07Z" fill="#263238"/>
      <path id="Path_74050" data-name="Path 74050" d="M100.49,280.07a34.9,34.9,0,0,0,1.1,4.09l-1.1,1" fill="#fff" stroke="#263238" stroke-linecap="round" stroke-linejoin="round" stroke-width="1"/>
      <path id="Path_74051" data-name="Path 74051" d="M100.49,286.26a21.319,21.319,0,0,1-5.3,0A3,3,0,0,0,97.84,289c2.55.38,1.69-2.1,1.69-2.1" fill="#fff" stroke="#263238" stroke-linecap="round" stroke-linejoin="round" stroke-width="1"/>
      <path id="Path_74052" data-name="Path 74052" d="M70.48,300.58s7.12-9.76,11.22-9.46,16.14,7.55,16.14,7.55l12.76,19.78L124,302.06l2.77-4.82,5.25,4.82-1.91,1.88a53.541,53.541,0,0,1-3.34,12.24c-2.39,5.39-7.45,16.75-13.12,18.13s-17.8-11.37-17.8-11.37-6.2,17.95-6.2,24.7L70.48,349Z" fill="#0466c8" stroke="#263238" stroke-linecap="round" stroke-linejoin="round" stroke-width="1"/>
      <path id="Path_74053" data-name="Path 74053" d="M90.18,308.54a47,47,0,0,1,1.23-4.66" fill="none" stroke="#263238" stroke-linecap="round" stroke-linejoin="round" stroke-width="1"/>
      <path id="Path_74054" data-name="Path 74054" d="M95.81,322.94c-3.4-3.47-6.71-6.65-6.07-11.78" fill="none" stroke="#263238" stroke-linecap="round" stroke-linejoin="round" stroke-width="1"/>
      <path id="Path_74055" data-name="Path 74055" d="M89.61,347.64l.57,5.48s11.19,22.7,14.95,32.45c7.48,19.36,0,55,0,55h-9.3s-2.06-38.19-3.07-39.21S76.5,376.61,76.5,376.61l-6,18.5V349Z" fill="#263238"/>
      <path id="Path_74056" data-name="Path 74056" d="M165.15,369.28s-5.08,12.38-4,18.77,12.23,52.54,12.23,52.54h5.4s-.13-29.76-1.79-37-4.35-14.72-4.12-16.66,7.4-17.66,7.4-17.66Z" fill="#fff" stroke="#263238" stroke-linecap="round" stroke-linejoin="round" stroke-width="1"/>
      <path id="Path_74057" data-name="Path 74057" d="M147,242.56s-1.72,1.69-2.75,16.51l-5.57-1.88s3.38-11.83,3.2-16.82" fill="#fff" stroke="#263238" stroke-linecap="round" stroke-linejoin="round" stroke-width="1"/>
      <path id="Path_74058" data-name="Path 74058" d="M145.93,242.64a3.4,3.4,0,0,0,2.47-.82,6.179,6.179,0,0,0,1.19-1.16,8.11,8.11,0,0,1,1-1.1c.25-.23.5-.44.75-.64a16.267,16.267,0,0,1,1.6-1.13s-.05-1.06-1-.82a2.77,2.77,0,0,0-.75.34c-.4.24-.79.55-1.11.78a1.38,1.38,0,0,1-.62.29,1.17,1.17,0,0,1-.27,0h-.1a1.16,1.16,0,0,1-.49-.3.78.78,0,0,1-.15-.22v-.06a1.21,1.21,0,0,1,0-.18,3.411,3.411,0,0,1,0-1h0a9.369,9.369,0,0,1,.3-1.49h0a1.763,1.763,0,0,1,.16-.54,11.443,11.443,0,0,1,.47-1.3c.13-.3.27-.63.39-1s.22-.64.31-.94c.24-.88.25-1.6-.35-1.61s-.67.31-.95,1.06c-.11.26-.23.57-.39.94a13.839,13.839,0,0,1-1,1.84h0l-.15.23-.35-.09v-.35h0a16.552,16.552,0,0,1,.32-2.11c.07-.32.15-.65.23-1s.17-.6.26-.89c.46-1.46-.68-1.31-1.06-.94a3.84,3.84,0,0,0-.57,1.49c-.09.32-.18.67-.27,1a1.446,1.446,0,0,1-.14.46c-.19.61-.39,1.25-.52,1.69l-.06.17-.47.06v-.23h0a10.78,10.78,0,0,1-.08-2c0-.45.07-.8.09-1.08,0-.52,0-.78-.33-.95s-.74.28-1,.92a5.26,5.26,0,0,0-.26,1.57h0a2.3,2.3,0,0,0,0,.28,6.089,6.089,0,0,1-.09,1.45,2.5,2.5,0,0,0-.05.29l-.32.22a3.448,3.448,0,0,1-.11-.4h0a10.382,10.382,0,0,1-.26-1.28h0a9.358,9.358,0,0,0-.16-1c-.07-.26-.18-.41-.41-.46s-.54.34-.61.88a4,4,0,0,0,0,1,2.62,2.62,0,0,0,.14.72,6.3,6.3,0,0,1,.18,1.36v2.17c-.1.49-.17.91-.22,1.28a5.81,5.81,0,0,0,.17,2.65,2.39,2.39,0,0,0,1.38,1.18" fill="#fff" stroke="#263238" stroke-linecap="round" stroke-linejoin="round" stroke-width="1"/>
      <path id="Path_74059" data-name="Path 74059" d="M148.39,237.72a2.88,2.88,0,0,0-3.16,1" fill="none" stroke="#263238" stroke-linecap="round" stroke-linejoin="round" stroke-width="1"/>
      <path id="Path_74060" data-name="Path 74060" d="M167.12,244.71s2,8.88,0,14.3-2.92,19.69,9,23.54,12.72,2.09,12.72,2.09l-.27-39.07-15.13-9.11Z" fill="#263238"/>
      <path id="Path_74061" data-name="Path 74061" d="M177,265.82l-11.87.46-20.81,6.48,1.81-25.63.83-2.42-5.83-1.54-.57,2.73s-8.88,31.58-6.66,36.58,29.59-1.8,29.59-1.8,1,13.75,4.86,18.61,7.36,15,7.36,15H188.8V263.44Z" fill="#0466c8" stroke="#263238" stroke-linecap="round" stroke-linejoin="round" stroke-width="1"/>
      <path id="Path_74062" data-name="Path 74062" d="M187.44,264.57s-7.85,6.68-7.79,4.45a26.38,26.38,0,0,0-.83-7.43,23.781,23.781,0,0,0-1.28-3.81c-.26-.56-.41-.86-.41-.86l9.06-12.81Z" fill="#fff" stroke="#263238" stroke-linecap="round" stroke-linejoin="round" stroke-width="1"/>
      <path id="Path_74063" data-name="Path 74063" d="M187.85,259.65l-8.02,8.73-1.35-6.3-5.58,7.97,4.23-1.87,2.02,6.87,2.5-6.04,6.2,2.92,1.27-10.97Z" fill="#0466c8" stroke="#263238" stroke-linecap="round" stroke-linejoin="round" stroke-width="1"/>
      <path id="Path_74064" data-name="Path 74064" d="M175.73,314.3s-2.31,15.32-2.32,18.7c0,0-8.89,28.92-10.56,40.52,0,0,10.05,5.06,26,3.09V314.3Z" fill="#263238"/>
      <path id="Path_74065" data-name="Path 74065" d="M163.51,280.68s-1.89-9.06,0-10.71" fill="none" stroke="#263238" stroke-linecap="round" stroke-linejoin="round" stroke-width="1"/>
      <path id="Path_74066" data-name="Path 74066" d="M179.15,278.74s-.06,12.89,1.15,17.35" fill="none" stroke="#263238" stroke-linecap="round" stroke-linejoin="round" stroke-width="1"/>
      <path id="Path_74067" data-name="Path 74067" d="M184.43,253.46s-1.07,6.16-5.61,8.13a23.78,23.78,0,0,0-1.28-3.81C180.56,255.61,184.43,253.46,184.43,253.46Z" fill="#263238"/>
      <path id="Path_74068" data-name="Path 74068" d="M179.62,229.16c-13.64-.68-12.23,13.76-10.28,24.43,1.38,7.5,7.68,9.7,15.28,1.36C188.41,250.8,191,229.73,179.62,229.16Z" fill="#fff" stroke="#263238" stroke-linecap="round" stroke-linejoin="round" stroke-width="1"/>
      <path id="Path_74069" data-name="Path 74069" d="M180,234.29s.54,9.86,5.55,14.16,3.21,12.64,3.21,12.64l.32-32.73s-8.11-2.13-13.66-.74c0,0-9.17.69-10.14,7.36s2.55,13.47,2.55,13.47S168.51,234.42,180,234.29Z" fill="#263238"/>
      <path id="Path_74070" data-name="Path 74070" d="M179.15,245.9c0,.68-.3,1.23-.67,1.23s-.68-.55-.68-1.23.3-1.24.68-1.24S179.15,245.21,179.15,245.9Z" fill="#263238"/>
      <path id="Path_74071" data-name="Path 74071" d="M172.06,245.9c0,.68-.3,1.23-.67,1.23s-.67-.55-.67-1.23.3-1.24.67-1.24S172.06,245.21,172.06,245.9Z" fill="#263238"/>
      <path id="Path_74072" data-name="Path 74072" d="M177.1,242.05a3.25,3.25,0,0,1,2.76.58" fill="none" stroke="#263238" stroke-linecap="round" stroke-linejoin="round" stroke-width="1"/>
      <path id="Path_74073" data-name="Path 74073" d="M171.14,242.74a3.86,3.86,0,0,0-3.45.87" fill="none" stroke="#263238" stroke-linecap="round" stroke-linejoin="round" stroke-width="1"/>
      <path id="Path_74074" data-name="Path 74074" d="M172.9,247.82l-1.67,2s.83,1.46,1.67,1.78" fill="none" stroke="#263238" stroke-linecap="round" stroke-linejoin="round" stroke-width="1"/>
      <path id="Path_74075" data-name="Path 74075" d="M172.06,253.48a10.07,10.07,0,0,0,5-1s0,3.45-2.48,3.44c-1.44,0-1.54-1.67-1.54-1.67" fill="none" stroke="#263238" stroke-linecap="round" stroke-linejoin="round" stroke-width="1"/>
      <line id="Line_1" data-name="Line 1" y2="23.18" transform="translate(153.91 160.62)" fill="none" stroke="#263238" stroke-linecap="round" stroke-linejoin="round" stroke-width="1"/>
      <path id="Path_74076" data-name="Path 74076" d="M182.95,188.31H124.61l2.11-4.51h54.13Z" fill="none" stroke="#263238" stroke-linecap="round" stroke-linejoin="round" stroke-width="1"/>
      <line id="Line_2" data-name="Line 2" y2="58.67" transform="translate(104.72 160.62)" fill="none" stroke="#263238" stroke-linecap="round" stroke-linejoin="round" stroke-width="1"/>
      <path id="Path_74077" data-name="Path 74077" d="M126.76,222.72H82.48l1.6-3.43h41.08Z" fill="none" stroke="#263238" stroke-linecap="round" stroke-linejoin="round" stroke-width="1"/>
      <path id="Path_74078" data-name="Path 74078" d="M234.21,440.59V153.1H70.48V440.59" fill="none" stroke="#263238" stroke-linecap="round" stroke-linejoin="round" stroke-width="1"/>
      <path id="Path_74079" data-name="Path 74079" d="M226.55,160.62l-37.43,30V440.59h37.43" fill="#fff" stroke="#263238" stroke-linecap="round" stroke-linejoin="round" stroke-width="1"/>
      <path id="Path_74080" data-name="Path 74080" d="M192.76,342.72H180.91V290.88h11.85v3.74h-7.54v44.26h7.54Z" fill="#bfbfbf" stroke="#263238" stroke-miterlimit="10" stroke-width="1"/>
      <path id="Path_74081" data-name="Path 74081" d="M226.55,440.59V160.62H70.48V440.59" fill="none" stroke="#263238" stroke-linecap="round" stroke-linejoin="round" stroke-width="1"/>
      <rect id="Rectangle_5050" data-name="Rectangle 5050" width="34.96" height="19.93" transform="translate(135.05 124.74)" fill="#0466c8" stroke="#263238" stroke-linecap="round" stroke-linejoin="round" stroke-width="1"/>
      <path id="Path_74082" data-name="Path 74082" d="M198.04,215.22v44.59l15.83-6.3V205.78Z" fill="#fff" stroke="#263238" stroke-linecap="round" stroke-linejoin="round" stroke-width="1"/>
      <path id="Path_74083" data-name="Path 74083" d="M199.9,259.07v-42.2l12.03-6.68" fill="#fff" stroke="#263238" stroke-linecap="round" stroke-linejoin="round" stroke-width="1"/>
      <path id="Path_74084" data-name="Path 74084" d="M144.34,133.61h2.37v1.57h-2.37v3.22h3V140h-4.7V129h4.7v1.57h-3Z" fill="#263238"/>
      <path id="Path_74085" data-name="Path 74085" d="M154.15,129l-1.81,5.33,1.93,5.65h-1.82l-1.39-4.35h0L149.61,140H148l1.93-5.65L148.12,129h1.79l1.29,4h0l1.32-4Z" fill="#263238"/>
      <path id="Path_74086" data-name="Path 74086" d="M155.13,129h1.73v11h-1.73Z" fill="#263238"/>
      <path id="Path_74087" data-name="Path 74087" d="M157.61,129h5.33v1.57h-1.8V140h-1.72v-9.41h-1.81Z" fill="#263238"/>
    </g>
    <g id="freepik--Window--inject-66">
      <line id="Line_3" data-name="Line 3" y2="353.86" transform="translate(260.93 86.83)" fill="none" stroke="#263238" stroke-linecap="round" stroke-linejoin="round" stroke-width="1"/>
      <line id="Line_4" data-name="Line 4" y2="13.89" transform="translate(260.93 68.77)" fill="none" stroke="#263238" stroke-linecap="round" stroke-linejoin="round" stroke-width="1"/>
      <line id="Line_5" data-name="Line 5" y2="3.43" transform="translate(260.93 58.4)" fill="none" stroke="#263238" stroke-linecap="round" stroke-linejoin="round" stroke-width="1"/>
      <rect id="Rectangle_5051" data-name="Rectangle 5051" width="128.96" height="194.04" transform="translate(284.13 156.49)" fill="none" stroke="#263238" stroke-linecap="round" stroke-linejoin="round" stroke-width="1"/>
      <line id="Line_6" data-name="Line 6" y2="194.05" transform="translate(348.61 156.49)" fill="none" stroke="#263238" stroke-linecap="round" stroke-linejoin="round" stroke-width="1"/>
      <path id="Path_74088" data-name="Path 74088" d="M409.61,161.11H352.09V345.2" fill="none" stroke="#263238" stroke-linecap="round" stroke-linejoin="round" stroke-width="1"/>
      <path id="Path_74089" data-name="Path 74089" d="M344.61,161.11h-56.7V345.2" fill="none" stroke="#263238" stroke-linecap="round" stroke-linejoin="round" stroke-width="1"/>
    </g>
    <g id="freepik--Floor--inject-66">
      <line id="Line_7" data-name="Line 7" x2="385.08" transform="translate(57.46 440.59)" fill="none" stroke="#263238" stroke-linecap="round" stroke-linejoin="round" stroke-width="0.979"/>
    </g>
    <g id="freepik--Character--inject-66">
      <path id="Path_74090" data-name="Path 74090" d="M373.36,208.72c12.39,6.59,60.49,39.21,70,49.4s-4.58,89.95-4.58,89.95H414.91l5.59-76.95-54.15-21.3Z" fill="#0466c8"/>
      <g id="Group_14847" data-name="Group 14847" clip-path="url(#clip-path)">
        <path id="Path_74091" data-name="Path 74091" d="M439.84,341.81c-10.74-.13-19.4-.28-19.4-.28l-5.05-.13,5.1-70.28-52.13-20.51L368,246.2s7.85-.06,13.55-5.07a6.83,6.83,0,0,1,0,6.25s44.74,20.19,53.93,13a12.78,12.78,0,0,0,4.22-5.75,49.667,49.667,0,0,1,3.67,3.45C451.27,266.56,442.93,322.81,439.84,341.81Z" fill="rgba(0,0,0,0.7)" opacity="0.3"/>
      </g>
      <path id="Path_74093" data-name="Path 74093" d="M373.36,208.72c12.39,6.59,60.49,39.21,70,49.4s-4.58,89.95-4.58,89.95H414.91l5.59-76.95-54.15-21.3Z" fill="none" stroke="#263238" stroke-linecap="round" stroke-linejoin="round" stroke-width="1"/>
      <path id="Path_74094" data-name="Path 74094" d="M357.58,314.43l-6.42-30.69,19.58-5.3,10.8,27.21Z" fill="#757575" stroke="#263238" stroke-linecap="round" stroke-linejoin="round" stroke-width="1"/>
      <path id="Path_74095" data-name="Path 74095" d="M365,316.62V268.35l10.8-3.81,28.02,15.82,1.77,43.85Z" fill="#757575"/>
      <g id="Group_14848" data-name="Group 14848" clip-path="url(#clip-path-2)">
        <path id="Path_74096" data-name="Path 74096" d="M365,268.35l10.8-3.81-.08,44.49H365Z" fill="rgba(0,0,0,0.7)" opacity="0.3"/>
      </g>
      <path id="Path_74098" data-name="Path 74098" d="M365,316.62V268.35l10.8-3.81,28.02,15.82,1.77,43.85Z" fill="none" stroke="#263238" stroke-linecap="round" stroke-linejoin="round" stroke-width="1"/>
      <path id="Path_74099" data-name="Path 74099" d="M386.86,312.32l-5.32-42.03,9.37-7.98,33.92,11.53,4.81,42.78Z" fill="#0466c8"/>
      <g id="Group_14849" data-name="Group 14849" clip-path="url(#clip-path-3)">
        <path id="Path_74100" data-name="Path 74100" d="M381.54,270.29l3.76,30.48,9.67-4.34-4.06-34.12Z" fill="rgba(0,0,0,0.7)" opacity="0.3"/>
      </g>
      <path id="Path_74102" data-name="Path 74102" d="M386.86,312.32l-5.32-42.03,9.37-7.98,33.92,11.53,4.81,42.78Z" fill="none" stroke="#263238" stroke-linecap="round" stroke-linejoin="round" stroke-width="1"/>
      <line id="Line_8" data-name="Line 8" x2="0.27" y2="2.55" transform="translate(393.42 285.99)" fill="none" stroke="#263238" stroke-linecap="round" stroke-linejoin="round" stroke-width="1"/>
      <line id="Line_9" data-name="Line 9" x2="1.87" y2="17.62" transform="translate(390.91 262.31)" fill="none" stroke="#263238" stroke-linecap="round" stroke-linejoin="round" stroke-width="1"/>
      <line id="Line_10" data-name="Line 10" y2="17.01" transform="translate(375.72 278.44)" fill="none" stroke="#263238" stroke-linecap="round" stroke-linejoin="round" stroke-width="1"/>
      <line id="Line_11" data-name="Line 11" y2="2.77" transform="translate(375.72 268.35)" fill="none" stroke="#263238" stroke-linecap="round" stroke-linejoin="round" stroke-width="1"/>
      <path id="Path_74103" data-name="Path 74103" d="M423.82,282.19l-21.52-5.92,1.28,11,21.25,5.05Z" fill="#fff" stroke="#263238" stroke-linecap="round" stroke-linejoin="round" stroke-width="1"/>
      <path id="Path_74104" data-name="Path 74104" d="M419.35,309.36s-2-45.44,6.41-56.64,3.37,25.59,3.37,25.59,12.49-41.52,22.28-40.17-14.51,44.22-14.51,44.22,16.2-17.52,20.92-15.34-19.34,25.3-19.34,25.3,5.84-5.57,9.89-1.18S430.82,307,429.81,314.43Z" fill="#263238"/>
      <path id="Path_74105" data-name="Path 74105" d="M441.08,293.81a.67.67,0,0,0-.92.23A35.16,35.16,0,0,1,428,305.71c.39-1.87,1.2-5.53,2.31-10,3.15-5.1,10.78-10.82,10.86-10.88a.67.67,0,0,0,.13-.93.66.66,0,0,0-.93-.14,62.9,62.9,0,0,0-9.17,8.5c2.49-9.5,6.1-21.24,10.14-27.8a.67.67,0,0,0-1.14-.7c-5.9,9.57-10.77,29.24-12.8,38.24-3.13-13.76-1.92-32.06-1.91-32.26a.662.662,0,1,0-1.32-.09c0,.21-1.4,21.11,2.59,35.26-.21,1-.35,1.67-.38,1.84a.68.68,0,0,0,.24.65.7.7,0,0,0,.41.14.72.72,0,0,0,.29-.06c8.78-4.09,13.78-12.45,14-12.8a.66.66,0,0,0-.24-.87Z" fill="#fff" opacity="0.2"/>
      <path id="Path_74106" data-name="Path 74106" d="M345.38,299.41l54.39-7.09,48.6,10.7-2.02,54.61-44.05,6.96-60.73-5.44Z" fill="#999"/>
      <g id="Group_14850" data-name="Group 14850" clip-path="url(#clip-path-4)">
        <path id="Path_74107" data-name="Path 74107" d="M448.37,303.02l-.74,19.94-37.64,1.25-7.68-10.34v50.72l-60.73-5.45,3.81-59.72,54.38-7.11Z" fill="rgba(0,0,0,0.7)" opacity="0.3"/>
      </g>
      <path id="Path_74109" data-name="Path 74109" d="M345.38,299.41l54.39-7.09,48.6,10.7-2.02,54.61-44.05,6.96-60.73-5.44Z" fill="none" stroke="#263238" stroke-linecap="round" stroke-linejoin="round" stroke-width="1"/>
      <path id="Path_74110" data-name="Path 74110" d="M399.77,292.32l16.87,27.3,41.8,1.89-10.07-18.49Z" fill="#bfbfbf" stroke="#263238" stroke-linecap="round" stroke-linejoin="round" stroke-width="1"/>
      <path id="Path_74111" data-name="Path 74111" d="M399.77,292.32,392,319.62l-52.99,1.89,6.37-22.1Z" fill="#999" stroke="#263238" stroke-linecap="round" stroke-linejoin="round" stroke-width="1"/>
      <line id="Line_12" data-name="Line 12" y1="3.97" transform="translate(402.3 302.95)" fill="none" stroke="#263238" stroke-linecap="round" stroke-linejoin="round" stroke-width="1"/>
      <line id="Line_13" data-name="Line 13" y1="12.57" transform="translate(402.3 314.43)" fill="none" stroke="#263238" stroke-linecap="round" stroke-linejoin="round" stroke-width="1"/>
      <line id="Line_14" data-name="Line 14" y1="33.03" transform="translate(402.3 331.56)" fill="none" stroke="#263238" stroke-linecap="round" stroke-linejoin="round" stroke-width="1"/>
      <path id="Path_74112" data-name="Path 74112" d="M252.81,440.68h76.27a433.764,433.764,0,0,0,16.57-89.26l-89.92-12.35-2.63,12.77s-8.54,15.66-5.9,56.25a174.849,174.849,0,0,0,5.61,32.59Z" fill="#263238"/>
      <path id="Path_74113" data-name="Path 74113" d="M257,350.38c16,12.13,69,17.51,86.23,7.17l.51-11.23-85.16-6Z" fill="#757575" stroke="#263238" stroke-linecap="round" stroke-linejoin="round" stroke-width="1"/>
      <path id="Path_74114" data-name="Path 74114" d="M303.87,351.66V363s9.69,1.32,13.89-.07l.7-11.29Z" fill="#bfbfbf" stroke="#263238" stroke-miterlimit="10" stroke-width="1"/>
      <path id="Path_74115" data-name="Path 74115" d="M282.61,349.09s-.9,8.08-1.5,11.59h-3.77s1.06-9.13,1.94-11.59Z" fill="#263238"/>
      <path id="Path_74116" data-name="Path 74116" d="M331.41,363.67s0-8.13.28-11.69l3.74-.4s-.09,9.2-.7,11.74Z" fill="#263238"/>
      <path id="Path_74117" data-name="Path 74117" d="M301.13,190c7-4.13,31.73-1,35,2.11s-9.22,44.81-9.22,44.81l-20.56,2.71Z" fill="#0466c8" stroke="#263238" stroke-linecap="round" stroke-linejoin="round" stroke-width="1"/>
      <path id="Path_74118" data-name="Path 74118" d="M371.76,242.94a180.809,180.809,0,0,1-10.51,39c-15.81,40.07-.35,64-12.54,70.42-8.11,4.26-88.17,1.56-94.52-9.77-8.53-15.22.71-134.3,10.32-139,21.53-10.64,74.06-8.63,108.85,5.21,0,0,.18,1.68.29,4.75" fill="#0466c8"/>
      <g id="Group_14851" data-name="Group 14851" clip-path="url(#clip-path-5)">
        <path id="Path_74119" data-name="Path 74119" d="M313.08,246.2s-2.81,22.33-18.48,28.8-18.6,11-18.53,17.66c0,0-8,11.53-9.09,21.77-.73,7.14-5.74,17.1-14.79,20.93-2.49-15.77-1.36-50.08,1.52-79.75L257,253.3s13.05-14.84,14.69-25.36a14.083,14.083,0,0,0,.16-1.66c.36-10.55,11.41,14,5,28.42S313.08,246.2,313.08,246.2Z" fill="rgba(0,0,0,0.7)" opacity="0.3"/>
        <path id="Path_74120" data-name="Path 74120" d="M341.39,223.73l-10.47-10.61-8,8.23-10.26-4.21L301.09,228c-7.29-7.29-8.16-22.72-8-30.87a202.539,202.539,0,0,1,49.34,3h0C346.17,214.93,341.39,223.73,341.39,223.73Z" fill="rgba(0,0,0,0.7)" opacity="0.3"/>
      </g>
      <path id="Path_74122" data-name="Path 74122" d="M371.76,242.94a180.809,180.809,0,0,1-10.51,39c-15.81,40.07-.35,64-12.54,70.42-8.11,4.26-88.17,1.56-94.52-9.77-8.53-15.22.71-134.3,10.32-139,21.53-10.64,74.06-8.63,108.85,5.21,0,0,.18,1.68.29,4.75" fill="none" stroke="#263238" stroke-linecap="round" stroke-linejoin="round" stroke-width="1"/>
      <path id="Path_74123" data-name="Path 74123" d="M337,200.1S325.06,219,322.94,219c-2.88,0-21.81-18.18-21.81-18.18a13.57,13.57,0,0,0,4-7.26,26.261,26.261,0,0,0,0-9.74c-.16-.91-.3-1.44-.3-1.44l-3.72-40.59,40.51,7.17C330.57,178.81,330.92,196.59,337,200.1Z" fill="#fff" stroke="#263238" stroke-linecap="round" stroke-linejoin="round" stroke-width="1"/>
      <path id="Path_74124" data-name="Path 74124" d="M297.94,198.45S301,215,311.63,225.58l7.83,2.63s14-15.09,17.57-28.1l4.62,3.33s-11.53,23.26-20.26,26.91L312,241.45s1.79,14.32-10.88,19S253.65,289.88,260.49,312l-12.66,5.76L242,304.54s4.77-17.9,18.46-32.09,43.18-8.8,47.94-31V228S290.31,207,297.94,198.45Z" fill="#263238"/>
      <path id="Path_74125" data-name="Path 74125" d="M335,207.92l10.56,10.28c1.4-19.24-9.41-26.09-9.41-26.09,1.32,6.85-5.19,11.06-5.19,11.06a30.9,30.9,0,0,1-9.3,13.83,86.571,86.571,0,0,1-10-11.72c-6-2.63-10.5-15.28-10.5-15.28a28.131,28.131,0,0,0-6.53,7.78s.93,17.52,8,24.9a85.35,85.35,0,0,1,9-10.54l11.31,9.22Z" fill="#0466c8" stroke="#263238" stroke-linecap="round" stroke-linejoin="round" stroke-width="1"/>
      <path id="Path_74126" data-name="Path 74126" d="M272,234.79a59.79,59.79,0,0,1-2.55,10.81l-64.2,39.82s-10.06-4.5-3-30.33,62.24-51.58,62.24-51.58a24.3,24.3,0,0,1,2.65,3.83" fill="#0466c8"/>
      <g id="Group_14852" data-name="Group 14852" clip-path="url(#clip-path-6)">
        <path id="Path_74127" data-name="Path 74127" d="M272,234.78a58.5,58.5,0,0,1-2.56,10.82l-24.15,15c-11.54,0-23.81-.86-26.8-3.94-6-6.17,2.44-10.22,2.44-10.22,5.6-4.44,24.62-6.1,33.06-8.31s16.86-8,16.86-8l.42.52Z" fill="rgba(0,0,0,0.7)" opacity="0.3"/>
      </g>
      <path id="Path_74129" data-name="Path 74129" d="M272,234.79a59.79,59.79,0,0,1-2.55,10.81l-64.2,39.82s-10.06-4.5-3-30.33,62.24-51.58,62.24-51.58a24.3,24.3,0,0,1,2.65,3.83" fill="none" stroke="#263238" stroke-linecap="round" stroke-linejoin="round" stroke-width="1"/>
      <path id="Path_74130" data-name="Path 74130" d="M286,238.75s10.09-9.22,11.9-11.33,15.64-5.53,17.55-4.74.86,3.42.86,3.42,3.84,0,3.11,2.11-7.5,5-7.5,5,5.3,3.95,6.16,5.53-2.63,4.22-2.63,4.22,1,2.63,0,3.43-6.15,4.74-6.15,4.74-1.9-.79.18-4.22l-2.94-.14s-8.68,5.41-14.74,4.36Z" fill="#fff" stroke="#263238" stroke-linecap="round" stroke-linejoin="round" stroke-width="1"/>
      <path id="Path_74131" data-name="Path 74131" d="M215.63,253c19-8.52,57.33-17.07,61.45-11.92l9-4.2s7.64,8.68,5.8,17.12l-7.24,1.58s-7.78,16.34-47.84,32.15c-22.53,8.9-31.31,2-33.73-7.52" fill="#0466c8" stroke="#263238" stroke-linecap="round" stroke-linejoin="round" stroke-width="1"/>
      <path id="Path_74132" data-name="Path 74132" d="M341.7,274.74a61.652,61.652,0,0,0,13.83-.32l3.27-14.5" fill="none" stroke="#263238" stroke-linecap="round" stroke-linejoin="round" stroke-width="1"/>
      <line id="Line_15" data-name="Line 15" x1="0.52" y2="3.28" transform="translate(332.87 269.73)" fill="none" stroke="#263238" stroke-linecap="round" stroke-linejoin="round" stroke-width="1"/>
      <path id="Path_74133" data-name="Path 74133" d="M359.85,255.25l1.3-5.78s-16.87-.25-24.25-2.11L334,265.94" fill="none" stroke="#263238" stroke-linecap="round" stroke-linejoin="round" stroke-width="1"/>
      <path id="Path_74134" data-name="Path 74134" d="M309.31,333.31q0,2.88.21,5.76" fill="none" stroke="#263238" stroke-linecap="round" stroke-linejoin="round" stroke-width="1"/>
      <path id="Path_74135" data-name="Path 74135" d="M311,307.7a157.865,157.865,0,0,0-1.73,22" fill="none" stroke="#263238" stroke-linecap="round" stroke-linejoin="round" stroke-width="1"/>
      <path id="Path_74136" data-name="Path 74136" d="M318.92,260.41c-1.74,14.71-5.12,29.15-7.39,43.78" fill="none" stroke="#263238" stroke-linecap="round" stroke-linejoin="round" stroke-width="1"/>
      <path id="Path_74137" data-name="Path 74137" d="M321.39,238.11c-.65,5.94-1.28,11.89-1.95,17.83" fill="none" stroke="#263238" stroke-linecap="round" stroke-linejoin="round" stroke-width="1"/>
      <path id="Path_74138" data-name="Path 74138" d="M282.54,390.92a24.149,24.149,0,0,0-5.2-1.95" fill="none" stroke="#fff" stroke-linecap="round" stroke-linejoin="round" stroke-width="1"/>
      <path id="Path_74139" data-name="Path 74139" d="M316,437.67C315,430,314,422,311,414c-5-10-17-13-24.45-20.87" fill="none" stroke="#fff" stroke-linecap="round" stroke-linejoin="round" stroke-width="1"/>
      <path id="Path_74140" data-name="Path 74140" d="M312.68,377.63c-.62,8.37,1.49,19.1-3.4,26.45" fill="none" stroke="#fff" stroke-linecap="round" stroke-linejoin="round" stroke-width="1"/>
      <path id="Path_74141" data-name="Path 74141" d="M313.71,366.83c-.24,2-.44,4.06-.63,6.1" fill="none" stroke="#fff" stroke-linecap="round" stroke-linejoin="round" stroke-width="1"/>
      <path id="Path_74142" data-name="Path 74142" d="M316.5,411.28a48.781,48.781,0,0,0,4.89,3" fill="none" stroke="#fff" stroke-linecap="round" stroke-linejoin="round" stroke-width="1"/>
      <path id="Path_74143" data-name="Path 74143" d="M289.12,381.59a115.29,115.29,0,0,0,23.2,26.53" fill="none" stroke="#fff" stroke-linecap="round" stroke-linejoin="round" stroke-width="1"/>
      <path id="Path_74144" data-name="Path 74144" d="M261.71,357.63s.36,13.77-10.89,19" fill="none" stroke="#fff" stroke-linecap="round" stroke-linejoin="round" stroke-width="1"/>
      <path id="Path_74145" data-name="Path 74145" d="M341.57,363.59s-1.05,7.38.08,10.62" fill="none" stroke="#fff" stroke-linecap="round" stroke-linejoin="round" stroke-width="1"/>
      <path id="Path_74146" data-name="Path 74146" d="M254,430.78q2.43,3.45,5.09,6.73" fill="none" stroke="#fff" stroke-linecap="round" stroke-linejoin="round" stroke-width="1"/>
      <path id="Path_74147" data-name="Path 74147" d="M336,253s12.31,2.75,20.75,1.17" fill="none" stroke="#263238" stroke-linecap="round" stroke-linejoin="round" stroke-width="1"/>
      <path id="Path_74148" data-name="Path 74148" d="M228,248.34s-4.64-3.56-14.18-1" fill="none" stroke="#263238" stroke-linecap="round" stroke-linejoin="round" stroke-width="1"/>
      <path id="Path_74149" data-name="Path 74149" d="M277.08,241.12a18,18,0,0,1,5,10.15" fill="none" stroke="#263238" stroke-linecap="round" stroke-linejoin="round" stroke-width="1"/>
      <path id="Path_74150" data-name="Path 74150" d="M379.86,244.47a13.69,13.69,0,0,1-9.59,6.89" fill="none" stroke="#263238" stroke-linecap="round" stroke-linejoin="round" stroke-width="1"/>
      <path id="Path_74151" data-name="Path 74151" d="M324.83,319.28a22.808,22.808,0,0,1-4.71,2.23" fill="none" stroke="#263238" stroke-linecap="round" stroke-linejoin="round" stroke-width="1"/>
      <path id="Path_74152" data-name="Path 74152" d="M347.57,294.38c-5.14,8.21-11.41,16.28-19,22.31" fill="none" stroke="#263238" stroke-linecap="round" stroke-linejoin="round" stroke-width="1"/>
      <path id="Path_74153" data-name="Path 74153" d="M278.25,299.64c6.07,18.17,16.53,39.5,35.73,46.64" fill="none" stroke="#263238" stroke-linecap="round" stroke-linejoin="round" stroke-width="1"/>
      <path id="Path_74154" data-name="Path 74154" d="M275.25,289.77q.78,2.82,1.64,5.63" fill="none" stroke="#263238" stroke-linecap="round" stroke-linejoin="round" stroke-width="1"/>
      <path id="Path_74155" data-name="Path 74155" d="M271.88,275c.56,3.33,1.3,6.63,2.1,9.91" fill="none" stroke="#263238" stroke-linecap="round" stroke-linejoin="round" stroke-width="1"/>
      <path id="Path_74156" data-name="Path 74156" d="M322.87,183.28s-7.37,12.79-17.77,10.26a26.261,26.261,0,0,0,0-9.74c.63-.34,1.05-.52,1.05-.52Z" fill="#263238"/>
      <path id="Path_74157" data-name="Path 74157" d="M337.23,165.5s4.56-5.35,4.45-15.35c-.19-16.14-7.18-31.26-31.13-27.22-10.05,1.7-16.9,8.62-19.06,19.36-1,5-.14,10.91.44,16.37.63,6,.64,11.11,2.11,16.52,2.55,9.43,7.71,15.65,14.3,14.73,7.09-1,18.74-8.11,19-12.16" fill="#fff" stroke="#263238" stroke-linecap="round" stroke-linejoin="round" stroke-width="1"/>
      <path id="Path_74158" data-name="Path 74158" d="M308.43,149.77s4.6-1.71,7.06,3.69" fill="none" stroke="#263238" stroke-linecap="round" stroke-linejoin="round" stroke-width="1"/>
      <path id="Path_74159" data-name="Path 74159" d="M293.26,147.22s4.61-1.71,7.07,3.69" fill="none" stroke="#263238" stroke-linecap="round" stroke-linejoin="round" stroke-width="1"/>
      <path id="Path_74160" data-name="Path 74160" d="M309.34,157.45c0,1.14.51,2.06,1.14,2.06s1.15-.92,1.15-2.06-.51-2.07-1.15-2.07S309.34,156.3,309.34,157.45Z" fill="#263238"/>
      <path id="Path_74161" data-name="Path 74161" d="M295.65,156.13c0,1.14.52,2.07,1.15,2.07s1.14-.93,1.14-2.07-.51-2.06-1.14-2.06S295.65,155,295.65,156.13Z" fill="#263238"/>
      <path id="Path_74162" data-name="Path 74162" d="M309.52,172.81s-5,2.78-9.71,1.56" fill="none" stroke="#263238" stroke-linecap="round" stroke-linejoin="round" stroke-width="1"/>
      <path id="Path_74163" data-name="Path 74163" d="M308.61,173.74s-.54,3.63-3.94,4a3.15,3.15,0,0,1-3.59-3" fill="none" stroke="#263238" stroke-linecap="round" stroke-linejoin="round" stroke-width="1"/>
      <path id="Path_74164" data-name="Path 74164" d="M301.13,155.36c0,1.75-7,10.54-6.34,11.59s6.34,1.41,6.34,1.41" fill="#fff" stroke="#263238" stroke-linecap="round" stroke-linejoin="round" stroke-width="1"/>
      <path id="Path_74165" data-name="Path 74165" d="M326,161.86h-2.9c1.06-5.73-1-14.12-4.39-17.72l5-7.38s-12.12-6.41-29-3.2c0,0-5.32-4.7-3.72-14.45a16.57,16.57,0,0,0,8.79,3.16s-2.36-2.9-1.87-6.06a30.22,30.22,0,0,0,15.77,2.63c9.49-.79,20.36.53,28,11.6,6.66,9.68,4.8,32.15-6.64,40.1l-1.9-2.18s3.73-14.05-1.86-12.23C327.25,157.45,326,161.86,326,161.86Z" fill="#263238"/>
      <path id="Path_74166" data-name="Path 74166" d="M326.89,159.51s2.11-4.56,6.32-3.38.27,19.64-6.32,15.42" fill="#fff" stroke="#263238" stroke-linecap="round" stroke-linejoin="round" stroke-width="1"/>
    </g>
  </g>
</svg>
