<svg xmlns="http://www.w3.org/2000/svg" xmlns:xlink="http://www.w3.org/1999/xlink" width="336" height="288.191" viewBox="0 0 336 288.191">
  <defs>
    <clipPath id="clip-path">
      <rect id="Rectangle_5334" data-name="Rectangle 5334" width="227.343" height="173.333" fill="#fff" stroke="#263238" stroke-linecap="round" stroke-linejoin="round" stroke-width="1"/>
    </clipPath>
    <clipPath id="clip-path-2">
      <path id="Path_74284" data-name="Path 74284" d="M126.371,213.142a72.431,72.431,0,0,0-7.614,6.244c-4.681,4.3-12.487,10.54-12.88,11.91s5.274,26.93,7.422,35.1,2.733,45.861,0,58.741a155.463,155.463,0,0,1-7.221,23.813,33.583,33.583,0,0,0,20.486,5.851c12.1-.593,17.552-3.9,23.62-3.343s12.88.384,16.006-3.711,6.436-5.659,8.358-8.2a9.888,9.888,0,0,0,1.947-5.466s-1.755-6.636-8.2-27.515-6.436-48.8-7.606-54.646-3.9-23.612-6.636-28.493-13.808-8.534-19.291-9.5S128.326,212.164,126.371,213.142Z" transform="translate(-105.857 -212.695)" fill="#4866fc" stroke="#263238" stroke-linecap="round" stroke-linejoin="round" stroke-width="1"/>
    </clipPath>
    <clipPath id="clip-path-3">
      <path id="Path_74293" data-name="Path 74293" d="M125.609,206.37s2.081,4.371,2.282,7.054,6.762,12.42,9.044,12.42,2.19-7.355,1.889-10.632.593-5.073.894-5.466-4.179-1.588-6.954-3.678-5.073-2.39-6.168-1.989S125.609,206.37,125.609,206.37Z" transform="translate(-125.606 -203.928)" fill="#fff" stroke="#263238" stroke-linecap="round" stroke-linejoin="round" stroke-width="1"/>
    </clipPath>
    <clipPath id="clip-path-4">
      <path id="Path_74299" data-name="Path 74299" d="M142.425,187.82a20.259,20.259,0,0,0,3.076,4.873c1.488,1.4,2.783,1.087,2.29,2.182s-2.683,2.507-2.683,2.507.2,4.965,0,7.347,0,3.084-2.19,3.485a18.806,18.806,0,0,1-8.9-1.02,8.2,8.2,0,0,1-4.572-3.678,9.871,9.871,0,0,1-2.783-.3c-1.889-.393-3.477-4.371-2.382-5.851a2.909,2.909,0,0,1,4.07-.5c.7.836,1.5,1.588,2.09,1.588s1.789-.493,1.095-1.789-1.5-2.382-.4-3.276S140.637,187.719,142.425,187.82Z" transform="translate(-123.921 -187.818)" fill="#fff" stroke="#263238" stroke-linecap="round" stroke-linejoin="round" stroke-width="1"/>
    </clipPath>
    <clipPath id="clip-path-5">
      <path id="Path_74313" data-name="Path 74313" d="M115.766,206.455a42.627,42.627,0,0,1,7.957-11.125c5.466-5.567,25.91-11.334,27.03-12.922s-9.445.995-9.445.995-6.16-7.456-15.1-7.957-11.526,9.244-11.626,14.117,2.382,10.531,2.382,10.531S114.153,207.249,115.766,206.455Z" transform="translate(-114.576 -175.428)" fill="#4866fc" stroke="#263238" stroke-linecap="round" stroke-linejoin="round" stroke-width="1"/>
    </clipPath>
    <clipPath id="clip-path-6">
      <path id="Path_74334" data-name="Path 74334" d="M86.578,245.141S74.09,255.489,73.89,256.266s31.619,30.257,31.619,30.257l5.851-6.444L93.991,256.851l13.273-8.358s1.17-6.436-.777-10.147a8.592,8.592,0,0,0-5.851-4.3Z" transform="translate(-73.889 -234.05)" fill="#4866fc" stroke="#263238" stroke-linecap="round" stroke-linejoin="round" stroke-width="1"/>
    </clipPath>
    <clipPath id="clip-path-7">
      <path id="Path_74345" data-name="Path 74345" d="M188.553,243.307s-12.178-6.937-17.226-11.869-7.138-7.247-7.664-5.358,4.413,26.746,5.358,27.2,20.9,7.564,24.891,7.773,6.687.527,7.146-1.254-2.507-7.247-6.2-11.559S188.553,243.307,188.553,243.307Z" transform="translate(-163.623 -225.425)" fill="#4866fc" stroke="#263238" stroke-linecap="round" stroke-linejoin="round" stroke-width="1"/>
    </clipPath>
    <clipPath id="clip-path-8">
      <path id="Path_74364" data-name="Path 74364" d="M120.541,215.963s5.466,16.783,7.807,28.3,3.343,22.241,3.343,22.241-3.343-2.14-12.295-2.925-13.072-2.148-16.976-9.562-6.444-6.829-10.347-8S87,242.676,87,242.676,119.179,215.737,120.541,215.963Zm12.37-1.463a105.706,105.706,0,0,1,7.038,18.07C142.992,243.068,147.3,266,147.3,266s7.456-.836,9.662-5.567,2.307-6.519,5.851-7.773,8.408-3.887,8.826-7.247a52.824,52.824,0,0,1,1.362-6.728s-19.633-16.273-22.684-18.388S133.756,213.664,132.912,214.5Z" transform="translate(-87 -214.398)" fill="#4866fc" stroke="#263238" stroke-linecap="round" stroke-linejoin="round" stroke-width="1"/>
    </clipPath>
    <clipPath id="clip-path-9">
      <path id="Path_74381" data-name="Path 74381" d="M190.946,250.213,180.13,227.529l7.982-4.179s8.509,9.871,11.977,16.716,5.015,17.753,3.678,19.433-7.464.518-10.506-1.371" transform="translate(-180.13 -223.35)" fill="#4866fc" stroke="#263238" stroke-linecap="round" stroke-linejoin="round" stroke-width="1"/>
    </clipPath>
  </defs>
  <g id="People_search-bro" data-name="People search-bro" transform="translate(-56 -92.53)">
    <g id="freepik--Floor--inject-130" transform="translate(56 373.048)">
      <path id="Path_74218" data-name="Path 74218" d="M392,431.986c0,2.115-75.224,3.836-168,3.836S56,434.1,56,431.986s75.224-3.836,168-3.836S392,429.863,392,431.986Z" transform="translate(-56 -428.15)" fill="#4866fc"/>
      <path id="Path_74219" data-name="Path 74219" d="M392,431.986c0,2.115-75.224,3.836-168,3.836S56,434.1,56,431.986s75.224-3.836,168-3.836S392,429.863,392,431.986Z" transform="translate(-56 -428.15)" fill="#fff" opacity="0.6"/>
    </g>
    <g id="freepik--Plants--inject-130" transform="translate(271.224 222.79)">
      <path id="Path_74220" data-name="Path 74220" d="M385.679,271.116c-.05,0,.56-3.026.618-3.218.7-2.156,3.343-5.926,5.851-5.918a3.009,3.009,0,0,1,2.892,3.418c-.184,1.789-1.789,3.343-3.243,4.179C390.126,270.622,385.679,271.116,385.679,271.116Z" transform="translate(-325.35 -250.61)" fill="#4866fc"/>
      <path id="Path_74221" data-name="Path 74221" d="M377.01,248.5c2.4.836,3.586,5.291,3.51,7.522,0,.192-.46,3.251-.5,3.235h-.05c.2.694.393,1.446.593,2.273.359,1.521.752,3.251,1.053,5.157a52.115,52.115,0,0,1,.677,6.21,38.8,38.8,0,0,1-.234,6.979.37.37,0,0,1,0,.084c.318-.677,1.254-2.507,1.346-2.675,1.245-1.906,4.773-4.839,7.222-4.179a3.009,3.009,0,0,1,1.889,4.062c-.644,1.672-2.6,2.725-4.229,3.185-1.839.527-5.943-.092-6.269-.142a54.143,54.143,0,0,1-1.513,6.946c-.376,1.329-.794,2.658-1.237,3.987.293-.577.552-1.087.6-1.153,1.245-1.9,4.773-4.839,7.221-4.179a3.009,3.009,0,0,1,1.889,4.062c-.652,1.672-2.6,2.725-4.229,3.184s-5.165,0-6.093-.117l-.518,1.521c-.836,2.432-1.672,4.856-2.449,7.255-.267.836-.5,1.672-.736,2.507.251-.51.476-.944.518-1,1.245-1.9,4.773-4.839,7.221-4.179a3.009,3.009,0,0,1,1.889,4.062c-.652,1.672-2.6,2.725-4.229,3.184s-4.823.059-5.926-.092c-.217.836-.435,1.738-.6,2.591-.109.585-.242,1.145-.318,1.738s-.167,1.162-.242,1.739c-.117,1.112-.242,2.257-.326,3.343-.067.761-.117,1.479-.167,2.207.259-.836.836-2.508.836-2.616a11.7,11.7,0,0,1,3.895-4.438,3.929,3.929,0,0,1,.326-.577,3.009,3.009,0,0,1,4.43-.694c1.922,1.672,1.446,6.227.56,8.316-.05.125-.769,1.4-1.237,2.2.343-.426.677-.836,1.036-1.279.71-.836,1.438-1.672,2.223-2.616l1.187-1.3c.393-.443.836-.836,1.287-1.287,1.02-.986,2.1-1.931,3.21-2.867-.761-.619-3.419-2.859-4.179-4.388s-1.3-3.661-.51-5.266a3,3,0,0,1,4.271-1.354c2.156,1.346,2.374,5.934,1.814,8.133,0,.142-.61,1.672-.944,2.508.669-.56,1.337-1.112,2.031-1.672,2.014-1.555,4.1-3.059,6.168-4.58.635-.46,1.262-.936,1.9-1.4-.276-.217-3.494-2.817-4.346-4.522-.761-1.513-1.3-3.661-.51-5.274a3.017,3.017,0,0,1,4.271-1.354c2.156,1.354,2.374,5.943,1.814,8.141-.042.167-.878,2.374-1.12,2.925,1.387-1.028,2.758-2.073,4.07-3.151a54.238,54.238,0,0,0,5.015-4.689c-.134-.1-3.494-2.8-4.371-4.547-.761-1.521-1.312-3.661-.51-5.274a3.017,3.017,0,0,1,4.271-1.354c2.156,1.354,2.365,5.934,1.814,8.141-.042.142-.677,1.83-.995,2.624l.125.075a39.408,39.408,0,0,0,4.129-5.55c.677-1.078,1.27-2.14,1.822-3.193-.685-.435-3.761-2.507-4.722-3.962s-1.672-3.494-1.087-5.182a3.009,3.009,0,0,1,4.1-1.814c2.29,1.112,3.009,5.642,2.7,7.89,0,.125-.334,1.346-.568,2.24.242-.476.493-.97.719-1.429.836-1.73,1.5-3.343,2.073-4.831.318-.836.585-1.588.836-2.3-.443-.777-2.181-3.928-2.349-5.658s.1-3.887,1.421-5.1a3,3,0,0,1,4.472.276c1.53,2.039.075,6.386-1.237,8.241-.117.159-2.181,2.466-2.207,2.424v-.05c-.226.694-.476,1.429-.761,2.223-.543,1.471-1.17,3.134-1.973,4.89a53.394,53.394,0,0,1-2.859,5.55,38.861,38.861,0,0,1-4.045,5.684l-.059.067c.635-.393,2.449-1.429,2.6-1.488,2.081-.9,6.645-1.4,8.316.51a3.009,3.009,0,0,1-.66,4.43c-1.471,1.045-3.669.836-5.291.326-1.822-.577-4.906-3.343-5.149-3.586a53.164,53.164,0,0,1-5.1,4.965c-1.045.9-2.131,1.78-3.226,2.65.56-.326,1.061-.61,1.137-.635,2.09-.9,6.687-1.4,8.358.51a3.009,3.009,0,0,1-.669,4.43c-1.471,1.045-3.669.836-5.291.326s-4.313-2.842-5.015-3.46l-1.254,1.128c-2.039,1.563-4.087,3.109-6.043,4.7-.694.56-1.354,1.128-2.014,1.672l.986-.552c2.09-.894,6.687-1.4,8.358.518a3.009,3.009,0,0,1-.669,4.43c-1.463,1.036-3.669.836-5.282.318s-4.062-2.608-4.89-3.343c-.66.6-1.329,1.212-1.939,1.83-.41.426-.836.836-1.22,1.27l-1.162,1.321c-.71.836-1.446,1.747-2.115,2.608-.476.593-.911,1.17-1.354,1.747.677-.56,2.039-1.63,2.156-1.672,1.931-1.2,6.361-2.39,8.308-.752a3.017,3.017,0,0,1,0,4.488c-1.287,1.245-3.494,1.379-5.174,1.112-1.847-.284-5.19-2.466-5.608-2.733-.727.953-1.429,1.9-2.073,2.792-2.248,3.109-4,5.784-5.207,7.673l-.117.192-1.555-.752c.075-.125.159-.242.242-.376,1.254-1.881,3.084-4.539,5.424-7.631.736-.978,1.546-2.006,2.382-3.059a30.792,30.792,0,0,1-2.415-2.992,22.03,22.03,0,0,1-5.993.736c-.075,1.2-.142,2.374-.184,3.477-.167,3.836-.15,7.029-.117,9.269v.259l-1.713-.836c0-2.223.084-5.224.309-8.776.075-1.229.184-2.508.3-3.87-.468-.117-4.346-1.112-5.8-2.282s-2.725-2.775-2.675-4.572a3.009,3.009,0,0,1,3.343-3.017c2.507.326,4.639,4.4,5.057,6.628,0,.134.134,1.6.184,2.507.05-.543.092-1.078.15-1.672.117-1.112.259-2.223.41-3.41.092-.577.192-1.153.284-1.738s.242-1.187.359-1.78c.309-1.387.685-2.767,1.095-4.179-.97-.1-4.422-.51-5.9-1.362s-3.109-2.332-3.343-4.112a3.009,3.009,0,0,1,2.817-3.485c2.507-.059,5.249,3.644,6,5.784.05.134.41,1.739.593,2.616.251-.836.5-1.672.786-2.508.836-2.407,1.73-4.823,2.616-7.23.276-.736.543-1.479.836-2.215-.351,0-4.463-.426-6.118-1.379-1.471-.836-3.109-2.332-3.343-4.112a3.009,3.009,0,0,1,2.817-3.485c2.507-.067,5.249,3.644,6,5.784.059.167.577,2.466.677,3.059.593-1.621,1.162-3.251,1.672-4.873a51.4,51.4,0,0,0,1.613-6.687c-.159,0-4.455-.41-6.152-1.387-1.471-.836-3.109-2.332-3.343-4.112a3.009,3.009,0,0,1,2.817-3.485c2.549-.059,5.257,3.644,6,5.784.05.142.451,1.9.618,2.733h.15a39.2,39.2,0,0,0,.384-6.9,36.393,36.393,0,0,0-.242-3.669c-.836,0-4.5,0-6.127-.694s-3.343-1.981-3.761-3.728a3.009,3.009,0,0,1,2.416-3.77c2.507-.343,5.617,3.042,6.6,5.09.05.109.468,1.3.761,2.181-.067-.535-.117-1.087-.192-1.588-.259-1.914-.61-3.644-.936-5.174-.192-.836-.384-1.672-.568-2.374-.836-.41-3.987-2.081-5.082-3.427s-2.056-3.343-1.63-5.015a3.017,3.017,0,0,1,3.778-2.206Z" transform="translate(-321.612 -248.377)" fill="#4866fc"/>
      <path id="Path_74222" data-name="Path 74222" d="M433.648,294.139c-1.989-.084-5.968-2.123-5.968-2.123s2.14-2.215,2.29-2.332c1.78-1.421,6.043-3.109,8.166-1.672a3.026,3.026,0,0,1,.527,4.455C437.518,293.821,435.344,294.206,433.648,294.139Z" transform="translate(-332.246 -254.794)" fill="#4866fc"/>
      <g id="Group_14896" data-name="Group 14896" transform="translate(41.296 0)" opacity="0.5">
        <path id="Path_74223" data-name="Path 74223" d="M385.679,271.116c-.05,0,.56-3.026.618-3.218.7-2.156,3.343-5.926,5.851-5.918a3.009,3.009,0,0,1,2.892,3.418c-.184,1.789-1.789,3.343-3.243,4.179C390.126,270.622,385.679,271.116,385.679,271.116Z" transform="translate(-366.646 -250.61)" fill="#fff"/>
        <path id="Path_74224" data-name="Path 74224" d="M377.01,248.5c2.4.836,3.586,5.291,3.51,7.522,0,.192-.46,3.251-.5,3.235h-.05c.2.694.393,1.446.593,2.273.359,1.521.752,3.251,1.053,5.157a52.115,52.115,0,0,1,.677,6.21,38.8,38.8,0,0,1-.234,6.979.37.37,0,0,1,0,.084c.318-.677,1.254-2.507,1.346-2.675,1.245-1.906,4.773-4.839,7.222-4.179a3.009,3.009,0,0,1,1.889,4.062c-.644,1.672-2.6,2.725-4.229,3.185-1.839.527-5.943-.092-6.269-.142a54.143,54.143,0,0,1-1.513,6.946c-.376,1.329-.794,2.658-1.237,3.987.293-.577.552-1.087.6-1.153,1.245-1.9,4.773-4.839,7.221-4.179a3.009,3.009,0,0,1,1.889,4.062c-.652,1.672-2.6,2.725-4.229,3.184s-5.165,0-6.093-.117l-.518,1.521c-.836,2.432-1.672,4.856-2.449,7.255-.267.836-.5,1.672-.736,2.507.251-.51.476-.944.518-1,1.245-1.9,4.773-4.839,7.221-4.179a3.009,3.009,0,0,1,1.889,4.062c-.652,1.672-2.6,2.725-4.229,3.184s-4.823.059-5.926-.092c-.217.836-.435,1.738-.6,2.591-.109.585-.242,1.145-.318,1.738s-.167,1.162-.242,1.739c-.117,1.112-.242,2.257-.326,3.343-.067.761-.117,1.479-.167,2.207.259-.836.836-2.508.836-2.616a11.7,11.7,0,0,1,3.895-4.438,3.929,3.929,0,0,1,.326-.577,3.009,3.009,0,0,1,4.43-.694c1.922,1.672,1.446,6.227.56,8.316-.05.125-.769,1.4-1.237,2.2.343-.426.677-.836,1.036-1.279.71-.836,1.438-1.672,2.223-2.616l1.187-1.3c.393-.443.836-.836,1.287-1.287,1.02-.986,2.1-1.931,3.21-2.867-.761-.619-3.419-2.859-4.179-4.388s-1.3-3.661-.51-5.266a3,3,0,0,1,4.271-1.354c2.156,1.346,2.374,5.934,1.814,8.133,0,.142-.61,1.672-.944,2.508.669-.56,1.337-1.112,2.031-1.672,2.014-1.555,4.1-3.059,6.168-4.58.635-.46,1.262-.936,1.9-1.4-.276-.217-3.494-2.817-4.346-4.522-.761-1.513-1.3-3.661-.51-5.274a3.017,3.017,0,0,1,4.271-1.354c2.156,1.354,2.374,5.943,1.814,8.141-.042.167-.878,2.374-1.12,2.925,1.387-1.028,2.758-2.073,4.07-3.151a54.238,54.238,0,0,0,5.015-4.689c-.134-.1-3.494-2.8-4.371-4.547-.761-1.521-1.312-3.661-.51-5.274a3.017,3.017,0,0,1,4.271-1.354c2.156,1.354,2.365,5.934,1.814,8.141-.042.142-.677,1.83-.995,2.624l.125.075a39.408,39.408,0,0,0,4.129-5.55c.677-1.078,1.27-2.14,1.822-3.193-.685-.435-3.761-2.507-4.722-3.962s-1.672-3.494-1.087-5.182a3.009,3.009,0,0,1,4.1-1.814c2.29,1.112,3.009,5.642,2.7,7.89,0,.125-.334,1.346-.568,2.24.242-.476.493-.97.719-1.429.836-1.73,1.5-3.343,2.073-4.831.318-.836.585-1.588.836-2.3-.443-.777-2.181-3.928-2.349-5.658s.1-3.887,1.421-5.1a3,3,0,0,1,4.472.276c1.53,2.039.075,6.386-1.237,8.241-.117.159-2.181,2.466-2.207,2.424v-.05c-.226.694-.476,1.429-.761,2.223-.543,1.471-1.17,3.134-1.973,4.89a53.394,53.394,0,0,1-2.859,5.55,38.861,38.861,0,0,1-4.045,5.684l-.059.067c.635-.393,2.449-1.429,2.6-1.488,2.081-.9,6.645-1.4,8.316.51a3.009,3.009,0,0,1-.66,4.43c-1.471,1.045-3.669.836-5.291.326-1.822-.577-4.906-3.343-5.149-3.586a53.164,53.164,0,0,1-5.1,4.965c-1.045.9-2.131,1.78-3.226,2.65.56-.326,1.061-.61,1.137-.635,2.09-.9,6.687-1.4,8.358.51a3.009,3.009,0,0,1-.669,4.43c-1.471,1.045-3.669.836-5.291.326s-4.313-2.842-5.015-3.46l-1.254,1.128c-2.039,1.563-4.087,3.109-6.043,4.7-.694.56-1.354,1.128-2.014,1.672l.986-.552c2.09-.894,6.687-1.4,8.358.518a3.009,3.009,0,0,1-.669,4.43c-1.463,1.036-3.669.836-5.282.318s-4.062-2.608-4.89-3.343c-.66.6-1.329,1.212-1.939,1.83-.41.426-.836.836-1.22,1.27l-1.162,1.321c-.71.836-1.446,1.747-2.115,2.608-.476.593-.911,1.17-1.354,1.747.677-.56,2.039-1.63,2.156-1.672,1.931-1.2,6.361-2.39,8.308-.752a3.017,3.017,0,0,1,0,4.488c-1.287,1.245-3.494,1.379-5.174,1.112-1.847-.284-5.19-2.466-5.608-2.733-.727.953-1.429,1.9-2.073,2.792-2.248,3.109-4,5.784-5.207,7.673l-.117.192-1.555-.752c.075-.125.159-.242.242-.376,1.254-1.881,3.084-4.539,5.424-7.631.736-.978,1.546-2.006,2.382-3.059a30.792,30.792,0,0,1-2.415-2.992,22.03,22.03,0,0,1-5.993.736c-.075,1.2-.142,2.374-.184,3.477-.167,3.836-.15,7.029-.117,9.269v.259l-1.713-.836c0-2.223.084-5.224.309-8.776.075-1.229.184-2.508.3-3.87-.468-.117-4.346-1.112-5.8-2.282s-2.725-2.775-2.675-4.572a3.009,3.009,0,0,1,3.343-3.017c2.507.326,4.639,4.4,5.057,6.628,0,.134.134,1.6.184,2.507.05-.543.092-1.078.15-1.672.117-1.112.259-2.223.41-3.41.092-.577.192-1.153.284-1.738s.242-1.187.359-1.78c.309-1.387.685-2.767,1.095-4.179-.97-.1-4.422-.51-5.9-1.362s-3.109-2.332-3.343-4.112a3.009,3.009,0,0,1,2.817-3.485c2.507-.059,5.249,3.644,6,5.784.05.134.41,1.739.593,2.616.251-.836.5-1.672.786-2.508.836-2.407,1.73-4.823,2.616-7.23.276-.736.543-1.479.836-2.215-.351,0-4.463-.426-6.118-1.379-1.471-.836-3.109-2.332-3.343-4.112a3.009,3.009,0,0,1,2.817-3.485c2.507-.067,5.249,3.644,6,5.784.059.167.577,2.466.677,3.059.593-1.621,1.162-3.251,1.672-4.873a51.4,51.4,0,0,0,1.613-6.687c-.159,0-4.455-.41-6.152-1.387-1.471-.836-3.109-2.332-3.343-4.112a3.009,3.009,0,0,1,2.817-3.485c2.549-.059,5.257,3.644,6,5.784.05.142.451,1.9.618,2.733h.15a39.2,39.2,0,0,0,.384-6.9,36.393,36.393,0,0,0-.242-3.669c-.836,0-4.5,0-6.127-.694s-3.343-1.981-3.761-3.728a3.009,3.009,0,0,1,2.416-3.77c2.507-.343,5.617,3.042,6.6,5.09.05.109.468,1.3.761,2.181-.067-.535-.117-1.087-.192-1.588-.259-1.914-.61-3.644-.936-5.174-.192-.836-.384-1.672-.568-2.374-.836-.41-3.987-2.081-5.082-3.427s-2.056-3.343-1.63-5.015a3.017,3.017,0,0,1,3.778-2.206Z" transform="translate(-362.908 -248.377)" fill="#fff"/>
        <path id="Path_74225" data-name="Path 74225" d="M433.648,294.139c-1.989-.084-5.968-2.123-5.968-2.123s2.14-2.215,2.29-2.332c1.78-1.421,6.043-3.109,8.166-1.672a3.026,3.026,0,0,1,.527,4.455C437.518,293.821,435.344,294.206,433.648,294.139Z" transform="translate(-373.542 -254.794)" fill="#fff"/>
      </g>
      <path id="Path_74226" data-name="Path 74226" d="M391.649,349.527S379.58,320.44,372.827,321.7s11.584,46.371,11.584,46.371-21.18-40.027-35.673-40.027,5.307,44.3,23.637,59.017c0,0-28.953-31.193-45.836-24.448s33.776,38.356,33.776,38.356-29.438-9.269-26.053-2.106S346.8,407.3,346.8,407.3l-33.3,1.672H429.32l-26.061-2.507s27.022-13.49,19.784-18.973-23.161,6.336-23.161,6.336,27.507-30.357,22.2-41.733-28.953,20.653-28.953,20.653,19.3-40.888,15.438-48.06S391.649,349.527,391.649,349.527Z" transform="translate(-313.5 -260.409)" fill="#4866fc"/>
      <path id="Path_74227" data-name="Path 74227" d="M391.649,349.527S379.58,320.44,372.827,321.7s11.584,46.371,11.584,46.371-21.18-40.027-35.673-40.027,5.307,44.3,23.637,59.017c0,0-28.953-31.193-45.836-24.448s33.776,38.356,33.776,38.356-29.438-9.269-26.053-2.106S346.8,407.3,346.8,407.3l-33.3,1.672H429.32l-26.061-2.507s27.022-13.49,19.784-18.973-23.161,6.336-23.161,6.336,27.507-30.357,22.2-41.733-28.953,20.653-28.953,20.653,19.3-40.888,15.438-48.06S391.649,349.527,391.649,349.527Z" transform="translate(-313.5 -260.409)" fill="#fff" opacity="0.4"/>
      <path id="Path_74228" data-name="Path 74228" d="M409.581,356.86C399,388.22,399,410.419,399,410.419s12.537.485,25.568-9.194" transform="translate(-327.537 -266.188)" fill="none" stroke="#263238" stroke-linecap="round" stroke-linejoin="round" stroke-width="1"/>
      <path id="Path_74229" data-name="Path 74229" d="M403.6,371.657a188.262,188.262,0,0,0-8.693-27.507" transform="translate(-326.866 -264.101)" fill="none" stroke="#263238" stroke-linecap="round" stroke-linejoin="round" stroke-width="1"/>
      <path id="Path_74230" data-name="Path 74230" d="M367.78,355.12,394.8,395.139s18.338-15.438,24.607-24.122" transform="translate(-322.412 -265.902)" fill="none" stroke="#263238" stroke-linecap="round" stroke-linejoin="round" stroke-width="1"/>
      <path id="Path_74231" data-name="Path 74231" d="M391.663,410.42S363.194,396.9,351.61,389.19" transform="translate(-319.757 -271.496)" fill="none" stroke="#263238" stroke-linecap="round" stroke-linejoin="round" stroke-width="1"/>
    </g>
    <g id="freepik--Page--inject-130" transform="translate(131.784 92.53)">
      <path id="Path_74232" data-name="Path 74232" d="M209.047,102.677,202.687,92.53H146.67V284.351H377.248V102.677Z" transform="translate(-146.67 -92.53)" fill="#263238"/>
      <rect id="Rectangle_5312" data-name="Rectangle 5312" width="227.343" height="173.333" transform="translate(1.713 14.802)" fill="#fff"/>
      <g id="Group_14897" data-name="Group 14897" transform="translate(1.713 14.802)" clip-path="url(#clip-path)">
        <rect id="Rectangle_5313" data-name="Rectangle 5313" width="5.274" height="175.99" transform="translate(223.181 -1.404)" opacity="0.17"/>
        <rect id="Rectangle_5314" data-name="Rectangle 5314" width="5.274" height="73.753" transform="translate(223.181 99.471)" opacity="0.17"/>
        <rect id="Rectangle_5315" data-name="Rectangle 5315" width="228.547" height="18.572" transform="translate(-0.903 -2.223)" fill="#4866fc"/>
        <rect id="Rectangle_5316" data-name="Rectangle 5316" width="94.941" height="10.598" transform="translate(68.613 3.694)" fill="#fff"/>
        <rect id="Rectangle_5317" data-name="Rectangle 5317" width="14.911" height="10.598" transform="translate(43.112 3.694)" fill="#fff"/>
        <rect id="Rectangle_5318" data-name="Rectangle 5318" width="12.379" height="10.598" transform="translate(151.175 3.694)" opacity="0.3"/>
        <circle id="Ellipse_1173" data-name="Ellipse 1173" cx="2.716" cy="2.716" r="2.716" transform="translate(153.348 5.241)" fill="none" stroke="#fff" stroke-miterlimit="10" stroke-width="1"/>
        <line id="Line_3" data-name="Line 3" x2="2.541" y2="2.533" transform="translate(157.995 9.879)" fill="none" stroke="#fff" stroke-linecap="round" stroke-linejoin="round" stroke-width="1"/>
        <rect id="Rectangle_5319" data-name="Rectangle 5319" width="19.6" height="19.6" transform="translate(64.659 32.539)" opacity="0.3"/>
        <line id="Line_4" data-name="Line 4" x2="15.897" transform="translate(89.065 35.497)" fill="none" stroke="#263238" stroke-linecap="round" stroke-linejoin="round" stroke-width="2"/>
        <line id="Line_5" data-name="Line 5" x2="33.282" transform="translate(89.065 41.407)" stroke="#263238" stroke-linecap="round" stroke-linejoin="round" stroke-width="2" opacity="0.3"/>
        <line id="Line_6" data-name="Line 6" x2="47.333" transform="translate(89.065 44.925)" stroke="#263238" stroke-linecap="round" stroke-linejoin="round" stroke-width="2" opacity="0.3"/>
        <rect id="Rectangle_5320" data-name="Rectangle 5320" width="14.418" height="6.285" transform="translate(140.092 39.192)" fill="#4866fc"/>
        <rect id="Rectangle_5321" data-name="Rectangle 5321" width="14.418" height="6.285" transform="translate(155.998 39.192)" opacity="0.3"/>
        <rect id="Rectangle_5322" data-name="Rectangle 5322" width="19.6" height="19.6" transform="translate(64.659 60.271)" opacity="0.3"/>
        <line id="Line_7" data-name="Line 7" x2="15.897" transform="translate(89.065 63.23)" fill="none" stroke="#263238" stroke-linecap="round" stroke-linejoin="round" stroke-width="2"/>
        <line id="Line_8" data-name="Line 8" x2="33.282" transform="translate(89.065 69.147)" stroke="#263238" stroke-linecap="round" stroke-linejoin="round" stroke-width="2" opacity="0.3"/>
        <line id="Line_9" data-name="Line 9" x2="47.333" transform="translate(89.065 72.658)" stroke="#263238" stroke-linecap="round" stroke-linejoin="round" stroke-width="2" opacity="0.3"/>
        <rect id="Rectangle_5323" data-name="Rectangle 5323" width="14.418" height="6.285" transform="translate(140.092 66.924)" fill="#4866fc"/>
        <rect id="Rectangle_5324" data-name="Rectangle 5324" width="14.418" height="6.285" transform="translate(155.998 66.924)" opacity="0.3"/>
        <rect id="Rectangle_5325" data-name="Rectangle 5325" width="19.6" height="19.6" transform="translate(64.659 88.004)" opacity="0.3"/>
        <line id="Line_10" data-name="Line 10" x2="15.897" transform="translate(89.065 90.962)" fill="none" stroke="#263238" stroke-linecap="round" stroke-linejoin="round" stroke-width="2"/>
        <line id="Line_11" data-name="Line 11" x2="33.282" transform="translate(89.065 96.88)" stroke="#263238" stroke-linecap="round" stroke-linejoin="round" stroke-width="2" opacity="0.3"/>
        <line id="Line_12" data-name="Line 12" x2="47.333" transform="translate(89.065 100.39)" stroke="#263238" stroke-linecap="round" stroke-linejoin="round" stroke-width="2" opacity="0.3"/>
        <rect id="Rectangle_5326" data-name="Rectangle 5326" width="14.418" height="6.285" transform="translate(140.092 94.657)" fill="#4866fc"/>
        <rect id="Rectangle_5327" data-name="Rectangle 5327" width="14.418" height="6.285" transform="translate(155.998 94.657)" opacity="0.3"/>
        <rect id="Rectangle_5328" data-name="Rectangle 5328" width="19.6" height="19.6" transform="translate(64.659 115.736)" opacity="0.3"/>
        <line id="Line_13" data-name="Line 13" x2="15.897" transform="translate(89.065 118.695)" fill="none" stroke="#263238" stroke-linecap="round" stroke-linejoin="round" stroke-width="2"/>
        <line id="Line_14" data-name="Line 14" x2="33.282" transform="translate(89.065 124.613)" stroke="#263238" stroke-linecap="round" stroke-linejoin="round" stroke-width="2" opacity="0.3"/>
        <line id="Line_15" data-name="Line 15" x2="47.333" transform="translate(89.065 128.123)" stroke="#263238" stroke-linecap="round" stroke-linejoin="round" stroke-width="2" opacity="0.3"/>
        <rect id="Rectangle_5329" data-name="Rectangle 5329" width="14.418" height="6.285" transform="translate(140.092 122.389)" fill="#4866fc"/>
        <rect id="Rectangle_5330" data-name="Rectangle 5330" width="14.418" height="6.285" transform="translate(155.998 122.389)" opacity="0.3"/>
        <rect id="Rectangle_5331" data-name="Rectangle 5331" width="19.6" height="19.6" transform="translate(64.659 143.469)" opacity="0.3"/>
        <line id="Line_16" data-name="Line 16" x2="15.897" transform="translate(89.065 146.427)" fill="none" stroke="#263238" stroke-linecap="round" stroke-linejoin="round" stroke-width="2"/>
        <line id="Line_17" data-name="Line 17" x2="33.282" transform="translate(89.065 152.345)" stroke="#263238" stroke-linecap="round" stroke-linejoin="round" stroke-width="2" opacity="0.3"/>
        <line id="Line_18" data-name="Line 18" x2="47.333" transform="translate(89.065 155.856)" stroke="#263238" stroke-linecap="round" stroke-linejoin="round" stroke-width="2" opacity="0.3"/>
        <rect id="Rectangle_5332" data-name="Rectangle 5332" width="14.418" height="6.285" transform="translate(140.092 150.122)" fill="#4866fc"/>
        <rect id="Rectangle_5333" data-name="Rectangle 5333" width="14.418" height="6.285" transform="translate(155.998 150.122)" opacity="0.3"/>
        <circle id="Ellipse_1174" data-name="Ellipse 1174" cx="1.822" cy="1.822" r="1.822" transform="translate(66.456 20.21)" fill="none" stroke="#263238" stroke-miterlimit="10" stroke-width="1"/>
        <line id="Line_19" data-name="Line 19" x2="1.705" y2="1.705" transform="translate(69.574 23.319)" fill="#263238" stroke="#263238" stroke-linecap="round" stroke-linejoin="round" stroke-width="1"/>
        <line id="Line_20" data-name="Line 20" x2="111.005" transform="translate(64.425 28.017)" stroke="#263238" stroke-linecap="round" stroke-linejoin="round" stroke-width="1" opacity="0.3"/>
        <line id="Line_21" data-name="Line 21" y2="145.592" transform="translate(59.611 17.987)" stroke="#263238" stroke-linecap="round" stroke-linejoin="round" stroke-width="1" opacity="0.3"/>
        <line id="Line_22" data-name="Line 22" y2="145.592" transform="translate(180.053 17.987)" stroke="#263238" stroke-linecap="round" stroke-linejoin="round" stroke-width="1" opacity="0.3"/>
        <line id="Line_23" data-name="Line 23" x1="48.402" transform="translate(8.868 27.741)" stroke="#263238" stroke-linecap="round" stroke-linejoin="round" stroke-width="1" opacity="0.3"/>
        <line id="Line_24" data-name="Line 24" x2="24.774" transform="translate(14.267 41.407)" stroke="#263238" stroke-linecap="round" stroke-linejoin="round" stroke-width="2" opacity="0.3"/>
        <line id="Line_25" data-name="Line 25" x2="35.23" transform="translate(14.267 44.925)" stroke="#263238" stroke-linecap="round" stroke-linejoin="round" stroke-width="2" opacity="0.3"/>
        <line id="Line_26" data-name="Line 26" x2="24.774" transform="translate(14.267 58.733)" stroke="#263238" stroke-linecap="round" stroke-linejoin="round" stroke-width="2" opacity="0.3"/>
        <line id="Line_27" data-name="Line 27" x2="35.23" transform="translate(14.267 62.252)" stroke="#263238" stroke-linecap="round" stroke-linejoin="round" stroke-width="2" opacity="0.3"/>
        <line id="Line_28" data-name="Line 28" x2="24.774" transform="translate(14.267 76.06)" stroke="#263238" stroke-linecap="round" stroke-linejoin="round" stroke-width="2" opacity="0.3"/>
        <line id="Line_29" data-name="Line 29" x2="35.23" transform="translate(14.267 79.579)" stroke="#263238" stroke-linecap="round" stroke-linejoin="round" stroke-width="2" opacity="0.3"/>
        <line id="Line_30" data-name="Line 30" x2="24.774" transform="translate(14.267 93.386)" stroke="#263238" stroke-linecap="round" stroke-linejoin="round" stroke-width="2" opacity="0.3"/>
        <line id="Line_31" data-name="Line 31" x2="35.23" transform="translate(14.267 96.905)" stroke="#263238" stroke-linecap="round" stroke-linejoin="round" stroke-width="2" opacity="0.3"/>
        <line id="Line_32" data-name="Line 32" x2="24.774" transform="translate(14.267 110.713)" stroke="#263238" stroke-linecap="round" stroke-linejoin="round" stroke-width="2" opacity="0.3"/>
        <line id="Line_33" data-name="Line 33" x2="35.23" transform="translate(14.267 114.232)" stroke="#263238" stroke-linecap="round" stroke-linejoin="round" stroke-width="2" opacity="0.3"/>
        <line id="Line_34" data-name="Line 34" x2="24.774" transform="translate(14.267 128.039)" stroke="#263238" stroke-linecap="round" stroke-linejoin="round" stroke-width="2" opacity="0.3"/>
        <line id="Line_35" data-name="Line 35" x2="35.23" transform="translate(14.267 131.558)" stroke="#263238" stroke-linecap="round" stroke-linejoin="round" stroke-width="2" opacity="0.3"/>
        <line id="Line_36" data-name="Line 36" x2="24.774" transform="translate(14.267 145.366)" stroke="#263238" stroke-linecap="round" stroke-linejoin="round" stroke-width="2" opacity="0.3"/>
        <line id="Line_37" data-name="Line 37" x2="35.23" transform="translate(14.267 148.885)" stroke="#263238" stroke-linecap="round" stroke-linejoin="round" stroke-width="2" opacity="0.3"/>
        <text id="KKTC_Tüm_İlanlar" data-name="KKTC Tüm İlanlar" transform="translate(95.503 23.893)" fill="#023047" font-size="5" font-family="Arial-BoldMT, Arial" font-weight="700"><tspan x="-20.974" y="0">KKTC Tüm İlanlar</tspan></text>
      </g>
      <rect id="Rectangle_5335" data-name="Rectangle 5335" width="227.343" height="173.333" transform="translate(1.713 14.802)" fill="none" stroke="#263238" stroke-linecap="round" stroke-linejoin="round" stroke-width="1"/>
    </g>
    <g id="freepik--Character--inject-130" transform="translate(70.952 161.818)">
      <path id="Path_74243" data-name="Path 74243" d="M91.038,422.331s-.393,1.764-4.881,4.1-9.562,5.658-7.029,7.021,11.518-1.755,14.059-4.1,5.458-3.711,5.458-5.658-2.34-3.126-4.288-3.126A3.343,3.343,0,0,0,91.038,422.331Z" transform="translate(-74.638 -215.673)" fill="#263238" stroke="#263238" stroke-linecap="round" stroke-linejoin="round" stroke-width="1"/>
      <path id="Path_74244" data-name="Path 74244" d="M97.336,404.885c-1.17,3.51-4.3,5.458-4.3,6.436a20.987,20.987,0,0,0,.393,2.925,16.509,16.509,0,0,0,4.488,1.764,4.011,4.011,0,0,0,3.118-.393s2.349-1.755,2.934-2.34,2.148-1.563,1.947-3.519-.978-2.733-.192-4.488S123.1,376.584,123.1,376.584l-13.657-5.274S98.506,401.366,97.336,404.885Z" transform="translate(-77.033 -207.587)" fill="#263238" stroke="#263238" stroke-linecap="round" stroke-linejoin="round" stroke-width="1"/>
      <path id="Path_74245" data-name="Path 74245" d="M175.136,426.411s12.295,5.659,12.5,7.029-8.592,1.555-12.5,1.17A10.289,10.289,0,0,1,168.7,430.9S170.062,425.826,175.136,426.411Z" transform="translate(-89.455 -216.626)" fill="#263238" stroke="#263238" stroke-linecap="round" stroke-linejoin="round" stroke-width="1"/>
      <path id="Path_74246" data-name="Path 74246" d="M154.92,371.468s5.073,31.619,7.029,37.67-.593,5.458.384,7.221a45.974,45.974,0,0,0,4.1,5.266s3.51-3.126,5.073-3.343,2.733-.393,2.733-.393-.786-3.9-1.371-4.681-.978-3.51-1.563-5.659-1.555-37.67-1.555-37.67S159.016,371.861,154.92,371.468Z" transform="translate(-87.192 -207.353)" fill="#263238" stroke="#263238" stroke-linecap="round" stroke-linejoin="round" stroke-width="1"/>
      <path id="Path_74247" data-name="Path 74247" d="M126.371,213.142a72.431,72.431,0,0,0-7.614,6.244c-4.681,4.3-12.487,10.54-12.88,11.91s5.274,26.93,7.422,35.1,2.733,45.861,0,58.741a155.463,155.463,0,0,1-7.221,23.813,33.583,33.583,0,0,0,20.486,5.851c12.1-.593,17.552-3.9,23.62-3.343s12.88.384,16.006-3.711,6.436-5.659,8.358-8.2a9.888,9.888,0,0,0,1.947-5.466s-1.755-6.636-8.2-27.515-6.436-48.8-7.606-54.646-3.9-23.612-6.636-28.493-13.808-8.534-19.291-9.5S128.326,212.164,126.371,213.142Z" transform="translate(-79.137 -181.546)" fill="#4866fc"/>
      <g id="Group_14898" data-name="Group 14898" transform="translate(26.719 31.149)" clip-path="url(#clip-path-2)">
        <rect id="Rectangle_5336" data-name="Rectangle 5336" width="0.535" height="147.155" transform="translate(-5.639 -0.723)" opacity="0.15"/>
        <rect id="Rectangle_5337" data-name="Rectangle 5337" width="2.959" height="147.155" transform="translate(2.126 -0.723)" opacity="0.15"/>
        <rect id="Rectangle_5338" data-name="Rectangle 5338" width="2.959" height="147.155" transform="translate(12.306 -0.723)" opacity="0.15"/>
        <rect id="Rectangle_5339" data-name="Rectangle 5339" width="2.959" height="147.155" transform="translate(22.495 -0.723)" opacity="0.15"/>
        <rect id="Rectangle_5340" data-name="Rectangle 5340" width="2.959" height="147.155" transform="translate(32.683 -0.723)" opacity="0.15"/>
        <rect id="Rectangle_5341" data-name="Rectangle 5341" width="2.959" height="147.155" transform="translate(42.864 -0.723)" opacity="0.15"/>
        <rect id="Rectangle_5342" data-name="Rectangle 5342" width="2.959" height="147.155" transform="translate(53.052 -0.723)" opacity="0.15"/>
        <rect id="Rectangle_5343" data-name="Rectangle 5343" width="2.959" height="147.155" transform="translate(63.241 -0.723)" opacity="0.15"/>
        <rect id="Rectangle_5344" data-name="Rectangle 5344" width="0.568" height="147.155" transform="translate(73.421 -0.723)" opacity="0.15"/>
        <path id="Path_74248" data-name="Path 74248" d="M101.23,215.81c25.551.184,50.534.184,76.118.1" transform="translate(-105.097 -213.207)" fill="none" stroke="#fff" stroke-miterlimit="10" stroke-width="1"/>
        <path id="Path_74249" data-name="Path 74249" d="M101.23,217.77c25.551.109,50.534.109,76.118.059" transform="translate(-105.097 -213.529)" fill="none" stroke="#fff" stroke-miterlimit="10" stroke-width="1"/>
        <path id="Path_74250" data-name="Path 74250" d="M101.23,226c25.551.234,50.534.234,76.118.125" transform="translate(-105.097 -214.88)" fill="none" stroke="#fff" stroke-miterlimit="10" stroke-width="1"/>
        <path id="Path_74251" data-name="Path 74251" d="M101.23,228c25.551.159,50.534.159,76.118.092" transform="translate(-105.097 -215.208)" fill="none" stroke="#fff" stroke-miterlimit="10" stroke-width="1"/>
        <path id="Path_74252" data-name="Path 74252" d="M101.23,236.25c25.551.276,50.534.276,76.118.159" transform="translate(-105.097 -216.563)" fill="none" stroke="#fff" stroke-miterlimit="10" stroke-width="1"/>
        <path id="Path_74253" data-name="Path 74253" d="M101.23,238.21c25.551.2,50.534.2,76.118.117" transform="translate(-105.097 -216.884)" fill="none" stroke="#fff" stroke-miterlimit="10" stroke-width="1"/>
        <path id="Path_74254" data-name="Path 74254" d="M101.23,246.47c25.551.326,50.534.326,76.118.184" transform="translate(-105.097 -218.241)" fill="none" stroke="#fff" stroke-miterlimit="10" stroke-width="1"/>
        <path id="Path_74255" data-name="Path 74255" d="M101.23,248.44c25.551.234,50.534.234,76.118.134" transform="translate(-105.097 -218.564)" fill="none" stroke="#fff" stroke-miterlimit="10" stroke-width="1"/>
        <path id="Path_74256" data-name="Path 74256" d="M101.23,256.69c25.551.368,50.534.368,76.118.209" transform="translate(-105.097 -219.918)" fill="none" stroke="#fff" stroke-miterlimit="10" stroke-width="1"/>
        <path id="Path_74257" data-name="Path 74257" d="M101.23,258.66c25.551.284,50.534.284,76.118.159" transform="translate(-105.097 -220.242)" fill="none" stroke="#fff" stroke-miterlimit="10" stroke-width="1"/>
        <path id="Path_74258" data-name="Path 74258" d="M101.23,266.849c24.774-.368,50.534-.368,75.583-.209" transform="translate(-105.097 -221.535)" fill="none" stroke="#fff" stroke-miterlimit="10" stroke-width="1"/>
        <path id="Path_74259" data-name="Path 74259" d="M101.23,268.88c25.551.326,50.534.326,76.118.184" transform="translate(-105.097 -221.92)" fill="none" stroke="#fff" stroke-miterlimit="10" stroke-width="1"/>
        <path id="Path_74260" data-name="Path 74260" d="M101.23,277.076c25.551-.326,50.534-.326,76.118-.176" transform="translate(-105.097 -223.221)" fill="none" stroke="#fff" stroke-miterlimit="10" stroke-width="1"/>
        <path id="Path_74261" data-name="Path 74261" d="M101.23,279.1c25.551.376,50.534.376,76.118.209" transform="translate(-105.097 -223.598)" fill="none" stroke="#fff" stroke-miterlimit="10" stroke-width="1"/>
        <path id="Path_74262" data-name="Path 74262" d="M101.23,287.3c25.551-.276,50.534-.276,76.118-.15" transform="translate(-105.097 -224.907)" fill="none" stroke="#fff" stroke-miterlimit="10" stroke-width="1"/>
        <path id="Path_74263" data-name="Path 74263" d="M101.23,289.261c25.551-.359,50.534-.359,76.118-.2" transform="translate(-105.097 -225.216)" fill="none" stroke="#fff" stroke-miterlimit="10" stroke-width="1"/>
        <path id="Path_74264" data-name="Path 74264" d="M101.23,297.54c25.551-.242,50.534-.242,76.118-.134" transform="translate(-105.097 -226.592)" fill="none" stroke="#fff" stroke-miterlimit="10" stroke-width="1"/>
        <path id="Path_74265" data-name="Path 74265" d="M101.23,299.488c25.551-.318,50.534-.318,76.118-.176" transform="translate(-105.097 -226.901)" fill="none" stroke="#fff" stroke-miterlimit="10" stroke-width="1"/>
        <path id="Path_74266" data-name="Path 74266" d="M101.23,307.768c25.551-.192,50.534-.192,76.118-.109" transform="translate(-105.097 -228.278)" fill="none" stroke="#fff" stroke-miterlimit="10" stroke-width="1"/>
        <path id="Path_74267" data-name="Path 74267" d="M101.23,309.716c25.551-.267,50.534-.267,76.118-.15" transform="translate(-105.097 -228.587)" fill="none" stroke="#fff" stroke-miterlimit="10" stroke-width="1"/>
        <path id="Path_74268" data-name="Path 74268" d="M101.23,317.975c25.551-.15,50.534-.15,76.118-.084" transform="translate(-105.097 -229.959)" fill="none" stroke="#fff" stroke-miterlimit="10" stroke-width="1"/>
        <path id="Path_74269" data-name="Path 74269" d="M101.23,319.963c25.551-.226,50.534-.226,76.118-.125" transform="translate(-105.097 -230.275)" fill="none" stroke="#fff" stroke-miterlimit="10" stroke-width="1"/>
        <path id="Path_74270" data-name="Path 74270" d="M101.23,328.223c25.551-.1,50.534-.1,76.118-.059" transform="translate(-105.097 -231.649)" fill="none" stroke="#fff" stroke-miterlimit="10" stroke-width="1"/>
        <path id="Path_74271" data-name="Path 74271" d="M101.23,330.17c25.551-.184,50.534-.184,76.118-.1" transform="translate(-105.097 -231.957)" fill="none" stroke="#fff" stroke-miterlimit="10" stroke-width="1"/>
        <path id="Path_74272" data-name="Path 74272" d="M101.23,338.451c25.551-.059,50.534-.059,76.118,0" transform="translate(-105.097 -233.335)" fill="none" stroke="#fff" stroke-miterlimit="10" stroke-width="1"/>
        <path id="Path_74273" data-name="Path 74273" d="M101.23,340.406c25.551-.142,50.534-.142,76.118-.084" transform="translate(-105.097 -233.643)" fill="none" stroke="#fff" stroke-miterlimit="10" stroke-width="1"/>
        <path id="Path_74274" data-name="Path 74274" d="M101.23,348.68h76.118" transform="translate(-105.097 -235.021)" fill="none" stroke="#fff" stroke-miterlimit="10" stroke-width="1"/>
        <path id="Path_74275" data-name="Path 74275" d="M101.23,350.633c25.551-.1,50.534-.1,76.118-.059" transform="translate(-105.097 -235.328)" fill="none" stroke="#fff" stroke-miterlimit="10" stroke-width="1"/>
        <path id="Path_74276" data-name="Path 74276" d="M101.23,358.9h76.118" transform="translate(-105.097 -236.699)" fill="none" stroke="#fff" stroke-miterlimit="10" stroke-width="1"/>
        <path id="Path_74277" data-name="Path 74277" d="M101.23,360.863c25.551-.05,50.534-.05,76.118,0" transform="translate(-105.097 -237.015)" fill="none" stroke="#fff" stroke-miterlimit="10" stroke-width="1"/>
        <path id="Path_74278" data-name="Path 74278" d="M101.23,369.12c25.551.075,50.534.075,76.118.042" transform="translate(-105.097 -238.377)" fill="none" stroke="#fff" stroke-miterlimit="10" stroke-width="1"/>
        <path id="Path_74279" data-name="Path 74279" d="M101.23,371.09h76.118" transform="translate(-105.097 -238.701)" fill="none" stroke="#fff" stroke-miterlimit="10" stroke-width="1"/>
        <path id="Path_74280" data-name="Path 74280" d="M101.23,379.34c25.551.125,50.534.125,76.118.067" transform="translate(-105.097 -240.055)" fill="none" stroke="#fff" stroke-miterlimit="10" stroke-width="1"/>
        <path id="Path_74281" data-name="Path 74281" d="M101.23,381.31h76.118" transform="translate(-105.097 -240.378)" fill="none" stroke="#fff" stroke-miterlimit="10" stroke-width="1"/>
        <path id="Path_74282" data-name="Path 74282" d="M130.858,271.921l.527,3.118s-10.673.267-13.014.267h-3.644l1.045,15.613s1.3,11.183,2.6,26.537-3.343,37.211-3.343,39.819-2.6,5.466,3.644,6.762,14.577,1.045,15.881-2.34,6.511-30.967,5.466-24.983-6.244,26.8-2.6,27.841,13.273-2.858,19.516-2.6,11.7-1.822,12.228-4.422-3.126-26.546-3.126-26.546l7.807,21.6s1.045,1.3-4.179,7.522-28.619,8.358-41.114,8.358-27.841-9.1-27.841-9.1,13.532-22.383,10.924-41.114-2.34-51.821-2.34-51.821,7.029,2.081,11.969,2.081S130.858,271.921,130.858,271.921Z" transform="translate(-105.012 -221.518)" opacity="0.3"/>
        <path id="Path_74283" data-name="Path 74283" d="M150.35,235.634l5.851,35.639s6.068-.652,8.358-2.625,3.276-7.873,3.276-7.873l-6.912-27.716Z" transform="translate(-113.162 -216.039)" opacity="0.3"/>
      </g>
      <path id="Path_74285" data-name="Path 74285" d="M126.371,213.142a72.431,72.431,0,0,0-7.614,6.244c-4.681,4.3-12.487,10.54-12.88,11.91s5.274,26.93,7.422,35.1,2.733,45.861,0,58.741a155.463,155.463,0,0,1-7.221,23.813,33.583,33.583,0,0,0,20.486,5.851c12.1-.593,17.552-3.9,23.62-3.343s12.88.384,16.006-3.711,6.436-5.659,8.358-8.2a9.888,9.888,0,0,0,1.947-5.466s-1.755-6.636-8.2-27.515-6.436-48.8-7.606-54.646-3.9-23.612-6.636-28.493-13.808-8.534-19.291-9.5S128.326,212.164,126.371,213.142Z" transform="translate(-79.137 -181.546)" fill="none" stroke="#263238" stroke-linecap="round" stroke-linejoin="round" stroke-width="1"/>
      <path id="Path_74286" data-name="Path 74286" d="M130.932,235.251l11.058,15.571,6.486-19.7s-.451-8.492-3.744-11.467-6.971-7.372-12.47-3.494-4.488,8.977-4.238,11.7S130.932,235.251,130.932,235.251Z" transform="translate(-82.738 -181.865)" fill="#fff" stroke="#263238" stroke-miterlimit="10" stroke-width="1"/>
      <path id="Path_74287" data-name="Path 74287" d="M136.42,230.844l3.243,3.744-.744,11.476,4.488,6.478,2.992-8.224-4-9.729.5-5.984-3.987-3.494Z" transform="translate(-84.155 -183.585)" fill="#263238" stroke="#263238" stroke-miterlimit="10" stroke-width="1"/>
      <path id="Path_74288" data-name="Path 74288" d="M137.708,227.46l-7,7.522s-3.636-11.309-4.179-15.212.669-4.714,2.691-5.926,5.2-.694,7.673-.134,3.778,1.613,4.313,2.691,6.327,15.22,6.327,15.22Z" transform="translate(-82.509 -181.614)" fill="#fff" stroke="#263238" stroke-miterlimit="10" stroke-width="1"/>
      <path id="Path_74289" data-name="Path 74289" d="M144.84,255c4.605,23.545,10.189,63.84,4.973,103.525" transform="translate(-85.538 -188.492)" fill="none" stroke="#263238" stroke-miterlimit="10" stroke-width="1"/>
      <circle id="Ellipse_1175" data-name="Ellipse 1175" cx="1.162" cy="1.162" r="1.162" transform="translate(62.169 74.173)" fill="#263238"/>
      <circle id="Ellipse_1176" data-name="Ellipse 1176" cx="1.162" cy="1.162" r="1.162" transform="translate(65.504 100.493)" fill="#263238"/>
      <path id="Path_74290" data-name="Path 74290" d="M125.609,206.37s2.081,4.371,2.282,7.054,6.762,12.42,9.044,12.42,2.19-7.355,1.889-10.632.593-5.073.894-5.466-4.179-1.588-6.954-3.678-5.073-2.39-6.168-1.989S125.609,206.37,125.609,206.37Z" transform="translate(-82.38 -180.107)" fill="#fff"/>
      <g id="Group_14899" data-name="Group 14899" transform="translate(43.227 23.821)" clip-path="url(#clip-path-3)">
        <path id="Path_74291" data-name="Path 74291" d="M132.764,206.069c-2.783-2.09-5.073-2.39-6.168-1.989s-.986,2.29-.986,2.29,2.081,4.371,2.282,7.054a.436.436,0,0,0,0,.092,21.322,21.322,0,0,0,5.8,1.2,15.939,15.939,0,0,0,5.073-.376,8.013,8.013,0,0,1,.936-4.589C139.969,209.387,135.547,208.167,132.764,206.069Z" transform="translate(-125.606 -203.928)" fill="#4866fc"/>
        <path id="Path_74292" data-name="Path 74292" d="M132.764,206.069c-2.783-2.09-5.073-2.39-6.168-1.989s-.986,2.29-.986,2.29,2.081,4.371,2.282,7.054a.436.436,0,0,0,0,.092,21.322,21.322,0,0,0,5.8,1.2,15.939,15.939,0,0,0,5.073-.376,8.013,8.013,0,0,1,.936-4.589C139.969,209.387,135.547,208.167,132.764,206.069Z" transform="translate(-125.606 -203.928)" fill="#fff" opacity="0.5"/>
      </g>
      <path id="Path_74294" data-name="Path 74294" d="M125.609,206.37s2.081,4.371,2.282,7.054,6.762,12.42,9.044,12.42,2.19-7.355,1.889-10.632.593-5.073.894-5.466-4.179-1.588-6.954-3.678-5.073-2.39-6.168-1.989S125.609,206.37,125.609,206.37Z" transform="translate(-82.38 -180.107)" fill="none" stroke="#263238" stroke-linecap="round" stroke-linejoin="round" stroke-width="1"/>
      <path id="Path_74295" data-name="Path 74295" d="M120.045,201.684s3.276,3.385,5.065,3.778,3.084-.995,2.382-2.382-.293-3.477,1.789-3.184a2.844,2.844,0,0,0,3.084-3.87c-.694-2.382-1.789-4.672-4.371-4.179S117.555,197.213,120.045,201.684Z" transform="translate(-81.388 -178.112)" fill="#263238" stroke="#263238" stroke-linecap="round" stroke-linejoin="round" stroke-width="1"/>
      <path id="Path_74296" data-name="Path 74296" d="M142.425,187.82a20.259,20.259,0,0,0,3.076,4.873c1.488,1.4,2.783,1.087,2.29,2.182s-2.683,2.507-2.683,2.507.2,4.965,0,7.347,0,3.084-2.19,3.485a18.806,18.806,0,0,1-8.9-1.02,8.2,8.2,0,0,1-4.572-3.678,9.871,9.871,0,0,1-2.783-.3c-1.889-.393-3.477-4.371-2.382-5.851a2.909,2.909,0,0,1,4.07-.5c.7.836,1.5,1.588,2.09,1.588s1.789-.493,1.095-1.789-1.5-2.382-.4-3.276S140.637,187.719,142.425,187.82Z" transform="translate(-82.103 -177.462)" fill="#fff"/>
      <g id="Group_14900" data-name="Group 14900" transform="translate(41.818 10.356)" clip-path="url(#clip-path-4)">
        <path id="Path_74297" data-name="Path 74297" d="M142.417,187.82c-1.789-.1-10.239,4.672-11.334,5.567s-.293,1.989.4,3.276-.5,1.789-1.095,1.789-1.387-.794-2.09-1.588a2.909,2.909,0,0,0-4.07.5c-1.095,1.488.493,5.466,2.382,5.851.217.05.426.084.618.117a81.335,81.335,0,0,1,17.285-11.81,27.248,27.248,0,0,1-2.1-3.7Z" transform="translate(-123.913 -187.818)" fill="#4866fc"/>
        <path id="Path_74298" data-name="Path 74298" d="M142.417,187.82c-1.789-.1-10.239,4.672-11.334,5.567s-.293,1.989.4,3.276-.5,1.789-1.095,1.789-1.387-.794-2.09-1.588a2.909,2.909,0,0,0-4.07.5c-1.095,1.488.493,5.466,2.382,5.851.217.05.426.084.618.117a81.335,81.335,0,0,1,17.285-11.81,27.248,27.248,0,0,1-2.1-3.7Z" transform="translate(-123.913 -187.818)" fill="#fff" opacity="0.5"/>
      </g>
      <path id="Path_74300" data-name="Path 74300" d="M142.425,187.82a20.259,20.259,0,0,0,3.076,4.873c1.488,1.4,2.783,1.087,2.29,2.182s-2.683,2.507-2.683,2.507.2,4.965,0,7.347,0,3.084-2.19,3.485a18.806,18.806,0,0,1-8.9-1.02,8.2,8.2,0,0,1-4.572-3.678,9.871,9.871,0,0,1-2.783-.3c-1.889-.393-3.477-4.371-2.382-5.851a2.909,2.909,0,0,1,4.07-.5c.7.836,1.5,1.588,2.09,1.588s1.789-.493,1.095-1.789-1.5-2.382-.4-3.276S140.637,187.719,142.425,187.82Z" transform="translate(-82.103 -177.462)" fill="none" stroke="#263238" stroke-linecap="round" stroke-linejoin="round" stroke-width="1"/>
      <path id="Path_74301" data-name="Path 74301" d="M148.274,199.238a6.87,6.87,0,0,0-4.4,2.976c-1.571,2.507,0,2.934.978,2.34s2.733-1.947,3.711-2.507S149.778,199.037,148.274,199.238Z" transform="translate(-85.269 -179.335)" fill="#263238" stroke="#263238" stroke-linecap="round" stroke-linejoin="round" stroke-width="1"/>
      <ellipse id="Ellipse_1177" data-name="Ellipse 1177" cx="0.593" cy="1.379" rx="0.593" ry="1.379" transform="translate(57.325 14.643) rotate(-20.85)" fill="#263238"/>
      <path id="Path_74302" data-name="Path 74302" d="M140.19,191.717a3.878,3.878,0,0,1,3.653-.393" transform="translate(-84.774 -177.991)" fill="none" stroke="#263238" stroke-linecap="round" stroke-linejoin="round" stroke-width="1"/>
      <path id="Path_74303" data-name="Path 74303" d="M115.766,206.455a42.627,42.627,0,0,1,7.957-11.125c5.466-5.567,25.91-11.334,27.03-12.922s-9.445.995-9.445.995-6.16-7.456-15.1-7.957-11.526,9.244-11.626,14.117,2.382,10.531,2.382,10.531S114.153,207.249,115.766,206.455Z" transform="translate(-80.569 -175.428)" fill="#4866fc"/>
      <g id="Group_14901" data-name="Group 14901" transform="translate(34.008 0)" clip-path="url(#clip-path-5)">
        <rect id="Rectangle_5345" data-name="Rectangle 5345" width="2.959" height="41.373" transform="translate(-5.162 -3.534)" opacity="0.15"/>
        <rect id="Rectangle_5346" data-name="Rectangle 5346" width="2.959" height="41.373" transform="translate(5.018 -3.534)" opacity="0.15"/>
        <rect id="Rectangle_5347" data-name="Rectangle 5347" width="2.959" height="41.373" transform="translate(15.207 -3.534)" opacity="0.15"/>
        <rect id="Rectangle_5348" data-name="Rectangle 5348" width="2.959" height="41.373" transform="translate(25.395 -3.534)" opacity="0.15"/>
        <rect id="Rectangle_5349" data-name="Rectangle 5349" width="2.959" height="41.373" transform="translate(35.576 -3.534)" opacity="0.15"/>
        <path id="Path_74304" data-name="Path 74304" d="M109.21,178.584q22.918,0,45.836-.134" transform="translate(-113.695 -175.924)" fill="none" stroke="#fff" stroke-miterlimit="10" stroke-width="1"/>
        <path id="Path_74305" data-name="Path 74305" d="M109.21,180.494q22.918,0,45.836-.084" transform="translate(-113.695 -176.246)" fill="none" stroke="#fff" stroke-miterlimit="10" stroke-width="1"/>
        <path id="Path_74306" data-name="Path 74306" d="M109.21,188.837q22.918,0,45.836-.167" transform="translate(-113.695 -177.602)" fill="none" stroke="#fff" stroke-miterlimit="10" stroke-width="1"/>
        <path id="Path_74307" data-name="Path 74307" d="M109.21,190.747q22.918,0,45.836-.117" transform="translate(-113.695 -177.924)" fill="none" stroke="#fff" stroke-miterlimit="10" stroke-width="1"/>
        <path id="Path_74308" data-name="Path 74308" d="M109.21,199.091q22.918,0,45.836-.2" transform="translate(-113.695 -179.28)" fill="none" stroke="#fff" stroke-miterlimit="10" stroke-width="1"/>
        <path id="Path_74309" data-name="Path 74309" d="M109.21,200.972q22.918,0,45.836-.142" transform="translate(-113.695 -179.598)" fill="none" stroke="#fff" stroke-miterlimit="10" stroke-width="1"/>
        <path id="Path_74310" data-name="Path 74310" d="M109.21,209.344q22.918,0,45.836-.234" transform="translate(-113.695 -180.958)" fill="none" stroke="#fff" stroke-miterlimit="10" stroke-width="1"/>
        <path id="Path_74311" data-name="Path 74311" d="M109.21,211.246q22.918,0,45.836-.176" transform="translate(-113.695 -181.279)" fill="none" stroke="#fff" stroke-miterlimit="10" stroke-width="1"/>
        <path id="Path_74312" data-name="Path 74312" d="M109.21,219.6q22.918,0,45.836-.267" transform="translate(-113.695 -182.636)" fill="none" stroke="#fff" stroke-miterlimit="10" stroke-width="1"/>
      </g>
      <path id="Path_74314" data-name="Path 74314" d="M115.766,206.455a42.627,42.627,0,0,1,7.957-11.125c5.466-5.567,25.91-11.334,27.03-12.922s-9.445.995-9.445.995-6.16-7.456-15.1-7.957-11.526,9.244-11.626,14.117,2.382,10.531,2.382,10.531S114.153,207.249,115.766,206.455Z" transform="translate(-80.569 -175.428)" fill="none" stroke="#263238" stroke-linecap="round" stroke-linejoin="round" stroke-width="1"/>
      <path id="Path_74315" data-name="Path 74315" d="M117.069,201.365s-2.783,7.155-1.2,6.361a42.628,42.628,0,0,1,7.957-11.125c5.466-5.567,25.91-11.334,27.03-12.922s-9.445.995-9.445.995-7.054,3.678-12.913,7.522a98.068,98.068,0,0,0-11.434,9.169Z" transform="translate(-80.702 -176.698)" fill="#4866fc" stroke="#263238" stroke-linecap="round" stroke-linejoin="round" stroke-width="1"/>
      <path id="Path_74316" data-name="Path 74316" d="M120.49,178.07s.1,9.637,7.255,14.51" transform="translate(-81.54 -175.862)" fill="none" stroke="#263238" stroke-linecap="round" stroke-linejoin="round" stroke-width="1"/>
      <path id="Path_74317" data-name="Path 74317" d="M116.642,288.422l3.042.836s5.257-3.669,5.851-3.778,5.567,2.733,7.146,4,3.569,2.624,3.042,3.042-1.672-.109-2.416-.527-5.249-2.625-5.249-2.625,3.343,2.207,4.513,3.151,2.833,1.471,2.416,2a1.4,1.4,0,0,1-2,.418c-1.045-.527-6.4-3.569-6.4-3.569s4.513,3.042,5.358,3.778.836,1.789-.109,1.789-3.569-1.371-4.513-1.889-3.678-1.9-3.678-1.9a38.955,38.955,0,0,1,3.251,4.1c.635,1.162,1.58,2.633.527,2.633s-2.507-2.416-3.251-3.26-3.469-1.789-3.469-1.789a19.224,19.224,0,0,1-3.987,1.371c-1.789.309-5.358-3.469-5.358-3.469Z" transform="translate(-80.041 -193.495)" fill="#fff" stroke="#263238" stroke-linecap="round" stroke-linejoin="round" stroke-width="1"/>
      <line id="Line_38" data-name="Line 38" x1="2.599" y2="3.126" transform="translate(37.045 95.795)" fill="none" stroke="#263238" stroke-linecap="round" stroke-linejoin="round" stroke-width="1"/>
      <line id="Line_39" data-name="Line 39" x1="1.68" y1="1.003" transform="translate(44.901 96.899)" fill="none" stroke="#263238" stroke-linecap="round" stroke-linejoin="round" stroke-width="1"/>
      <line id="Line_40" data-name="Line 40" x1="1.889" y1="1.036" transform="translate(46.163 94.868)" fill="none" stroke="#263238" stroke-linecap="round" stroke-linejoin="round" stroke-width="1"/>
      <path id="Path_74318" data-name="Path 74318" d="M86.578,245.141S74.09,255.489,73.89,256.266s31.619,30.257,31.619,30.257l5.851-6.444L93.991,256.851l13.273-8.358s1.17-6.436-.777-10.147a8.592,8.592,0,0,0-5.851-4.3Z" transform="translate(-73.889 -185.052)" fill="#4866fc"/>
      <g id="Group_14902" data-name="Group 14902" transform="translate(0 48.998)" clip-path="url(#clip-path-6)">
        <rect id="Rectangle_5350" data-name="Rectangle 5350" width="1.204" height="62.845" transform="translate(-10.146 -4.129)" opacity="0.15"/>
        <rect id="Rectangle_5351" data-name="Rectangle 5351" width="2.959" height="62.845" transform="translate(-1.712 -4.129)" opacity="0.15"/>
        <rect id="Rectangle_5352" data-name="Rectangle 5352" width="2.959" height="62.845" transform="translate(8.468 -4.129)" opacity="0.15"/>
        <rect id="Rectangle_5353" data-name="Rectangle 5353" width="2.959" height="62.845" transform="translate(18.656 -4.129)" opacity="0.15"/>
        <rect id="Rectangle_5354" data-name="Rectangle 5354" width="2.959" height="62.845" transform="translate(28.845 -4.129)" opacity="0.15"/>
        <rect id="Rectangle_5355" data-name="Rectangle 5355" width="2.959" height="62.845" transform="translate(39.025 -4.129)" opacity="0.15"/>
        <rect id="Rectangle_5356" data-name="Rectangle 5356" width="2.959" height="62.845" transform="translate(49.214 -4.129)" opacity="0.15"/>
        <rect id="Rectangle_5357" data-name="Rectangle 5357" width="2.959" height="62.845" transform="translate(59.403 -4.129)" opacity="0.15"/>
        <path id="Path_74319" data-name="Path 74319" d="M64.07,236.426c23.044.1,46.463.1,69.5-.176" transform="translate(-72.277 -234.411)" fill="none" stroke="#fff" stroke-miterlimit="10" stroke-width="1"/>
        <path id="Path_74320" data-name="Path 74320" d="M64.07,238.335c23.044.075,46.463.075,69.5-.125" transform="translate(-72.277 -234.733)" fill="none" stroke="#fff" stroke-miterlimit="10" stroke-width="1"/>
        <path id="Path_74321" data-name="Path 74321" d="M64.07,246.671c23.044.125,46.463.125,69.5-.2" transform="translate(-72.277 -236.089)" fill="none" stroke="#fff" stroke-miterlimit="10" stroke-width="1"/>
        <path id="Path_74322" data-name="Path 74322" d="M64.07,248.59c23.044.084,46.463.084,69.5-.15" transform="translate(-72.277 -236.413)" fill="none" stroke="#fff" stroke-miterlimit="10" stroke-width="1"/>
        <path id="Path_74323" data-name="Path 74323" d="M64.07,256.954c23.044.134,46.463.134,69.5-.234" transform="translate(-72.277 -237.772)" fill="none" stroke="#fff" stroke-miterlimit="10" stroke-width="1"/>
        <path id="Path_74324" data-name="Path 74324" d="M64.07,258.836c23.044.109,46.463.109,69.5-.176" transform="translate(-72.277 -238.09)" fill="none" stroke="#fff" stroke-miterlimit="10" stroke-width="1"/>
        <path id="Path_74325" data-name="Path 74325" d="M81.37,249.364a91.755,91.755,0,0,0,8.843,4.948c2.6,1.045,7.807,3.385,7.807,3.385L104,254.571,89.954,243.12Z" transform="translate(-75.117 -235.539)" opacity="0.3"/>
        <path id="Path_74326" data-name="Path 74326" d="M64.07,266.623c23.044-.142,46.463-.142,69.5.226" transform="translate(-72.277 -239.383)" fill="none" stroke="#fff" stroke-miterlimit="10" stroke-width="1"/>
        <path id="Path_74327" data-name="Path 74327" d="M64.07,269.089c23.044.117,46.463.117,69.5-.209" transform="translate(-72.277 -239.768)" fill="none" stroke="#fff" stroke-miterlimit="10" stroke-width="1"/>
        <path id="Path_74328" data-name="Path 74328" d="M64.07,276.875c23.044-.125,46.463-.125,69.5.2" transform="translate(-72.277 -241.068)" fill="none" stroke="#fff" stroke-miterlimit="10" stroke-width="1"/>
        <path id="Path_74329" data-name="Path 74329" d="M64.07,279.334c23.044.142,46.463.142,69.5-.234" transform="translate(-72.277 -241.446)" fill="none" stroke="#fff" stroke-miterlimit="10" stroke-width="1"/>
        <path id="Path_74330" data-name="Path 74330" d="M64.07,287.128c23.044-.1,46.463-.1,69.5.176" transform="translate(-72.277 -242.754)" fill="none" stroke="#fff" stroke-miterlimit="10" stroke-width="1"/>
        <path id="Path_74331" data-name="Path 74331" d="M64.07,289.034c23.044-.134,46.463-.134,69.5.226" transform="translate(-72.277 -243.064)" fill="none" stroke="#fff" stroke-miterlimit="10" stroke-width="1"/>
        <path id="Path_74332" data-name="Path 74332" d="M64.07,297.389c23.044-.092,46.463-.092,69.5.15" transform="translate(-72.277 -244.44)" fill="none" stroke="#fff" stroke-miterlimit="10" stroke-width="1"/>
        <path id="Path_74333" data-name="Path 74333" d="M64.07,299.286c23.044-.117,46.463-.117,69.5.2" transform="translate(-72.277 -244.749)" fill="none" stroke="#fff" stroke-miterlimit="10" stroke-width="1"/>
      </g>
      <path id="Path_74335" data-name="Path 74335" d="M86.578,245.141S74.09,255.489,73.89,256.266s31.619,30.257,31.619,30.257l5.851-6.444L93.991,256.851l13.273-8.358s1.17-6.436-.777-10.147a8.592,8.592,0,0,0-5.851-4.3Z" transform="translate(-73.889 -185.052)" fill="none" stroke="#263238" stroke-linecap="round" stroke-linejoin="round" stroke-width="1"/>
      <path id="Path_74336" data-name="Path 74336" d="M188.553,243.307s-12.178-6.937-17.226-11.869-7.138-7.247-7.664-5.358,4.413,26.746,5.358,27.2,20.9,7.564,24.891,7.773,6.687.527,7.146-1.254-2.507-7.247-6.2-11.559S188.553,243.307,188.553,243.307Z" transform="translate(-88.621 -183.636)" fill="#4866fc"/>
      <g id="Group_14903" data-name="Group 14903" transform="translate(75.002 41.789)" clip-path="url(#clip-path-7)">
        <rect id="Rectangle_5358" data-name="Rectangle 5358" width="2.959" height="33.182" transform="translate(-5.419 8.153)" opacity="0.15"/>
        <rect id="Rectangle_5359" data-name="Rectangle 5359" width="2.959" height="33.182" transform="translate(4.77 8.153)" opacity="0.15"/>
        <rect id="Rectangle_5360" data-name="Rectangle 5360" width="2.959" height="33.182" transform="translate(14.959 8.153)" opacity="0.15"/>
        <rect id="Rectangle_5361" data-name="Rectangle 5361" width="2.959" height="33.182" transform="translate(25.139 8.153)" opacity="0.15"/>
        <rect id="Rectangle_5362" data-name="Rectangle 5362" width="2.959" height="33.182" transform="translate(35.328 8.153)" opacity="0.15"/>
        <path id="Path_74337" data-name="Path 74337" d="M158.85,238.21q21.731.234,43.4.092" transform="translate(-162.839 -227.524)" fill="none" stroke="#fff" stroke-miterlimit="10" stroke-width="1"/>
        <path id="Path_74338" data-name="Path 74338" d="M158.85,246.47q21.731.393,43.4.142" transform="translate(-162.839 -228.88)" fill="none" stroke="#fff" stroke-miterlimit="10" stroke-width="1"/>
        <path id="Path_74339" data-name="Path 74339" d="M158.85,248.44q21.731.284,43.4.1" transform="translate(-162.839 -229.204)" fill="none" stroke="#fff" stroke-miterlimit="10" stroke-width="1"/>
        <path id="Path_74340" data-name="Path 74340" d="M158.85,256.69q21.731.443,43.4.167" transform="translate(-162.839 -230.558)" fill="none" stroke="#fff" stroke-miterlimit="10" stroke-width="1"/>
        <path id="Path_74341" data-name="Path 74341" d="M158.85,258.66q21.731.334,43.4.125" transform="translate(-162.839 -230.882)" fill="none" stroke="#fff" stroke-miterlimit="10" stroke-width="1"/>
        <path id="Path_74342" data-name="Path 74342" d="M177.274,260.766s8.066-2.6,10.673-6.762,1.563-6.77-.786-9.629a8.609,8.609,0,0,0-5.458-3.126s-1.3,9.629-4.43,11.451a37.02,37.02,0,0,0-6.244,4.948Z" transform="translate(-164.839 -228.023)" opacity="0.3"/>
        <path id="Path_74343" data-name="Path 74343" d="M158.85,266.857q21.731-.443,43.4-.159" transform="translate(-162.839 -232.183)" fill="none" stroke="#fff" stroke-miterlimit="10" stroke-width="1"/>
        <path id="Path_74344" data-name="Path 74344" d="M158.85,268.88q21.731.393,43.4.142" transform="translate(-162.839 -232.56)" fill="none" stroke="#fff" stroke-miterlimit="10" stroke-width="1"/>
      </g>
      <path id="Path_74346" data-name="Path 74346" d="M188.553,243.307s-12.178-6.937-17.226-11.869-7.138-7.247-7.664-5.358,4.413,26.746,5.358,27.2,20.9,7.564,24.891,7.773,6.687.527,7.146-1.254-2.507-7.247-6.2-11.559S188.553,243.307,188.553,243.307Z" transform="translate(-88.621 -183.636)" fill="none" stroke="#263238" stroke-linecap="round" stroke-linejoin="round" stroke-width="1"/>
      <path id="Path_74347" data-name="Path 74347" d="M120.541,215.963s5.466,16.783,7.807,28.3,3.343,22.241,3.343,22.241-3.343-2.14-12.295-2.925-13.072-2.148-16.976-9.562-6.444-6.829-10.347-8S87,242.676,87,242.676,119.179,215.737,120.541,215.963Zm12.37-1.463a105.706,105.706,0,0,1,7.038,18.07C142.992,243.068,147.3,266,147.3,266s7.456-.836,9.662-5.567,2.307-6.519,5.851-7.773,8.408-3.887,8.826-7.247a52.824,52.824,0,0,1,1.362-6.728s-19.633-16.273-22.684-18.388S133.756,213.664,132.912,214.5Z" transform="translate(-76.041 -181.826)" fill="#4866fc"/>
      <g id="Group_14904" data-name="Group 14904" transform="translate(10.959 32.572)" clip-path="url(#clip-path-8)">
        <rect id="Rectangle_5363" data-name="Rectangle 5363" width="2.959" height="56.167" transform="translate(-12.671 11.837)" opacity="0.15"/>
        <rect id="Rectangle_5364" data-name="Rectangle 5364" width="2.959" height="56.167" transform="translate(-2.491 11.837)" opacity="0.15"/>
        <rect id="Rectangle_5365" data-name="Rectangle 5365" width="2.959" height="56.167" transform="translate(7.698 11.837)" opacity="0.15"/>
        <rect id="Rectangle_5366" data-name="Rectangle 5366" width="2.959" height="74.104" transform="translate(17.887 -6.092)" opacity="0.15"/>
        <rect id="Rectangle_5367" data-name="Rectangle 5367" width="2.959" height="74.104" transform="translate(28.067 -6.092)" opacity="0.15"/>
        <rect id="Rectangle_5368" data-name="Rectangle 5368" width="2.959" height="74.104" transform="translate(38.256 -6.092)" opacity="0.15"/>
        <rect id="Rectangle_5369" data-name="Rectangle 5369" width="2.959" height="74.104" transform="translate(48.444 -6.092)" opacity="0.15"/>
        <rect id="Rectangle_5370" data-name="Rectangle 5370" width="2.959" height="74.104" transform="translate(58.624 -6.092)" opacity="0.15"/>
        <rect id="Rectangle_5371" data-name="Rectangle 5371" width="2.959" height="74.104" transform="translate(68.813 -6.092)" opacity="0.15"/>
        <rect id="Rectangle_5372" data-name="Rectangle 5372" width="2.959" height="74.104" transform="translate(79.002 -6.092)" opacity="0.15"/>
        <path id="Path_74348" data-name="Path 74348" d="M102.82,215.81c24.239.184,48.427.184,72.332.109" transform="translate(-89.597 -214.63)" fill="none" stroke="#fff" stroke-miterlimit="10" stroke-width="1"/>
        <path id="Path_74349" data-name="Path 74349" d="M102.82,217.77c24.239.109,48.427.109,72.332.067" transform="translate(-89.597 -214.952)" fill="none" stroke="#fff" stroke-miterlimit="10" stroke-width="1"/>
        <path id="Path_74350" data-name="Path 74350" d="M102.82,226c24.239.234,48.427.234,72.332.142" transform="translate(-89.597 -216.303)" fill="none" stroke="#fff" stroke-miterlimit="10" stroke-width="1"/>
        <path id="Path_74351" data-name="Path 74351" d="M102.82,228c24.239.159,48.427.159,72.332.092" transform="translate(-89.597 -216.631)" fill="none" stroke="#fff" stroke-miterlimit="10" stroke-width="1"/>
        <path id="Path_74352" data-name="Path 74352" d="M68.28,236.25c33.575.276,67.141.276,100.984.142" transform="translate(-83.927 -217.986)" fill="none" stroke="#fff" stroke-miterlimit="10" stroke-width="1"/>
        <path id="Path_74353" data-name="Path 74353" d="M68.28,238.21c33.575.2,67.141.2,100.984.1" transform="translate(-83.927 -218.308)" fill="none" stroke="#fff" stroke-miterlimit="10" stroke-width="1"/>
        <path id="Path_74354" data-name="Path 74354" d="M68.28,246.47c33.575.326,67.141.326,100.984.167" transform="translate(-83.927 -219.664)" fill="none" stroke="#fff" stroke-miterlimit="10" stroke-width="1"/>
        <path id="Path_74355" data-name="Path 74355" d="M68.28,248.44c33.575.234,67.141.234,100.984.117" transform="translate(-83.927 -219.987)" fill="none" stroke="#fff" stroke-miterlimit="10" stroke-width="1"/>
        <path id="Path_74356" data-name="Path 74356" d="M68.28,256.69c33.575.368,67.141.368,100.984.184" transform="translate(-83.927 -221.342)" fill="none" stroke="#fff" stroke-miterlimit="10" stroke-width="1"/>
        <path id="Path_74357" data-name="Path 74357" d="M68.28,258.66c33.575.284,67.141.284,100.984.142" transform="translate(-83.927 -221.665)" fill="none" stroke="#fff" stroke-miterlimit="10" stroke-width="1"/>
        <path id="Path_74358" data-name="Path 74358" d="M68.28,266.85c33.575-.368,67.141-.368,100.984-.184" transform="translate(-83.927 -222.96)" fill="none" stroke="#fff" stroke-miterlimit="10" stroke-width="1"/>
        <path id="Path_74359" data-name="Path 74359" d="M68.28,268.88c33.575.326,67.141.326,100.984.167" transform="translate(-83.927 -223.343)" fill="none" stroke="#fff" stroke-miterlimit="10" stroke-width="1"/>
        <path id="Path_74360" data-name="Path 74360" d="M68.28,277.077c33.575-.326,67.141-.326,100.984-.159" transform="translate(-83.927 -224.645)" fill="none" stroke="#fff" stroke-miterlimit="10" stroke-width="1"/>
        <path id="Path_74361" data-name="Path 74361" d="M68.28,279.1c33.575.376,67.141.376,100.984.192" transform="translate(-83.927 -225.021)" fill="none" stroke="#fff" stroke-miterlimit="10" stroke-width="1"/>
        <path id="Path_74362" data-name="Path 74362" d="M68.28,287.3c33.575-.276,67.141-.276,100.984-.142" transform="translate(-83.927 -226.33)" fill="none" stroke="#fff" stroke-miterlimit="10" stroke-width="1"/>
        <path id="Path_74363" data-name="Path 74363" d="M68.28,289.261c33.575-.359,67.141-.359,100.984-.184" transform="translate(-83.927 -226.64)" fill="none" stroke="#fff" stroke-miterlimit="10" stroke-width="1"/>
      </g>
      <path id="Path_74365" data-name="Path 74365" d="M120.541,215.963s5.466,16.783,7.807,28.3,3.343,22.241,3.343,22.241-3.343-2.14-12.295-2.925-13.072-2.148-16.976-9.562-6.444-6.829-10.347-8S87,242.676,87,242.676,119.179,215.737,120.541,215.963Zm12.37-1.463a105.706,105.706,0,0,1,7.038,18.07C142.992,243.068,147.3,266,147.3,266s7.456-.836,9.662-5.567,2.307-6.519,5.851-7.773,8.408-3.887,8.826-7.247a52.824,52.824,0,0,1,1.362-6.728s-19.633-16.273-22.684-18.388S133.756,213.664,132.912,214.5Z" transform="translate(-76.041 -181.826)" fill="none" stroke="#263238" stroke-linecap="round" stroke-linejoin="round" stroke-width="1"/>
      <path id="Path_74366" data-name="Path 74366" d="M180.292,212.82s.786,4.664,1.053,5.776,2.817,4.338,2.817,4.338l-4.263,2.691a56.053,56.053,0,0,0-3.343-5.316c-.719-.727-4.33-1.672-5.383-3.093s-.786-3.084-1.053-4.137-2.691-4.07-2.1-4.53,1.839-.067,2.424.66a7.845,7.845,0,0,1,.836,2.3c.242.527,3.477,2.507,3.477,2.507s-1.446-4.137-1.672-4.722a1.153,1.153,0,0,1,.919-1.513c.652,0,3.611,2.892,3.611,2.892Z" transform="translate(-89.328 -180.739)" fill="none" stroke="#263238" stroke-linecap="round" stroke-linejoin="round" stroke-width="1"/>
      <ellipse id="Ellipse_1178" data-name="Ellipse 1178" cx="5.207" cy="9.495" rx="5.207" ry="9.495" transform="translate(65.389 9.426) rotate(-26.55)" fill="#fff" stroke="#263238" stroke-linecap="round" stroke-linejoin="round" stroke-width="1"/>
      <ellipse id="Ellipse_1179" data-name="Ellipse 1179" cx="3.577" cy="8.032" rx="3.577" ry="8.032" transform="translate(67.114 10.202) rotate(-26.55)" fill="#fff" stroke="#263238" stroke-linecap="round" stroke-linejoin="round" stroke-width="1"/>
      <path id="Path_74367" data-name="Path 74367" d="M167.526,203.629l7.38,11.033a1.245,1.245,0,0,0,1.789.309h0a1.254,1.254,0,0,0,.242-1.772l-8.2-10.448a.585.585,0,0,0-.836-.125l-.276.184A.593.593,0,0,0,167.526,203.629Z" transform="translate(-89.243 -179.873)" fill="#263238" stroke="#263238" stroke-linecap="round" stroke-linejoin="round" stroke-width="1"/>
      <path id="Path_74368" data-name="Path 74368" d="M173.589,205.666s-2.19,1.354-2.09,2.09.418,1.036,1.045,1.036a11.833,11.833,0,0,0,2.917-1.245C176.088,207.237,175.637,204.839,173.589,205.666Z" transform="translate(-89.914 -180.364)" fill="#fff" stroke="#263238" stroke-linecap="round" stroke-linejoin="round" stroke-width="1"/>
      <path id="Path_74369" data-name="Path 74369" d="M174.588,208.581a25.425,25.425,0,0,0-2.1,3.285c-.067.46,3.736,4.179,4.4,4.179s4.271-2.232,4.137-3.151-3.811-3.678-4.463-4.338S175.323,207.661,174.588,208.581Z" transform="translate(-90.077 -180.771)" fill="#fff" stroke="#263238" stroke-linecap="round" stroke-linejoin="round" stroke-width="1"/>
      <line id="Line_41" data-name="Line 41" y1="4.204" x2="3.544" transform="translate(83.541 28.203)" fill="none" stroke="#263238" stroke-linecap="round" stroke-linejoin="round" stroke-width="1"/>
      <line id="Line_42" data-name="Line 42" x1="3.544" y2="4.004" transform="translate(85.514 30.242)" fill="none" stroke="#263238" stroke-linecap="round" stroke-linejoin="round" stroke-width="1"/>
      <path id="Path_74370" data-name="Path 74370" d="M190.946,250.213,180.13,227.529l7.982-4.179s8.509,9.871,11.977,16.716,5.015,17.753,3.678,19.433-7.464.518-10.506-1.371" transform="translate(-91.331 -183.296)" fill="#4866fc"/>
      <g id="Group_14905" data-name="Group 14905" transform="translate(88.799 40.054)" clip-path="url(#clip-path-9)">
        <rect id="Rectangle_5373" data-name="Rectangle 5373" width="2.959" height="45.669" transform="translate(-9.027 -3.77)" opacity="0.15"/>
        <rect id="Rectangle_5374" data-name="Rectangle 5374" width="2.959" height="45.669" transform="translate(1.162 -3.77)" opacity="0.15"/>
        <rect id="Rectangle_5375" data-name="Rectangle 5375" width="2.959" height="45.669" transform="translate(11.342 -3.77)" opacity="0.15"/>
        <rect id="Rectangle_5376" data-name="Rectangle 5376" width="2.959" height="45.669" transform="translate(21.531 -3.77)" opacity="0.15"/>
        <path id="Path_74371" data-name="Path 74371" d="M170.89,226c14.209.234,29,.234,43.053,0" transform="translate(-178.613 -223.785)" fill="none" stroke="#fff" stroke-miterlimit="10" stroke-width="1"/>
        <path id="Path_74372" data-name="Path 74372" d="M170.89,228c14.209.159,29,.159,43.053,0" transform="translate(-178.613 -224.113)" fill="none" stroke="#fff" stroke-miterlimit="10" stroke-width="1"/>
        <path id="Path_74373" data-name="Path 74373" d="M170.89,236.25c14.209.276,29,.276,43.053,0" transform="translate(-178.613 -225.468)" fill="none" stroke="#fff" stroke-miterlimit="10" stroke-width="1"/>
        <path id="Path_74374" data-name="Path 74374" d="M170.89,238.21c14.209.2,29,.2,43.053,0" transform="translate(-178.613 -225.79)" fill="none" stroke="#fff" stroke-miterlimit="10" stroke-width="1"/>
        <path id="Path_74375" data-name="Path 74375" d="M170.89,246.47c14.209.326,29,.326,43.053,0" transform="translate(-178.613 -227.146)" fill="none" stroke="#fff" stroke-miterlimit="10" stroke-width="1"/>
        <path id="Path_74376" data-name="Path 74376" d="M170.89,248.44c14.209.234,29,.234,43.053,0" transform="translate(-178.613 -227.469)" fill="none" stroke="#fff" stroke-miterlimit="10" stroke-width="1"/>
        <path id="Path_74377" data-name="Path 74377" d="M170.89,256.69c14.209.368,29,.368,43.053,0" transform="translate(-178.613 -228.824)" fill="none" stroke="#fff" stroke-miterlimit="10" stroke-width="1"/>
        <path id="Path_74378" data-name="Path 74378" d="M170.89,258.66c14.209.284,29,.284,43.053,0" transform="translate(-178.613 -229.147)" fill="none" stroke="#fff" stroke-miterlimit="10" stroke-width="1"/>
        <path id="Path_74379" data-name="Path 74379" d="M170.89,266.856c14.209-.368,29-.368,43.053,0" transform="translate(-178.613 -230.447)" fill="none" stroke="#fff" stroke-miterlimit="10" stroke-width="1"/>
        <path id="Path_74380" data-name="Path 74380" d="M170.89,268.88c14.209.326,29,.326,43.053,0" transform="translate(-178.613 -230.825)" fill="none" stroke="#fff" stroke-miterlimit="10" stroke-width="1"/>
      </g>
      <path id="Path_74382" data-name="Path 74382" d="M190.946,250.213,180.13,227.529l7.982-4.179s8.509,9.871,11.977,16.716,5.015,17.753,3.678,19.433-7.464.518-10.506-1.371" transform="translate(-91.331 -183.296)" fill="none" stroke="#263238" stroke-linecap="round" stroke-linejoin="round" stroke-width="1"/>
    </g>
  </g>
</svg>
