<svg id="inverted-commas_1_" data-name="inverted-commas (1)" xmlns="http://www.w3.org/2000/svg" width="65.088" height="48.022" viewBox="0 0 65.088 48.022">
  <path id="Path_74167" data-name="Path 74167" d="M28.579,47.914H12.8c.27,11.5,3.531,12.8,7.626,13.175l1.579.2V73.927l-1.821-.1c-5.348-.3-11.261-1.265-15.206-6.135C1.525,63.426,0,56.451,0,45.744V25.905H28.579Z" transform="translate(36.509 -25.905)" fill="#0466c8"/>
  <path id="Path_74168" data-name="Path 74168" d="M139.579,25.905V47.914H124.014c.27,11.5,3.425,12.8,7.521,13.175l1.474.2V73.927l-1.715-.1c-5.348-.3-11.314-1.265-15.259-6.135C112.577,63.426,111,56.451,111,45.744V25.905Z" transform="translate(-111 -25.905)" fill="#0466c8"/>
</svg>
