<svg xmlns="http://www.w3.org/2000/svg" width="150.687" height="108.868" viewBox="0 0 150.687 108.868">
  <g id="Upvote-rafiki" transform="translate(0 -55)">
    <g id="freepik--background-complete--inject-67" transform="translate(0 55)">
      <rect id="Rectangle_4824" data-name="Rectangle 4824" width="150.687" height="0.075" transform="translate(0 98.67)" fill="#ebebeb"/>
      <path id="Path_73471" data-name="Path 73471" d="M98.12,140.229H39.928a1.721,1.721,0,0,1-1.718-1.721v-81.8A1.721,1.721,0,0,1,39.928,55H98.12a1.721,1.721,0,0,1,1.721,1.721v81.787A1.721,1.721,0,0,1,98.12,140.229ZM39.928,55.06a1.646,1.646,0,0,0-1.642,1.646v81.8a1.645,1.645,0,0,0,1.642,1.646H98.12a1.649,1.649,0,0,0,1.646-1.646v-81.8A1.649,1.649,0,0,0,98.12,55.06Z" transform="translate(-26.694 -55)" fill="#ebebeb"/>
      <path id="Path_73472" data-name="Path 73472" d="M314.416,140.229h-58.2a1.724,1.724,0,0,1-1.721-1.721v-81.8A1.724,1.724,0,0,1,256.221,55h58.2a1.721,1.721,0,0,1,1.715,1.706v81.8A1.721,1.721,0,0,1,314.416,140.229Zm-58.2-85.168a1.649,1.649,0,0,0-1.646,1.646v81.8a1.649,1.649,0,0,0,1.646,1.645h58.2a1.649,1.649,0,0,0,1.646-1.646v-81.8a1.649,1.649,0,0,0-1.646-1.646Z" transform="translate(-177.8 -55)" fill="#ebebeb"/>
      <rect id="Rectangle_4825" data-name="Rectangle 4825" width="10.009" height="0.075" transform="translate(15.81 103.519)" fill="#ebebeb"/>
      <rect id="Rectangle_4826" data-name="Rectangle 4826" width="16.304" height="0.075" transform="translate(44.1 103.221)" fill="#ebebeb"/>
      <rect id="Rectangle_4827" data-name="Rectangle 4827" width="5.759" height="0.075" transform="translate(26.12 100.722)" fill="#ebebeb"/>
      <rect id="Rectangle_4828" data-name="Rectangle 4828" width="4.454" height="0.075" transform="translate(131.134 101.229)" fill="#ebebeb"/>
      <rect id="Rectangle_4829" data-name="Rectangle 4829" width="10.47" height="0.075" transform="translate(117.979 101.229)" fill="#ebebeb"/>
      <rect id="Rectangle_4830" data-name="Rectangle 4830" width="13.697" height="0.075" transform="translate(80.566 102.5)" fill="#ebebeb"/>
      <rect id="Rectangle_4831" data-name="Rectangle 4831" width="17.896" height="40.698" transform="translate(43.717 9.228)" fill="#e6e6e6"/>
      <rect id="Rectangle_4832" data-name="Rectangle 4832" width="17.896" height="40.698" transform="translate(44.808 9.228)" fill="#f5f5f5"/>
      <rect id="Rectangle_4833" data-name="Rectangle 4833" width="37.033" height="13.972" transform="translate(60.742 11.057) rotate(90)" fill="#fff"/>
      <rect id="Rectangle_4834" data-name="Rectangle 4834" width="37.033" height="0.826" transform="translate(60.742 11.06) rotate(90)" fill="#e6e6e6"/>
      <rect id="Rectangle_4835" data-name="Rectangle 4835" width="16.271" height="2.459" transform="translate(45.622 37.096)" fill="#f5f5f5"/>
      <rect id="Rectangle_4836" data-name="Rectangle 4836" width="16.271" height="2.459" transform="translate(45.622 14.291)" fill="#f5f5f5"/>
      <rect id="Rectangle_4837" data-name="Rectangle 4837" width="17.896" height="40.698" transform="translate(67.845 9.228)" fill="#e6e6e6"/>
      <rect id="Rectangle_4838" data-name="Rectangle 4838" width="17.896" height="40.698" transform="translate(68.936 9.228)" fill="#f5f5f5"/>
      <rect id="Rectangle_4839" data-name="Rectangle 4839" width="37.033" height="13.972" transform="translate(84.87 11.06) rotate(90)" fill="#fff"/>
      <rect id="Rectangle_4840" data-name="Rectangle 4840" width="37.033" height="0.826" transform="translate(84.87 11.06) rotate(90)" fill="#e6e6e6"/>
      <rect id="Rectangle_4841" data-name="Rectangle 4841" width="16.271" height="2.459" transform="translate(69.75 37.096)" fill="#f5f5f5"/>
      <rect id="Rectangle_4842" data-name="Rectangle 4842" width="16.271" height="2.459" transform="translate(69.75 14.291)" fill="#f5f5f5"/>
      <rect id="Rectangle_4843" data-name="Rectangle 4843" width="17.896" height="40.698" transform="translate(19.589 9.228)" fill="#e6e6e6"/>
      <rect id="Rectangle_4844" data-name="Rectangle 4844" width="17.896" height="40.698" transform="translate(20.683 9.228)" fill="#f5f5f5"/>
      <rect id="Rectangle_4845" data-name="Rectangle 4845" width="37.033" height="13.972" transform="translate(36.614 11.06) rotate(90)" fill="#fff"/>
      <rect id="Rectangle_4846" data-name="Rectangle 4846" width="37.033" height="0.826" transform="translate(36.614 11.06) rotate(90)" fill="#e6e6e6"/>
      <rect id="Rectangle_4847" data-name="Rectangle 4847" width="16.271" height="2.459" transform="translate(21.494 37.096)" fill="#f5f5f5"/>
      <rect id="Rectangle_4848" data-name="Rectangle 4848" width="16.271" height="2.459" transform="translate(21.494 14.291)" fill="#f5f5f5"/>
      <rect id="Rectangle_4849" data-name="Rectangle 4849" width="6.838" height="29.351" transform="translate(93.164 69.319)" fill="#e6e6e6"/>
      <path id="Path_73473" data-name="Path 73473" d="M324.352,373.835h1.3V370.14H322.99Z" transform="translate(-225.649 -275.165)" fill="#f0f0f0"/>
      <rect id="Rectangle_4850" data-name="Rectangle 4850" width="6.838" height="29.351" transform="translate(58.798 69.319)" fill="#e6e6e6"/>
      <rect id="Rectangle_4851" data-name="Rectangle 4851" width="35.499" height="27.534" transform="translate(64.5 69.319)" fill="#f0f0f0"/>
      <path id="Path_73474" data-name="Path 73474" d="M290.674,288.58h-16.3v21.4h16.3Z" transform="translate(-191.682 -218.185)" fill="#e6e6e6"/>
      <path id="Path_73475" data-name="Path 73475" d="M233.674,288.58h-16.3v21.4h16.3Z" transform="translate(-151.86 -218.185)" fill="#e6e6e6"/>
      <path id="Path_73476" data-name="Path 73476" d="M259.37,295.054a1.154,1.154,0,1,0,1.154-1.154,1.154,1.154,0,0,0-1.154,1.154Z" transform="translate(-181.203 -221.902)" fill="#fafafa"/>
      <path id="Path_73477" data-name="Path 73477" d="M278.81,295.054a1.151,1.151,0,1,0,.337-.817A1.154,1.154,0,0,0,278.81,295.054Z" transform="translate(-194.784 -221.902)" fill="#fafafa"/>
      <path id="Path_73478" data-name="Path 73478" d="M215.319,373.835h-1.3V370.14h2.661Z" transform="translate(-149.52 -275.165)" fill="#f0f0f0"/>
      <rect id="Rectangle_4852" data-name="Rectangle 4852" width="6.838" height="40.67" transform="translate(53.955 57.996)" fill="#e6e6e6"/>
      <path id="Path_73479" data-name="Path 73479" d="M194.252,373.835h1.3V370.14H192.89Z" transform="translate(-134.758 -275.165)" fill="#f0f0f0"/>
      <rect id="Rectangle_4853" data-name="Rectangle 4853" width="6.838" height="40.67" transform="translate(19.589 57.996)" fill="#e6e6e6"/>
      <rect id="Rectangle_4854" data-name="Rectangle 4854" width="35.499" height="38.404" transform="translate(25.291 57.996)" fill="#f0f0f0"/>
      <path id="Path_73480" data-name="Path 73480" d="M120.753,250.79H87.27v7.275h33.483Z" transform="translate(-60.969 -191.784)" fill="#e6e6e6"/>
      <path id="Path_73481" data-name="Path 73481" d="M160.567,277.69H144.26v24.673h16.307Z" transform="translate(-100.784 -210.577)" fill="#e6e6e6"/>
      <path id="Path_73482" data-name="Path 73482" d="M103.574,277.69H87.27v24.673h16.3Z" transform="translate(-60.969 -210.577)" fill="#e6e6e6"/>
      <path id="Path_73483" data-name="Path 73483" d="M129.27,314.014a1.151,1.151,0,1,0,.337-.817,1.154,1.154,0,0,0-.337.817Z" transform="translate(-90.311 -235.148)" fill="#fafafa"/>
      <path id="Path_73484" data-name="Path 73484" d="M148.71,314.014a1.151,1.151,0,1,0,.337-.817,1.154,1.154,0,0,0-.337.817Z" transform="translate(-103.893 -235.148)" fill="#fafafa"/>
      <path id="Path_73485" data-name="Path 73485" d="M85.219,373.835h-1.3V370.14h2.661Z" transform="translate(-58.629 -275.165)" fill="#f0f0f0"/>
      <path id="Path_73486" data-name="Path 73486" d="M139.49,260.324a1.154,1.154,0,1,0,1.154-1.154A1.154,1.154,0,0,0,139.49,260.324Z" transform="translate(-97.451 -197.638)" fill="#fafafa"/>
      <path id="Path_73487" data-name="Path 73487" d="M315.88,143.456h1.215l4.162-3.686h-4.97Z" transform="translate(-220.682 -114.223)" fill="#e6e6e6"/>
      <path id="Path_73488" data-name="Path 73488" d="M318.22,143.456h1.215l4.162-3.686h-1.218Z" transform="translate(-222.317 -114.223)" fill="#f5f5f5"/>
      <path id="Path_73489" data-name="Path 73489" d="M413.65,143.456h1.215l4.165-3.686h-4.973Z" transform="translate(-288.987 -114.223)" fill="#e6e6e6"/>
      <path id="Path_73490" data-name="Path 73490" d="M415.99,143.456H417.2l4.162-3.686h-1.215Z" transform="translate(-290.621 -114.223)" fill="#f5f5f5"/>
      <rect id="Rectangle_4855" data-name="Rectangle 4855" width="8.098" height="1.896" transform="translate(100.294 25.547) rotate(180)" fill="#e6e6e6"/>
      <rect id="Rectangle_4856" data-name="Rectangle 4856" width="33.519" height="1.896" transform="translate(100.294 23.652)" fill="#f5f5f5"/>
      <path id="Path_73491" data-name="Path 73491" d="M394.8,95h-3.755a22.478,22.478,0,0,1,.651,4.1c0,1.519-2.857,7.483,1.227,7.483s1.224-5.961,1.224-7.483A22.332,22.332,0,0,1,394.8,95Z" transform="translate(-272.971 -82.945)" fill="#e6e6e6"/>
      <path id="Path_73492" data-name="Path 73492" d="M412.381,95h-3.755a22.479,22.479,0,0,1,.651,4.1c0,1.519-2.857,7.483,1.227,7.483s1.227-5.961,1.227-7.483A22.427,22.427,0,0,1,412.381,95Z" transform="translate(-285.253 -82.945)" fill="#e6e6e6"/>
      <path id="Path_73493" data-name="Path 73493" d="M347.41,118.7c0,2.45,2.691,4.454,5.982,4.454h2.972c3.291,0,5.985-2,5.985-4.454Z" transform="translate(-242.71 -99.502)" fill="#f0f0f0"/>
      <path id="Path_73494" data-name="Path 73494" d="M315.88,199.456h1.215l4.162-3.686h-4.97Z" transform="translate(-220.682 -153.346)" fill="#e6e6e6"/>
      <path id="Path_73495" data-name="Path 73495" d="M318.22,199.456h1.215l4.162-3.686h-1.218Z" transform="translate(-222.317 -153.346)" fill="#f5f5f5"/>
      <path id="Path_73496" data-name="Path 73496" d="M413.65,199.456h1.215l4.165-3.686h-4.973Z" transform="translate(-288.987 -153.346)" fill="#e6e6e6"/>
      <path id="Path_73497" data-name="Path 73497" d="M415.99,199.456H417.2l4.162-3.686h-1.215Z" transform="translate(-290.621 -153.346)" fill="#f5f5f5"/>
      <rect id="Rectangle_4857" data-name="Rectangle 4857" width="8.098" height="1.893" transform="translate(100.294 42.424) rotate(180)" fill="#e6e6e6"/>
      <rect id="Rectangle_4858" data-name="Rectangle 4858" width="33.519" height="1.893" transform="translate(100.294 40.529)" fill="#f5f5f5"/>
      <path id="Path_73498" data-name="Path 73498" d="M354.12,176.3c0,2.185,3.152,3.972,7.007,3.972H364.6c3.855,0,7.007-1.787,7.007-3.972Z" transform="translate(-247.397 -139.743)" fill="#e0e0e0"/>
      <path id="Path_73499" data-name="Path 73499" d="M336.559,152.37H342.4s-1.013,5.057-1.013,6.091,4.445,5.093-1.908,5.093-1.908-4.056-1.908-5.093S336.559,152.37,336.559,152.37Z" transform="translate(-234.782 -123.025)" fill="#f5f5f5"/>
      <path id="Path_73500" data-name="Path 73500" d="M364.325,264.766c1.793.235,3.445,1.6,2.881,3.451-.928,3.062,3.535,2.779,3.647,7.568.16,6.76-6.727,2.257-6.254,8.683.347,4.674-6.2,9.1-8.194,3.252-2.191-6.4-4.147-1.537-6.932-8.58-1.929-4.87,4.8-6.989,2.281-8.137-1.841-.832-3.315-2.628-1.588-4.406,2.342-2.411-.79-3.315.793-4.988s2.5.3,5.244-1.3c2.456-1.438,5.548.832,5.5,2.649C361.66,264.663,362.519,264.528,364.325,264.766Z" transform="translate(-243.905 -198.114)" fill="#e6e6e6"/>
      <path id="Path_73501" data-name="Path 73501" d="M371.018,345.66s-.22,11.072-8.683,11.072-8.686-11.072-8.686-11.072Z" transform="translate(-247.069 -258.063)" fill="#f0f0f0"/>
    </g>
    <g id="freepik--Upvote--inject-67" transform="translate(31.717 97.351)">
      <rect id="Rectangle_4859" data-name="Rectangle 4859" width="18.26" height="9.05" rx="4.525" transform="translate(0 23.706) rotate(-71.98)" fill="#263238"/>
      <rect id="Rectangle_4860" data-name="Rectangle 4860" width="18.26" height="9.05" rx="4.525" transform="translate(0 23.706) rotate(-71.98)" opacity="0.3"/>
      <path id="Path_73502" data-name="Path 73502" d="M155.6,209.806l-5.657-1.841.217.069c.392-.808.247-1.3.717-2.067a23.621,23.621,0,0,0,2.4-3.8c.6-1.326.524-6.214.524-6.214s-.985-.332-1.169-.377c-1.142-.3-1.769.811-2.227,2.411-.533,1.859-4.044,4.09-6.3,5.241s-4.873,2.851-4.888,2.863h0l-4.123,13.086h0l1.778,1.706a13.381,13.381,0,0,0,4.219,2.574l9.108,2.953Z" transform="translate(-126.094 -195.526)" fill="#263238"/>
      <path id="Path_73503" data-name="Path 73503" d="M162.247,213.011a1.109,1.109,0,0,0-.711-1.4l-7.254-2.357h0a18.223,18.223,0,0,1,.934-2,23.618,23.618,0,0,0,2.4-3.8c.8-1.772,1.248-5.545-.277-6.416s-2.064.38-2.6,2.242-4.041,4.09-6.3,5.241-4.87,2.854-4.885,2.854h0l-4.123,13.08h0l1.778,1.706a13.423,13.423,0,0,0,4.219,2.577l10.06,3.27a1.106,1.106,0,0,0,1.4-.711l.247-.759a1.106,1.106,0,0,0-.47-1.287l-.338-.332a.238.238,0,0,1,.157-.428l.865.06a1.357,1.357,0,0,0,1.38-.69l.479-1.477a1.109,1.109,0,0,0-.455-1.278l-.838-.573a.238.238,0,0,1,.133-.434l1.362-.018a1.109,1.109,0,0,0,1.04-.765l.518-1.6a1.112,1.112,0,0,0-.422-1.257l-1.052-.726a.238.238,0,0,1,.136-.434h1.025a1.112,1.112,0,0,0,1.1-.765Z" transform="translate(-129.126 -196.389)" fill="#4866fc"/>
      <path id="Path_73504" data-name="Path 73504" d="M162.247,213.011a1.109,1.109,0,0,0-.711-1.4l-7.254-2.357h0a18.223,18.223,0,0,1,.934-2,23.618,23.618,0,0,0,2.4-3.8c.8-1.772,1.248-5.545-.277-6.416s-2.064.38-2.6,2.242-4.041,4.09-6.3,5.241-4.87,2.854-4.885,2.854h0l-4.123,13.08h0l1.778,1.706a13.423,13.423,0,0,0,4.219,2.577l10.06,3.27a1.106,1.106,0,0,0,1.4-.711l.247-.759a1.106,1.106,0,0,0-.47-1.287l-.338-.332a.238.238,0,0,1,.157-.428l.865.06a1.357,1.357,0,0,0,1.38-.69l.479-1.477a1.109,1.109,0,0,0-.455-1.278l-.838-.573a.238.238,0,0,1,.133-.434l1.362-.018a1.109,1.109,0,0,0,1.04-.765l.518-1.6a1.112,1.112,0,0,0-.422-1.257l-1.052-.726a.238.238,0,0,1,.136-.434h1.025a1.112,1.112,0,0,0,1.1-.765Z" transform="translate(-129.126 -196.389)" opacity="0.4"/>
      <rect id="Rectangle_4861" data-name="Rectangle 4861" width="18.26" height="9.05" rx="4.525" transform="translate(1.089 24.059) rotate(-71.98)" fill="#263238"/>
      <rect id="Rectangle_4862" data-name="Rectangle 4862" width="0.319" height="1.814" transform="translate(18.771 30.003) rotate(-73.25)" fill="#4866fc"/>
      <rect id="Rectangle_4863" data-name="Rectangle 4863" width="0.319" height="1.814" transform="translate(18.771 30.003) rotate(-73.25)" opacity="0.4"/>
      <rect id="Rectangle_4864" data-name="Rectangle 4864" width="0.319" height="4.34" transform="translate(22.158 31.017) rotate(-73.25)" fill="#4866fc"/>
      <rect id="Rectangle_4865" data-name="Rectangle 4865" width="0.319" height="4.34" transform="translate(22.158 31.017) rotate(-73.25)" opacity="0.4"/>
    </g>
    <g id="freepik--Character--inject-67" transform="translate(59.017 72.024)">
      <path id="Path_73505" data-name="Path 73505" d="M236.024,115.068c-1.477.455-2.45,6.329.6,8.228s9.758-.943,9.758-.943-1.016-1.205-.678-4.409c.331-3.137.467-7.233-4.747-6.329C237.561,112.187,235.789,114.053,236.024,115.068Z" transform="translate(-222.932 -111.487)" fill="#263238"/>
      <path id="Path_73506" data-name="Path 73506" d="M276.183,171.34c.069.735.157,1.54.268,2.309s.226,1.552.38,2.318a29.838,29.838,0,0,0,1.206,4.472l.2.53c.036.1.06.145.09.217s.069.139.105.211a7.861,7.861,0,0,0,.564.889,21.768,21.768,0,0,0,1.465,1.778c.521.585,1.067,1.16,1.63,1.724s1.136,1.133,1.706,1.685l-.808,1.04a34.3,34.3,0,0,1-3.963-3.014,19.434,19.434,0,0,1-1.808-1.808,9.106,9.106,0,0,1-.826-1.1c-.063-.108-.127-.208-.187-.322s-.13-.241-.166-.332l-.265-.6a21.738,21.738,0,0,1-.88-2.411c-.259-.808-.452-1.627-.636-2.447s-.335-1.643-.452-2.468-.22-1.642-.268-2.522Z" transform="translate(-250.119 -153.302)" fill="#ffb573"/>
      <path id="Path_73507" data-name="Path 73507" d="M271.743,160.978c1.07.271,1.808,4.677,1.808,4.677l-4.075,2.785s-1.685-5.223-.862-6.4C269.477,160.815,270.179,160.58,271.743,160.978Z" transform="translate(-246.521 -145.939)" fill="#263238"/>
      <path id="Path_73508" data-name="Path 73508" d="M277.258,164.65l.823,4.442-1.661,1.124Z" transform="translate(-252.131 -148.628)" opacity="0.2"/>
      <path id="Path_73509" data-name="Path 73509" d="M270.5,179.022l4.6-3.3-.093-.425-4.819,3.24Z" transform="translate(-247.779 -156.068)" fill="#4866fc"/>
      <path id="Path_73510" data-name="Path 73510" d="M260.3,393.5h2.6l.172-6.015h-2.6Z" transform="translate(-240.87 -304.303)" fill="#ffb573"/>
      <path id="Path_73511" data-name="Path 73511" d="M200.69,369.856l2.4.979,3.047-5.253-2.4-.982Z" transform="translate(-199.224 -288.318)" fill="#ffb573"/>
      <path id="Path_73512" data-name="Path 73512" d="M200.15,380.535l-2.507-1.507a.2.2,0,0,0-.268.048l-1.465,1.808a.413.413,0,0,0,.121.6c.883.506,1.335.705,2.438,1.359.681.4,2.275,1.787,3.213,2.342s1.537-.338,1.206-.654a8.918,8.918,0,0,1-2.435-3.668A.654.654,0,0,0,200.15,380.535Z" transform="translate(-195.827 -298.376)" fill="#263238"/>
      <path id="Path_73513" data-name="Path 73513" d="M261.191,406.44h-2.917a.2.2,0,0,0-.208.178l-.332,2.309a.416.416,0,0,0,.416.461c1.016-.018,1.507-.075,2.791-.075.79,0,2.411.081,3.514.081s1.148-1.079.693-1.175a7.077,7.077,0,0,1-3.523-1.618A.666.666,0,0,0,261.191,406.44Z" transform="translate(-239.075 -317.549)" fill="#263238"/>
      <g id="Group_14422" data-name="Group 14422" transform="translate(2.939 76.285)" opacity="0.2">
        <path id="Path_73514" data-name="Path 73514" d="M263.258,387.48l-.09,3.1h-2.6l.09-3.1Z" transform="translate(-243.997 -380.588)"/>
        <path id="Path_73515" data-name="Path 73515" d="M207.153,364.61l2.4.982-1.573,2.706-2.4-.982Z" transform="translate(-205.58 -364.61)"/>
      </g>
      <path id="Path_73516" data-name="Path 73516" d="M247.858,159.607s1.236.434-1.242,15.671H236.069c.178-4.295.184-6.932-1.869-15.753a30.915,30.915,0,0,1,4.478-.6,33.864,33.864,0,0,1,4.792,0C245.523,159.128,247.858,159.607,247.858,159.607Z" transform="translate(-222.635 -144.568)" fill="#263238"/>
      <path id="Path_73517" data-name="Path 73517" d="M249.526,141.28c.3,1.543.6,4.367-.476,5.395a11.151,11.151,0,0,0,4.234,4.219c2.14-1.709.558-4.219.558-4.219-1.721-.41-1.676-1.685-1.377-2.884Z" transform="translate(-233.01 -132.301)" fill="#ffb573"/>
      <path id="Path_73518" data-name="Path 73518" d="M254.029,144.68l1.742,1.486a4.974,4.974,0,0,0-.148.85c-.657-.093-1.691-.654-1.829-1.368A2.082,2.082,0,0,1,254.029,144.68Z" transform="translate(-236.316 -134.677)" opacity="0.2"/>
      <path id="Path_73519" data-name="Path 73519" d="M241.706,122.574c.714,2.477.961,3.541,2.516,4.548a3.3,3.3,0,0,0,5.268-2.544c.039-2.375-1.133-6.027-3.812-6.48a3.517,3.517,0,0,0-3.972,4.475Z" transform="translate(-227.776 -116.07)" fill="#ffb573"/>
      <path id="Path_73520" data-name="Path 73520" d="M240.839,119.69c.621.886-.063,3.315-1.082,3.544-.817.169-1.26-1.178-1.4-1.721a1.046,1.046,0,0,1-.021-.422l.268-1.754a1.052,1.052,0,0,1,.353-.639l1.914-1.652a1.046,1.046,0,0,1,.515-.241l2.712-.449a1.049,1.049,0,0,1,.585.069h0a1.052,1.052,0,0,1,.3,1.745A5.639,5.639,0,0,1,240.839,119.69Z" transform="translate(-225.513 -114.879)" fill="#263238"/>
      <path id="Path_73521" data-name="Path 73521" d="M257.487,213.41s2.049,20.008,1.878,27.931c-.19,8.24-3.2,27.03-3.2,27.03h-3.5s.555-18.311.244-26.4c-.338-8.821-3.14-28.558-3.14-28.558Z" transform="translate(-233.506 -182.693)" fill="#4866fc"/>
      <path id="Path_73522" data-name="Path 73522" d="M257.487,213.41s2.049,20.008,1.878,27.931c-.19,8.24-3.2,27.03-3.2,27.03h-3.5s.555-18.311.244-26.4c-.338-8.821-3.14-28.558-3.14-28.558Z" transform="translate(-233.506 -182.693)" fill="#fff" opacity="0.4"/>
      <path id="Path_73523" data-name="Path 73523" d="M257.92,392.777h4.123l.3-1.317-4.614-.16Z" transform="translate(-239.074 -306.972)" fill="#263238"/>
      <path id="Path_73524" data-name="Path 73524" d="M255.025,227.074c2.592,5.211.518,14.722-.4,18.257-.47-5.313-1.26-11.808-1.878-16.576C253.142,226.055,253.829,224.684,255.025,227.074Z" transform="translate(-235.595 -191.378)" opacity="0.2"/>
      <path id="Path_73525" data-name="Path 73525" d="M223.674,213.368s-2.39,20.795-4.192,27.479c-2.143,7.929-10.849,21.458-10.849,21.458l-3.282-1.338s5.621-15.4,7.26-19.589c3.5-8.915.5-22.2,3.3-28.028Z" transform="translate(-202.48 -182.651)" fill="#4866fc"/>
      <path id="Path_73526" data-name="Path 73526" d="M223.674,213.368s-2.39,20.795-4.192,27.479c-2.143,7.929-10.849,21.458-10.849,21.458l-3.282-1.338s5.621-15.4,7.26-19.589c3.5-8.915.5-22.2,3.3-28.028Z" transform="translate(-202.48 -182.651)" fill="#fff" opacity="0.4"/>
      <path id="Path_73527" data-name="Path 73527" d="M203.88,367.672l4.069,1.661.955-1.1-4.7-2.17Z" transform="translate(-201.453 -289.338)" fill="#263238"/>
      <path id="Path_73528" data-name="Path 73528" d="M255.809,131.3c.045.2.19.344.322.3s.2-.22.16-.425-.19-.347-.322-.316S255.764,131.1,255.809,131.3Z" transform="translate(-237.722 -125.019)" fill="#263238"/>
      <path id="Path_73529" data-name="Path 73529" d="M263.479,129.615c.045.2.19.347.322.3a.345.345,0,0,0,.16-.425c-.045-.2-.19-.347-.322-.3A.345.345,0,0,0,263.479,129.615Z" transform="translate(-243.081 -123.849)" fill="#263238"/>
      <path id="Path_73530" data-name="Path 73530" d="M263.85,128.71l.458-.25S264.142,128.9,263.85,128.71Z" transform="translate(-243.35 -123.345)" fill="#263238"/>
      <path id="Path_73531" data-name="Path 73531" d="M261.41,132.37a5.573,5.573,0,0,0,1.022,1.142.9.9,0,0,1-.7.3Z" transform="translate(-241.645 -126.076)" fill="#ed893e"/>
      <path id="Path_73532" data-name="Path 73532" d="M256.381,139.42a1.889,1.889,0,0,0,.3-.042.066.066,0,0,0,.048-.075.06.06,0,0,0-.072-.045,1.661,1.661,0,0,1-1.465-.341.057.057,0,0,0-.084,0,.063.063,0,0,0,0,.087A1.709,1.709,0,0,0,256.381,139.42Z" transform="translate(-237.231 -130.637)" fill="#263238"/>
      <path id="Path_73533" data-name="Path 73533" d="M241.1,138.122a1.881,1.881,0,0,0,1.206.79c.651.121.9-.476.687-1.058-.208-.524-.8-1.205-1.425-1.073a.847.847,0,0,0-.467,1.341Z" transform="translate(-227.331 -129.146)" fill="#ffb573"/>
      <path id="Path_73534" data-name="Path 73534" d="M252.443,127.6a.127.127,0,0,0,.139-.045,1.448,1.448,0,0,1,1.073-.455.124.124,0,0,0,.127-.121.127.127,0,0,0-.121-.127,1.7,1.7,0,0,0-1.278.558.121.121,0,0,0,.027.172A.072.072,0,0,0,252.443,127.6Z" transform="translate(-235.322 -122.22)" fill="#263238"/>
      <path id="Path_73535" data-name="Path 73535" d="M262.467,124.12a.127.127,0,0,0,.1-.066.124.124,0,0,0-.054-.166,1.206,1.206,0,0,0-1.121-.018.121.121,0,0,0-.045.169.124.124,0,0,0,.166.045.964.964,0,0,1,.889.024A.117.117,0,0,0,262.467,124.12Z" transform="translate(-241.59 -120.048)" fill="#263238"/>
      <path id="Path_73536" data-name="Path 73536" d="M211.089,385.8h.03a.347.347,0,0,0,.256-.229.211.211,0,0,0-.018-.211c-.19-.271-1.127-.238-1.233-.232a.063.063,0,0,0-.057.039.06.06,0,0,0,0,.066C210.323,385.461,210.766,385.838,211.089,385.8Zm-.811-.561c.374,0,.88.042.979.184a.087.087,0,0,1,0,.093.226.226,0,0,1-.166.157C210.92,385.714,210.622,385.552,210.278,385.241Z" transform="translate(-205.768 -302.658)" fill="#4866fc"/>
      <path id="Path_73537" data-name="Path 73537" d="M210.236,383.578c.319-.036.9-.256.979-.512a.217.217,0,0,0-.09-.253.32.32,0,0,0-.265-.06c-.371.069-.756.711-.771.738a.063.063,0,0,0,.051.093Zm.666-.708a.19.19,0,0,1,.148.042c.063.048.06.084.051.115-.06.172-.53.383-.844.425.142-.2.4-.536.627-.579Z" transform="translate(-205.784 -300.995)" fill="#4866fc"/>
      <path id="Path_73538" data-name="Path 73538" d="M270.436,406.472a1,1,0,0,0,.63-.16.353.353,0,0,0,.112-.3.208.208,0,0,0-.105-.163c-.319-.175-1.353.353-1.471.416a.06.06,0,0,0-.033.063.063.063,0,0,0,.048.051A4.615,4.615,0,0,0,270.436,406.472Zm.461-.539a.241.241,0,0,1,.115.024.072.072,0,0,1,.042.066.223.223,0,0,1-.069.2,1.678,1.678,0,0,1-1.163.072,3.367,3.367,0,0,1,1.082-.374Z" transform="translate(-247.344 -317.111)" fill="#4866fc"/>
      <path id="Path_73539" data-name="Path 73539" d="M269.63,404.929a.044.044,0,0,0,.027,0c.3-.139.922-.7.874-.995,0-.069-.06-.154-.232-.172a.434.434,0,0,0-.341.105,1.743,1.743,0,0,0-.389,1,.063.063,0,0,0,.027.054A.045.045,0,0,0,269.63,404.929Zm.621-1.052h.051c.112,0,.121.057.124.072.027.178-.389.618-.705.808a1.462,1.462,0,0,1,.331-.8.341.341,0,0,1,.2-.078Z" transform="translate(-247.346 -315.676)" fill="#4866fc"/>
      <path id="Path_73540" data-name="Path 73540" d="M256.18,130.42l.458-.25S256.472,130.61,256.18,130.42Z" transform="translate(-237.991 -124.539)" fill="#263238"/>
      <path id="Path_73541" data-name="Path 73541" d="M239.222,211.167l-.271.946c-.036.072.051.148.172.148h10.849c.1,0,.175-.048.181-.105l.093-.946c0-.063-.075-.121-.178-.121H239.394A.2.2,0,0,0,239.222,211.167Z" transform="translate(-225.949 -181.071)" fill="#4866fc"/>
      <path id="Path_73542" data-name="Path 73542" d="M239.222,211.167l-.271.946c-.036.072.051.148.172.148h10.849c.1,0,.175-.048.181-.105l.093-.946c0-.063-.075-.121-.178-.121H239.394A.2.2,0,0,0,239.222,211.167Z" transform="translate(-225.949 -181.071)" opacity="0.2"/>
      <path id="Path_73543" data-name="Path 73543" d="M243.861,212.169h-.286c-.057,0-.1-.03-.1-.066l.133-1.227c0-.036.054-.066.112-.066h.3c.057,0,.1.03.1.066l-.136,1.227A.142.142,0,0,1,243.861,212.169Z" transform="translate(-229.117 -180.877)" fill="#4866fc"/>
      <path id="Path_73544" data-name="Path 73544" d="M243.861,212.169h-.286c-.057,0-.1-.03-.1-.066l.133-1.227c0-.036.054-.066.112-.066h.3c.057,0,.1.03.1.066l-.136,1.227A.142.142,0,0,1,243.861,212.169Z" transform="translate(-229.117 -180.877)" fill="#fff" opacity="0.4"/>
      <path id="Path_73545" data-name="Path 73545" d="M272.047,212.169h-.271c-.057,0-.1-.03-.1-.066l.136-1.227c0-.036.054-.066.112-.066h.283c.057,0,.1.03.1.066l-.133,1.227A.144.144,0,0,1,272.047,212.169Z" transform="translate(-248.82 -180.877)" fill="#4866fc"/>
      <path id="Path_73546" data-name="Path 73546" d="M272.047,212.169h-.271c-.057,0-.1-.03-.1-.066l.136-1.227c0-.036.054-.066.112-.066h.283c.057,0,.1.03.1.066l-.133,1.227A.144.144,0,0,1,272.047,212.169Z" transform="translate(-248.82 -180.877)" fill="#fff" opacity="0.4"/>
      <path id="Path_73547" data-name="Path 73547" d="M257.992,212.169h-.286c-.057,0-.1-.03-.1-.066l.136-1.227c0-.036.054-.066.112-.066h.286c.054,0,.1.03.1.066L258.1,212.1C258.1,212.139,258.05,212.169,257.992,212.169Z" transform="translate(-238.99 -180.877)" fill="#4866fc"/>
      <path id="Path_73548" data-name="Path 73548" d="M257.992,212.169h-.286c-.057,0-.1-.03-.1-.066l.136-1.227c0-.036.054-.066.112-.066h.286c.054,0,.1.03.1.066L258.1,212.1C258.1,212.139,258.05,212.169,257.992,212.169Z" transform="translate(-238.99 -180.877)" fill="#fff" opacity="0.4"/>
      <rect id="Rectangle_4866" data-name="Rectangle 4866" width="8.541" height="17.23" rx="4.27" transform="matrix(0.814, -0.581, 0.581, 0.814, 19.084, 24.743)" fill="#263238"/>
      <path id="Path_73549" data-name="Path 73549" d="M293.585,133.458l-4.569,3.261.175-.127c-.395-.75-.85-.9-1.166-1.7a22.212,22.212,0,0,0-1.543-3.948c-.669-1.206-4.421-3.882-4.421-3.882s-.8.564-.943.675c-.859.705-.377,1.808.6,3.047,1.115,1.447.838,5.361.446,7.718s-.567,5.3-.567,5.313h0l7.61,10.461h0l2.29-.392a12.6,12.6,0,0,0,4.313-1.751l7.366-5.259Z" transform="translate(-255.102 -122.367)" fill="#263238"/>
      <path id="Path_73550" data-name="Path 73550" d="M299.594,131.168a1.046,1.046,0,0,0-1.462-.241l-5.856,4.18h0a16.775,16.775,0,0,1-.991-1.829,22.163,22.163,0,0,0-1.54-3.948c-.9-1.6-3.514-4.05-5.03-3.387s-.868,1.781.247,3.228.838,5.361.446,7.718-.567,5.3-.567,5.313h0l7.613,10.461h0l2.287-.392a12.633,12.633,0,0,0,4.316-1.751l8.122-5.8a1.043,1.043,0,0,0,.244-1.459l-.437-.6a1.049,1.049,0,0,0-1.242-.365l-.44.072a.223.223,0,0,1-.238-.359l.53-.624a1.273,1.273,0,0,0,.25-1.438l-.85-1.205a1.049,1.049,0,0,0-1.227-.368l-.9.3a.226.226,0,0,1-.256-.344l.75-1.043a1.049,1.049,0,0,0,0-1.205l-.922-1.29a1.049,1.049,0,0,0-1.19-.383l-1.139.389a.226.226,0,0,1-.253-.347l.582-.775a1.04,1.04,0,0,0,.036-1.263Z" transform="translate(-257.305 -121.508)" fill="#4866fc"/>
      <rect id="Rectangle_4867" data-name="Rectangle 4867" width="8.541" height="17.23" rx="4.27" transform="matrix(0.814, -0.581, 0.581, 0.814, 19.962, 24.111)" fill="#4866fc"/>
      <rect id="Rectangle_4868" data-name="Rectangle 4868" width="8.541" height="17.23" rx="4.27" transform="matrix(0.814, -0.581, 0.581, 0.814, 19.962, 24.111)" opacity="0.6"/>
      <rect id="Rectangle_4869" data-name="Rectangle 4869" width="1.712" height="0.301" transform="translate(44.216 27.806) rotate(-36.8)" fill="#4866fc"/>
      <rect id="Rectangle_4870" data-name="Rectangle 4870" width="4.096" height="0.301" transform="matrix(0.801, -0.599, 0.599, 0.801, 46.895, 25.817)" fill="#4866fc"/>
      <path id="Path_73551" data-name="Path 73551" d="M300.455,228.27l-1.935,1.278.335,1.205,2.179-1.492Z" transform="translate(-267.571 -193.075)" fill="#ffb573"/>
      <path id="Path_73552" data-name="Path 73552" d="M254.42,194.328l1.54-2.348.753,2.532s-1.169,1.205-2.206.886Z" transform="translate(-236.762 -167.722)" fill="#ffb573"/>
      <path id="Path_73553" data-name="Path 73553" d="M230.417,171.828c-.157,1.564-.347,3.128-.549,4.689s-.413,3.122-.639,4.68l-.042.3-.015.1a.081.081,0,0,0,0,.03c0,.015,0,0-.021-.033a.377.377,0,0,0-.087-.136.247.247,0,0,0-.111-.081h0a.836.836,0,0,0,.28.048,4.791,4.791,0,0,0,.946-.078c.344-.057.7-.142,1.061-.235.72-.181,1.45-.413,2.176-.669s1.459-.524,2.173-.8l.6,1.166a26.222,26.222,0,0,1-4.334,2.224c-.389.148-.787.283-1.206.4a6.444,6.444,0,0,1-1.386.238,3.314,3.314,0,0,1-.9-.072,2.25,2.25,0,0,1-.549-.2,1.884,1.884,0,0,1-.928-1.109,2.176,2.176,0,0,1-.105-.6,1.918,1.918,0,0,1,0-.265l.015-.2.024-.3q.19-2.354.431-4.7c.157-1.567.322-3.131.524-4.692Z" transform="translate(-217.448 -153.435)" fill="#ffb573"/>
      <path id="Path_73554" data-name="Path 73554" d="M228.8,161c-1.058.322-2.327,3.96-2.327,3.96l4.1,2.932s1.507-3.038,1.052-4.4C231.15,162.068,230,160.637,228.8,161Z" transform="translate(-217.235 -146.04)" fill="#263238"/>
      <path id="Path_73555" data-name="Path 73555" d="M229.941,176.806l-4.421-3.2.093-.425,4.713,3.195Z" transform="translate(-216.571 -154.587)" fill="#4866fc"/>
      <path id="Path_73556" data-name="Path 73556" d="M261.6,189.66l.518,2.155-1.832,1.076-.753-2.529Z" transform="translate(-240.332 -166.101)" fill="#ffb573"/>
    </g>
  </g>
</svg>
