<svg xmlns="http://www.w3.org/2000/svg" width="374.307" height="380.426" viewBox="0 0 374.307 380.426">
  <g id="Email_campaign-amico" data-name="Email campaign-amico" transform="translate(-29.443 -29.122)">
    <g id="freepik--Floor--inject-75" transform="translate(30.066 180.867)">
      <ellipse id="freepik--floor--inject-75-2" data-name="freepik--floor--inject-75" cx="186.842" cy="114.34" rx="186.842" ry="114.34" fill="#f5f5f5"/>
    </g>
    <g id="freepik--Shadows--inject-75" transform="translate(34.972 175.812)">
      <path id="freepik--Shadow--inject-75" d="M359.867,393.262a5.583,5.583,0,0,1-2.788-.659L324.046,373.49a3.422,3.422,0,0,1,0-6.118l54.733-31.581a5.909,5.909,0,0,1,5.583,0L417.4,354.862a3.422,3.422,0,0,1,0,6.118L362.663,392.6A5.617,5.617,0,0,1,359.867,393.262Z" transform="translate(-83.387 -226.419)" fill="#e0e0e0"/>
      <path id="freepik--shadow--inject-75-2" data-name="freepik--shadow--inject-75" d="M275.728,443.866a53.415,53.415,0,0,1-12.377-1.41,45.58,45.58,0,0,1-10.925-4.031l-.075-.042c-.668-.376-1.519-.885-2.621-1.569s-2.087-1.327-3.171-2.036-2.12-1.4-3.071-2.061-1.761-1.227-2.329-1.669a22.243,22.243,0,0,1-6.36-7.511,14.881,14.881,0,0,1-1.335-9.648,19.9,19.9,0,0,1,5.008-9.348,38.924,38.924,0,0,1,11.017-8.087,72.613,72.613,0,0,1,15.432-6.2,57.178,57.178,0,0,1,14.013-2.011h.417a45.675,45.675,0,0,1,12.152,1.577,52.58,52.58,0,0,1,10.741,4.29q1.961,1.093,4.231,2.579c1.536,1,2.821,1.9,3.923,2.754a12.777,12.777,0,0,1,4.3,5.008,9.506,9.506,0,0,1,.743,5.316h.6a6.927,6.927,0,0,1,4.173,1.327A5.008,5.008,0,0,1,322.307,416a29.2,29.2,0,0,1-1.018,4.265,17.293,17.293,0,0,1-3.038,5.458,33.116,33.116,0,0,1-5.533,5.333,66.651,66.651,0,0,1-23.06,11.075,59.557,59.557,0,0,1-13.629,1.728ZM272.8,415.581c.15.109.317.225.509.342a9.964,9.964,0,0,0,4.348,1.669c.267,0,.526.042.768.042a5.275,5.275,0,0,0,1.786-.292c-.134-.1-.284-.2-.451-.309a10.574,10.574,0,0,0-4.4-1.744,6.025,6.025,0,0,0-.768-.05A5.267,5.267,0,0,0,272.8,415.581Z" transform="translate(-68.67 -235.21)" fill="#e0e0e0"/>
      <path id="freepik--shadow--inject-75-3" data-name="freepik--shadow--inject-75" d="M145.2,398.324,37.764,336.43c-2.262-1.3-2.262-3.422,0-4.732L255.8,205.865a9.055,9.055,0,0,1,8.2,0l107.438,61.886c2.27,1.3,2.27,3.43,0,4.732L153.406,398.324a9.105,9.105,0,0,1-8.2,0Z" transform="translate(-36.067 -204.883)" fill="#e0e0e0"/>
    </g>
    <g id="freepik--Clouds--inject-75" transform="translate(62.858 29.122)">
      <g id="freepik--clouds--inject-75-2" data-name="freepik--clouds--inject-75">
        <path id="Path_73857" data-name="Path 73857" d="M151.842,58.762l-5.467,3.155a7.082,7.082,0,0,0,.05-.718V59.613c0-2.821-1.978-3.964-4.423-2.554a8.63,8.63,0,0,0-2.637,2.5c-.4-3.547-3.18-4.866-6.56-2.921a14.631,14.631,0,0,0-6.61,11.459v2.37a6.226,6.226,0,0,0,.559,2.746l-4.54,2.621a5.425,5.425,0,0,0-2.454,4.323c0,1.561,1.1,2.195,2.454,1.41l29.628-17.1a5.417,5.417,0,0,0,2.454-4.248C154.3,58.612,153.2,57.977,151.842,58.762Z" transform="translate(-77.796 -33.525)" fill="#ebebeb"/>
        <path id="Path_73858" data-name="Path 73858" d="M107.379,39.87l-3.013,1.16V34.353c0-5.275-4.173-6.535-8.763-3.9h0c-4.565,2.629-8.263,9.039-8.263,14.305v.951a4.44,4.44,0,0,0-3.831.593h0a13.153,13.153,0,0,0-5.942,10.3v.434l-4.173,2.429a8.671,8.671,0,0,0-3.914,6.785c0,2.5,1.753,3.505,3.914,2.253l34.018-19.638a8.655,8.655,0,0,0,3.914-6.785C111.293,39.595,109.541,38.585,107.379,39.87Z" transform="translate(-69.48 -29.122)" fill="#ebebeb"/>
      </g>
    </g>
    <g id="freepik--Plant--inject-75" transform="translate(29.443 230.073)">
      <g id="freepik--Plants--inject-75">
        <path id="Path_73859" data-name="Path 73859" d="M58.167,323.022l5.684-3.28s3.38-14.046,2.036-26.707c-1.895-17.769-13.6-24.454-18.044-22.926s-5.734,6.677,1.627,17.293C53.811,293.661,59.144,306.705,58.167,323.022Z" transform="translate(-31.889 -269.897)" fill="#0466c8"/>
        <g id="Group_14841" data-name="Group 14841" transform="translate(12.339)" opacity="0.15">
          <path id="Path_73860" data-name="Path 73860" d="M58.167,323.022l5.684-3.28s3.38-14.046,2.036-26.707c-1.895-17.769-13.6-24.454-18.044-22.926s-5.734,6.677,1.627,17.293C53.811,293.661,59.144,306.705,58.167,323.022Z" transform="translate(-44.228 -269.897)"/>
        </g>
        <path id="Path_73861" data-name="Path 73861" d="M61.732,316.637h-.05a.392.392,0,0,1-.317-.459c3.08-16.4-2.612-34.828-9.7-42.481a.392.392,0,0,1,0-.559.4.4,0,0,1,.559,0c7.211,7.829,13.053,26.574,9.915,43.182A.376.376,0,0,1,61.732,316.637Z" transform="translate(-33.1 -270.415)" fill="#fff"/>
        <path id="Path_73862" data-name="Path 73862" d="M40.032,337.439c-.9.459-3.288-1.586-3.948-2.078a8.279,8.279,0,0,1-2.612-3.338,7.862,7.862,0,0,1-.459-4.715,19.338,19.338,0,0,1,.718-2.462c.275-.793.551-1.586.835-2.387a6.084,6.084,0,0,0,.484-2.42c-.134-1.669-1.544-2.9-2.829-3.964-1.419-1.177-2.879-2.712-2.771-4.7a7.036,7.036,0,0,1,1.961-4.081c1.018-1.16,2.2-2.17,3.121-3.4a4.907,4.907,0,0,0,1.143-3.038A5.008,5.008,0,0,0,35.1,298.9a28.592,28.592,0,0,1-1.92-3.981,3.979,3.979,0,0,1,.835-4.09,4.6,4.6,0,0,1,3.472-.684,7.963,7.963,0,0,1,3.13,1.285c3.071,1.92,4.682,5.75,7.97,7.269a33.044,33.044,0,0,0,4.006,1.2,5.008,5.008,0,0,1,3.238,2.462c1.1,2.5-1.335,5.433-.6,8.087.651,2.354,2.854,3.338,4.006,5.492a4.857,4.857,0,0,1,.434,3.055A14.389,14.389,0,0,1,58.142,324a44.471,44.471,0,0,1-3.038,4.665S40.165,337.372,40.032,337.439Z" transform="translate(-29.443 -273.231)" fill="#0466c8"/>
        <path id="Path_73863" data-name="Path 73863" d="M50.443,333.553h0a.392.392,0,0,1-.359-.426c1.436-15.59-5.058-33.217-10.157-38.492a.4.4,0,0,1,0-.559.392.392,0,0,1,.559,0c5.2,5.4,11.826,23.285,10.332,39.143a.384.384,0,0,1-.376.334Z" transform="translate(-31.158 -273.877)" fill="#fff"/>
        <path id="Path_73864" data-name="Path 73864" d="M48.368,317.738a.292.292,0,0,1-.117,0,52.582,52.582,0,0,0-11.242-2.4.409.409,0,0,1-.359-.434.384.384,0,0,1,.426-.359,54.325,54.325,0,0,1,11.451,2.445.4.4,0,0,1-.159.768Z" transform="translate(-30.635 -277.283)" fill="#fff"/>
      </g>
    </g>
    <g id="freepik--Device--inject-75" transform="translate(38.037 168.054)">
      <g id="freepik--device--inject-75-2" data-name="freepik--device--inject-75">
        <g id="freepik--Mobile--inject-75">
          <path id="Path_73865" data-name="Path 73865" d="M45.482,330.945l99.885,57.663a10.766,10.766,0,0,0,10.424.192l201.1-116.085c3.171-1.828,5.734-5.926,5.742-9.181s-2.571-7.311-5.742-9.139L257.37,196.958a12.678,12.678,0,0,0-11.467,0L45.482,312.667c-3.171,1.836-5.742,5.926-5.742,9.139S42.311,329.117,45.482,330.945Z" transform="translate(-39.74 -195.588)" fill="#37474f"/>
          <path id="Path_73866" data-name="Path 73866" d="M145.367,399.758,45.482,342.1c-3.171-1.828-5.742-5.917-5.742-9.139s2.571-7.3,5.742-9.139L150.8,263V401.185a10.591,10.591,0,0,1-5.433-1.427Z" transform="translate(-39.74 -206.738)" fill="#263238"/>
          <path id="Path_73867" data-name="Path 73867" d="M148.416,378.334a11.242,11.242,0,0,0,10.115,0L357.584,263.409c4.281-2.5,4.281-6.518,0-8.989l-99.534-57.462a12.678,12.678,0,0,0-11.467,0L46.161,312.667c-3.155,1.828-3.155,4.807,0,6.627Z" transform="translate(-40.411 -195.588)" fill="#455a64"/>
          <path id="Path_73868" data-name="Path 73868" d="M161.728,368.865a12.01,12.01,0,0,0,10.9,0L343.9,269.974c3.013-1.736,3.013-4.557,0-6.293L250.28,209.632a12.06,12.06,0,0,0-10.9,0L68.095,308.516c-3,1.736-3,4.565,0,6.3Z" transform="translate(-44.058 -197.695)" fill="#37474f"/>
          <path id="Path_73869" data-name="Path 73869" d="M280.69,208.35a11.033,11.033,0,0,1,5.124,1.285l93.617,54.049c3.013,1.736,3.013,4.557,0,6.293l-18.545,10.691-80.2-51.211Z" transform="translate(-79.593 -197.699)" fill="#263238"/>
          <path id="Path_73870" data-name="Path 73870" d="M239.477,214.532a12.06,12.06,0,0,1,10.9,0l93.634,54.049a5.675,5.675,0,0,1,1.427,1.143,5.5,5.5,0,0,1-1.36,1.06L172.793,369.676a12.01,12.01,0,0,1-10.9,0L68.259,315.627a5.575,5.575,0,0,1-1.419-1.135,5.467,5.467,0,0,1,1.352-1.068Z" transform="translate(-44.222 -198.506)" fill="#fafafa"/>
          <path id="Path_73871" data-name="Path 73871" d="M354.557,241.987l-16.592-9.581c-.993-.576-1.043-1.469-.117-2a3.847,3.847,0,0,1,3.48.058l16.567,9.556c.993.576,1.043,1.469.109,2.011a3.856,3.856,0,0,1-3.447-.042Z" transform="translate(-88.937 -201.282)" fill="#263238"/>
          <path id="Path_73872" data-name="Path 73872" d="M323.732,224.216a1.027,1.027,0,0,1,0-1.945,3.731,3.731,0,0,1,3.338,0,1.027,1.027,0,0,1,0,1.945A3.731,3.731,0,0,1,323.732,224.216Z" transform="translate(-86.597 -199.936)" fill="#263238"/>
          <path id="Path_73873" data-name="Path 73873" d="M315.672,219.536a1.027,1.027,0,0,1,0-1.945,3.731,3.731,0,0,1,3.338,0,1.027,1.027,0,0,1,0,1.945A3.731,3.731,0,0,1,315.672,219.536Z" transform="translate(-85.264 -199.162)" fill="#263238"/>
          <path id="Path_73874" data-name="Path 73874" d="M380.152,256.786a1.027,1.027,0,0,1,0-1.945,3.731,3.731,0,0,1,3.338,0,1.027,1.027,0,0,1,0,1.945,3.731,3.731,0,0,1-3.338,0Z" transform="translate(-95.929 -205.323)" fill="#263238"/>
          <path id="Path_73875" data-name="Path 73875" d="M372.092,252.126a1.027,1.027,0,0,1,0-1.945,3.731,3.731,0,0,1,3.338,0,1.027,1.027,0,0,1,0,1.945,3.731,3.731,0,0,1-3.338,0Z" transform="translate(-94.596 -204.552)" fill="#263238"/>
        </g>
        <g id="freepik--mail-notification--inject-75" transform="translate(113.489 119.803)">
          <path id="Path_73876" data-name="Path 73876" d="M175.72,363.544v.342a2,2,0,0,0,.9,1.577l19.488,11.25a2.053,2.053,0,0,0,1.819,0L230.2,358.1a2.02,2.02,0,0,0,.9-1.577v-.359a2,2,0,0,0-.9-1.577l-19.488-11.25a2.053,2.053,0,0,0-1.819,0l-32.274,18.628A2,2,0,0,0,175.72,363.544Z" transform="translate(-175.72 -339.793)" fill="#0466c8"/>
          <path id="Path_73877" data-name="Path 73877" d="M175.72,363.544v.342a2,2,0,0,0,.9,1.577l19.488,11.25a2.053,2.053,0,0,0,1.819,0L230.2,358.1a2.02,2.02,0,0,0,.9-1.577v-.359a2,2,0,0,0-.9-1.577l-19.488-11.25a2.053,2.053,0,0,0-1.819,0l-32.274,18.628A2,2,0,0,0,175.72,363.544Z" transform="translate(-175.72 -339.793)" fill="#0466c8"/>
          <path id="Path_73878" data-name="Path 73878" d="M234.425,354.588l-19.488-11.25a2.053,2.053,0,0,0-1.819,0L201.25,350.2v26.707h0a1.9,1.9,0,0,0,.91-.217L234.425,358.1a2.02,2.02,0,0,0,.9-1.577v-.359a2,2,0,0,0-.9-1.577Z" transform="translate(-179.943 -339.793)" fill="#fff" opacity="0.3"/>
          <path id="Path_73879" data-name="Path 73879" d="M234.425,354.588l-19.488-11.25a2.053,2.053,0,0,0-1.819,0L201.25,350.2v26.707h0a1.9,1.9,0,0,0,.91-.217L234.425,358.1a2.02,2.02,0,0,0,.9-1.577v-.359a2,2,0,0,0-.9-1.577Z" transform="translate(-179.943 -339.793)" opacity="0.15"/>
          <path id="Path_73880" data-name="Path 73880" d="M197.019,351.6l-20.4,11.768a2,2,0,0,0-.9,1.577v.342a2,2,0,0,0,.9,1.577l19.488,11.25a1.878,1.878,0,0,0,.91.217h0Z" transform="translate(-175.72 -341.195)" fill="#fff" opacity="0.3"/>
          <path id="Path_73881" data-name="Path 73881" d="M197.019,351.6l-20.4,11.768a2,2,0,0,0-.9,1.577v.342a2,2,0,0,0,.9,1.577l19.488,11.25a1.878,1.878,0,0,0,.91.217h0Z" transform="translate(-175.72 -341.195)" opacity="0.2"/>
          <path id="Path_73882" data-name="Path 73882" d="M193.093,372.472l-16.367-9.414a.559.559,0,0,1,0-1.052l32.266-18.628a2.053,2.053,0,0,1,1.819,0l19.5,11.217a.559.559,0,0,1,0,1.052l-5.358,3.088-1.87,1.085-25.038,14.455a2,2,0,0,1-1.819,0l-1.586-.918Z" transform="translate(-175.826 -339.8)" fill="#0466c8"/>
          <path id="Path_73883" data-name="Path 73883" d="M193.093,372.472l-16.367-9.414a.559.559,0,0,1,0-1.052l32.266-18.628a2.053,2.053,0,0,1,1.819,0l19.5,11.217a.559.559,0,0,1,0,1.052l-5.358,3.088-1.87,1.085-25.038,14.455a2,2,0,0,1-1.819,0l-1.586-.918Z" transform="translate(-175.826 -339.8)" fill="#fff" opacity="0.3"/>
          <path id="Path_73884" data-name="Path 73884" d="M207.951,356.764l22.359-2.178-22.15,1.252,2.662-12.519a2.02,2.02,0,0,0-.993-.209l-4.173,16.9-29.286,2.42a.626.626,0,0,0,.367.568l23.653-1.369-3.255,12.836,4.173-12.895h0l4.039-.234a2.145,2.145,0,0,0,1.327-.559h0a2.212,2.212,0,0,0,.676-1.168Z" transform="translate(-175.827 -339.79)" opacity="0.15"/>
          <path id="Path_73885" data-name="Path 73885" d="M183.346,361.875l22.3-1.844.835-3.188.442-1.778,2.946-11.935a1.927,1.927,0,0,0-.835.209L192.9,352.653l-16.175,9.314a.668.668,0,0,0-.367.484l4.473-.367Z" transform="translate(-175.826 -339.794)" fill="#fff" opacity="0.3"/>
          <path id="Path_73886" data-name="Path 73886" d="M211.827,340.015a8.154,8.154,0,0,1,7.378,0c2.036,1.177,2.036,3.08,0,4.256a8.154,8.154,0,0,1-7.378,0C209.791,343.095,209.791,341.192,211.827,340.015Z" transform="translate(-181.44 -339.133)" fill="#f28f8f"/>
          <path id="Path_73887" data-name="Path 73887" d="M213.422,343.142a.35.35,0,0,1-.15-.05.117.117,0,0,1-.042-.108l.309-1.335v-.125a.209.209,0,0,1,.109-.117l.751-.434a.318.318,0,0,1,.159-.042.326.326,0,0,1,.167.042l3.956,2.279a.1.1,0,0,1,0,.192l-.835.467a.351.351,0,0,1-.167,0,.334.334,0,0,1-.167,0l-2.671-1.544-.175.734c0,.042-.042.067-.092.092a.3.3,0,0,1-.175,0Z" transform="translate(-181.924 -339.43)" fill="#fafafa"/>
        </g>
        <g id="freepik--Notification--inject-75" transform="translate(159.033 69.52)">
          <path id="Path_73888" data-name="Path 73888" d="M252.582,338.7l-21.917-12.653c-.5-.292-.5-.759,0-1.043l79.554-45.9a2.011,2.011,0,0,1,1.8,0l21.925,12.661c.5.284.5.751,0,1.043l-79.554,45.9a1.978,1.978,0,0,1-1.811-.008Z" transform="translate(-230.29 -278.884)" fill="#0466c8"/>
          <path id="Path_73889" data-name="Path 73889" d="M250.523,332.834a.435.435,0,0,1-.225.058h-.175l-4.557-.517,2.7,1.561a.109.109,0,0,1,0,.2l-.534.309a.292.292,0,0,1-.175,0,.3.3,0,0,1-.175,0l-4.231-2.437c-.05,0-.075-.067-.075-.109a.125.125,0,0,1,.075-.1l.459-.267a.45.45,0,0,1,.225-.058h.184l4.557.517-2.7-1.561a.109.109,0,0,1,0-.2l.534-.309a.383.383,0,0,1,.175-.042.342.342,0,0,1,.175.042l4.231,2.445a.1.1,0,1,1,0,.2Z" transform="translate(-232.404 -287.319)" fill="#fafafa"/>
          <path id="Path_73890" data-name="Path 73890" d="M251.487,330.787a2.211,2.211,0,0,1-.576-.459.952.952,0,0,1-.242-.509.835.835,0,0,1,.134-.517,1.386,1.386,0,0,1,.526-.459,2.854,2.854,0,0,1,.793-.309,3.9,3.9,0,0,1,.876-.083,4.177,4.177,0,0,1,.835.117,3.021,3.021,0,0,1,.751.309l.292.167a.108.108,0,0,1,0,.2l-2.187,1.269a1.051,1.051,0,0,0,.334.117,1.664,1.664,0,0,0,.359,0,2.735,2.735,0,0,0,.359-.075,1.584,1.584,0,0,0,.317-.142,1.269,1.269,0,0,0,.3-.217.417.417,0,0,0,.109-.192.266.266,0,0,1,.05-.108.366.366,0,0,1,.1-.083l.526-.3a.383.383,0,0,1,.175-.042.275.275,0,0,1,.175.042.309.309,0,0,1,.134.192.543.543,0,0,1,0,.326,1.043,1.043,0,0,1-.234.409,2.053,2.053,0,0,1-.542.434,3.265,3.265,0,0,1-.793.309,3.808,3.808,0,0,1-.876.083,3.925,3.925,0,0,1-.835-.142A3.846,3.846,0,0,1,251.487,330.787Zm.626-1.494a.952.952,0,0,0-.267.217.417.417,0,0,0-.083.217.326.326,0,0,0,.058.192.434.434,0,0,0,.142.159l1.477-.835a1.74,1.74,0,0,0-.25-.092,1.261,1.261,0,0,0-.317-.05,1.82,1.82,0,0,0-.359.042,1.952,1.952,0,0,0-.4.15Z" transform="translate(-233.66 -287.082)" fill="#fafafa"/>
          <path id="Path_73891" data-name="Path 73891" d="M259.52,326.143l-1.277-1.427a.2.2,0,0,1-.05-.092.117.117,0,0,1,.075-.1l.492-.292a.4.4,0,0,1,.184-.042.384.384,0,0,1,.175.042h0l2.036,2.312a.283.283,0,0,1,.05.1.134.134,0,0,1-.075.109l-.5.284a.3.3,0,0,1-.184.042h-.175l-2.379-.643,1.11,1.377a.283.283,0,0,1,.05.1.117.117,0,0,1-.075.1l-.492.292a.309.309,0,0,1-.184.042.592.592,0,0,1-.175,0l-4.006-1.168h-.05a.1.1,0,0,1,0-.2l.492-.292a.309.309,0,0,1,.184-.042h.159l2.462.734-1.244-1.444a.117.117,0,0,1,0-.092.1.1,0,0,1,.067-.1l.5-.292a.368.368,0,0,1,.175,0,.5.5,0,0,1,.167,0Z" transform="translate(-234.207 -286.378)" fill="#fafafa"/>
          <path id="Path_73892" data-name="Path 73892" d="M264.007,323.535a2.227,2.227,0,0,1-.576-.467.926.926,0,0,1-.242-.509.718.718,0,0,1,.125-.509,1.544,1.544,0,0,1,.526-.467,3.012,3.012,0,0,1,.835-.309,4.38,4.38,0,0,1,.835-.083,3.757,3.757,0,0,1,.835.125,2.722,2.722,0,0,1,.751.3l.292.167q.075.05.075.1c0,.042,0,.075-.075.108l-2.187,1.26a.893.893,0,0,0,.326.117,1.728,1.728,0,0,0,.359,0,1.436,1.436,0,0,0,.367-.075,1.217,1.217,0,0,0,.317-.142,1.069,1.069,0,0,0,.3-.217.476.476,0,0,0,.109-.184.317.317,0,0,1,.042-.117.242.242,0,0,1,.108-.075l.526-.309a.392.392,0,0,1,.351,0,.4.4,0,0,1,.134.2.543.543,0,0,1,0,.326,1.4,1.4,0,0,1-.234.409,2.1,2.1,0,0,1-.551.426,2.855,2.855,0,0,1-.793.309,3.34,3.34,0,0,1-.835.083,3.554,3.554,0,0,1-.885-.142A3.386,3.386,0,0,1,264.007,323.535Zm.626-1.494a.734.734,0,0,0-.267.217.342.342,0,0,0-.083.217.317.317,0,0,0,.05.192.837.837,0,0,0,.142.15l1.486-.835a1.541,1.541,0,0,0-.259-.092,1.2,1.2,0,0,0-.309-.042,1.085,1.085,0,0,0-.359.042,1.167,1.167,0,0,0-.4.175Z" transform="translate(-235.73 -285.882)" fill="#fafafa"/>
          <path id="Path_73893" data-name="Path 73893" d="M268.042,319.317a.559.559,0,0,1,.092-.392.976.976,0,0,1,.359-.326,2.345,2.345,0,0,1,.835-.3,2.927,2.927,0,0,1,.835,0,.642.642,0,0,1,0-.25.742.742,0,0,1,.092-.259.944.944,0,0,1,.184-.234,1.606,1.606,0,0,1,.259-.192,2.388,2.388,0,0,1,.743-.284,2.736,2.736,0,0,1,.734-.042,2.91,2.91,0,0,1,.709.159,4.112,4.112,0,0,1,.643.3l1.769,1.018a.117.117,0,0,1,0,.209l-.5.284a.383.383,0,0,1-.175.042.4.4,0,0,1-.184-.042l-1.728-1a1.761,1.761,0,0,0-.793-.259,1.294,1.294,0,0,0-.651.175.459.459,0,0,0-.275.359c0,.134.117.292.392.459l1.761,1.018a.1.1,0,1,1,0,.2l-.5.292a.342.342,0,0,1-.175.042.384.384,0,0,1-.175-.042l-1.728-1a1.6,1.6,0,0,0-.793-.259,1.127,1.127,0,0,0-.651.175.459.459,0,0,0-.284.367c0,.142.134.3.434.467l1.728.993a.142.142,0,0,1,.067.108.125.125,0,0,1-.067.1l-.5.284a.392.392,0,0,1-.351,0l-3.055-1.761a.1.1,0,0,1,0-.2l.5-.292a.342.342,0,0,1,.175-.042.383.383,0,0,1,.175.042Z" transform="translate(-236.36 -285.194)" fill="#fafafa"/>
          <path id="Path_73894" data-name="Path 73894" d="M275.02,316.2a.717.717,0,0,1-.175-.242.534.534,0,0,1,0-.326.835.835,0,0,1,.192-.376,1.711,1.711,0,0,1,.5-.392,3.622,3.622,0,0,1,.693-.3,3.484,3.484,0,0,1,.718-.117,2.4,2.4,0,0,1,.726.083,2.789,2.789,0,0,1,.7.275l1.928,1.11a.142.142,0,0,1,.067.108.117.117,0,0,1-.067.1l-.5.284a.3.3,0,0,1-.175.042.275.275,0,0,1-.175-.042l-.217-.125a.559.559,0,0,1-.075.417,1.336,1.336,0,0,1-.526.459,2.505,2.505,0,0,1-.576.25,2.43,2.43,0,0,1-.584.092,3.03,3.03,0,0,1-.559-.05,1.837,1.837,0,0,1-.492-.192c-.3-.175-.426-.376-.384-.593a1.269,1.269,0,0,1,.509-.7l.885-.718a.835.835,0,0,0-.559-.117,1.484,1.484,0,0,0-.551.184.675.675,0,0,0-.209.175.468.468,0,0,0-.05.175.417.417,0,0,1,0,.109.258.258,0,0,1-.092.067l-.609.359a.284.284,0,0,1-.15,0,.167.167,0,0,1-.192,0Zm2.938.434a1.293,1.293,0,0,0,.334-.267.492.492,0,0,0,.125-.267.376.376,0,0,0-.058-.234.585.585,0,0,0-.209-.192l-.067-.042-.734.609a.651.651,0,0,0-.25.3.191.191,0,0,0,.117.209.509.509,0,0,0,.342,0,1.367,1.367,0,0,0,.4-.117Z" transform="translate(-237.655 -284.767)" fill="#fafafa"/>
          <path id="Path_73895" data-name="Path 73895" d="M277.764,311.992a.392.392,0,0,1,.351,0l.509.292a.125.125,0,0,1,.075.1c0,.042,0,.075-.075.109l-.559.326a.384.384,0,0,1-.175.042.4.4,0,0,1-.184-.042l-.509-.3a.109.109,0,0,1,0-.2Zm4.615,2.5c.05,0,.075.067.075.108s0,.067-.075.1l-.5.284a.359.359,0,0,1-.175.042.3.3,0,0,1-.175-.042l-3.055-1.761a.117.117,0,0,1-.067-.1.1.1,0,0,1,.067-.1l.5-.292a.384.384,0,0,1,.175-.042.342.342,0,0,1,.175.042Z" transform="translate(-238.037 -284.354)" fill="#fafafa"/>
          <path id="Path_73896" data-name="Path 73896" d="M284.486,313.311a.109.109,0,0,1,0,.2l-.492.292a.383.383,0,0,1-.175.042.4.4,0,0,1-.184-.042l-4.3-2.5a.142.142,0,0,1-.067-.109.125.125,0,0,1,.067-.1l.5-.284a.3.3,0,0,1,.175,0,.318.318,0,0,1,.184,0Z" transform="translate(-238.391 -284.162)" fill="#fafafa"/>
          <path id="Path_73897" data-name="Path 73897" d="M254.253,330.135l64.915-37.474a2.9,2.9,0,0,1,2.6-.159c.643.367.517,1.043-.275,1.5l-64.915,37.482a2.921,2.921,0,0,1-2.612.159C253.327,331.27,253.46,330.6,254.253,330.135Z" transform="translate(-234.139 -281.098)" fill="#fafafa"/>
          <path id="Path_73898" data-name="Path 73898" d="M259.714,333.295l64.915-37.474a2.9,2.9,0,0,1,2.6-.167c.651.376.517,1.043-.275,1.511l-64.915,37.474a2.921,2.921,0,0,1-2.612.167C258.8,334.43,258.921,333.754,259.714,333.295Z" transform="translate(-235.043 -281.62)" fill="#fafafa"/>
        </g>
      </g>
    </g>
    <g id="freepik--Character--inject-75" transform="translate(91.468 56.776)">
      <g id="freepik--character-envelope--inject-75">
        <path id="freepik--shadow--inject-75-4" data-name="freepik--shadow--inject-75" d="M137.661,348.685l-33.9-19.571L255.624,241.43l34.594,19.179Z" transform="translate(-103.76 -91.891)" fill="#e0e0e0"/>
        <g id="freepik--Back--inject-75" transform="translate(24.729 16.315)">
          <path id="Path_73899" data-name="Path 73899" d="M133.39,207.2,277.826,123.81l5.775,3.338a6.043,6.043,0,0,1,2.721,4.707V238.4a6.026,6.026,0,0,1-2.721,4.707L144.607,323.363a6.043,6.043,0,0,1-5.433,0l-3.063-1.769a6.043,6.043,0,0,1-2.721-4.707Z" transform="translate(-133.39 -88.752)" fill="#0466c8"/>
          <path id="Path_73900" data-name="Path 73900" d="M133.39,207.2,277.826,123.81l5.775,3.338a6.043,6.043,0,0,1,2.721,4.707V238.4a6.026,6.026,0,0,1-2.721,4.707L144.607,323.363a6.043,6.043,0,0,1-5.433,0l-3.063-1.769a6.043,6.043,0,0,1-2.721-4.707Z" transform="translate(-133.39 -88.752)" opacity="0.2"/>
          <path id="Path_73901" data-name="Path 73901" d="M277.025,107.5l.593-.317-2.245-1.31h0a4.33,4.33,0,0,0-.593-.292L211.216,82.037a4.39,4.39,0,0,0-4.882,1.552L135.226,187.43a12.319,12.319,0,0,0-1.836,5.926v6.9l2.2,1.277,142.233-84.67v-6.894A4.64,4.64,0,0,0,277.025,107.5Z" transform="translate(-133.39 -81.807)" fill="#0466c8"/>
          <path id="Path_73902" data-name="Path 73902" d="M209.373,84.3a3.864,3.864,0,0,0-.734.785L137.53,188.912a10.85,10.85,0,0,0-1.319,2.971L134,190.607a12.925,12.925,0,0,1,.576-1.569.352.352,0,0,1,0-.05c.1-.217.2-.417.309-.626a.56.56,0,0,1,.05-.1,6.2,6.2,0,0,1,.376-.626L206.435,83.845a3.616,3.616,0,0,1,.351-.434c.125-.117.25-.242.384-.351Z" transform="translate(-133.491 -82.012)" opacity="0.1"/>
          <path id="Path_73903" data-name="Path 73903" d="M292.194,107.164a3.406,3.406,0,0,0-.609-.292L228.013,83.311a4.365,4.365,0,0,0-4.173.776L221.67,82.8a4.407,4.407,0,0,1,4.173-.776l63.538,23.561a3.548,3.548,0,0,1,.593.292Z" transform="translate(-147.991 -81.804)" fill="#fff" opacity="0.35"/>
          <path id="Path_73904" data-name="Path 73904" d="M135.14,208.986a5.638,5.638,0,0,1,.376-.626,5.64,5.64,0,0,0-.376.626Z" transform="translate(-133.679 -102.737)" fill="#0466c8"/>
          <path id="Path_73905" data-name="Path 73905" d="M221.22,83.361a3.73,3.73,0,0,1,.376-.351A3.73,3.73,0,0,0,221.22,83.361Z" transform="translate(-147.917 -82.004)" fill="#0466c8"/>
          <path id="Path_73906" data-name="Path 73906" d="M134,211.607a13.629,13.629,0,0,1,.584-1.577,13.628,13.628,0,0,0-.584,1.577Z" transform="translate(-133.491 -103.013)" fill="#0466c8"/>
          <path id="Path_73907" data-name="Path 73907" d="M134.71,209.876c.092-.217.2-.426.3-.626C134.952,209.434,134.8,209.642,134.71,209.876Z" transform="translate(-133.608 -102.884)" fill="#0466c8"/>
          <path id="Path_73908" data-name="Path 73908" d="M134.69,209.989v0Z" transform="translate(-133.605 -102.997)" opacity="0.2"/>
          <path id="Path_73909" data-name="Path 73909" d="M133.99,211.92Z" transform="translate(-133.489 -103.325)" opacity="0.2"/>
          <path id="Path_73910" data-name="Path 73910" d="M221.67,83.01Z" transform="translate(-147.991 -82.004)" opacity="0.2"/>
          <path id="Path_73911" data-name="Path 73911" d="M135.07,209.21a.628.628,0,0,1,.058-.1.628.628,0,0,0-.058.1Z" transform="translate(-133.668 -102.861)" opacity="0.2"/>
          <path id="Path_73912" data-name="Path 73912" d="M220.79,83.856a2.856,2.856,0,0,1,.359-.426A2.856,2.856,0,0,0,220.79,83.856Z" transform="translate(-147.846 -82.073)" opacity="0.2"/>
          <path id="Path_73913" data-name="Path 73913" d="M208.969,85.129,137.861,188.961A12.377,12.377,0,0,0,136,194.9v6.894L280.436,118.4V111.5a5.008,5.008,0,0,0-3.046-4.373L213.852,83.576A4.365,4.365,0,0,0,208.969,85.129Z" transform="translate(-133.822 -82.061)" fill="#0466c8"/>
          <path id="Path_73914" data-name="Path 73914" d="M280.461,116.6a4.665,4.665,0,0,0-.776-2.429L136.542,197.029h0a10.733,10.733,0,0,0-.542,2.963v6.894l144.436-83.393Z" transform="translate(-133.822 -87.158)" opacity="0.05"/>
        </g>
        <g id="freepik--Paper--inject-75" transform="translate(37.574 12.314)">
          <path id="Path_73915" data-name="Path 73915" d="M276.407,81.175a1.669,1.669,0,0,0-.676-1.511l-4.415-2.5a1.669,1.669,0,0,0-1.669.167L151.134,145.764a5.191,5.191,0,0,0-2.345,4.064V291.711a1.669,1.669,0,0,0,.684,1.519l4.4,2.5a1.669,1.669,0,0,0,1.669-.159l118.513-68.4a5.2,5.2,0,0,0,2.354-4.123Z" transform="translate(-148.78 -77.011)" fill="#0466c8"/>
          <path id="Path_73916" data-name="Path 73916" d="M276.407,81.175a1.669,1.669,0,0,0-.676-1.511l-4.415-2.5a1.669,1.669,0,0,0-1.669.167L151.134,145.764a5.191,5.191,0,0,0-2.345,4.064V291.711a1.669,1.669,0,0,0,.684,1.519l4.4,2.5a1.669,1.669,0,0,0,1.669-.159l118.513-68.4a5.2,5.2,0,0,0,2.354-4.123Z" transform="translate(-148.78 -77.011)" fill="#fff" opacity="0.95"/>
          <path id="Path_73917" data-name="Path 73917" d="M156.475,296.019l118.513-68.4a5.2,5.2,0,0,0,2.3-4.073V81.669c0-1.494-1.052-2.095-2.345-1.352L156.475,148.754a5.2,5.2,0,0,0-2.345,4.064V294.7C154.13,296.161,155.182,296.762,156.475,296.019Z" transform="translate(-149.665 -77.505)" fill="#0466c8"/>
          <path id="Path_73918" data-name="Path 73918" d="M156.475,296.019l118.513-68.4a5.2,5.2,0,0,0,2.3-4.073V81.669c0-1.494-1.052-2.095-2.345-1.352L156.475,148.754a5.2,5.2,0,0,0-2.345,4.064V294.7C154.13,296.161,155.182,296.762,156.475,296.019Z" transform="translate(-149.665 -77.505)" fill="#fff" opacity="0.8"/>
          <path id="Path_73919" data-name="Path 73919" d="M153.256,308.124a1.761,1.761,0,0,0,.551,1.436c-.793-.451-3.864-2.237-4.256-2.454a1.619,1.619,0,0,1-.693-1.511V163.714a4.69,4.69,0,0,1,.693-2.3l4.4,2.5a4.774,4.774,0,0,0-.693,2.32Z" transform="translate(-148.791 -90.97)" fill="#0466c8"/>
          <path id="Path_73920" data-name="Path 73920" d="M153.256,308.124a1.761,1.761,0,0,0,.551,1.436c-.793-.451-3.864-2.237-4.256-2.454a1.619,1.619,0,0,1-.693-1.511V163.714a4.69,4.69,0,0,1,.693-2.3l4.4,2.5a4.774,4.774,0,0,0-.693,2.32Z" transform="translate(-148.791 -90.97)" fill="#fff" opacity="0.7"/>
          <path id="Path_73921" data-name="Path 73921" d="M153.256,308.124a1.761,1.761,0,0,0,.551,1.436c-.793-.451-3.864-2.237-4.256-2.454a1.619,1.619,0,0,1-.693-1.511V163.714a4.69,4.69,0,0,1,.693-2.3l4.4,2.5a4.774,4.774,0,0,0-.693,2.32Z" transform="translate(-148.791 -90.97)" opacity="0.05"/>
        </g>
        <g id="freepik--character--inject-75-2" data-name="freepik--character--inject-75" transform="translate(84.779)">
          <path id="Path_73922" data-name="Path 73922" d="M205.9,208.234c-.517,13.2.367,41.488.367,41.488s14,4.223,23.5,2.654,29.854-15.991,29.854-15.991l-3.388-30.6Z" transform="translate(-205.405 -85.995)" fill="#37474f"/>
          <path id="Path_73923" data-name="Path 73923" d="M244.357,251.062l2.27-21.574c8.922-5.316,11.818-12.678,11.818-12.678-8.112,10.624-16.575,8.905-16.575,8.905v26.474C242.68,251.855,243.514,251.471,244.357,251.062Z" transform="translate(-211.382 -87.819)" fill="#263238"/>
          <path id="Path_73924" data-name="Path 73924" d="M261.751,155.144c2.27-11.492,3.3-26.757-6.677-29.562-2.6-.726-9.231-.217-9.231-.217l-10.775.534c-6,.759-14.414,1.953-16.617,2.5-5.792,1.427-7.511,10.85-10.107,31.832-1.619,13.12-3,23.369-3,36.138,10.583,9.489,43.675,5.75,51.2-.426C256.8,181.467,257.636,176.1,261.751,155.144Z" transform="translate(-205.34 -72.666)" fill="#455a64"/>
          <path id="Path_73925" data-name="Path 73925" d="M237.766,121.047c-.1,2.095,2.312,5.634,6.009,8.121s6.877,3.5,7.278,4.532c-1.753.325-3.338,1.193-4.64,4.173-1.244,2.871-1.235,2.963-5.5,0s-8.079-9.773-8.062-12.043,3.338-6.677,5.008-6.285Z" transform="translate(-209.89 -71.728)" fill="#37474f"/>
          <path id="Path_73926" data-name="Path 73926" d="M254.66,134.2a14.675,14.675,0,0,0,2.587-6.276l.542-5.383a2.871,2.871,0,0,1,1.477.96c.459.7,2.729,5.392,2.654,8s-.684,6.159-1.569,7.653-1.477-1.135-2.061-2.162C257.539,135.677,256.513,134.233,254.66,134.2Z" transform="translate(-213.497 -72.227)" fill="#37474f"/>
          <path id="Path_73927" data-name="Path 73927" d="M252.289,140.11s.209,9.456-.668,14.489a15.307,15.307,0,0,0,5.634-.15s-1.444,1.778-6.735.96A152.642,152.642,0,0,0,252.289,140.11Z" transform="translate(-212.813 -75.133)" fill="#37474f"/>
          <path id="Path_73928" data-name="Path 73928" d="M271.129,84.884a15.023,15.023,0,0,0-29.954-1.135L234.356,78.9a5.325,5.325,0,0,0-4.39,1.611c-1.869,1.97-.718,8.021,1.728,13.929,0,0,2.462,10.775,3.414,12.519a4.9,4.9,0,0,0,2.863,2.237l-.234-6.56L265,100.674l-2.7-1.92A15.023,15.023,0,0,0,271.129,84.884Z" transform="translate(-209.26 -63.59)" fill="#263238"/>
          <path id="Path_73929" data-name="Path 73929" d="M236.993,95.18c-.835.526-1.669-1.294-3.213-2.228-1.335-.835-4.332-2.195-6.3,1.118-2.128,3.564,1.736,8.488,4.44,9.506,4.006,1.5,5.433-1.669,5.433-1.669l-.835,16.692c5.483,9.965,21.633,9.364,16.133,1.018l.659-6.435a30.331,30.331,0,0,0,6.41.234c3.48-.593,5.642-3.338,6.677-7.178,1.611-6.1,2.187-11.017.568-22.935-1.778-13.07-17.009-12.978-25.155-7.687S236.993,95.18,236.993,95.18Z" transform="translate(-208.9 -63.912)" fill="#ffa8a7"/>
          <path id="Path_73930" data-name="Path 73930" d="M270.625,69.437a5.625,5.625,0,0,0-3.681-.426,4.457,4.457,0,0,0-2.671-4.482,5.158,5.158,0,0,0-5.642.759c.367-1.327-.835-2.679-2.187-2.98a7.194,7.194,0,0,0-4.014.668c-1.911.726-3.8,1.544-5.742,2.195-3.43,1.143-7.077,1.794-10.174,3.656a6.143,6.143,0,0,0-1.936,1.669,5.333,5.333,0,0,0-.835,3.4,6.8,6.8,0,0,0,.167,1.168,3.071,3.071,0,0,0-.835-.634A2.888,2.888,0,0,0,229.12,75.8l5.158,2.671c-.125,1.043-.259,2.087-.359,3.13-.284,2.746-.835,5.959-.192,8.7a2,2,0,0,0,.334.918,16.309,16.309,0,0,1,2.687,2.612c.4.484.885,1.269,1.527,1.461a1.552,1.552,0,0,0,1.786-.835,2.846,2.846,0,0,0,.058-1.219l-.5-5.091A2.913,2.913,0,0,1,239.7,86.8a3.847,3.847,0,0,1,1.244-1.327,5.842,5.842,0,0,0,2.028-4.073,6.066,6.066,0,0,1,.134-1.461c.109-.359.392-.918.835-.918.793,0,5.116.935,6.2,1.085,5.659.776,11.734.926,16.692-1.853,1.945-1.077,5.216-3.338,5.558-5.725a3.2,3.2,0,0,0-1.769-3.1Z" transform="translate(-209.273 -62.256)" fill="#263238"/>
          <path id="Path_73931" data-name="Path 73931" d="M255.7,119.983s-7.82-1.461-10.566-2.871a8.93,8.93,0,0,1-3.822-3.672,12.193,12.193,0,0,0,2.2,4.365c2.028,2.5,11.977,4.248,11.977,4.248Z" transform="translate(-211.289 -70.722)" fill="#f28f8f"/>
          <path id="Path_73932" data-name="Path 73932" d="M257.568,97.7a1.469,1.469,0,1,1-1.485-1.5,1.486,1.486,0,0,1,1.485,1.5Z" transform="translate(-213.493 -67.87)" fill="#263238"/>
          <path id="Path_73933" data-name="Path 73933" d="M254.023,91.266l-3.439,1.669a2.011,2.011,0,0,1,.918-2.621,1.87,1.87,0,0,1,2.52.951Z" transform="translate(-212.794 -66.867)" fill="#263238"/>
          <path id="Path_73934" data-name="Path 73934" d="M254.753,109l6.2,2.22a3.247,3.247,0,0,1-4.173,2.112A3.447,3.447,0,0,1,254.753,109Z" transform="translate(-213.482 -69.987)" fill="#b16668"/>
          <path id="Path_73935" data-name="Path 73935" d="M258.683,113.727a3.238,3.238,0,0,0-3.622-2.763,3.11,3.11,0,0,0-.4.092,3.389,3.389,0,0,0,2.145,2.6,3.147,3.147,0,0,0,1.878.075Z" transform="translate(-213.497 -70.308)" fill="#f28f8f"/>
          <path id="Path_73936" data-name="Path 73936" d="M273.578,92.307l-3.338-1.728a1.811,1.811,0,0,1,2.5-.785,1.9,1.9,0,0,1,.835,2.512Z" transform="translate(-216.074 -66.773)" fill="#263238"/>
          <path id="Path_73937" data-name="Path 73937" d="M271.639,97.434a1.486,1.486,0,0,1-1.436,1.536,1.5,1.5,0,0,1-1.494-1.5,1.469,1.469,0,1,1,2.929,0Z" transform="translate(-215.821 -67.819)" fill="#263238"/>
          <path id="Path_73938" data-name="Path 73938" d="M263.27,96.65l.292,9.473,5.583-1.3Z" transform="translate(-214.922 -67.945)" fill="#f28f8f"/>
        </g>
        <g id="freepik--Front--inject-75" transform="translate(24.696 52.65)">
          <path id="Path_73939" data-name="Path 73939" d="M284.117,258.624a1.124,1.124,0,0,1-.15.217l-60.191-19.087a10.374,10.374,0,0,0-13,4.006L146.425,339.4l-2.379,1.377h0a1.92,1.92,0,0,1-1.836.2L208.385,242.4a10.4,10.4,0,0,1,13.011-4.014Z" transform="translate(-134.815 -143.892)" fill="#0466c8"/>
          <path id="Path_73940" data-name="Path 73940" d="M204.843,255.974l.15-.134-58.572,86.381-2.387,1.377h0a1.97,1.97,0,0,1-1.844.209l60.35-89.227Z" transform="translate(-134.812 -146.716)" fill="#fff" opacity="0.4"/>
          <path id="Path_73941" data-name="Path 73941" d="M297.232,258.632a1.455,1.455,0,0,1-.15.217l-60.191-19.1a10.366,10.366,0,0,0-13.011,4.006l-2.379-1.385a10.391,10.391,0,0,1,12.995-3.989Z" transform="translate(-147.93 -143.891)" fill="#fff" opacity="0.4"/>
          <path id="Path_73942" data-name="Path 73942" d="M288.244,131.424h0c-.134-.776-.542-.993-1.077-.626a3.18,3.18,0,0,0-.693.718l-.3.417-59.4,90.3-8.863,12.352a5.058,5.058,0,0,1-4.891,1.828l-7.653-1.819L146.946,213.09a3.071,3.071,0,0,0-1.193-.05,2.732,2.732,0,0,0-.442.142l2.2-1.269,56.027,20.531,7.378,2.637a5.008,5.008,0,0,0,4.882-1.836l8.872-12.344,59.682-90.721a2.5,2.5,0,0,1,.676-.618l-5.166-2.98,2.17-1.244,3.572,2.061A6.226,6.226,0,0,1,288.244,131.424Z" transform="translate(-135.328 -125.34)" fill="#0466c8"/>
          <path id="Path_73943" data-name="Path 73943" d="M238.667,241.193l-8.872,12.36a5.058,5.058,0,0,1-4.882,1.828l-7.653-1.819.15-.134.367-.584,5.008,1.193a5.008,5.008,0,0,0,4.882-1.828L236.456,240Z" transform="translate(-147.229 -144.305)" fill="#fff" opacity="0.4"/>
          <path id="Path_73944" data-name="Path 73944" d="M301.276,127.393,297.7,125.34l-2.162,1.244,5.158,2.98h0a2.5,2.5,0,0,0-.676.618L240.333,220.9l-.083.117h0l2.212,1.2,59.39-90.3.309-.426a2.8,2.8,0,0,1,.693-.709c.526-.367.943-.159,1.068.626h0a6.185,6.185,0,0,0-2.646-4.023Z" transform="translate(-151.031 -125.34)" opacity="0.1"/>
          <path id="Path_73945" data-name="Path 73945" d="M146.134,231.091,133.39,223.73V333.413a6.043,6.043,0,0,0,2.721,4.707l3.063,1.769a6.043,6.043,0,0,0,5.433,0l1.527-.885Z" transform="translate(-133.357 -141.614)" fill="#0466c8"/>
          <path id="Path_73946" data-name="Path 73946" d="M146.134,231.091,133.39,223.73V333.413a6.043,6.043,0,0,0,2.721,4.707l3.063,1.769a6.043,6.043,0,0,0,5.433,0l1.527-.885Z" transform="translate(-133.357 -141.614)" opacity="0.15"/>
          <path id="Path_73947" data-name="Path 73947" d="M288.011,133.154V239.7a5.518,5.518,0,0,1-.835,2.746,5.951,5.951,0,0,1-1.594,1.794l-.108.05-.167.117L146.3,324.653h0a1.945,1.945,0,0,1-1.853.217,1.669,1.669,0,0,1-.835-1.3,3.005,3.005,0,0,1,0-.484V216.539a2.362,2.362,0,0,1,3.055-2.4l58.422,21.508,7.653,1.819a5.058,5.058,0,0,0,4.891-1.828l8.863-12.352,59.4-90.3.3-.417C287.193,131.16,288.011,131.427,288.011,133.154Z" transform="translate(-135.045 -126.386)" fill="#0466c8"/>
          <path id="Path_73948" data-name="Path 73948" d="M301.724,262.564a1.447,1.447,0,0,0,.175-.108l.1-.067a5.841,5.841,0,0,0,1.594-1.778,5.592,5.592,0,0,0,.835-2.7L242.91,241.44l41.2,31.289Z" transform="translate(-151.471 -144.543)" fill="#0466c8"/>
          <path id="Path_73949" data-name="Path 73949" d="M301.724,262.564a1.447,1.447,0,0,0,.175-.108l.1-.067a5.841,5.841,0,0,0,1.594-1.778,5.592,5.592,0,0,0,.835-2.7L242.91,241.44l41.2,31.289Z" transform="translate(-151.471 -144.543)" opacity="0.2"/>
          <path id="Path_73950" data-name="Path 73950" d="M143.567,343.673a1.861,1.861,0,0,0,.835,1.786,1.936,1.936,0,0,0,1.853-.209h0l47.856-27.625,10.933-61.385-61.468,85.68Z" transform="translate(-135.038 -146.991)" fill="#0466c8"/>
          <path id="Path_73951" data-name="Path 73951" d="M210.973,244.732l-66.551,98.616a1.861,1.861,0,0,1-.835-1.786v-1.769l65.007-96.413h0Z" transform="translate(-135.041 -144.864)" opacity="0.15"/>
          <path id="Path_73952" data-name="Path 73952" d="M287.335,260.224A5.842,5.842,0,0,1,285.741,262l-.1.067L146.463,342.424h0a1.936,1.936,0,0,1-1.853.209l66.543-98.608a10.449,10.449,0,0,1,13.07-4.039Z" transform="translate(-135.212 -144.156)" fill="#0466c8"/>
          <path id="Path_73953" data-name="Path 73953" d="M133.893,211.92,136.1,213.2a10.616,10.616,0,0,0-.542,2.963v6.885l-2.212-1.277v-6.894A10.616,10.616,0,0,1,133.893,211.92Z" transform="translate(-133.35 -139.66)" opacity="0.15"/>
          <path id="Path_73954" data-name="Path 73954" d="M145.953,228.188l-2.2,1.269-2.237-1.285-5.483-3.163,2.128-1.269Z" transform="translate(-133.793 -141.615)" fill="#0466c8"/>
          <path id="Path_73955" data-name="Path 73955" d="M146.015,228.23l-7.887-4.49L136,225.009l5.483,3.163,2.237,1.285h0a1.745,1.745,0,0,1,.417-.134,2.871,2.871,0,0,1,1.185.042l4.44,1.669,51.019,18.787.835-1.185Z" transform="translate(-133.788 -141.615)" opacity="0.1"/>
        </g>
        <g id="freepik--Arm--inject-75" transform="translate(61.435 55.404)">
          <path id="Path_73956" data-name="Path 73956" d="M213.784,129c-7.086.509-11.943,2.2-16.5,13.162-2.954,7.086-14.522,32.549-15.64,36.772-1.31,4.941-4.273,42.523-4.273,42.523l6.76,2.5s-2.312,8.087-4.273,12.7c-2.253,5.333,8.755,4.215,12.294-.626s5.942-11.326,4.006-13.6a31.714,31.714,0,0,0-5.358-4.958l7.395-33.526,15.515-32.983S221.512,134.842,213.784,129Z" transform="translate(-177.37 -128.699)" fill="#ffa8a7"/>
          <path id="Path_73957" data-name="Path 73957" d="M192.12,234.593a14.589,14.589,0,0,0-6.86-1.961,13.245,13.245,0,0,1,7.178,0Z" transform="translate(-178.675 -145.758)" fill="#f28f8f"/>
          <path id="Path_73958" data-name="Path 73958" d="M217.431,128.64c-3.973,0-11.392-.209-16.2,8.471s-11.6,25.213-11.6,25.213,2.821,6.944,17.944,8.4l11.576-24.679S221.979,134.732,217.431,128.64Z" transform="translate(-179.398 -128.639)" fill="#37474f"/>
        </g>
        <g id="freepik--arm--inject-75-2" data-name="freepik--arm--inject-75" transform="translate(131.717 5.663)">
          <path id="Path_73959" data-name="Path 73959" d="M281.34,133.834c5.976,4.715,15.674,12.118,20.389,15.081,3.564-4.307,10.124-13.036,11.684-14.948,2.053-2.429,8.471-6.36,8.471-6.36l2.412,9.673s-12.118,22.351-16.508,26.482c-4.624,4.357-7.97,2.554-17.009-1.586-8.538-3.914-17.81-8.772-17.81-8.772,1.836-16.241.593-25.038-7.169-27.775C270.975,126.239,276.324,129.886,281.34,133.834Z" transform="translate(-262.278 -78.401)" fill="#ffa8a7"/>
          <path id="Path_73960" data-name="Path 73960" d="M296.241,145.551c-3.121.835-9.573,10.015-8.4,15.857L271.4,153.28c1.986-11.209,2.42-25.038-7.052-27.717a13.17,13.17,0,0,0-2.771-.351h0c4.715-.467,7.8-.325,12.736,3.388S296.241,145.551,296.241,145.551Z" transform="translate(-261.58 -78.301)" fill="#37474f"/>
          <path id="Path_73961" data-name="Path 73961" d="M308.136,153.355c-2.354,2.07-3.113,5.792-3.572,7.269a12.969,12.969,0,0,1,2.212-8.154Z" transform="translate(-268.685 -82.841)" fill="#f28f8f"/>
          <path id="Path_73962" data-name="Path 73962" d="M336.28,114.322l5.642-3.422s.643,30.421.668,31.406a3.338,3.338,0,0,0,1.185,1.953l-5.642,3.447a3.38,3.38,0,0,1-1.185-1.953C336.931,144.718,336.28,114.322,336.28,114.322Z" transform="translate(-273.935 -75.965)" fill="#37474f"/>
          <path id="Path_73963" data-name="Path 73963" d="M342.462,126.07s1.619.384,2.237,2.9.935,7.311-.509,8.888-3.413,2.27-4.724,1.669c-2.445-1.06-1.669-6.026.259-7.178,3.138-1.828,2.763-3.848,2.763-3.848Z" transform="translate(-274.209 -78.474)" fill="#ffa8a7"/>
          <path id="Path_73964" data-name="Path 73964" d="M328,115.09l2.5,3.013.442,21.449-2.5,4.173,8.346,4.607a3.071,3.071,0,0,1-1.185-1.953l-.584-27.458Z" transform="translate(-272.566 -76.658)" fill="#455a64"/>
          <path id="Path_73965" data-name="Path 73965" d="M328.46,149.43l.025,1.31,8.388,4.615-.033-1.319Z" transform="translate(-272.642 -82.338)" fill="#0466c8"/>
          <path id="Path_73966" data-name="Path 73966" d="M338.533,155.591l5.634-3.422-.033-1.319-5.634,3.422Z" transform="translate(-274.303 -82.573)" fill="#0466c8"/>
          <path id="Path_73967" data-name="Path 73967" d="M338.533,155.591l5.634-3.422-.033-1.319-5.634,3.422Z" transform="translate(-274.303 -82.573)" opacity="0.1"/>
          <path id="Path_73968" data-name="Path 73968" d="M328.683,97.245h0a3.72,3.72,0,0,0-3.547,1.444l-.042.05a11.8,11.8,0,0,0-2.412,10.407v.058c.517,1.669,1.486,2.671,2.629,2.879h0l4.874,1.168,2.98-14.923Z" transform="translate(-271.629 -73.694)" fill="#0466c8"/>
          <path id="Path_73969" data-name="Path 73969" d="M328.683,97.245h0a3.72,3.72,0,0,0-3.547,1.444l-.042.05a11.8,11.8,0,0,0-2.412,10.407v.058c.517,1.669,1.486,2.671,2.629,2.879h0l4.874,1.168,2.98-14.923Z" transform="translate(-271.629 -73.694)" fill="#fff" opacity="0.7"/>
          <path id="Path_73970" data-name="Path 73970" d="M325.323,113.844h0l4.874,1.168.985-4.949-8.863-2.053a9.322,9.322,0,0,0,.359,2.9v.058C323.212,112.684,324.18,113.669,325.323,113.844Z" transform="translate(-271.625 -75.487)" opacity="0.05"/>
          <path id="Path_73971" data-name="Path 73971" d="M339.171,97.53h0a4.432,4.432,0,0,0-3.964,1.419c-.142.125-.284.267-.426.417s-.317.351-.467.542a9.962,9.962,0,0,0-.718,1.01,13.348,13.348,0,0,0-1.085,2.095,16.19,16.19,0,0,0-1.21,6.376,11.393,11.393,0,0,0,.459,3.03c.609,1.995,1.719,3.2,3.046,3.547l-4.624-1.068h0a5.366,5.366,0,0,1-3.672-3.689,11.552,11.552,0,0,1-.451-2.9,16.058,16.058,0,0,1,1.21-6.518,13.626,13.626,0,0,1,1.077-2.087,11.468,11.468,0,0,1,.718-1.01q.225-.284.476-.551a4.939,4.939,0,0,1,.426-.409,5.275,5.275,0,0,1,4.49-1.285h.3Z" transform="translate(-272.244 -73.561)" fill="#0466c8"/>
          <path id="Path_73972" data-name="Path 73972" d="M330.183,117.265h0a5.366,5.366,0,0,1-3.672-3.689,11.551,11.551,0,0,1-.451-2.9l5.258,1.085a11.394,11.394,0,0,0,.459,3.03c.609,1.995,1.719,3.2,3.046,3.547Z" transform="translate(-272.245 -75.929)" opacity="0.1"/>
          <path id="Path_73973" data-name="Path 73973" d="M343.364,101.33a14.8,14.8,0,0,1-3.03,13.053c-1.461,1.569-3.046,2.153-4.415,1.828h-.075c-1.327-.351-2.437-1.552-3.046-3.547A14.822,14.822,0,0,1,335.82,99.61c1.461-1.561,3.03-2.145,4.39-1.836S342.738,99.276,343.364,101.33Z" transform="translate(-273.283 -73.781)" fill="#0466c8"/>
          <path id="Path_73974" data-name="Path 73974" d="M343.364,101.33a14.8,14.8,0,0,1-3.03,13.053c-1.461,1.569-3.046,2.153-4.415,1.828h-.075c-1.327-.351-2.437-1.552-3.046-3.547A14.822,14.822,0,0,1,335.82,99.61c1.461-1.561,3.03-2.145,4.39-1.836S342.738,99.276,343.364,101.33Z" transform="translate(-273.283 -73.781)" opacity="0.2"/>
          <path id="Path_73975" data-name="Path 73975" d="M362.778,93.6s-5.458,5.291-8.062,16.542a44.125,44.125,0,0,0-.993,6.134c-.7,7.645.96,12.26.96,12.26-3.338-4.173-7.253-8.288-12.394-10.85a64.078,64.078,0,0,0-6.168-2.612h0c-1.244-.292-2.27-1.436-2.829-3.272a11.51,11.51,0,0,1-.417-3.989,14.789,14.789,0,0,1,.376-2.679,13.17,13.17,0,0,1,2.971-5.967c1.31-1.4,2.737-1.986,3.981-1.669h0a65.026,65.026,0,0,0,6.677.367C352.613,97.856,357.937,95.828,362.778,93.6Z" transform="translate(-273.367 -73.104)" fill="#0466c8"/>
          <path id="Path_73976" data-name="Path 73976" d="M362.778,93.6s-5.458,5.291-8.062,16.542a44.125,44.125,0,0,0-.993,6.134c-.7,7.645.96,12.26.96,12.26-3.338-4.173-7.253-8.288-12.394-10.85a64.078,64.078,0,0,0-6.168-2.612h0c-1.244-.292-2.27-1.436-2.829-3.272a11.51,11.51,0,0,1-.417-3.989,14.789,14.789,0,0,1,.376-2.679,13.17,13.17,0,0,1,2.971-5.967c1.31-1.4,2.737-1.986,3.981-1.669h0a65.026,65.026,0,0,0,6.677.367C352.613,97.856,357.937,95.828,362.778,93.6Z" transform="translate(-273.367 -73.104)" fill="#fff" opacity="0.7"/>
          <path id="Path_73977" data-name="Path 73977" d="M353.723,119.093c-.7,7.645.96,12.26.96,12.26-3.338-4.173-7.253-8.288-12.394-10.85a64.08,64.08,0,0,0-6.168-2.612h0c-1.244-.292-2.27-1.436-2.829-3.272a11.51,11.51,0,0,1-.417-3.989C338.516,111.623,347.822,113.735,353.723,119.093Z" transform="translate(-273.367 -75.92)" opacity="0.05"/>
          <path id="Path_73978" data-name="Path 73978" d="M381.464,98.485a31.5,31.5,0,0,1,.542,14.305h0c-1.1,6.385-3.848,12.586-7.778,16.759-6.936,7.436-14.964,5.567-17.936-4.173a27.323,27.323,0,0,1-1.093-7.2,38.083,38.083,0,0,1,4.465-18.478A23.558,23.558,0,0,1,361,97.483l.6-.835h0c.292-.409.584-.793.893-1.168s.651-.776.993-1.135C370.472,86.9,378.5,88.753,381.464,98.485Z" transform="translate(-277.064 -72.471)" fill="#0466c8"/>
          <path id="Path_73979" data-name="Path 73979" d="M382.007,117.35c-1.1,6.385-3.848,12.586-7.778,16.759-6.936,7.436-14.964,5.567-17.936-4.173a27.323,27.323,0,0,1-1.093-7.2h0c.951,1.085,3.547,2.253,4.081.718a24.586,24.586,0,0,0,.977,6.385,10.8,10.8,0,0,0,3.789,5.976,5.225,5.225,0,0,0,4.682.651,12.227,12.227,0,0,0,5.074-3.48c3.338-3.547,5.742-8.855,6.927-14.38C380.772,118.619,381.432,118.9,382.007,117.35Z" transform="translate(-277.065 -77.032)" opacity="0.1"/>
          <path id="Path_73980" data-name="Path 73980" d="M381.406,99.876a30.312,30.312,0,0,1,.184,14.714c-1.185,5.525-3.605,10.85-6.927,14.38a12.226,12.226,0,0,1-5.074,3.48,5.225,5.225,0,0,1-4.682-.651c-1.669-1.11-2.938-3.18-3.789-5.976a24.587,24.587,0,0,1-.977-6.385v-2.6a34.008,34.008,0,0,1,.551-4.632c.058-.317.117-.634.184-.943.109-.526.225-1.052.359-1.569a36.077,36.077,0,0,1,1.719-5.141v-.058a32.2,32.2,0,0,1,1.536-3.138c.4-.718.835-1.4,1.269-2.053l.576-.835c.242-.309.484-.618.726-.91s.492-.568.743-.835a12.144,12.144,0,0,1,5.074-3.48C376.632,92.164,379.8,94.609,381.406,99.876Z" transform="translate(-277.882 -73.003)" fill="#0466c8"/>
          <path id="Path_73981" data-name="Path 73981" d="M381.406,99.876a30.312,30.312,0,0,1,.184,14.714c-1.185,5.525-3.605,10.85-6.927,14.38a12.226,12.226,0,0,1-5.074,3.48,5.225,5.225,0,0,1-4.682-.651c-1.669-1.11-2.938-3.18-3.789-5.976a24.587,24.587,0,0,1-.977-6.385v-2.6a34.008,34.008,0,0,1,.551-4.632c.058-.317.117-.634.184-.943.109-.526.225-1.052.359-1.569a36.077,36.077,0,0,1,1.719-5.141v-.058a32.2,32.2,0,0,1,1.536-3.138c.4-.718.835-1.4,1.269-2.053l.576-.835c.242-.309.484-.618.726-.91s.492-.568.743-.835a12.144,12.144,0,0,1,5.074-3.48C376.632,92.164,379.8,94.609,381.406,99.876Z" transform="translate(-277.882 -73.003)" opacity="0.3"/>
          <path id="Path_73982" data-name="Path 73982" d="M369.21,108.364l-2.3,11.618c-1.669-.1-4.5-.234-6.727-.125v-.835a35.379,35.379,0,0,1,.551-4.632c.058-.317.125-.626.184-.943.109-.526.234-1.052.367-1.561a36.161,36.161,0,0,1,1.711-5.149.175.175,0,0,0,0-.058c.108-.242.209-.484.317-.718A36.125,36.125,0,0,0,369.21,108.364Z" transform="translate(-277.888 -75.148)" fill="#0466c8"/>
          <g id="Group_14842" data-name="Group 14842" transform="translate(82.292 30.812)" opacity="0.4">
            <path id="Path_73983" data-name="Path 73983" d="M369.21,108.364l-2.3,11.618c-1.669-.1-4.5-.234-6.727-.125v-.835a35.379,35.379,0,0,1,.551-4.632c.058-.317.125-.626.184-.943.109-.526.234-1.052.367-1.561a36.161,36.161,0,0,1,1.711-5.149.175.175,0,0,0,0-.058c.108-.242.209-.484.317-.718A36.125,36.125,0,0,0,369.21,108.364Z" transform="translate(-360.18 -105.96)" fill="#fff"/>
          </g>
          <path id="Path_73984" data-name="Path 73984" d="M368.135,120.3c-1.21.367-2.237-.384-2.729-2.028v-.05a9.347,9.347,0,0,1,1.9-8.229h0a3.63,3.63,0,0,1,1.527-1.043c1.21-.367,2.228.392,2.729,2.028v.05a9.339,9.339,0,0,1-1.9,8.229h0a3.739,3.739,0,0,1-1.527,1.035Z" transform="translate(-278.708 -75.628)" fill="#0466c8"/>
          <g id="Group_14843" data-name="Group 14843" transform="translate(86.427 33.233)" opacity="0.7">
            <path id="Path_73985" data-name="Path 73985" d="M368.135,120.3c-1.21.367-2.237-.384-2.729-2.028v-.05a9.347,9.347,0,0,1,1.9-8.229h0a3.63,3.63,0,0,1,1.527-1.043c1.21-.367,2.228.392,2.729,2.028v.05a9.339,9.339,0,0,1-1.9,8.229h0a3.739,3.739,0,0,1-1.527,1.035Z" transform="translate(-365.135 -108.861)" fill="#fff"/>
          </g>
          <path id="Path_73986" data-name="Path 73986" d="M364.34,83.964a1.244,1.244,0,0,1-1.569-.835L359.224,71.5a1.26,1.26,0,0,1,2.4-.734L365.175,82.4a1.244,1.244,0,0,1-.835,1.569Z" transform="translate(-277.725 -69.193)" fill="#e0e0e0"/>
          <path id="Path_73987" data-name="Path 73987" d="M351.614,91.847a1.26,1.26,0,0,1-1.227-.284L341.5,83.217a1.26,1.26,0,1,1,1.719-1.836l8.888,8.346a1.252,1.252,0,0,1,.058,1.778A1.16,1.16,0,0,1,351.614,91.847Z" transform="translate(-274.723 -71.017)" fill="#e0e0e0"/>
          <path id="Path_73988" data-name="Path 73988" d="M360.678,162.379a1.319,1.319,0,0,1-.651,0,1.26,1.26,0,0,1-.943-1.511l2.746-11.851a1.26,1.26,0,1,1,2.454.568l-2.771,11.876a1.26,1.26,0,0,1-.835.918Z" transform="translate(-277.702 -82.1)" fill="#e0e0e0"/>
          <path id="Path_73989" data-name="Path 73989" d="M386.419,156.4a1.26,1.26,0,0,1-1.569-.835L381.3,143.93a1.26,1.26,0,1,1,2.4-.734l3.547,11.634A1.26,1.26,0,0,1,386.419,156.4Z" transform="translate(-281.368 -81.144)" fill="#e0e0e0"/>
          <path id="Path_73990" data-name="Path 73990" d="M401.066,138.048a1.26,1.26,0,0,1-1.227-.284l-8.888-8.346a1.26,1.26,0,0,1,1.711-1.844l8.9,8.3a1.252,1.252,0,0,1,.058,1.778,1.293,1.293,0,0,1-.551.392Z" transform="translate(-282.92 -78.675)" fill="#e0e0e0"/>
          <path id="Path_73991" data-name="Path 73991" d="M410.469,120.363a1.31,1.31,0,0,1-.651,0l-11.851-2.746a1.269,1.269,0,0,1-.943-1.511,1.252,1.252,0,0,1,1.511-.943l11.851,2.746a1.26,1.26,0,0,1,.083,2.429Z" transform="translate(-283.977 -76.664)" fill="#e0e0e0"/>
          <path id="Path_73992" data-name="Path 73992" d="M409.791,99.648l-11.643,3.547a1.257,1.257,0,0,1-.734-2.4L409.1,97.244a1.26,1.26,0,0,1,.734,2.4Z" transform="translate(-283.9 -73.701)" fill="#e0e0e0"/>
          <path id="Path_73993" data-name="Path 73993" d="M390.887,90.48a1.26,1.26,0,0,1-1.294-2.061l8.3-8.889a1.261,1.261,0,1,1,1.844,1.719l-8.3,8.888a1.252,1.252,0,0,1-.551.342Z" transform="translate(-282.698 -70.71)" fill="#e0e0e0"/>
          <path id="Path_73994" data-name="Path 73994" d="M378.759,83.429a1.285,1.285,0,0,1-.643,0,1.252,1.252,0,0,1-.943-1.511l2.746-11.851a1.26,1.26,0,1,1,2.454.568l-2.746,11.851A1.285,1.285,0,0,1,378.759,83.429Z" transform="translate(-280.693 -69.042)" fill="#e0e0e0"/>
          <path id="Path_73995" data-name="Path 73995" d="M322.89,134.088c2.4-3.038,2.5-4.949,4.357-6.443s3.756-1.586,6.543-.785c2.095.6,4.557.3,5.408,1.077.242.167-.134,1.511-1.118,1.995-1.185.584-3.1.442-4.515.451-3.222,0-.576,3.171-3.681,6.376C328.574,139.054,322.89,134.088,322.89,134.088Z" transform="translate(-271.721 -78.522)" fill="#ffa8a7"/>
        </g>
      </g>
    </g>
    <g id="freepik--paper-planes--inject-75" transform="translate(43.971 37.032)">
      <g id="freepik--paper-plane--inject-75" transform="translate(229.742)">
        <path id="Path_73996" data-name="Path 73996" d="M411.2,189.742l29.528-18.912,13,4.173Z" transform="translate(-336.855 -60.471)" fill="#0466c8"/>
        <path id="Path_73997" data-name="Path 73997" d="M411.2,187.974l25.522-21.282-5.675-6.552Z" transform="translate(-336.855 -58.703)" fill="#0466c8"/>
        <path id="Path_73998" data-name="Path 73998" d="M436.722,167.99v4.932L411.2,189.272Z" transform="translate(-336.855 -60.001)" fill="#0466c8"/>
        <path id="Path_73999" data-name="Path 73999" d="M436.722,167.99v4.932L411.2,189.272Z" transform="translate(-336.855 -60.001)" opacity="0.25"/>
        <path id="Path_74000" data-name="Path 74000" d="M448.834,163.96a.832.832,0,0,1-.543-1.469c.509-.442,1.018-.9,1.511-1.369a.835.835,0,0,1,1.152,1.2c-.517.492-1.035.968-1.577,1.436A.835.835,0,0,1,448.834,163.96Z" transform="translate(-342.941 -58.834)" fill="#e0e0e0"/>
        <path id="Path_74001" data-name="Path 74001" d="M433.577,139.353a.835.835,0,0,1-.626-1.385c.835-1,1.728-2.061,2.5-3.155a.835.835,0,1,1,1.344.993c-.835,1.135-1.719,2.228-2.621,3.263A.835.835,0,0,1,433.577,139.353Zm4.891-6.61a.834.834,0,0,1-.7-1.277c.7-1.127,1.385-2.312,2.02-3.514a.835.835,0,0,1,1.477.776c-.659,1.244-1.36,2.462-2.086,3.622a.835.835,0,0,1-.709.392Zm3.848-7.269a.776.776,0,0,1-.334-.075.835.835,0,0,1-.426-1.1c.534-1.227,1.052-2.5,1.511-3.764a.835.835,0,0,1,1.569.568c-.476,1.31-1,2.612-1.561,3.873a.835.835,0,0,1-.759.5Zm2.821-7.737a.751.751,0,0,1-.234,0,.835.835,0,0,1-.568-1.035c.376-1.285.718-2.612,1.018-3.931a.855.855,0,1,1,1.669.367c-.309,1.352-.659,2.712-1.043,4.031a.835.835,0,0,1-.843.568Zm1.811-8.029h-.134a.835.835,0,0,1-.693-.96c.209-1.327.384-2.679.509-4.031a.838.838,0,0,1,1.669.159c-.134,1.385-.317,2.779-.534,4.173a.835.835,0,0,1-.818.659Zm.776-8.2h0a.835.835,0,0,1-.835-.835V96.613a.835.835,0,1,1,1.669,0v4.173a.835.835,0,0,1-.835.743Zm-.292-8.221a.835.835,0,0,1-.835-.751c-.142-1.352-.326-2.7-.559-4.023a.847.847,0,1,1,1.669-.284c.242,1.352.434,2.746.576,4.173a.835.835,0,0,1-.743.918ZM446,85.179a.835.835,0,0,1-.835-.626c-.334-1.319-.718-2.621-1.143-3.889a.835.835,0,1,1,1.577-.534c.442,1.31.835,2.654,1.185,4.014a.835.835,0,0,1-.835,1.035Zm-2.654-7.8a.835.835,0,0,1-.768-.5,39.67,39.67,0,0,0-1.761-3.639.845.845,0,0,1,1.469-.835c.659,1.219,1.269,2.5,1.828,3.772a.835.835,0,0,1-.442,1.093.759.759,0,0,1-.326.108Zm-3.9-7.236a.835.835,0,0,1-.7-.376,40.278,40.278,0,0,0-2.354-3.3.834.834,0,1,1,1.3-1.043c.835,1.077,1.669,2.22,2.5,3.388a.835.835,0,0,1-.693,1.294Zm-5.141-6.426a.834.834,0,0,1-.6-.259c-.918-.96-1.895-1.911-2.913-2.821a.839.839,0,0,1,1.127-1.244c1.043.943,2.053,1.928,3,2.913a.835.835,0,0,1-.609,1.41Zm-6.1-5.525a.876.876,0,0,1-.517-.175c-1.043-.835-2.145-1.669-3.263-2.42a.835.835,0,1,1,.943-1.369c1.16.835,2.287,1.669,3.338,2.5a.809.809,0,0,1-.476,1.461Zm-6.76-4.69a.835.835,0,0,1-.434-.125c-1.143-.693-2.329-1.377-3.53-2.028a.835.835,0,0,1,.785-1.469c1.235.668,2.454,1.36,3.614,2.078a.835.835,0,0,1-.434,1.544Zm-7.244-3.914a.835.835,0,0,1-.359-.083c-1.219-.576-2.5-1.135-3.722-1.669a.836.836,0,1,1,.643-1.544c1.277.534,2.554,1.11,3.8,1.669a.835.835,0,0,1-.359,1.586Zm-84.295-2.07a.835.835,0,0,1-.275-1.627c1.3-.467,2.621-.91,3.923-1.327a.835.835,0,1,1,.509,1.586c-1.277.409-2.579.835-3.873,1.319a.835.835,0,0,1-.242.05Zm76.716-1.077a.693.693,0,0,1-.284-.058c-1.252-.459-2.554-.9-3.864-1.319a.835.835,0,1,1,.5-1.586c1.335.426,2.662.876,3.939,1.344a.829.829,0,0,1-.292,1.619ZM337.79,45.026a.843.843,0,1,1-.234-1.669c1.31-.376,2.662-.734,4.006-1.077a.835.835,0,0,1,.4,1.619c-1.327.334-2.654.693-3.948,1.06a.7.7,0,0,1-.217.033Zm61-1.085a.909.909,0,0,1-.217,0c-1.294-.351-2.621-.684-3.964-.993a.855.855,0,0,1,.367-1.669c1.369.317,2.721.651,4.031,1.01a.842.842,0,1,1-.217,1.669Zm-53.005-.951a.839.839,0,0,1-.175-1.669c1.344-.292,2.712-.559,4.056-.835a.848.848,0,1,1,.3,1.669c-1.327.242-2.679.509-4.006.835Zm44.985-.9h-.159c-1.31-.25-2.671-.476-4.031-.668a.835.835,0,0,1,.242-1.653c1.385.2,2.763.426,4.1.676a.838.838,0,1,1-.15,1.669Zm-36.889-.568a.837.837,0,0,1-.125-1.669c1.369-.2,2.754-.376,4.115-.526A.84.84,0,0,1,358.054,41c-1.344.15-2.7.325-4.056.526Zm28.727-.618h-.083c-1.335-.142-2.7-.259-4.073-.351a.837.837,0,1,1,.117-1.669c1.394.1,2.779.217,4.131.367a.828.828,0,0,1-.092,1.653Zm-20.556-.3a.836.836,0,0,1-.067-1.669c1.385-.1,2.771-.184,4.173-.242a.835.835,0,0,1,0,1.669c-1.344.058-2.721.142-4.081.242Zm12.344-.275h0c-1.193,0-2.4-.058-3.572-.058h-.517a.835.835,0,0,1,0-1.669h.526c1.193,0,2.412,0,3.622.058a.835.835,0,0,1,0,1.669Z" transform="translate(-323.27 -38.6)" fill="#e0e0e0"/>
        <path id="Path_74002" data-name="Path 74002" d="M322.947,51.505a.835.835,0,0,1-.317-1.6l1.945-.835a.838.838,0,1,1,.609,1.561l-1.92.776a.884.884,0,0,1-.317.1Z" transform="translate(-322.122 -40.322)" fill="#e0e0e0"/>
      </g>
      <g id="freepik--paper-plane--inject-75-2" data-name="freepik--paper-plane--inject-75" transform="translate(0 68.454)">
        <path id="Path_74003" data-name="Path 74003" d="M100.44,139.432l38.383-18.812-27.675,26.323Z" transform="translate(-55.714 -120.62)" fill="#0466c8"/>
        <path id="Path_74004" data-name="Path 74004" d="M135.924,120.62,93.6,134.541,82.91,127.03Z" transform="translate(-52.814 -120.62)" fill="#0466c8"/>
        <path id="Path_74005" data-name="Path 74005" d="M95.72,134.541l1.678,10.75,2.262-5.859,38.383-18.812Z" transform="translate(-54.933 -120.62)" fill="#0466c8"/>
        <path id="Path_74006" data-name="Path 74006" d="M95.72,134.541l1.678,10.75,2.262-5.859,38.383-18.812Z" transform="translate(-54.933 -120.62)" opacity="0.25"/>
        <path id="Path_74007" data-name="Path 74007" d="M97.73,149.019l5.834-3.355-3.572-2.5Z" transform="translate(-55.266 -124.348)" fill="#0466c8"/>
        <path id="Path_74008" data-name="Path 74008" d="M100.44,143.16l3.572,2.5-.935.534Z" transform="translate(-55.714 -124.348)" opacity="0.25"/>
        <path id="Path_74009" data-name="Path 74009" d="M94.464,256.132a.835.835,0,0,1-.284-.05c-1.352-.484-2.671-.985-3.931-1.477a.835.835,0,0,1,.618-1.552c1.235.484,2.5.977,3.881,1.461a.835.835,0,0,1-.284,1.619Zm-7.753-3.08a.834.834,0,0,1-.334-.067c-1.3-.576-2.579-1.168-3.814-1.769a.836.836,0,0,1,.734-1.5c1.21.593,2.5,1.177,3.756,1.744a.835.835,0,0,1-.342,1.594ZM79.2,249.38a.835.835,0,0,1-.4-.1c-1.244-.684-2.5-1.394-3.647-2.12a.835.835,0,0,1,.835-1.419c1.152.709,2.354,1.4,3.572,2.07a.835.835,0,0,1-.4,1.569ZM72.105,245a.835.835,0,0,1-.476-.15c-1.168-.835-2.3-1.669-3.388-2.5A.861.861,0,1,1,69.317,241c1.052.835,2.162,1.669,3.338,2.454a.835.835,0,0,1-.476,1.519Zm-6.518-5.191a.835.835,0,0,1-.559-.217c-1.052-.96-2.061-1.953-3.013-2.971a.835.835,0,0,1,1.21-1.143c.926.985,1.911,1.953,2.929,2.879a.835.835,0,0,1-.568,1.452Zm-5.709-6.059a.835.835,0,0,1-.651-.317c-.885-1.093-1.728-2.237-2.5-3.405a.836.836,0,0,1,1.385-.935c.759,1.127,1.586,2.237,2.437,3.338a.792.792,0,0,1-.634,1.319ZM55.2,226.854a.835.835,0,0,1-.726-.426c-.684-1.219-1.335-2.5-1.928-3.772a.836.836,0,1,1,1.519-.7c.568,1.244,1.2,2.5,1.861,3.647a.835.835,0,0,1-.317,1.143.877.877,0,0,1-.376.109ZM51.749,219.3a.835.835,0,0,1-.785-.542c-.484-1.3-.926-2.654-1.319-4.023a.835.835,0,1,1,1.6-.459c.384,1.327.835,2.637,1.277,3.906a.829.829,0,0,1-.776,1.118Zm-2.329-8a.835.835,0,0,1-.835-.659c-.292-1.344-.559-2.738-.776-4.173a.836.836,0,0,1,1.653-.259c.209,1.377.467,2.737.751,4.056a.835.835,0,0,1-.634.993.685.685,0,0,1-.159.025Zm-1.3-8.237a.835.835,0,0,1-.835-.751c-.142-1.344-.259-2.754-.342-4.173a.836.836,0,0,1,1.669-.092c.083,1.41.192,2.8.334,4.123a.835.835,0,0,1-.743.91Zm-.434-8.346h0a.835.835,0,0,1-.835-.835,42.316,42.316,0,0,1,.25-4.231.835.835,0,1,1,1.661.167c-.134,1.36-.217,2.737-.242,4.1a.835.835,0,0,1-.835.8Zm.835-8.3h-.15a.835.835,0,0,1-.668-.968c.25-1.385.568-2.771.926-4.173a.834.834,0,0,1,1.611.434c-.351,1.319-.651,2.671-.9,4.006A.835.835,0,0,1,48.519,186.418Zm2.153-8.012a.838.838,0,0,1-.785-1.118c.467-1.319.993-2.646,1.569-3.939a.835.835,0,1,1,1.519.684c-.551,1.244-1.068,2.5-1.519,3.814A.835.835,0,0,1,50.672,178.405Zm3.388-7.62a.835.835,0,0,1-.726-1.235c.668-1.235,1.4-2.5,2.17-3.639a.835.835,0,0,1,1.394.91c-.743,1.143-1.452,2.329-2.1,3.53a.835.835,0,0,1-.734.392Zm4.6-7.027A.835.835,0,0,1,58,162.414c.835-1.118,1.778-2.212,2.721-3.247a.836.836,0,0,1,1.235,1.127c-.91,1-1.8,2.061-2.637,3.138a.835.835,0,0,1-.659.326Zm5.617-6.159a.835.835,0,0,1-.568-1.444c1.027-.968,2.112-1.895,3.213-2.763a.835.835,0,0,1,1.035,1.31c-1.068.835-2.112,1.736-3.113,2.671a.835.835,0,0,1-.609.225Zm6.543-5.166a.835.835,0,0,1-.476-1.569c1.168-.776,2.387-1.511,3.622-2.195a.841.841,0,1,1,.835,1.461c-1.193.659-2.379,1.377-3.505,2.128a.835.835,0,0,1-.517.175Zm7.244-4.073a.835.835,0,0,1-.342-1.594c1.277-.576,2.6-1.118,3.923-1.594a.835.835,0,0,1,.568,1.569c-1.285.467-2.562.985-3.806,1.544A.835.835,0,0,1,78.064,148.36Z" transform="translate(-46.85 -124.674)" fill="#e0e0e0"/>
      </g>
    </g>
    <g id="freepik--Icon--inject-75" transform="translate(203.621 328.637)">
      <g id="freepik--At--inject-75">
        <path id="Path_74010" data-name="Path 74010" d="M318.979,410.851a.835.835,0,0,0-.434-.743,2.721,2.721,0,0,0-1.836-.543,4.282,4.282,0,0,0-1.936.467l-3.338,1.778a5.96,5.96,0,0,0,.609-1.527,5.233,5.233,0,0,0,.134-1.252v-4.958a5.841,5.841,0,0,0-.5-2.3,8.88,8.88,0,0,0-2.988-3.38c-1.027-.785-2.253-1.669-3.7-2.6s-2.746-1.736-3.923-2.4a48.255,48.255,0,0,0-9.882-3.939A41.147,41.147,0,0,0,279.753,388a53.114,53.114,0,0,0-12.986,1.853,67.6,67.6,0,0,0-14.53,5.842,35.088,35.088,0,0,0-9.857,7.186,15.724,15.724,0,0,0-4.031,7.353,10.631,10.631,0,0,0-.209,2.22v5.008a10.85,10.85,0,0,0,1.185,4.866,17.968,17.968,0,0,0,5.175,6.093c.492.384,1.2.893,2.137,1.536s1.928,1.31,3,2,2.087,1.36,3.1,1.986,1.819,1.118,2.454,1.477a41.558,41.558,0,0,0,9.923,3.656,49.152,49.152,0,0,0,11.684,1.285,55,55,0,0,0,12.669-1.6,62.471,62.471,0,0,0,21.449-10.3,29.12,29.12,0,0,0,4.849-4.649,13.12,13.12,0,0,0,2.328-4.115,25.161,25.161,0,0,0,.876-3.647,1.136,1.136,0,0,0,0-.159C318.979,415.658,318.979,410.9,318.979,410.851Zm-12.519,5.992a13.973,13.973,0,0,1-1.92,2.17,27.539,27.539,0,0,1-3.247,2.5,56.129,56.129,0,0,1-5.083,2.979,39.794,39.794,0,0,1-8.83,3.464,39.317,39.317,0,0,1-8.8,1.26,35.811,35.811,0,0,1-8.346-.743,30.517,30.517,0,0,1-7.445-2.562,24.615,24.615,0,0,1-2.437-1.377c-.943-.584-1.9-1.193-2.879-1.836s-1.9-1.26-2.771-1.861a18.044,18.044,0,0,1-1.97-1.511,13.154,13.154,0,0,1-3.614-4.674c-.075-.192-.15-.376-.217-.568a12.093,12.093,0,0,1,2.846-4.323,27.04,27.04,0,0,1,6.76-4.816,57.227,57.227,0,0,1,9.84-4.173,39.831,39.831,0,0,1,5.008-1.2l-.835.459a1.544,1.544,0,0,0-.926,1.085,1.085,1.085,0,0,0,.584,1.093l.568.367a18.05,18.05,0,0,0-4.448,0,15.958,15.958,0,0,0-5.35,1.911,11.266,11.266,0,0,0-4.048,3.255,5.425,5.425,0,0,0-1.118,3.213v5.124a4.373,4.373,0,0,0,0,.467,7.662,7.662,0,0,0,1.669,3.873,17.7,17.7,0,0,0,4.4,3.848,26.091,26.091,0,0,0,6.076,2.963,26.643,26.643,0,0,0,6.5,1.327,24.448,24.448,0,0,0,6.451-.351,20.866,20.866,0,0,0,5.934-2.07,22.091,22.091,0,0,0,3.589-2.27,8.487,8.487,0,0,0,1.811-1.92,3.723,3.723,0,0,0,.592-1.669,8.927,8.927,0,0,0,0-1.494,22.458,22.458,0,0,0,5.083-.359,23.008,23.008,0,0,0,6.677-2.5l.384-.225A2.776,2.776,0,0,1,306.46,416.843Zm-29.787-4.916a14.513,14.513,0,0,1,6.168,2.387,14.347,14.347,0,0,1,1.861,1.436,9.427,9.427,0,0,1-.976.6,9.673,9.673,0,0,1-5.734,1.043,14.113,14.113,0,0,1-6.176-2.354,12.285,12.285,0,0,1-1.9-1.486,6.614,6.614,0,0,1,.876-.551,9.681,9.681,0,0,1,5.909-1.077Zm23.26-4.949a8.222,8.222,0,0,1-2.988.668,5.792,5.792,0,0,1-3.472-.9l-11.3-7.4a28.893,28.893,0,0,1,3.38.584,34.988,34.988,0,0,1,7.937,2.971,42.212,42.212,0,0,1,3.689,2.153c1.018.651,1.92,1.31,2.779,1.928Z" transform="translate(-238.139 -387.994)" fill="#0466c8"/>
        <path id="Path_74011" data-name="Path 74011" d="M318.979,410.851a.835.835,0,0,0-.434-.743,2.721,2.721,0,0,0-1.836-.543,4.282,4.282,0,0,0-1.936.467l-3.338,1.778a5.96,5.96,0,0,0,.609-1.527,5.233,5.233,0,0,0,.134-1.252v-4.958a5.841,5.841,0,0,0-.5-2.3,8.88,8.88,0,0,0-2.988-3.38c-1.027-.785-2.253-1.669-3.7-2.6s-2.746-1.736-3.923-2.4a48.255,48.255,0,0,0-9.882-3.939A41.147,41.147,0,0,0,279.753,388a53.114,53.114,0,0,0-12.986,1.853,67.6,67.6,0,0,0-14.53,5.842,35.088,35.088,0,0,0-9.857,7.186,15.724,15.724,0,0,0-4.031,7.353,10.631,10.631,0,0,0-.209,2.22v5.008a10.85,10.85,0,0,0,1.185,4.866,17.968,17.968,0,0,0,5.175,6.093c.492.384,1.2.893,2.137,1.536s1.928,1.31,3,2,2.087,1.36,3.1,1.986,1.819,1.118,2.454,1.477a41.558,41.558,0,0,0,9.923,3.656,49.152,49.152,0,0,0,11.684,1.285,55,55,0,0,0,12.669-1.6,62.471,62.471,0,0,0,21.449-10.3,29.12,29.12,0,0,0,4.849-4.649,13.12,13.12,0,0,0,2.328-4.115,25.161,25.161,0,0,0,.876-3.647,1.136,1.136,0,0,0,0-.159C318.979,415.658,318.979,410.9,318.979,410.851Zm-12.519,5.992a13.973,13.973,0,0,1-1.92,2.17,27.539,27.539,0,0,1-3.247,2.5,56.129,56.129,0,0,1-5.083,2.979,39.794,39.794,0,0,1-8.83,3.464,39.317,39.317,0,0,1-8.8,1.26,35.811,35.811,0,0,1-8.346-.743,30.517,30.517,0,0,1-7.445-2.562,24.615,24.615,0,0,1-2.437-1.377c-.943-.584-1.9-1.193-2.879-1.836s-1.9-1.26-2.771-1.861a18.044,18.044,0,0,1-1.97-1.511,13.154,13.154,0,0,1-3.614-4.674c-.075-.192-.15-.376-.217-.568a12.093,12.093,0,0,1,2.846-4.323,27.04,27.04,0,0,1,6.76-4.816,57.227,57.227,0,0,1,9.84-4.173,39.831,39.831,0,0,1,5.008-1.2l-.835.459a1.544,1.544,0,0,0-.926,1.085,1.085,1.085,0,0,0,.584,1.093l.568.367a18.05,18.05,0,0,0-4.448,0,15.958,15.958,0,0,0-5.35,1.911,11.266,11.266,0,0,0-4.048,3.255,5.425,5.425,0,0,0-1.118,3.213v5.124a4.373,4.373,0,0,0,0,.467,7.662,7.662,0,0,0,1.669,3.873,17.7,17.7,0,0,0,4.4,3.848,26.091,26.091,0,0,0,6.076,2.963,26.643,26.643,0,0,0,6.5,1.327,24.448,24.448,0,0,0,6.451-.351,20.866,20.866,0,0,0,5.934-2.07,22.091,22.091,0,0,0,3.589-2.27,8.487,8.487,0,0,0,1.811-1.92,3.723,3.723,0,0,0,.592-1.669,8.927,8.927,0,0,0,0-1.494,22.458,22.458,0,0,0,5.083-.359,23.008,23.008,0,0,0,6.677-2.5l.384-.225A2.776,2.776,0,0,1,306.46,416.843Zm-29.787-4.916a14.513,14.513,0,0,1,6.168,2.387,14.347,14.347,0,0,1,1.861,1.436,9.427,9.427,0,0,1-.976.6,9.673,9.673,0,0,1-5.734,1.043,14.113,14.113,0,0,1-6.176-2.354,12.285,12.285,0,0,1-1.9-1.486,6.614,6.614,0,0,1,.876-.551,9.681,9.681,0,0,1,5.909-1.077Zm23.26-4.949a8.222,8.222,0,0,1-2.988.668,5.792,5.792,0,0,1-3.472-.9l-11.3-7.4a28.893,28.893,0,0,1,3.38.584,34.988,34.988,0,0,1,7.937,2.971,42.212,42.212,0,0,1,3.689,2.153c1.018.651,1.92,1.31,2.779,1.928Z" transform="translate(-238.139 -387.994)" opacity="0.2"/>
        <path id="Path_74012" data-name="Path 74012" d="M251.025,415.318a12.093,12.093,0,0,1,2.846-4.323,27.042,27.042,0,0,1,6.76-4.816,57.223,57.223,0,0,1,9.84-4.173,39.842,39.842,0,0,1,5.008-1.2l3.038-1.611a3.956,3.956,0,0,1,1.928-.426,3.288,3.288,0,0,1,1.786.459l2,1.31a28.894,28.894,0,0,1,3.38.584,34.985,34.985,0,0,1,7.937,2.971,42.2,42.2,0,0,1,3.689,2.153c.993.651,1.895,1.294,2.754,1.928a4.261,4.261,0,0,0,.484-.217,3,3,0,0,0,1.744-1.92c.167-.751-.367-1.594-1.6-2.5-1.027-.785-2.153-1.586-3.338-2.387a38.41,38.41,0,0,0-3.689-2.153,34.218,34.218,0,0,0-7.937-2.971,29.21,29.21,0,0,0-8.279-.759,36.258,36.258,0,0,0-8.888,1.669,57.3,57.3,0,0,0-9.84,4.173,26.824,26.824,0,0,0-6.76,4.807,11.376,11.376,0,0,0-3.055,5.008,7.645,7.645,0,0,0,.426,5.008,11.436,11.436,0,0,0,1.436,2.4,11.435,11.435,0,0,1-1.435-2.4C251.167,415.693,251.092,415.51,251.025,415.318Z" transform="translate(-240.199 -389.19)" opacity="0.1"/>
        <path id="Path_74013" data-name="Path 74013" d="M288.884,412.91a14.531,14.531,0,0,0-6.168-2.4,9.69,9.69,0,0,0-5.842,1.085c-1.753.926-2.5,2.011-2.329,3.263a4.423,4.423,0,0,0,1.461,2.412h0a7.193,7.193,0,0,1,.876-.551,9.681,9.681,0,0,1,5.842-1.077,14.514,14.514,0,0,1,6.168,2.387,14.347,14.347,0,0,1,1.861,1.435l-.442.292q2.2-1.352,1.97-2.98C292.088,415.564,290.97,414.245,288.884,412.91Z" transform="translate(-244.157 -391.706)" opacity="0.1"/>
        <path id="Path_74014" data-name="Path 74014" d="M280.462,428.013a26.857,26.857,0,0,1-12.577-4.29,17.528,17.528,0,0,1-4.4-3.856A7.637,7.637,0,0,1,261.818,416a5.526,5.526,0,0,1,0-.743v5.392a4.388,4.388,0,0,0,0,.467,7.662,7.662,0,0,0,1.669,3.873,17.7,17.7,0,0,0,4.4,3.848,26.087,26.087,0,0,0,6.076,2.963,26.641,26.641,0,0,0,6.5,1.327Z" transform="translate(-242.053 -392.504)" opacity="0.1"/>
        <path id="Path_74015" data-name="Path 74015" d="M306.22,418.769v5.125a22.459,22.459,0,0,0,5.083-.359V418.41A21.986,21.986,0,0,1,306.22,418.769Z" transform="translate(-249.4 -393.025)" opacity="0.1"/>
        <path id="Path_74016" data-name="Path 74016" d="M265.148,438.851a41.2,41.2,0,0,1-9.923-3.656c-.634-.351-1.452-.835-2.454-1.469s-2.036-1.294-3.1-1.986-2.061-1.369-3-2-1.669-1.152-2.137-1.536a17.993,17.993,0,0,1-5.175-6.1,10.85,10.85,0,0,1-1.177-4.891v5.124a10.85,10.85,0,0,0,1.185,4.866,17.969,17.969,0,0,0,5.174,6.093c.492.384,1.2.893,2.137,1.536s1.928,1.31,3,2,2.087,1.36,3.1,1.986,1.819,1.118,2.454,1.477a41.556,41.556,0,0,0,9.923,3.656,49.149,49.149,0,0,0,11.684,1.285V440.12A49.144,49.144,0,0,1,265.148,438.851Z" transform="translate(-238.148 -392.826)" opacity="0.1"/>
        <path id="Path_74017" data-name="Path 74017" d="M308.7,398.39a8.88,8.88,0,0,1,2.988,3.38,5.333,5.333,0,0,1,.367,3.4,6.985,6.985,0,0,1-1.794,3.13,13.3,13.3,0,0,1-3.505,2.6,22.776,22.776,0,0,1-6.677,2.5,21.982,21.982,0,0,1-5.083.359v1.494a3.656,3.656,0,0,1-.593,1.669,8.346,8.346,0,0,1-1.811,1.92,22.053,22.053,0,0,1-3.589,2.278,21.141,21.141,0,0,1-5.934,2.07,24.445,24.445,0,0,1-6.452.351,26.858,26.858,0,0,1-12.577-4.29,17.526,17.526,0,0,1-4.4-3.856,7.636,7.636,0,0,1-1.669-3.864,5.325,5.325,0,0,1,1.093-3.689,11.268,11.268,0,0,1,4.048-3.255,15.957,15.957,0,0,1,5.35-1.911,18.051,18.051,0,0,1,4.448,0l-.568-.367a1.085,1.085,0,0,1-.584-1.093,1.544,1.544,0,0,1,.926-1.085l3.9-2.07a3.956,3.956,0,0,1,1.928-.426,3.288,3.288,0,0,1,1.786.459l13.3,8.713a5.775,5.775,0,0,0,3.472.9,8,8,0,0,0,3.472-.885,3,3,0,0,0,1.744-1.92c.167-.751-.367-1.594-1.6-2.5-1.027-.784-2.153-1.586-3.338-2.387a38.38,38.38,0,0,0-3.689-2.153,34.215,34.215,0,0,0-7.937-2.971,29.21,29.21,0,0,0-8.271-.759,36.246,36.246,0,0,0-8.9,1.669,57.3,57.3,0,0,0-9.84,4.173,26.825,26.825,0,0,0-6.76,4.807,11.376,11.376,0,0,0-3.055,5.008,7.645,7.645,0,0,0,.426,5.008,13.153,13.153,0,0,0,3.614,4.674,18.028,18.028,0,0,0,1.97,1.511c.835.6,1.794,1.219,2.771,1.861s1.936,1.252,2.879,1.836A24.623,24.623,0,0,0,263,426.048a30.511,30.511,0,0,0,7.445,2.562,35.815,35.815,0,0,0,8.346.743,39.319,39.319,0,0,0,8.8-1.26,39.794,39.794,0,0,0,8.83-3.464,56.129,56.129,0,0,0,5.083-2.979,27.537,27.537,0,0,0,3.247-2.5,12.653,12.653,0,0,0,3-4.031,7.692,7.692,0,0,1,.6-1.168,2.988,2.988,0,0,1,1.093-.835l5.375-3.08a4.281,4.281,0,0,1,1.936-.467,2.721,2.721,0,0,1,1.836.543A.835.835,0,0,1,319,411a25.162,25.162,0,0,1-.876,3.647,13.211,13.211,0,0,1-2.329,4.115,29.456,29.456,0,0,1-4.849,4.64,56.585,56.585,0,0,1-8.388,5.266,55.918,55.918,0,0,1-13.061,5.008,55.022,55.022,0,0,1-12.669,1.611,49.141,49.141,0,0,1-11.684-1.294,41.2,41.2,0,0,1-9.923-3.656c-.634-.351-1.452-.835-2.454-1.469s-2.036-1.294-3.1-1.986-2.061-1.369-3-2-1.669-1.152-2.137-1.536a18,18,0,0,1-5.175-6.1,10.725,10.725,0,0,1-.976-6.994,15.723,15.723,0,0,1,4.031-7.353,35.418,35.418,0,0,1,9.857-7.186,67.6,67.6,0,0,1,14.53-5.842A53.115,53.115,0,0,1,279.76,388a41.147,41.147,0,0,1,11.409,1.427,48.255,48.255,0,0,1,9.882,3.939q1.761.985,3.923,2.4C306.467,396.737,307.678,397.605,308.7,398.39Zm-36.856,16.65a14.113,14.113,0,0,0,6.176,2.354,9.673,9.673,0,0,0,5.734-1.043c1.844-.976,2.679-2.078,2.5-3.288s-1.3-2.5-3.388-3.864a14.531,14.531,0,0,0-6.168-2.4,9.69,9.69,0,0,0-5.842,1.085c-1.753.926-2.5,2.011-2.329,3.263S269.812,413.7,271.848,415.04Z" transform="translate(-238.146 -387.994)" fill="#0466c8"/>
      </g>
    </g>
    <g id="freepik--Envelope--inject-75" transform="translate(275.347 281.66)">
      <g id="freepik--Mail--inject-75" transform="translate(0 0)">
        <path id="Path_74018" data-name="Path 74018" d="M324.08,366.351v.609a3.405,3.405,0,0,0,1.536,2.671l33.034,19.079a3.4,3.4,0,0,0,3.08,0l54.7-31.581a3.4,3.4,0,0,0,1.536-2.671v-.609a3.405,3.405,0,0,0-1.536-2.671L383.4,332.107a3.4,3.4,0,0,0-3.08,0l-54.7,31.565A3.405,3.405,0,0,0,324.08,366.351Z" transform="translate(-324.08 -331.713)" fill="#0466c8"/>
        <path id="Path_74019" data-name="Path 74019" d="M324.08,366.351v.609a3.405,3.405,0,0,0,1.536,2.671l33.034,19.079a3.4,3.4,0,0,0,3.08,0l54.7-31.581a3.4,3.4,0,0,0,1.536-2.671v-.609a3.405,3.405,0,0,0-1.536-2.671L383.4,332.107a3.4,3.4,0,0,0-3.08,0l-54.7,31.565A3.405,3.405,0,0,0,324.08,366.351Z" transform="translate(-324.08 -331.713)" fill="#0466c8"/>
        <path id="Path_74020" data-name="Path 74020" d="M360.185,346.09l-34.569,19.955a3.405,3.405,0,0,0-1.536,2.671v.609A3.405,3.405,0,0,0,325.616,372l33.034,19.087a3.188,3.188,0,0,0,1.536.367h0Z" transform="translate(-324.08 -334.087)" opacity="0.2"/>
        <path id="Path_74021" data-name="Path 74021" d="M360.185,346.09l-34.569,19.955a3.405,3.405,0,0,0-1.536,2.671v.609A3.405,3.405,0,0,0,325.616,372l33.034,19.087a3.188,3.188,0,0,0,1.536.367h0Z" transform="translate(-324.08 -334.087)" opacity="0.15"/>
        <path id="Path_74022" data-name="Path 74022" d="M423.584,351.147,390.55,332.077a3.4,3.4,0,0,0-3.08,0L367.34,343.694v45.352h0a3.2,3.2,0,0,0,1.544-.367l54.7-31.581a3.405,3.405,0,0,0,1.536-2.671v-.609a3.405,3.405,0,0,0-1.536-2.671Z" transform="translate(-331.235 -331.708)" opacity="0.2"/>
        <path id="Path_74023" data-name="Path 74023" d="M353.534,381.472l-27.742-16.016a.935.935,0,0,1,0-1.778l54.7-31.581a3.4,3.4,0,0,1,3.08,0L416.6,351.151a.935.935,0,0,1,0,1.778l-9.08,5.241-3.172,1.836-42.448,24.529a3.4,3.4,0,0,1-3.08,0l-2.7-1.552Z" transform="translate(-324.256 -331.711)" fill="#0466c8"/>
        <path id="Path_74024" data-name="Path 74024" d="M378.726,354.864l37.883-3.714-37.557,2.128,4.515-21.2a3.163,3.163,0,0,0-1.669-.351l-7.086,28.652L325.17,364.5a1.035,1.035,0,0,0,.626.96l40.061-2.329L360.332,384.9l7.061-21.85h0l6.844-.4a3.739,3.739,0,0,0,2.262-.943h0a3.689,3.689,0,0,0,1.152-1.986Z" transform="translate(-324.26 -331.71)" opacity="0.15"/>
        <path id="Path_74025" data-name="Path 74025" d="M337.013,363.515l37.8-3.113,1.352-5.417.751-3.013,5.008-20.222a3.055,3.055,0,0,0-1.4.351l-27.35,15.791L325.8,363.673a1.118,1.118,0,0,0-.626.835l7.587-.626Z" transform="translate(-324.26 -331.715)" fill="#fff" opacity="0.3"/>
      </g>
    </g>
  </g>
</svg>
