<svg id="_21" data-name="21" xmlns="http://www.w3.org/2000/svg" width="25.024" height="20.038" viewBox="0 0 25.024 20.038">
  <path id="Path_75595" data-name="Path 75595" d="M4.5,14.019a12.523,12.523,0,0,1,2.88-7.965,1.254,1.254,0,0,0-1.929-1.6,15.027,15.027,0,0,0,0,19.135,1.254,1.254,0,1,0,1.929-1.6A12.523,12.523,0,0,1,4.5,14.019Z" transform="translate(-2.014 -3.999)" fill="#023047"/>
  <circle id="Ellipse_1168" data-name="Ellipse 1168" cx="2.505" cy="2.505" r="2.505" transform="translate(10.001 7.515)" fill="#28cc67"/>
  <path id="Path_75596" data-name="Path 75596" d="M17.542,8.628a1.252,1.252,0,1,0-2.154,1.252,6.261,6.261,0,0,1,0,6.261,1.252,1.252,0,0,0,.426,1.728,1.377,1.377,0,0,0,.651.175,1.252,1.252,0,0,0,1.077-.6,8.841,8.841,0,0,0,0-8.766Z" transform="translate(1.3 -3.017)" fill="#023047"/>
  <path id="Path_75597" data-name="Path 75597" d="M8.9,8.177A1.252,1.252,0,0,0,7.174,8.6a8.841,8.841,0,0,0,0,8.766,1.252,1.252,0,0,0,1.077.651,1.377,1.377,0,0,0,.651-.175,1.252,1.252,0,0,0,.426-1.728,6.261,6.261,0,0,1,0-6.261A1.252,1.252,0,0,0,8.9,8.177Z" transform="translate(-1.005 -2.991)" fill="#023047"/>
  <path id="Path_75598" data-name="Path 75598" d="M19.7,4.451a1.254,1.254,0,1,0-1.929,1.6,12.523,12.523,0,0,1,0,15.929,1.254,1.254,0,0,0,1.929,1.6,15.027,15.027,0,0,0,0-19.135Z" transform="translate(1.888 -3.999)" fill="#023047"/>
</svg>
