<svg id="company" xmlns="http://www.w3.org/2000/svg" width="22.766" height="22.767" viewBox="0 0 22.766 22.767">
  <g id="Group_15137" data-name="Group 15137" transform="translate(14.718 7.386)">
    <g id="Group_15136" data-name="Group 15136">
      <path id="Path_75599" data-name="Path 75599" d="M338.379,180.156h-.711V168.818a.649.649,0,0,0-.454-.627L331,166.11v15.38h7.381a.667.667,0,0,0,0-1.334Zm-2.045,0H335v-2.668h-1.334v2.668h-1.334v-3.335a.66.66,0,0,1,.667-.667h2.668a.66.66,0,0,1,.667.667v3.335Zm-.667-5.336H333a.667.667,0,1,1,0-1.334h2.668a.667.667,0,1,1,0,1.334Zm0-2.668H333a.667.667,0,1,1,0-1.334h2.668a.667.667,0,0,1,0,1.334Z" transform="translate(-330.998 -166.11)" fill="#28cc67"/>
    </g>
  </g>
  <g id="Group_15139" data-name="Group 15139" transform="translate(0 0)">
    <g id="Group_15138" data-name="Group 15138">
      <path id="Path_75600" data-name="Path 75600" d="M12.965,4.042,2.294.04a.674.674,0,0,0-.907.627V21.432H.675a.667.667,0,1,0,0,1.334H13.392V4.669A.668.668,0,0,0,12.965,4.042ZM6.722,21.432H4.054V18.1a.66.66,0,0,1,.667-.667h2v4ZM6.055,16.1H4.721a.667.667,0,0,1,0-1.334H6.055a.667.667,0,1,1,0,1.334Zm0-2.668H4.721a.667.667,0,0,1,0-1.334H6.055a.667.667,0,1,1,0,1.334Zm0-2.668H4.721a.667.667,0,1,1,0-1.334H6.055a.667.667,0,1,1,0,1.334Zm0-2.668H4.721a.667.667,0,0,1,0-1.334H6.055a.667.667,0,0,1,0,1.334Zm4.669,13.339H8.056v-4h2a.66.66,0,0,1,.667.667v3.335ZM10.057,16.1H8.723a.667.667,0,1,1,0-1.334h1.334a.667.667,0,0,1,0,1.334Zm0-2.668H8.723a.667.667,0,1,1,0-1.334h1.334a.667.667,0,0,1,0,1.334Zm0-2.668H8.723a.667.667,0,1,1,0-1.334h1.334a.667.667,0,0,1,0,1.334Zm0-2.668H8.723a.667.667,0,1,1,0-1.334h1.334a.667.667,0,0,1,0,1.334Z" transform="translate(-0.008 0)" fill="#023047"/>
    </g>
  </g>
</svg>
