<svg id="search_1_" data-name="search (1)" xmlns="http://www.w3.org/2000/svg" width="25.106" height="25.106" viewBox="0 0 25.106 25.106">
  <path id="Path_75588" data-name="Path 75588" d="M206.734,317.93a10.265,10.265,0,0,1-7.07.231l-3.506,3.506a8.186,8.186,0,0,0,14.476-6.537q-.245.284-.513.552A10.171,10.171,0,0,1,206.734,317.93Z" transform="translate(-186.541 -299.682)" fill="#28cc67"/>
  <path id="Path_75589" data-name="Path 75589" d="M33.889,75.7a10.233,10.233,0,0,1,.94-8.488,4.76,4.76,0,1,0-1.747,9.3Z" transform="translate(-27.263 -63.716)" fill="#28cc67"/>
  <path id="Path_75590" data-name="Path 75590" d="M1.722,386.931l-.807.807a3.123,3.123,0,0,0,4.416,4.416l.807-.807Z" transform="translate(0 -367.963)" fill="#023047"/>
  <path id="Path_75591" data-name="Path 75591" d="M65.227,278.748a10.274,10.274,0,0,1-4.416-4.416l-4.48,4.48,4.416,4.416Z" transform="translate(-53.57 -260.884)" fill="#023047"/>
  <path id="Path_75592" data-name="Path 75592" d="M169.564,2.567a8.763,8.763,0,1,0,0,12.393,8.736,8.736,0,0,0,0-12.393Zm-1.786,10.607a6.237,6.237,0,1,1,0-8.821,6.2,6.2,0,0,1,0,8.821Z" transform="translate(-147.025 0)" fill="#023047"/>
  <path id="Path_75593" data-name="Path 75593" d="M236.35,87.486a8.194,8.194,0,0,1,9.129.345,4.788,4.788,0,0,0,.25-1.531,4.764,4.764,0,1,0-9.378,1.186Z" transform="translate(-224.622 -77.537)" fill="#023047"/>
  <path id="Path_75594" data-name="Path 75594" d="M259.148,209.417a6.719,6.719,0,0,0-7.844-.3,4.766,4.766,0,0,0,7.393.816A4.824,4.824,0,0,0,259.148,209.417Z" transform="translate(-238.985 -197.803)" fill="#023047"/>
</svg>
