<svg id="calendar" xmlns="http://www.w3.org/2000/svg" width="22.749" height="20.527" viewBox="0 0 22.749 20.527">
  <path id="Path_75601" data-name="Path 75601" d="M22.749,31.4V28.777a2,2,0,0,0-2-2h-.267v2.444a.666.666,0,1,1-1.333,0V25.666a.666.666,0,0,0-1.333,0v1.111H13.374v2.444a.666.666,0,1,1-1.333,0V25.666a.666.666,0,0,0-1.333,0v1.111H6.265v2.444a.666.666,0,1,1-1.333,0V25.666a.666.666,0,0,0-1.333,0v1.111H2a2,2,0,0,0-2,2V31.4Z" transform="translate(0 -25)" fill="#28cc67"/>
  <path id="Path_75602" data-name="Path 75602" d="M0,199v10.8a2,2,0,0,0,2,2h18.75a2,2,0,0,0,2-2V199Zm6.4,9.242H4.976a.666.666,0,1,1,0-1.333H6.4a.666.666,0,1,1,0,1.333Zm0-2.844H4.976a.666.666,0,1,1,0-1.333H6.4a.666.666,0,1,1,0,1.333Zm0-2.844H4.976a.666.666,0,1,1,0-1.333H6.4a.666.666,0,1,1,0,1.333Zm5.687,5.687H10.663a.666.666,0,1,1,0-1.333h1.422a.666.666,0,1,1,0,1.333Zm0-2.844H10.663a.666.666,0,1,1,0-1.333h1.422a.666.666,0,1,1,0,1.333Zm0-2.844H10.663a.666.666,0,1,1,0-1.333h1.422a.666.666,0,1,1,0,1.333Zm5.687,5.687H16.351a.666.666,0,1,1,0-1.333h1.422a.666.666,0,1,1,0,1.333Zm0-2.844H16.351a.666.666,0,1,1,0-1.333h1.422a.666.666,0,1,1,0,1.333Zm0-2.844H16.351a.666.666,0,1,1,0-1.333h1.422a.666.666,0,1,1,0,1.333Z" transform="translate(0 -191.269)" fill="#023047"/>
</svg>
