<svg xmlns="http://www.w3.org/2000/svg" xmlns:xlink="http://www.w3.org/1999/xlink" width="291" height="254.365" viewBox="0 0 291 254.365">
  <defs>
    <clipPath id="clip-path">
      <path id="Path_74138" data-name="Path 74138" d="M270.4,183.78l75.7,23.9a16.823,16.823,0,0,1,6.622,3.895c4.773,4.6,11.895,14.489,5.912,29.076a123.988,123.988,0,0,1-19.417,31.684L267,278.489l14.651-56.557S288.456,197.067,270.4,183.78Z" transform="translate(-267 -183.78)" fill="#fff" stroke="#263238" stroke-linecap="round" stroke-linejoin="round" stroke-width="2"/>
    </clipPath>
  </defs>
  <g id="Mail-bro" transform="translate(-41.497 -71.07)">
    <g id="freepik--background-simple--inject-69" transform="translate(41.497 111.415)">
      <path id="Path_74113" data-name="Path 74113" d="M329.626,234.706q-.352-1.835-.738-3.628c-6.44-30.292-19.41-61.576-42.532-82.955-10.018-9.245-22.131-16.31-35.628-18.855-16.478-3.1-33.611,1.2-48.753,8.436s-28.732,17.238-42.764,26.419c-9.062,5.926-18.644,11.635-29.336,13.357-12.8,2.06-25.9-1.807-38.813-.576-20.247,1.926-38.089,17.027-45.386,36.015s-4.654,41.027,4.963,58.954,25.66,31.888,43.825,41.091c25.132,12.767,54.834,16.76,82.181,9.842,13.357-3.374,26.25-9.28,40-9.526,17.055-.3,33.041,8.134,49.913,10.468,15.86,2.186,32.774-1.406,45.393-11.248C335.355,294.222,334.694,261.04,329.626,234.706Z" transform="translate(-41.497 -128.249)" fill="#4866fc"/>
      <path id="Path_74114" data-name="Path 74114" d="M329.626,234.706q-.352-1.835-.738-3.628c-6.44-30.292-19.41-61.576-42.532-82.955-10.018-9.245-22.131-16.31-35.628-18.855-16.478-3.1-33.611,1.2-48.753,8.436s-28.732,17.238-42.764,26.419c-9.062,5.926-18.644,11.635-29.336,13.357-12.8,2.06-25.9-1.807-38.813-.576-20.247,1.926-38.089,17.027-45.386,36.015s-4.654,41.027,4.963,58.954,25.66,31.888,43.825,41.091c25.132,12.767,54.834,16.76,82.181,9.842,13.357-3.374,26.25-9.28,40-9.526,17.055-.3,33.041,8.134,49.913,10.468,15.86,2.186,32.774-1.406,45.393-11.248C335.355,294.222,334.694,261.04,329.626,234.706Z" transform="translate(-41.497 -128.249)" fill="#fff" opacity="0.7"/>
    </g>
    <g id="freepik--Clouds--inject-69" transform="translate(69.113 129.858)">
      <path id="Path_74115" data-name="Path 74115" d="M359.7,168.2c-2.285-1.251-3.325-.211-4.155-1.251s2.285-3.74-3.951-6.44c0,0-.415-5.821-8.935-6.025s-6.236,5.814-8.52,7.269-2.91-.83-5.2.626-1.244,4.366-3.114,4.78-4.366-1.87-6.65-.415-2.285,2.7-3.325,2.7-3.121-.83-4.366,0-2.7,1.87-2.7,1.87h52.578S361.986,169.413,359.7,168.2Z" transform="translate(-148.498 -154.483)" fill="#fff"/>
      <path id="Path_74116" data-name="Path 74116" d="M359.7,168.2c-2.285-1.251-3.325-.211-4.155-1.251s2.285-3.74-3.951-6.44c0,0-.415-5.821-8.935-6.025s-6.236,5.814-8.52,7.269-2.91-.83-5.2.626-1.244,4.366-3.114,4.78-4.366-1.87-6.65-.415-2.285,2.7-3.325,2.7-3.121-.83-4.366,0-2.7,1.87-2.7,1.87h52.578S361.986,169.413,359.7,168.2Z" transform="translate(-148.498 -154.483)" fill="#fff" opacity="0.5"/>
      <path id="Path_74117" data-name="Path 74117" d="M233.039,364.2c-2.292-1.251-3.325-.211-4.162-1.251s2.285-3.74-3.944-6.44c0,0-.415-5.821-8.935-6.025s-6.236,5.814-8.52,7.269-2.91-.83-5.2.626-1.251,4.366-3.121,4.78-4.366-1.87-6.65-.415-2.285,2.7-3.325,2.7-3.114-.83-4.366,0-2.7,1.87-2.7,1.87H234.7S235.323,365.413,233.039,364.2Z" transform="translate(-110.878 -212.694)" fill="#fff"/>
      <path id="Path_74118" data-name="Path 74118" d="M233.039,364.2c-2.292-1.251-3.325-.211-4.162-1.251s2.285-3.74-3.944-6.44c0,0-.415-5.821-8.935-6.025s-6.236,5.814-8.52,7.269-2.91-.83-5.2.626-1.251,4.366-3.121,4.78-4.366-1.87-6.65-.415-2.285,2.7-3.325,2.7-3.114-.83-4.366,0-2.7,1.87-2.7,1.87H234.7S235.323,365.413,233.039,364.2Z" transform="translate(-110.878 -212.694)" fill="#fff" opacity="0.5"/>
      <path id="Path_74119" data-name="Path 74119" d="M160.459,327.932c-3.578-1.947-5.2-.323-6.5-1.947s3.571-5.856-6.179-10.081c0,0-.647-9.1-13.983-9.427s-9.751,9.1-13.357,11.382-4.548-1.3-8.127.97-1.954,6.833-4.879,7.48-6.826-2.925-10.4-.647-3.578,4.218-5.2,4.218-4.879-1.3-6.826,0S80.78,332.8,80.78,332.8h82.252S164.03,329.908,160.459,327.932Z" transform="translate(-80.78 -199.622)" fill="#fff"/>
      <path id="Path_74120" data-name="Path 74120" d="M160.459,327.932c-3.578-1.947-5.2-.323-6.5-1.947s3.571-5.856-6.179-10.081c0,0-.647-9.1-13.983-9.427s-9.751,9.1-13.357,11.382-4.548-1.3-8.127.97-1.954,6.833-4.879,7.48-6.826-2.925-10.4-.647-3.578,4.218-5.2,4.218-4.879-1.3-6.826,0S80.78,332.8,80.78,332.8h82.252S164.03,329.908,160.459,327.932Z" transform="translate(-80.78 -199.622)" fill="#fff" opacity="0.5"/>
    </g>
    <g id="freepik--Mail--inject-69" transform="translate(86.73 71.57)">
      <path id="Path_74121" data-name="Path 74121" d="M205.442,71.57c-24.542,0-44.5,17.906-45.2,40.226l-19.34,10.594-10.165-9.659-14.679,22.285-10.222-.436,5.244,20.338.457-16.739,7.234,1.357,11.951-12.577,12.2,9.659,19.115-11.951c5.512,17.181,22.841,29.737,43.389,29.737,24.978,0,45.231-18.545,45.231-41.421S230.419,71.57,205.442,71.57Z" transform="translate(-105.84 -71.57)" fill="#263238" stroke="#263238" stroke-linecap="round" stroke-linejoin="round" stroke-width="1"/>
      <rect id="Rectangle_5259" data-name="Rectangle 5259" width="89.788" height="54.623" rx="5.83" transform="translate(53.977 14.489)" fill="#4866fc" stroke="#263238" stroke-linecap="round" stroke-linejoin="round" stroke-width="2"/>
      <path id="Path_74122" data-name="Path 74122" d="M231.1,118.125l41.309-20.9v-.956a4.1,4.1,0,0,0-4.1-4.1H186.719a4.1,4.1,0,0,0-4.1,4.1V97.4l40.556,20.816a8.851,8.851,0,0,0,7.923-.091Z" transform="translate(-128.643 -77.688)" fill="#fff" stroke="#263238" stroke-linecap="round" stroke-linejoin="round" stroke-width="2"/>
      <circle id="Ellipse_1165" data-name="Ellipse 1165" cx="9.216" cy="9.216" r="9.216" transform="translate(130.117 18.128) rotate(-9.26)" fill="#263238"/>
      <path id="Path_74123" data-name="Path 74123" d="M303.848,110.815a1.476,1.476,0,0,1-.33-1.026v-8.2l-1.617.984a.752.752,0,0,1-.429.127.7.7,0,0,1-.562-.26.837.837,0,0,1-.239-.6.808.808,0,0,1,.436-.7l2.946-1.736a1.406,1.406,0,0,1,.7-.218,1.026,1.026,0,0,1,.808.359,1.519,1.519,0,0,1,.309,1.012v9.294a1.406,1.406,0,0,1-.33.977,1.09,1.09,0,0,1-.844.366,1.04,1.04,0,0,1-.851-.373Z" transform="translate(-163.704 -79.77)" fill="#4866fc"/>
    </g>
    <g id="freepik--Mailbox--inject-69" transform="translate(75.988 136.422)">
      <path id="Path_74124" data-name="Path 74124" d="M183.5,280.346s27.769,41.829,34.447,42.532,27.769-21.09,27.769-21.09l-5.976-1.406-19.9,13.455S202.833,292.958,187.887,277Z" transform="translate(-118.162 -197.433)" fill="#fff" stroke="#263238" stroke-linecap="round" stroke-linejoin="round" stroke-width="2"/>
      <path id="Path_74125" data-name="Path 74125" d="M190.356,264s5.568.239,5.329,2.664,0,8.963-1.455,10.18-3.635,1.694-4.12-.7S190.356,264,190.356,264Z" transform="translate(-120.076 -193.572)" fill="#fff" stroke="#263238" stroke-linecap="round" stroke-linejoin="round" stroke-width="2"/>
      <path id="Path_74126" data-name="Path 74126" d="M184.939,275.113s-.246,7.269-.7,7.993-3.881,3.4-6.06,2.91-1.455-2.664-1.455-3.874V263h8.239Z" transform="translate(-116.114 -193.276)" fill="#263238" stroke="#263238" stroke-linecap="round" stroke-linejoin="round" stroke-width="1"/>
      <path id="Path_74127" data-name="Path 74127" d="M171.909,283.671s-1.694,3.149-.246,5.575,5.575,2.425,7.276,1.209.478-2.9-.97-3.388-3.4-1.7-3.4-3.149S172.633,282.715,171.909,283.671Z" transform="translate(-114.472 -199.183)" fill="#fff" stroke="#263238" stroke-linecap="round" stroke-linejoin="round" stroke-width="2"/>
      <path id="Path_74128" data-name="Path 74128" d="M170.39,276.959c0,1.659.281,4.443,1.589,5.624,1.476,1.3,8.267,1.406,11.248-.583s1-5.413-1.258-5.2a26.872,26.872,0,0,1-5.772-.513c-1.069-.134-4.837-.97-5.575-.19a1.216,1.216,0,0,0-.2.837Z" transform="translate(-114.268 -197.069)" fill="#fff" stroke="#263238" stroke-linecap="round" stroke-linejoin="round" stroke-width="2"/>
      <path id="Path_74129" data-name="Path 74129" d="M169.141,268.43c-.232,1.673-.337,4.5,1.033,5.722,1.554,1.406,9.6,1.8,13.406-.056s2-5.42-.7-5.3a36.625,36.625,0,0,1-6.763-.8c-1.244-.183-5.624-1.2-6.587-.45a1.237,1.237,0,0,0-.373.837Z" transform="translate(-113.856 -194.544)" fill="#fff" stroke="#263238" stroke-linecap="round" stroke-linejoin="round" stroke-width="2"/>
      <path id="Path_74130" data-name="Path 74130" d="M169.53,256.774c-.6,1.582-1.329,4.316-.26,5.814,1.216,1.694,8.97,3.874,13.083,2.9s3.156-4.844.485-5.329a36.3,36.3,0,0,1-6.418-2.271c-1.174-.457-5.188-2.411-6.327-1.9a1.223,1.223,0,0,0-.541.7Z" transform="translate(-113.774 -191.169)" fill="#fff" stroke="#263238" stroke-linecap="round" stroke-linejoin="round" stroke-width="2"/>
      <path id="Path_74131" data-name="Path 74131" d="M261.57,394.986,283.715,312.2h7.494L267.7,395.668" transform="translate(-141.348 -207.888)" fill="#263238" stroke="#263238" stroke-linecap="round" stroke-linejoin="round" stroke-width="1"/>
      <path id="Path_74132" data-name="Path 74132" d="M278.825,386.927l21.449-75.207-6.475.337L270.29,395.525" transform="translate(-143.938 -207.745)" fill="#fff" stroke="#263238" stroke-linecap="round" stroke-linejoin="round" stroke-width="2"/>
      <line id="Line_1" data-name="Line 1" y1="3.473" x2="0.991" transform="translate(132.827 182.943)" fill="none" stroke="#263238" stroke-linecap="round" stroke-linejoin="round" stroke-width="2"/>
      <path id="Path_74133" data-name="Path 74133" d="M240.5,331.568s2.425,3.635,5.336,4.12,33.681-23.747,33.681-23.747l-12.6,1.448Z" transform="translate(-135.091 -207.811)" fill="#fff" stroke="#263238" stroke-linecap="round" stroke-linejoin="round" stroke-width="2"/>
      <path id="Path_74134" data-name="Path 74134" d="M212.71,253.851s5.793-48.036,18.742-64.733c14.151-18.278,42.588-3.4,36.8,25.892-4.443,22.5-17.378,62.687-17.378,62.687Z" transform="translate(-126.837 -168.956)" fill="#4866fc" stroke="#263238" stroke-linecap="round" stroke-linejoin="round" stroke-width="2"/>
      <path id="Path_74135" data-name="Path 74135" d="M270.4,183.78l75.7,23.9a16.823,16.823,0,0,1,6.622,3.895c4.773,4.6,11.895,14.489,5.912,29.076a123.988,123.988,0,0,1-19.417,31.684L267,278.489l14.651-56.557S288.456,197.067,270.4,183.78Z" transform="translate(-142.961 -169.748)" fill="#fff"/>
      <g id="Group_14852" data-name="Group 14852" transform="translate(124.039 14.032)" clip-path="url(#clip-path)">
        <path id="Path_74136" data-name="Path 74136" d="M305.9,271.429c-18.208,8.534-27.944,7.03-32.788,4.57L267,299.6l72.227-6.13a123.987,123.987,0,0,0,19.417-31.684,31.416,31.416,0,0,0,1.786-5.891C342.875,251.759,328.956,260.624,305.9,271.429Z" transform="translate(-267 -204.89)" fill="#4866fc"/>
        <path id="Path_74137" data-name="Path 74137" d="M305.9,271.429c-18.208,8.534-27.944,7.03-32.788,4.57L267,299.6l72.227-6.13a123.987,123.987,0,0,0,19.417-31.684,31.416,31.416,0,0,0,1.786-5.891C342.875,251.759,328.956,260.624,305.9,271.429Z" transform="translate(-267 -204.89)" fill="#fff" opacity="0.5"/>
      </g>
      <path id="Path_74139" data-name="Path 74139" d="M270.4,183.78l75.7,23.9a16.823,16.823,0,0,1,6.622,3.895c4.773,4.6,11.895,14.489,5.912,29.076a123.988,123.988,0,0,1-19.417,31.684L267,278.489l14.651-56.557S288.456,197.067,270.4,183.78Z" transform="translate(-142.961 -169.748)" fill="none" stroke="#263238" stroke-linecap="round" stroke-linejoin="round" stroke-width="2"/>
      <path id="Path_74140" data-name="Path 74140" d="M325.007,193.92l-11.853,36.992a6.907,6.907,0,0,0-4.963,4.45c-1.35,3.388-.3,6.995,2.341,8.049s5.884-.844,7.234-4.218c1.111-2.812.6-5.722-1.1-7.262l8.338-28.486,11.628,3.965,3.178-8.19Z" transform="translate(-155.02 -172.759)" fill="#263238" stroke="#263238" stroke-linecap="round" stroke-linejoin="round" stroke-width="1"/>
      <path id="Path_74141" data-name="Path 74141" d="M229.33,240.083s5.287,5.821,5.554,8.724-4.492,10.545-4.492,10.545,9.779,6.081,19.03,1.849S263.166,239,263.166,239s-11.1,5.287-15.332,5.287S229.33,240.083,229.33,240.083Z" transform="translate(-131.773 -186.148)" fill="#263238" stroke="#263238" stroke-linecap="round" stroke-linejoin="round" stroke-width="1"/>
      <path id="Path_74142" data-name="Path 74142" d="M254.5,267.107a17.4,17.4,0,0,0,6.573-5.968,2.938,2.938,0,0,0-2.341-2.221c-5.554-1.062-11.368,5.019-11.368,5.019a17.648,17.648,0,0,0-.942,4.64A17.188,17.188,0,0,0,254.5,267.107Z" transform="translate(-136.849 -192.026)" fill="#4866fc" stroke="#263238" stroke-linecap="round" stroke-linejoin="round" stroke-width="1"/>
      <path id="Path_74143" data-name="Path 74143" d="M242.2,262.868a19.291,19.291,0,0,1-8.506-2.348c-1.286,2.714-2.861,5.251-2.861,5.251s9.779,6.081,19.03,1.849a16.773,16.773,0,0,0,6.215-5.476A108.008,108.008,0,0,1,242.2,262.868Z" transform="translate(-132.219 -192.539)" fill="#fff" stroke="#263238" stroke-linecap="round" stroke-linejoin="round" stroke-width="1"/>
      <path id="Path_74144" data-name="Path 74144" d="M247.833,244.315c-4.218,0-18.5-4.218-18.5-4.218a40.949,40.949,0,0,1,4.612,6.208c3.515,1.406,9.694,3.578,14.686,3.578a22.833,22.833,0,0,0,12.106-3.606A61.928,61.928,0,0,0,263.166,239S252.065,244.315,247.833,244.315Z" transform="translate(-131.773 -186.148)" fill="#fff" stroke="#263238" stroke-linecap="round" stroke-linejoin="round" stroke-width="1"/>
      <path id="Path_74145" data-name="Path 74145" d="M254.15,226.665s1.589-5.547,6.081-6.081,5.814,2.643,5.814,2.643S257.56,223.228,254.15,226.665Z" transform="translate(-139.145 -180.66)" fill="#263238"/>
      <line id="Line_2" data-name="Line 2" x2="6.608" y2="2.383" transform="translate(127.955 51.292)" fill="none" stroke="#263238" stroke-linecap="round" stroke-linejoin="round" stroke-width="1"/>
      <path id="Path_74146" data-name="Path 74146" d="M242.434,220.167c-.33,1.863-1.181,3.276-1.905,3.149s-1.026-1.743-.7-3.613,1.188-3.283,1.905-3.157S242.771,218.269,242.434,220.167Z" transform="translate(-134.852 -179.477)" fill="#263238"/>
      <path id="Path_74147" data-name="Path 74147" d="M255.585,216.057s-.26-3.171,6.608-3.171,8.2-.794,5.554-4.218S254,207.073,255.585,216.057Z" transform="translate(-139.525 -176.66)" fill="#263238"/>
      <path id="Path_74148" data-name="Path 74148" d="M246.966,202.635s-.527-4.5-4.752-4.5-6.615,5.026-6.875,3.438a7.733,7.733,0,0,1,7.135-7.663C248.288,193.384,246.966,202.635,246.966,202.635Z" transform="translate(-133.55 -172.75)" fill="#263238"/>
      <path id="Path_74149" data-name="Path 74149" d="M288.647,201.11a29.788,29.788,0,0,1,2.039,8.907c1.687,19.283-15.466,71.847-15.466,71.847" transform="translate(-145.402 -174.894)" fill="none" stroke="#263238" stroke-linecap="round" stroke-linejoin="round" stroke-width="1"/>
      <path id="Path_74150" data-name="Path 74150" d="M284.87,190.11a10.313,10.313,0,0,1,3.888,3.093" transform="translate(-148.268 -171.628)" fill="none" stroke="#263238" stroke-linecap="round" stroke-linejoin="round" stroke-width="1"/>
      <path id="Path_74151" data-name="Path 74151" d="M368.632,302.8c-1.673,2.517-2.812,4.218-2.812,4.218" transform="translate(-172.31 -205.096)" fill="none" stroke="#263238" stroke-linecap="round" stroke-linejoin="round" stroke-width="1"/>
      <path id="Path_74152" data-name="Path 74152" d="M373.552,217.21s12.781,7.234,14.468,17.842-2.411,16.169-4.823,21.941c-1.406,3.311-6.165,10.9-10,16.774" transform="translate(-174.502 -179.676)" fill="none" stroke="#263238" stroke-linecap="round" stroke-linejoin="round" stroke-width="1"/>
      <path id="Path_74153" data-name="Path 74153" d="M231.76,275.66s3.824,3.817,12.415,2.861C244.175,278.521,235.584,282.339,231.76,275.66Z" transform="translate(-132.495 -197.035)" fill="#263238"/>
      <path id="Path_74154" data-name="Path 74154" d="M121.94,243.837s22.377-11.733,63.221-4.541a7.206,7.206,0,0,0,8.338-5.828l.591-3.3a7.206,7.206,0,0,0-4.141-7.846C179.1,217.453,153.863,203.941,140.6,178.9Z" transform="translate(-99.879 -168.298)" fill="#4866fc" stroke="#263238" stroke-linecap="round" stroke-linejoin="round" stroke-width="2"/>
      <path id="Path_74155" data-name="Path 74155" d="M150.37,198.24s10.925,17.139,29.062,23.347" transform="translate(-108.322 -174.042)" fill="none" stroke="#fff" stroke-linecap="round" stroke-linejoin="round" stroke-width="2"/>
      <path id="Path_74156" data-name="Path 74156" d="M208.692,236.375a124.022,124.022,0,0,1-18.215-10.165c1.905,6.088,2.453,15.29-5.427,24.985a151.927,151.927,0,0,1,18.855,2.151,7.206,7.206,0,0,0,8.338-5.828l.591-3.3A7.206,7.206,0,0,0,208.692,236.375Z" transform="translate(-118.622 -182.349)" fill="#263238" stroke="#263238" stroke-linecap="round" stroke-linejoin="round" stroke-width="1"/>
      <ellipse id="Ellipse_1166" data-name="Ellipse 1166" cx="38.665" cy="14.904" rx="38.665" ry="14.904" transform="translate(0 73.808) rotate(-72.64)" fill="#263238" stroke="#263238" stroke-linecap="round" stroke-linejoin="round" stroke-width="1"/>
      <ellipse id="Ellipse_1167" data-name="Ellipse 1167" cx="34.785" cy="12.492" rx="34.785" ry="12.492" transform="translate(2.586 70.555) rotate(-72.64)" fill="#fff" stroke="#263238" stroke-linecap="round" stroke-linejoin="round" stroke-width="1"/>
      <path id="Path_74157" data-name="Path 74157" d="M141.849,212.484l-6.538-.344-4.921,16.746,5.2,3.747a96.859,96.859,0,0,0,6.264-20.148Z" transform="translate(-102.388 -178.17)" fill="#263238" stroke="#263238" stroke-linecap="round" stroke-linejoin="round" stroke-width="1"/>
      <path id="Path_74158" data-name="Path 74158" d="M135.152,221.318c-1.35,4.626-3.7,8.007-5.266,7.55s-1.722-4.57-.373-9.2,3.712-8.007,5.266-7.55S136.5,216.7,135.152,221.318Z" transform="translate(-101.857 -178.153)" fill="#fff" stroke="#263238" stroke-linecap="round" stroke-linejoin="round" stroke-width="1"/>
      <path id="Path_74159" data-name="Path 74159" d="M228.28,307.469c-3.635-1.694-33.442-54.764-35.15-57.646s-1.209-7.03.485-10.9,1.694-11.15.7-12.6-3.958-2.939-3.958-2.939.569-.7,1.779-2.144,4.12-.485,4.12-.485c2.179-1.7,4.127,1.069,4.127,1.069,2.425-1.455,3.628,1.35,3.628,1.35a5.625,5.625,0,0,1,2.425.7c2.018,1.308,1.694,7.03,1.694,7.03s2.179.485,2.664,1.94a12.036,12.036,0,0,1-.485,7.03c-.97,2.425-7.03,9.694-7.03,9.694l30.046,51.615" transform="translate(-120.199 -180.562)" fill="#fff" stroke="#263238" stroke-linecap="round" stroke-linejoin="round" stroke-width="2"/>
      <path id="Path_74160" data-name="Path 74160" d="M198.8,221s3.48,2.243,3.48,4.218a38.057,38.057,0,0,0,.387,4.555" transform="translate(-122.706 -180.802)" fill="none" stroke="#263238" stroke-linecap="round" stroke-linejoin="round" stroke-width="1"/>
      <path id="Path_74161" data-name="Path 74161" d="M204.67,222.47s2.109,2.214,2.214,3.515.394,5.336.394,5.336" transform="translate(-124.449 -181.238)" fill="none" stroke="#263238" stroke-linecap="round" stroke-linejoin="round" stroke-width="1"/>
      <path id="Path_74162" data-name="Path 74162" d="M209.83,224.39a6.91,6.91,0,0,1,1.188,3.6,37.714,37.714,0,0,0,.26,4.035" transform="translate(-125.982 -181.809)" fill="none" stroke="#263238" stroke-linecap="round" stroke-linejoin="round" stroke-width="1"/>
      <path id="Path_74163" data-name="Path 74163" d="M215.69,235.42s.977,6.257.583,7.564" transform="translate(-127.722 -185.084)" fill="none" stroke="#263238" stroke-linecap="round" stroke-linejoin="round" stroke-width="1"/>
    </g>
  </g>
</svg>
