<svg xmlns="http://www.w3.org/2000/svg" width="99.508" height="91.531" viewBox="0 0 99.508 91.531">
  <g id="House_searching-bro" data-name="House searching-bro" transform="translate(-87.23 -86.157)">
    <g id="freepik--Clouds--inject-102" transform="translate(93.224 86.157)">
      <path id="Path_73987" data-name="Path 73987" d="M144.777,95.875c-1.618-.884-2.354-.148-2.942-.884s1.618-2.65-2.789-4.563c0,0-.293-4.12-6.328-4.267s-4.421,4.136-6.041,5.154-2.061-.588-3.679.441-.884,3.09-2.209,3.386-3.09-1.325-4.711-.3-1.618,1.916-2.354,1.916-2.209-.591-3.09,0-1.913,1.325-1.913,1.325h37.24A1.907,1.907,0,0,0,144.777,95.875Z" transform="translate(-108.72 -86.157)" fill="#4866fc"/>
      <path id="Path_73988" data-name="Path 73988" d="M144.777,95.875c-1.618-.884-2.354-.148-2.942-.884s1.618-2.65-2.789-4.563c0,0-.293-4.12-6.328-4.267s-4.421,4.136-6.041,5.154-2.061-.588-3.679.441-.884,3.09-2.209,3.386-3.09-1.325-4.711-.3-1.618,1.916-2.354,1.916-2.209-.591-3.09,0-1.913,1.325-1.913,1.325h37.24A1.907,1.907,0,0,0,144.777,95.875Z" transform="translate(-108.72 -86.157)" fill="#fff" opacity="0.5"/>
      <path id="Path_73989" data-name="Path 73989" d="M287.709,127.187c-1.04-.558-1.514-.095-1.891-.558s1.04-1.7-1.8-2.931c0,0-.19-2.65-4.067-2.744s-2.836,2.65-3.877,3.311-1.325-.379-2.365.279-.558,1.986-1.42,2.176-1.986-.853-3.023-.19-1.04,1.227-1.515,1.227-1.42-.377-1.986,0-1.23.853-1.23.853h23.925A1.224,1.224,0,0,0,287.709,127.187Z" transform="translate(-221.08 -111.247)" fill="#fff"/>
    </g>
    <g id="freepik--House--inject-102" transform="translate(87.23 107.163)">
      <rect id="Rectangle_5160" data-name="Rectangle 5160" width="75.995" height="23.981" transform="translate(6.934 22.019)" fill="#fff"/>
      <path id="Path_73990" data-name="Path 73990" d="M187.724,264.165H111.729a.139.139,0,0,1-.139-.139V240.039a.139.139,0,0,1,.139-.139h75.995a.139.139,0,0,1,.139.139v23.986A.139.139,0,0,1,187.724,264.165Zm-75.864-.279h75.724V240.179H111.869Z" transform="translate(-104.796 -218.026)" fill="#263238"/>
      <path id="Path_73991" data-name="Path 73991" d="M150.708,161.97l-37.9,21.88H188.6Z" transform="translate(-105.675 -161.831)" fill="#4866fc"/>
      <path id="Path_73992" data-name="Path 73992" d="M188.247,183.632H112.453a.139.139,0,0,1-.07-.259l37.9-21.88a.139.139,0,0,1,.139,0l37.9,21.883a.137.137,0,0,1,.067.156A.139.139,0,0,1,188.247,183.632Zm-75.272-.279h74.748l-37.374-21.579Z" transform="translate(-105.319 -161.473)" fill="#263238"/>
      <rect id="Rectangle_5161" data-name="Rectangle 5161" width="18.807" height="25.93" transform="translate(41.524 20.07)" fill="#fff"/>
      <path id="Path_73993" data-name="Path 73993" d="M254.556,259.118H235.749a.139.139,0,0,1-.139-.139V233.039a.139.139,0,0,1,.139-.139h18.807a.142.142,0,0,1,.139.139v25.939A.139.139,0,0,1,254.556,259.118Zm-18.667-.279h18.517v-25.66H235.889Z" transform="translate(-194.225 -212.978)" fill="#263238"/>
      <rect id="Rectangle_5162" data-name="Rectangle 5162" width="18.807" height="1.102" transform="translate(41.524 20.07)" fill="#263238"/>
      <path id="Path_73994" data-name="Path 73994" d="M254.556,234.285H235.749a.139.139,0,0,1-.139-.139v-1.116a.139.139,0,0,1,.139-.139h18.807a.142.142,0,0,1,.139.139v1.116A.142.142,0,0,1,254.556,234.285Zm-18.667-.279h18.517v-.837H235.889Z" transform="translate(-194.225 -212.971)" fill="#263238"/>
      <path id="Path_73995" data-name="Path 73995" d="M262.388,272.354H253V256.147a4.694,4.694,0,0,1,4.694-4.7h0a4.7,4.7,0,0,1,4.7,4.7Z" transform="translate(-206.765 -226.355)" fill="#263238"/>
      <path id="Path_73996" data-name="Path 73996" d="M262.024,271.832h-9.388a.14.14,0,0,1-.139-.14V255.486a4.836,4.836,0,1,1,9.67,0v16.207a.14.14,0,0,1-.142.14Zm-9.251-.279h9.112V255.486a4.557,4.557,0,1,0-9.112,0Z" transform="translate(-206.401 -225.693)" fill="#263238"/>
      <rect id="Rectangle_5163" data-name="Rectangle 5163" width="43.56" height="19.78" transform="translate(1.478 26.219)" fill="#fff"/>
      <path id="Path_73997" data-name="Path 73997" d="M135.73,275.039H92.169a.139.139,0,0,1-.139-.139v-19.78a.139.139,0,0,1,.139-.139h43.56a.139.139,0,0,1,.139.139V274.9A.139.139,0,0,1,135.73,275.039ZM92.3,274.76h43.29v-19.5H92.3Z" transform="translate(-90.691 -228.9)" fill="#263238"/>
      <rect id="Rectangle_5164" data-name="Rectangle 5164" width="43.56" height="0.881" transform="translate(1.478 26.219)" fill="#263238"/>
      <path id="Path_73998" data-name="Path 73998" d="M135.73,256.14H92.169A.139.139,0,0,1,92.03,256v-.881a.139.139,0,0,1,.139-.139h43.56a.139.139,0,0,1,.139.139V256A.139.139,0,0,1,135.73,256.14ZM92.3,255.861h43.29v-.6H92.3Z" transform="translate(-90.691 -228.9)" fill="#263238"/>
      <rect id="Rectangle_5165" data-name="Rectangle 5165" width="33.974" height="18.149" transform="translate(6.27 27.851)" fill="#4866fc"/>
      <path id="Path_73999" data-name="Path 73999" d="M143.324,279.258H109.349a.139.139,0,0,1-.139-.139V260.969a.139.139,0,0,1,.139-.139h33.974a.139.139,0,0,1,.139.139v18.149A.139.139,0,0,1,143.324,279.258Zm-33.835-.279h33.69v-17.87h-33.69Z" transform="translate(-103.08 -233.118)" fill="#263238"/>
      <path id="Path_74000" data-name="Path 74000" d="M110.849,203.59,87.73,216.939h46.238Z" transform="translate(-87.591 -191.843)" fill="#4866fc"/>
      <path id="Path_74001" data-name="Path 74001" d="M133.611,216.77H87.373a.139.139,0,0,1-.07-.259l23.119-13.349a.139.139,0,0,1,.139,0l23.119,13.329a.139.139,0,0,1-.07.259Zm-45.716-.279h45.183l-22.592-13.047Z" transform="translate(-87.234 -191.521)" fill="#263238"/>
      <rect id="Rectangle_5166" data-name="Rectangle 5166" width="46.235" height="1.124" transform="translate(0.139 25.095)" fill="#fff"/>
      <path id="Path_74002" data-name="Path 74002" d="M133.607,252.395H87.369a.139.139,0,0,1-.139-.139v-1.116a.139.139,0,0,1,.139-.139h46.238a.139.139,0,0,1,.139.139v1.116A.139.139,0,0,1,133.607,252.395Zm-46.1-.279h45.956v-.837H87.509Z" transform="translate(-87.23 -226.03)" fill="#263238"/>
      <path id="Path_74003" data-name="Path 74003" d="M238.871,206.45,226.9,213.361h23.944Z" transform="translate(-187.945 -193.905)" fill="#4866fc"/>
      <path id="Path_74004" data-name="Path 74004" d="M250.479,213.133H226.534a.139.139,0,0,1-.137-.1.137.137,0,0,1,.067-.156l11.971-6.917a.153.153,0,0,1,.139,0l11.974,6.917a.139.139,0,0,1-.07.259Zm-23.428-.279h22.9l-11.449-6.619Z" transform="translate(-187.579 -193.538)" fill="#263238"/>
      <rect id="Rectangle_5167" data-name="Rectangle 5167" width="23.944" height="1.11" transform="translate(38.955 19.456)" fill="#fff"/>
      <path id="Path_74005" data-name="Path 74005" d="M250.484,232.1H226.539a.139.139,0,0,1-.139-.139V230.85a.139.139,0,0,1,.139-.139h23.944a.139.139,0,0,1,.139.139v1.116A.139.139,0,0,1,250.484,232.1Zm-23.805-.279h23.666v-.837H226.679Z" transform="translate(-187.584 -211.399)" fill="#263238"/>
      <rect id="Rectangle_5168" data-name="Rectangle 5168" width="2.75" height="2.75" transform="translate(7.508 29.31)" fill="#fff"/>
      <path id="Path_74006" data-name="Path 74006" d="M116.53,269.089h-2.75a.139.139,0,0,1-.139-.139V266.2a.139.139,0,0,1,.139-.139h2.75a.139.139,0,0,1,.139.139v2.75A.139.139,0,0,1,116.53,269.089Zm-2.611-.279h2.471v-2.471h-2.471Z" transform="translate(-106.274 -236.89)" fill="#263238"/>
      <rect id="Rectangle_5169" data-name="Rectangle 5169" width="2.75" height="2.75" transform="translate(11.636 29.31)" fill="#fff"/>
      <path id="Path_74007" data-name="Path 74007" d="M131.376,269.089h-2.736a.139.139,0,0,1-.139-.139V266.2a.139.139,0,0,1,.139-.139h2.75a.139.139,0,0,1,.139.139v2.75a.139.139,0,0,1-.153.139Zm-2.611-.279h2.471v-2.471h-2.471Z" transform="translate(-116.989 -236.89)" fill="#263238"/>
      <rect id="Rectangle_5170" data-name="Rectangle 5170" width="2.75" height="2.75" transform="translate(15.761 29.31)" fill="#fff"/>
      <path id="Path_74008" data-name="Path 74008" d="M146.132,269.089h-2.753a.139.139,0,0,1-.139-.139V266.2a.139.139,0,0,1,.139-.139h2.753a.139.139,0,0,1,.139.139v2.75A.139.139,0,0,1,146.132,269.089Zm-2.613-.279h2.474v-2.471h-2.474Z" transform="translate(-127.618 -236.89)" fill="#263238"/>
      <rect id="Rectangle_5171" data-name="Rectangle 5171" width="2.75" height="2.75" transform="translate(19.889 29.31)" fill="#fff"/>
      <path id="Path_74009" data-name="Path 74009" d="M160.932,269.089h-2.753a.139.139,0,0,1-.139-.139V266.2a.139.139,0,0,1,.139-.139h2.753a.139.139,0,0,1,.139.139v2.75A.139.139,0,0,1,160.932,269.089Zm-2.613-.279h2.474v-2.471h-2.485Z" transform="translate(-138.29 -236.89)" fill="#263238"/>
      <rect id="Rectangle_5172" data-name="Rectangle 5172" width="2.75" height="2.75" transform="translate(24.017 29.31)" fill="#fff"/>
      <path id="Path_74010" data-name="Path 74010" d="M175.73,269.089h-2.75a.139.139,0,0,1-.139-.139V266.2a.139.139,0,0,1,.139-.139h2.75a.139.139,0,0,1,.139.139v2.75A.139.139,0,0,1,175.73,269.089Zm-2.611-.279h2.471v-2.471h-2.471Z" transform="translate(-148.963 -236.89)" fill="#263238"/>
      <rect id="Rectangle_5173" data-name="Rectangle 5173" width="2.75" height="2.75" transform="translate(28.142 29.31)" fill="#fff"/>
      <path id="Path_74011" data-name="Path 74011" d="M190.522,269.089h-2.753a.139.139,0,0,1-.139-.139V266.2a.139.139,0,0,1,.139-.139h2.753a.139.139,0,0,1,.139.139v2.75A.139.139,0,0,1,190.522,269.089Zm-2.613-.279h2.474v-2.471h-2.474Z" transform="translate(-159.627 -236.89)" fill="#263238"/>
      <rect id="Rectangle_5174" data-name="Rectangle 5174" width="2.75" height="2.75" transform="translate(32.27 29.31)" fill="#fff"/>
      <path id="Path_74012" data-name="Path 74012" d="M205.322,269.089h-2.753a.139.139,0,0,1-.139-.139V266.2a.139.139,0,0,1,.139-.139h2.753a.139.139,0,0,1,.139.139v2.75A.139.139,0,0,1,205.322,269.089Zm-2.613-.279h2.474v-2.471h-2.474Z" transform="translate(-170.3 -236.89)" fill="#263238"/>
      <rect id="Rectangle_5175" data-name="Rectangle 5175" width="2.75" height="2.75" transform="translate(36.398 29.31)" fill="#fff"/>
      <path id="Path_74013" data-name="Path 74013" d="M220.12,269.089h-2.75a.139.139,0,0,1-.139-.139V266.2a.139.139,0,0,1,.139-.139h2.75a.139.139,0,0,1,.139.139v2.75A.139.139,0,0,1,220.12,269.089Zm-2.611-.279h2.471v-2.471h-2.471Z" transform="translate(-180.972 -236.89)" fill="#263238"/>
      <rect id="Rectangle_5176" data-name="Rectangle 5176" width="2.75" height="2.75" transform="translate(7.508 33.36)" fill="#fff"/>
      <path id="Path_74014" data-name="Path 74014" d="M116.53,283.609h-2.75a.139.139,0,0,1-.139-.139v-2.75a.139.139,0,0,1,.139-.139h2.75a.139.139,0,0,1,.139.139v2.75A.139.139,0,0,1,116.53,283.609Zm-2.611-.279h2.471v-2.471h-2.471Z" transform="translate(-106.274 -247.36)" fill="#263238"/>
      <rect id="Rectangle_5177" data-name="Rectangle 5177" width="2.75" height="2.75" transform="translate(11.636 33.36)" fill="#fff"/>
      <path id="Path_74015" data-name="Path 74015" d="M131.376,283.609h-2.736a.139.139,0,0,1-.139-.139v-2.75a.139.139,0,0,1,.139-.139h2.75a.139.139,0,0,1,.139.139v2.75a.139.139,0,0,1-.153.139Zm-2.611-.279h2.471v-2.471h-2.471Z" transform="translate(-116.989 -247.36)" fill="#263238"/>
      <rect id="Rectangle_5178" data-name="Rectangle 5178" width="2.75" height="2.75" transform="translate(15.761 33.36)" fill="#fff"/>
      <path id="Path_74016" data-name="Path 74016" d="M146.132,283.609h-2.753a.139.139,0,0,1-.139-.139v-2.75a.139.139,0,0,1,.139-.139h2.753a.139.139,0,0,1,.139.139v2.75A.139.139,0,0,1,146.132,283.609Zm-2.613-.279h2.474v-2.471h-2.474Z" transform="translate(-127.618 -247.36)" fill="#263238"/>
      <rect id="Rectangle_5179" data-name="Rectangle 5179" width="2.75" height="2.75" transform="translate(19.889 33.36)" fill="#fff"/>
      <path id="Path_74017" data-name="Path 74017" d="M160.932,283.609h-2.753a.139.139,0,0,1-.139-.139v-2.75a.139.139,0,0,1,.139-.139h2.753a.139.139,0,0,1,.139.139v2.75A.139.139,0,0,1,160.932,283.609Zm-2.613-.279h2.474v-2.471h-2.485Z" transform="translate(-138.29 -247.36)" fill="#263238"/>
      <rect id="Rectangle_5180" data-name="Rectangle 5180" width="2.75" height="2.75" transform="translate(24.017 33.36)" fill="#fff"/>
      <path id="Path_74018" data-name="Path 74018" d="M175.73,283.609h-2.75a.139.139,0,0,1-.139-.139v-2.75a.139.139,0,0,1,.139-.139h2.75a.139.139,0,0,1,.139.139v2.75A.139.139,0,0,1,175.73,283.609Zm-2.611-.279h2.471v-2.471h-2.471Z" transform="translate(-148.963 -247.36)" fill="#263238"/>
      <rect id="Rectangle_5181" data-name="Rectangle 5181" width="2.75" height="2.75" transform="translate(28.142 33.36)" fill="#fff"/>
      <path id="Path_74019" data-name="Path 74019" d="M190.522,283.609h-2.753a.139.139,0,0,1-.139-.139v-2.75a.139.139,0,0,1,.139-.139h2.753a.139.139,0,0,1,.139.139v2.75A.139.139,0,0,1,190.522,283.609Zm-2.613-.279h2.474v-2.471h-2.474Z" transform="translate(-159.627 -247.36)" fill="#263238"/>
      <rect id="Rectangle_5182" data-name="Rectangle 5182" width="2.75" height="2.75" transform="translate(32.27 33.36)" fill="#fff"/>
      <path id="Path_74020" data-name="Path 74020" d="M205.322,283.609h-2.753a.14.14,0,0,1-.139-.139v-2.75a.139.139,0,0,1,.139-.139h2.753a.139.139,0,0,1,.139.139v2.75A.139.139,0,0,1,205.322,283.609Zm-2.613-.279h2.474v-2.471h-2.474Z" transform="translate(-170.3 -247.36)" fill="#263238"/>
      <rect id="Rectangle_5183" data-name="Rectangle 5183" width="2.75" height="2.75" transform="translate(36.398 33.36)" fill="#fff"/>
      <path id="Path_74021" data-name="Path 74021" d="M220.12,283.609h-2.75a.139.139,0,0,1-.139-.139v-2.75a.139.139,0,0,1,.139-.139h2.75a.139.139,0,0,1,.139.139v2.75A.139.139,0,0,1,220.12,283.609Zm-2.611-.279h2.471v-2.471h-2.471Z" transform="translate(-180.972 -247.36)" fill="#263238"/>
      <rect id="Rectangle_5184" data-name="Rectangle 5184" width="2.75" height="2.75" transform="translate(7.508 37.407)" fill="#fff"/>
      <path id="Path_74022" data-name="Path 74022" d="M116.53,298.162h-2.75a.139.139,0,0,1-.139-.139v-2.753a.139.139,0,0,1,.139-.139h2.75a.139.139,0,0,1,.139.139v2.753A.139.139,0,0,1,116.53,298.162Zm-2.611-.279h2.471v-2.474h-2.471Z" transform="translate(-106.274 -257.852)" fill="#263238"/>
      <rect id="Rectangle_5185" data-name="Rectangle 5185" width="2.75" height="2.75" transform="translate(11.636 37.407)" fill="#fff"/>
      <path id="Path_74023" data-name="Path 74023" d="M131.376,298.162h-2.736a.139.139,0,0,1-.139-.139v-2.753a.139.139,0,0,1,.139-.139h2.75a.139.139,0,0,1,.139.139v2.753a.14.14,0,0,1-.153.139Zm-2.611-.279h2.471v-2.474h-2.471Z" transform="translate(-116.989 -257.852)" fill="#263238"/>
      <rect id="Rectangle_5186" data-name="Rectangle 5186" width="2.75" height="2.75" transform="translate(15.761 37.407)" fill="#fff"/>
      <path id="Path_74024" data-name="Path 74024" d="M146.132,298.162h-2.753a.142.142,0,0,1-.139-.139v-2.753a.139.139,0,0,1,.139-.139h2.753a.139.139,0,0,1,.139.139v2.753A.139.139,0,0,1,146.132,298.162Zm-2.613-.279h2.474v-2.474h-2.474Z" transform="translate(-127.618 -257.852)" fill="#263238"/>
      <rect id="Rectangle_5187" data-name="Rectangle 5187" width="2.75" height="2.75" transform="translate(19.889 37.407)" fill="#fff"/>
      <path id="Path_74025" data-name="Path 74025" d="M160.932,298.162h-2.753a.139.139,0,0,1-.139-.139v-2.753a.139.139,0,0,1,.139-.139h2.753a.139.139,0,0,1,.139.139v2.753A.142.142,0,0,1,160.932,298.162Zm-2.625-.279h2.474v-2.474h-2.474Z" transform="translate(-138.29 -257.852)" fill="#263238"/>
      <rect id="Rectangle_5188" data-name="Rectangle 5188" width="2.75" height="2.75" transform="translate(24.017 37.407)" fill="#fff"/>
      <path id="Path_74026" data-name="Path 74026" d="M175.73,298.162h-2.75a.139.139,0,0,1-.139-.139v-2.753a.139.139,0,0,1,.139-.139h2.75a.139.139,0,0,1,.139.139v2.753A.139.139,0,0,1,175.73,298.162Zm-2.611-.279h2.471v-2.474h-2.471Z" transform="translate(-148.963 -257.852)" fill="#263238"/>
      <rect id="Rectangle_5189" data-name="Rectangle 5189" width="2.75" height="2.75" transform="translate(28.142 37.407)" fill="#fff"/>
      <path id="Path_74027" data-name="Path 74027" d="M190.522,298.162h-2.753a.142.142,0,0,1-.139-.139v-2.753a.139.139,0,0,1,.139-.139h2.753a.139.139,0,0,1,.139.139v2.753A.139.139,0,0,1,190.522,298.162Zm-2.613-.279h2.474v-2.474h-2.474Z" transform="translate(-159.627 -257.852)" fill="#263238"/>
      <rect id="Rectangle_5190" data-name="Rectangle 5190" width="2.75" height="2.75" transform="translate(32.27 37.407)" fill="#fff"/>
      <path id="Path_74028" data-name="Path 74028" d="M205.322,298.162h-2.753a.142.142,0,0,1-.139-.139v-2.753a.139.139,0,0,1,.139-.139h2.753a.139.139,0,0,1,.139.139v2.753A.142.142,0,0,1,205.322,298.162Zm-2.613-.279h2.474v-2.474h-2.474Z" transform="translate(-170.3 -257.852)" fill="#263238"/>
      <rect id="Rectangle_5191" data-name="Rectangle 5191" width="2.75" height="2.75" transform="translate(36.398 37.407)" fill="#fff"/>
      <path id="Path_74029" data-name="Path 74029" d="M220.12,298.162h-2.75a.139.139,0,0,1-.139-.139v-2.753a.139.139,0,0,1,.139-.139h2.75a.139.139,0,0,1,.139.139v2.753A.139.139,0,0,1,220.12,298.162Zm-2.611-.279h2.471v-2.474h-2.471Z" transform="translate(-180.972 -257.852)" fill="#263238"/>
      <rect id="Rectangle_5192" data-name="Rectangle 5192" width="2.75" height="2.75" transform="translate(7.508 41.456)" fill="#fff"/>
      <path id="Path_74030" data-name="Path 74030" d="M116.53,312.639h-2.75a.139.139,0,0,1-.139-.139v-2.75a.139.139,0,0,1,.139-.139h2.75a.139.139,0,0,1,.139.139v2.758A.139.139,0,0,1,116.53,312.639Zm-2.611-.279h2.471v-2.471h-2.471Z" transform="translate(-106.274 -268.293)" fill="#263238"/>
      <rect id="Rectangle_5193" data-name="Rectangle 5193" width="2.75" height="2.75" transform="translate(11.636 41.456)" fill="#fff"/>
      <path id="Path_74031" data-name="Path 74031" d="M131.376,312.639h-2.736a.139.139,0,0,1-.139-.139v-2.75a.139.139,0,0,1,.139-.139h2.75a.139.139,0,0,1,.139.139v2.758a.139.139,0,0,1-.153.131Zm-2.611-.279h2.471v-2.471h-2.471Z" transform="translate(-116.989 -268.293)" fill="#263238"/>
      <rect id="Rectangle_5194" data-name="Rectangle 5194" width="2.75" height="2.75" transform="translate(15.761 41.456)" fill="#fff"/>
      <path id="Path_74032" data-name="Path 74032" d="M146.132,312.639h-2.753a.139.139,0,0,1-.139-.139v-2.75a.139.139,0,0,1,.139-.139h2.753a.139.139,0,0,1,.139.139v2.758A.139.139,0,0,1,146.132,312.639Zm-2.613-.279h2.474v-2.471h-2.474Z" transform="translate(-127.618 -268.293)" fill="#263238"/>
      <rect id="Rectangle_5195" data-name="Rectangle 5195" width="2.75" height="2.75" transform="translate(19.889 41.456)" fill="#fff"/>
      <path id="Path_74033" data-name="Path 74033" d="M160.932,312.639h-2.753a.139.139,0,0,1-.139-.139v-2.75a.139.139,0,0,1,.139-.139h2.753a.139.139,0,0,1,.139.139v2.758A.139.139,0,0,1,160.932,312.639Zm-2.613-.279h2.474v-2.471h-2.485Z" transform="translate(-138.29 -268.293)" fill="#263238"/>
      <rect id="Rectangle_5196" data-name="Rectangle 5196" width="2.75" height="2.75" transform="translate(24.017 41.456)" fill="#fff"/>
      <path id="Path_74034" data-name="Path 74034" d="M175.73,312.639h-2.75a.139.139,0,0,1-.139-.139v-2.75a.139.139,0,0,1,.139-.139h2.75a.139.139,0,0,1,.139.139v2.758A.139.139,0,0,1,175.73,312.639Zm-2.611-.279h2.471v-2.471h-2.471Z" transform="translate(-148.963 -268.293)" fill="#263238"/>
      <rect id="Rectangle_5197" data-name="Rectangle 5197" width="2.75" height="2.75" transform="translate(28.142 41.456)" fill="#fff"/>
      <path id="Path_74035" data-name="Path 74035" d="M190.522,312.639h-2.753a.139.139,0,0,1-.139-.139v-2.75a.139.139,0,0,1,.139-.139h2.753a.139.139,0,0,1,.139.139v2.758A.139.139,0,0,1,190.522,312.639Zm-2.613-.279h2.474v-2.471h-2.474Z" transform="translate(-159.627 -268.293)" fill="#263238"/>
      <rect id="Rectangle_5198" data-name="Rectangle 5198" width="2.75" height="2.75" transform="translate(32.27 41.456)" fill="#fff"/>
      <path id="Path_74036" data-name="Path 74036" d="M205.322,312.639h-2.753a.139.139,0,0,1-.139-.139v-2.75a.139.139,0,0,1,.139-.139h2.753a.139.139,0,0,1,.139.139v2.758A.139.139,0,0,1,205.322,312.639Zm-2.613-.279h2.474v-2.471h-2.474Z" transform="translate(-170.3 -268.293)" fill="#263238"/>
      <rect id="Rectangle_5199" data-name="Rectangle 5199" width="2.75" height="2.75" transform="translate(36.398 41.456)" fill="#fff"/>
      <path id="Path_74037" data-name="Path 74037" d="M220.12,312.639h-2.75a.139.139,0,0,1-.139-.139v-2.75a.139.139,0,0,1,.139-.139h2.75a.139.139,0,0,1,.139.139v2.758A.139.139,0,0,1,220.12,312.639Zm-2.611-.279h2.471v-2.471h-2.471Z" transform="translate(-180.972 -268.293)" fill="#263238"/>
      <path id="Path_74038" data-name="Path 74038" d="M259.419,318.737a.139.139,0,0,1-.139-.139v-2.878a.139.139,0,0,1,.279,0V318.6A.139.139,0,0,1,259.419,318.737Z" transform="translate(-211.294 -272.598)" fill="#fff"/>
      <path id="Path_74039" data-name="Path 74039" d="M264.837,286.8V271.49H259.78v11.168" transform="translate(-211.654 -240.805)" fill="#263238"/>
      <path id="Path_74040" data-name="Path 74040" d="M264.476,286.62a.139.139,0,0,1-.139-.139V271.308h-4.778v11.028a.139.139,0,0,1-.279,0V271.179a.142.142,0,0,1,.139-.139h5.057a.142.142,0,0,1,.139.139v15.3A.139.139,0,0,1,264.476,286.62Z" transform="translate(-211.294 -240.481)" fill="#fff"/>
      <path id="Path_74041" data-name="Path 74041" d="M320.455,239.905H292.67v-25.93l13.893-7.525,13.892,7.525Z" transform="translate(-235.371 -193.905)" fill="#fff"/>
      <path id="Path_74042" data-name="Path 74042" d="M320.094,239.648H292.31a.139.139,0,0,1-.139-.139V213.57a.142.142,0,0,1,.073-.123l13.893-7.531a.142.142,0,0,1,.134,0l13.893,7.531a.142.142,0,0,1,.072.123v25.939A.139.139,0,0,1,320.094,239.648Zm-27.646-.279h27.506V213.662L306.2,206.207l-13.753,7.45Z" transform="translate(-235.01 -193.509)" fill="#263238"/>
      <path id="Path_74043" data-name="Path 74043" d="M315.8,211.878,299.784,203.2l-16.015,8.677-.5-.92,16.514-8.947,16.514,8.947Z" transform="translate(-228.592 -190.704)" fill="#fff"/>
      <path id="Path_74044" data-name="Path 74044" d="M315.438,211.628a.128.128,0,0,1-.064-.017l-15.951-8.646-15.951,8.646a.153.153,0,0,1-.106,0,.142.142,0,0,1-.081-.07l-.5-.918a.139.139,0,0,1,.056-.19l16.514-8.947a.142.142,0,0,1,.134,0L316,210.434a.145.145,0,0,1,.067.084.142.142,0,0,1,0,.106l-.5.918A.14.14,0,0,1,315.438,211.628Zm-16.015-8.956a.148.148,0,0,1,.067.017l15.9,8.61.365-.675-16.325-8.844-16.316,8.844.365.675,15.9-8.61A.148.148,0,0,1,299.423,202.672Z" transform="translate(-228.231 -190.314)" fill="#263238"/>
      <path id="Path_74045" data-name="Path 74045" d="M292.67,213.975v.63l13.893-7.525,13.892,7.525v-.63l-13.892-7.525Z" transform="translate(-235.371 -193.905)" fill="#263238"/>
      <path id="Path_74046" data-name="Path 74046" d="M320.094,214.377a.148.148,0,0,1-.067-.017L306.2,206.872l-13.826,7.489a.138.138,0,0,1-.206-.12v-.63a.142.142,0,0,1,.073-.123l13.893-7.531a.142.142,0,0,1,.134,0l13.893,7.531a.142.142,0,0,1,.072.123v.63a.139.139,0,0,1-.067.12.134.134,0,0,1-.072.017ZM306.2,206.568a.148.148,0,0,1,.067.017L319.955,214v-.312l-13.753-7.45-13.753,7.45V214l13.686-7.413a.148.148,0,0,1,.067-.011Z" transform="translate(-235.01 -193.538)" fill="#263238"/>
      <path id="Path_74047" data-name="Path 74047" d="M320.69,248.943V246.21h11.988v13.625" transform="translate(-255.576 -222.576)" fill="#fff"/>
      <path id="Path_74048" data-name="Path 74048" d="M332.3,259.606a.139.139,0,0,1-.139-.139V245.982H320.449v2.591a.139.139,0,1,1-.279,0v-2.733a.139.139,0,0,1,.139-.139H332.3a.139.139,0,0,1,.139.139v13.625a.139.139,0,0,1-.139.142Z" transform="translate(-255.201 -222.208)" fill="#263238"/>
      <path id="Path_74049" data-name="Path 74049" d="M332.678,271v2.683H320.69V259.74" transform="translate(-255.576 -232.332)" fill="#fff"/>
      <path id="Path_74050" data-name="Path 74050" d="M332.3,273.454H320.309a.139.139,0,0,1-.139-.139V259.369a.139.139,0,0,1,.279,0v13.8h11.714v-2.544a.139.139,0,0,1,.279,0v2.683a.142.142,0,0,1-.14.142Z" transform="translate(-255.201 -231.965)" fill="#263238"/>
      <rect id="Rectangle_5200" data-name="Rectangle 5200" width="4.663" height="3.241" transform="translate(71.641 28.958)" fill="#263238"/>
      <path id="Path_74051" data-name="Path 74051" d="M348.39,268.32h-4.661a.139.139,0,0,1-.139-.139v-3.241a.139.139,0,0,1,.139-.139h4.661a.139.139,0,0,1,.139.139v3.241a.139.139,0,0,1-.139.139Zm-4.521-.279h4.382v-2.962h-4.382Z" transform="translate(-272.089 -235.981)" fill="#263238"/>
      <rect id="Rectangle_5201" data-name="Rectangle 5201" width="4.663" height="3.241" transform="translate(71.641 33.265)" fill="#263238"/>
      <path id="Path_74052" data-name="Path 74052" d="M348.39,283.757h-4.661a.139.139,0,0,1-.139-.139v-3.238a.139.139,0,0,1,.139-.139h4.661a.139.139,0,0,1,.139.139v3.238A.139.139,0,0,1,348.39,283.757Zm-4.521-.279h4.382v-2.959h-4.382Z" transform="translate(-272.089 -247.115)" fill="#263238"/>
      <rect id="Rectangle_5202" data-name="Rectangle 5202" width="4.663" height="3.458" transform="translate(71.641 24.432)" fill="#263238"/>
      <path id="Path_74053" data-name="Path 74053" d="M348.39,252.316h-4.661a.139.139,0,0,1-.139-.139v-3.467a.139.139,0,0,1,.139-.139h4.661a.139.139,0,0,1,.139.139v3.461a.139.139,0,0,1-.139.145Zm-4.521-.279h4.382v-3.188h-4.382Z" transform="translate(-272.089 -224.278)" fill="#263238"/>
      <rect id="Rectangle_5203" data-name="Rectangle 5203" width="4.663" height="3.458" transform="translate(65.912 24.432)" fill="#263238"/>
      <path id="Path_74054" data-name="Path 74054" d="M327.853,252.316h-4.663a.139.139,0,0,1-.139-.139v-3.467a.139.139,0,0,1,.139-.139h4.663a.142.142,0,0,1,.139.139v3.461A.142.142,0,0,1,327.853,252.316Zm-4.524-.279h4.384v-3.188h-4.384Z" transform="translate(-257.277 -224.278)" fill="#263238"/>
      <rect id="Rectangle_5204" data-name="Rectangle 5204" width="4.663" height="3.241" transform="translate(65.912 33.265)" fill="#263238"/>
      <path id="Path_74055" data-name="Path 74055" d="M327.853,283.757h-4.663a.139.139,0,0,1-.139-.139v-3.238a.139.139,0,0,1,.139-.139h4.663a.139.139,0,0,1,.139.139v3.238A.139.139,0,0,1,327.853,283.757Zm-4.524-.279h4.384v-2.959h-4.384Z" transform="translate(-257.277 -247.115)" fill="#263238"/>
      <rect id="Rectangle_5205" data-name="Rectangle 5205" width="4.663" height="3.241" transform="translate(65.912 28.958)" fill="#263238"/>
      <path id="Path_74056" data-name="Path 74056" d="M327.853,268.32h-4.663a.139.139,0,0,1-.139-.139v-3.241a.139.139,0,0,1,.139-.139h4.663a.139.139,0,0,1,.139.139v3.241A.142.142,0,0,1,327.853,268.32Zm-4.524-.279h4.384v-2.962h-4.384Z" transform="translate(-257.277 -235.981)" fill="#263238"/>
      <rect id="Rectangle_5206" data-name="Rectangle 5206" width="4.663" height="2.982" transform="translate(71.641 37.568)" fill="#263238"/>
      <path id="Path_74057" data-name="Path 74057" d="M348.39,298.93h-4.661a.139.139,0,0,1-.139-.139v-2.982a.139.139,0,0,1,.139-.139h4.661a.139.139,0,0,1,.139.139v2.982A.139.139,0,0,1,348.39,298.93Zm-4.521-.279h4.382v-2.7h-4.382Z" transform="translate(-272.089 -258.241)" fill="#263238"/>
      <rect id="Rectangle_5207" data-name="Rectangle 5207" width="4.663" height="2.982" transform="translate(65.912 37.568)" fill="#263238"/>
      <path id="Path_74058" data-name="Path 74058" d="M327.853,298.93h-4.663a.139.139,0,0,1-.139-.139v-2.982a.139.139,0,0,1,.139-.139h4.663a.142.142,0,0,1,.139.139v2.982A.139.139,0,0,1,327.853,298.93Zm-4.524-.279h4.384v-2.7h-4.384Z" transform="translate(-257.277 -258.241)" fill="#263238"/>
    </g>
    <g id="freepik--magnifying-glass--inject-102" transform="translate(91.124 100.535)">
      <path id="Path_74059" data-name="Path 74059" d="M327.388,364.529h-.558a.142.142,0,0,1-.139-.139.139.139,0,0,1,.139-.139h.558a.139.139,0,1,1,0,.279Zm-1.673,0h-.558a.142.142,0,0,1-.14-.139.139.139,0,0,1,.14-.139h.558a.139.139,0,1,1,0,.279Zm-1.673,0h-.558a.142.142,0,0,1-.139-.139.139.139,0,0,1,.139-.139h.558a.139.139,0,0,1,0,.279Zm-1.674,0h-.558a.142.142,0,0,1-.139-.139.139.139,0,0,1,.139-.139h.558a.139.139,0,1,1,0,.279Z" transform="translate(-260.176 -301.066)" fill="#263238"/>
      <path id="Path_74060" data-name="Path 74060" d="M105.658,201.18h-.248a.14.14,0,0,1-.131-.148.137.137,0,0,1,.148-.131h.549a.139.139,0,0,1,0,.279Zm52.2,0H157.3a.139.139,0,0,1,0-.279h.558a.139.139,0,1,1,0,.279Zm-1.673,0h-.558a.139.139,0,0,1,0-.279h.558a.139.139,0,0,1,0,.279Zm-1.673,0h-.558a.139.139,0,0,1,0-.279h.558a.139.139,0,0,1,0,.279Zm-1.673,0h-.558a.139.139,0,0,1,0-.279h.558a.139.139,0,0,1,0,.279Zm-1.673,0H150.6a.139.139,0,0,1,0-.279h.558a.139.139,0,0,1,0,.279Zm-1.673,0h-.558a.139.139,0,0,1,0-.279h.558a.139.139,0,0,1,0,.279Zm-1.673,0h-.558a.139.139,0,0,1,0-.279h.558a.139.139,0,1,1,0,.279Zm-1.673,0h-.558a.139.139,0,0,1,0-.279h.558a.139.139,0,1,1,0,.279Zm-1.673,0h-.558a.139.139,0,0,1,0-.279h.558a.139.139,0,0,1,0,.279Zm-1.673,0h-.558a.139.139,0,1,1,0-.279h.558a.139.139,0,1,1,0,.279Zm-1.673,0h-.558a.139.139,0,0,1,0-.279h.558a.139.139,0,1,1,0,.279Zm-1.673,0h-.558a.139.139,0,0,1,0-.279h.558a.139.139,0,0,1,0,.279Zm-1.673,0h-.558a.139.139,0,1,1,0-.279h.558a.139.139,0,0,1,0,.279Zm-1.673,0h-.558a.139.139,0,1,1,0-.279h.558a.139.139,0,1,1,0,.279Zm-1.673,0h-.558a.139.139,0,0,1,0-.279h.558a.139.139,0,0,1,0,.279Zm-1.673,0h-.558a.139.139,0,0,1,0-.279h.558a.139.139,0,0,1,0,.279Zm-1.673,0h-.558a.139.139,0,1,1,0-.279h.558a.139.139,0,0,1,0,.279Zm-1.673,0h-.558a.139.139,0,0,1,0-.279h.558a.139.139,0,0,1,0,.279Zm-1.673,0h-.558a.139.139,0,0,1,0-.279h.558a.139.139,0,1,1,0,.279Zm-1.673,0H125.5a.139.139,0,0,1,0-.279h.558a.139.139,0,0,1,0,.279Zm-1.673,0h-.558a.139.139,0,0,1,0-.279h.558a.139.139,0,0,1,0,.279Zm-1.673,0h-.558a.139.139,0,0,1,0-.279h.558a.139.139,0,0,1,0,.279Zm-1.673,0h-.558a.139.139,0,0,1,0-.279h.558a.139.139,0,1,1,0,.279Zm-1.673,0h-.558a.139.139,0,0,1,0-.279h.558a.139.139,0,0,1,0,.279Zm-1.673,0h-.558a.139.139,0,1,1,0-.279h.558a.139.139,0,0,1,0,.279Zm-1.673,0h-.558a.139.139,0,0,1,0-.279h.558a.139.139,0,0,1,0,.279Zm-1.673,0h-.558a.139.139,0,0,1,0-.279h.558a.139.139,0,0,1,0,.279Zm-1.673,0h-.558a.139.139,0,0,1,0-.279h.558a.139.139,0,0,1,0,.279Zm-1.673,0h-.558a.139.139,0,0,1,0-.279H111a.139.139,0,0,1,0,.279Zm-1.673,0h-.558a.139.139,0,0,1,0-.279h.558a.139.139,0,0,1,0,.279Zm-1.673,0h-.558a.139.139,0,0,1,0-.279h.558a.139.139,0,0,1,0,.279Zm-3.325-.215a.108.108,0,0,1-.042,0,4.641,4.641,0,0,1-.535-.212.142.142,0,0,1-.067-.187.139.139,0,0,1,.187-.067,4.1,4.1,0,0,0,.5.2.141.141,0,0,1-.045.279Zm-1.45-.809a.145.145,0,0,1-.092-.033,4.615,4.615,0,0,1-.413-.4.139.139,0,1,1,.2-.19,4.943,4.943,0,0,0,.39.374.142.142,0,0,1,.017.2A.145.145,0,0,1,102.875,200.157Zm-1.043-1.294a.142.142,0,0,1-.125-.075,4.413,4.413,0,0,1-.234-.524.14.14,0,0,1,.262-.1,4.1,4.1,0,0,0,.22.494.139.139,0,0,1-.123.2Zm-.48-1.593a.142.142,0,0,1-.139-.126c0-.148-.022-.3-.022-.446v-.125a.139.139,0,1,1,.279,0v.125a4.158,4.158,0,0,0,.022.418.142.142,0,0,1-.126.153Zm-.022-1.673a.139.139,0,0,1-.139-.139V194.9a.139.139,0,1,1,.279,0v.558A.139.139,0,0,1,101.329,195.6Zm0-1.673a.139.139,0,0,1-.139-.139v-.558a.139.139,0,1,1,.279,0v.558A.139.139,0,0,1,101.329,193.923Zm0-1.673a.139.139,0,0,1-.139-.139v-.558a.139.139,0,0,1,.279,0v.558A.139.139,0,0,1,101.329,192.25Zm0-1.673a.139.139,0,0,1-.139-.139v-.558a.139.139,0,1,1,.279,0v.558A.139.139,0,0,1,101.329,190.576Zm0-1.673a.139.139,0,0,1-.139-.139v-.558a.139.139,0,0,1,.279,0v.558A.139.139,0,0,1,101.329,188.9Zm0-1.673a.139.139,0,0,1-.139-.139v-.558a.139.139,0,0,1,.279,0v.558A.139.139,0,0,1,101.329,187.229Zm0-1.673a.139.139,0,0,1-.139-.139v-.558a.139.139,0,0,1,.279,0v.558A.139.139,0,0,1,101.329,185.556Zm0-1.673a.139.139,0,0,1-.139-.139v-.558a.139.139,0,1,1,.279,0v.558A.139.139,0,0,1,101.329,183.882Zm0-1.673a.139.139,0,0,1-.139-.139v-.558a.139.139,0,0,1,.279,0v.558A.139.139,0,0,1,101.329,182.209Zm0-1.673a.139.139,0,0,1-.139-.139v-.558a.139.139,0,0,1,.279,0v.558A.139.139,0,0,1,101.329,180.536Zm0-1.673a.139.139,0,0,1-.139-.139v-.558a.139.139,0,0,1,.279,0v.558A.139.139,0,0,1,101.329,178.862Zm0-1.673a.139.139,0,0,1-.139-.139v-.558a.139.139,0,0,1,.279,0v.558A.139.139,0,0,1,101.329,177.189Zm0-1.673a.139.139,0,0,1-.139-.139v-.558a.139.139,0,1,1,.279,0v.558A.139.139,0,0,1,101.329,175.515Zm0-1.673a.139.139,0,0,1-.139-.139v-.558a.139.139,0,0,1,.279,0v.558A.139.139,0,0,1,101.329,173.842Zm0-1.673a.139.139,0,0,1-.139-.139v-.558a.139.139,0,0,1,.279,0v.558A.139.139,0,0,1,101.329,172.168Zm0-1.673a.139.139,0,0,1-.139-.139V169.8a.139.139,0,1,1,.279,0v.558A.139.139,0,0,1,101.329,170.495Zm0-1.673a.139.139,0,0,1-.139-.139v-.558a.139.139,0,1,1,.279,0v.558A.139.139,0,0,1,101.329,168.821Zm0-1.673a.139.139,0,0,1-.139-.139v-.558a.139.139,0,0,1,.279,0v.558A.139.139,0,0,1,101.329,167.148Zm0-1.673a.139.139,0,0,1-.139-.139v-.558a.139.139,0,0,1,.279,0v.558A.139.139,0,0,1,101.329,165.474Zm0-1.673a.139.139,0,0,1-.139-.139V163.1a.139.139,0,1,1,.279,0v.558A.139.139,0,0,1,101.329,163.8Zm0-1.673a.139.139,0,0,1-.139-.139v-.558a.139.139,0,0,1,.279,0v.558A.139.139,0,0,1,101.329,162.127Zm0-1.673a.139.139,0,0,1-.139-.139v-.558a.139.139,0,0,1,.279,0v.558A.139.139,0,0,1,101.329,160.454Zm0-1.673a.139.139,0,0,1-.139-.139v-.558a.139.139,0,1,1,.279,0v.558A.139.139,0,0,1,101.329,158.781Zm0-1.673a.139.139,0,0,1-.139-.139v-.558a.139.139,0,1,1,.279,0v.558A.139.139,0,0,1,101.329,157.107Zm0-1.673a.139.139,0,0,1-.139-.139v-.558a.139.139,0,0,1,.279,0v.558A.139.139,0,0,1,101.329,155.434Zm0-1.673a.139.139,0,0,1-.139-.139v-.558a.139.139,0,1,1,.279,0v.558A.139.139,0,0,1,101.329,153.76Zm0-1.673a.139.139,0,0,1-.139-.139v-.558a.139.139,0,0,1,.279,0v.558A.139.139,0,0,1,101.329,152.087Zm0-1.673a.139.139,0,0,1-.139-.139v-.558a.139.139,0,1,1,.279,0v.558A.139.139,0,0,1,101.329,150.413Zm0-1.673a.139.139,0,0,1-.139-.139v-.558a.139.139,0,1,1,.279,0v.558A.139.139,0,0,1,101.329,148.74Zm0-1.673a.139.139,0,0,1-.139-.139v-.558a.139.139,0,0,1,.279,0v.558A.139.139,0,0,1,101.329,147.066Zm0-1.673a.139.139,0,0,1-.139-.139V144.7a.139.139,0,1,1,.279,0v.558A.139.139,0,0,1,101.329,145.393Zm0-1.673a.139.139,0,0,1-.139-.139v-.558a.139.139,0,1,1,.279,0v.558A.139.139,0,0,1,101.329,143.719Zm0-1.673h0a.139.139,0,0,1-.131-.148,4.856,4.856,0,0,1,.075-.558.142.142,0,0,1,.279.056,4.286,4.286,0,0,0-.07.533.139.139,0,0,1-.142.117Zm.427-1.607a.123.123,0,0,1-.061-.014.139.139,0,0,1-.064-.187,4.422,4.422,0,0,1,.279-.5.14.14,0,0,1,.234.153,3.908,3.908,0,0,0-.279.469.14.14,0,0,1-.1.078Zm1-1.328a.131.131,0,0,1-.1-.045.139.139,0,0,1,0-.2,4.62,4.62,0,0,1,.452-.357.139.139,0,1,1,.159.229,4.465,4.465,0,0,0-.424.335.128.128,0,0,1-.073.036Zm1.425-.856a.137.137,0,0,1-.131-.092.139.139,0,0,1,.084-.178,4.791,4.791,0,0,1,.558-.159.139.139,0,0,1,.167.106.137.137,0,0,1-.106.165,4.24,4.24,0,0,0-.519.151.142.142,0,0,1-.031.008Zm2.2-.257h-.558a.142.142,0,0,1-.139-.139.139.139,0,0,1,.139-.139h.558a.14.14,0,0,1,.011.279Z" transform="translate(-101.19 -137.717)" fill="#263238"/>
      <path id="Path_74061" data-name="Path 74061" d="M202.133,142.332a.139.139,0,0,1-.139-.139,4.353,4.353,0,0,0-.033-.537.139.139,0,0,1,.12-.157.145.145,0,0,1,.156.12,4.926,4.926,0,0,1,.036.575A.139.139,0,0,1,202.133,142.332Zm-.318-1.632a.137.137,0,0,1-.128-.086,4.114,4.114,0,0,0-.237-.485.145.145,0,0,1,.053-.192.139.139,0,0,1,.19.053,4.442,4.442,0,0,1,.251.519.137.137,0,0,1-.075.181A.12.12,0,0,1,201.815,140.7Zm-.909-1.395a.134.134,0,0,1-.1-.045,4.106,4.106,0,0,0-.413-.354.142.142,0,0,1,.176-.22,4.691,4.691,0,0,1,.427.388.142.142,0,0,1-.1.237Zm-1.367-.951a.141.141,0,0,1-.056,0,3.891,3.891,0,0,0-.5-.184.139.139,0,1,1,.078-.268,4.628,4.628,0,0,1,.541.2.142.142,0,0,1,.07.184.137.137,0,0,1-.128.067Zm-1.62-.365h-.558a.139.139,0,0,1,0-.279h.558a.141.141,0,0,1,0,.282Zm-1.673,0h-.558a.139.139,0,1,1,0-.279h.558a.141.141,0,0,1,0,.282Zm-1.673,0h-.558a.139.139,0,1,1,0-.279h.558a.141.141,0,0,1,0,.282Zm-1.673,0h-.558a.139.139,0,1,1,0-.279h.558a.141.141,0,0,1,0,.282Zm-1.673,0h-.558a.139.139,0,1,1,0-.279h.558a.141.141,0,0,1,0,.282Zm-1.673,0h-.558a.139.139,0,1,1,0-.279h.558a.141.141,0,0,1,0,.282Zm-1.673,0h-.558a.139.139,0,0,1,0-.279h.558a.141.141,0,0,1,0,.282Zm-1.674,0h-.558a.139.139,0,1,1,0-.279h.558a.141.141,0,0,1,0,.282Zm-1.673,0h-.558a.139.139,0,1,1,0-.279h.558a.141.141,0,0,1,0,.282Zm-1.673,0H182.3a.139.139,0,1,1,0-.279h.558a.141.141,0,0,1,0,.282Zm-1.673,0h-.558a.139.139,0,1,1,0-.279h.558a.141.141,0,0,1,0,.282Zm-1.673,0h-.558a.139.139,0,1,1,0-.279h.558a.141.141,0,0,1,0,.282Zm-1.673,0h-.558a.139.139,0,1,1,0-.279h.558a.141.141,0,0,1,0,.282Zm-1.673,0h-.558a.139.139,0,1,1,0-.279h.558a.141.141,0,0,1,0,.282Zm-1.674,0h-.558a.139.139,0,1,1,0-.279h.558a.141.141,0,0,1,0,.282Zm-1.673,0h-.558a.139.139,0,1,1,0-.279h.558a.141.141,0,0,1,0,.282Zm-1.673,0h-.558a.139.139,0,1,1,0-.279h.558a.141.141,0,0,1,0,.282Zm-1.673,0h-.558a.139.139,0,1,1,0-.279h.558a.141.141,0,0,1,0,.282Zm-1.673,0h-.558a.139.139,0,1,1,0-.279h.558a.141.141,0,0,1,0,.282Zm-1.673,0h-.558a.139.139,0,0,1,0-.279h.558a.141.141,0,0,1,0,.282Zm-1.673,0h-.558a.139.139,0,1,1,0-.279h.558a.141.141,0,0,1,0,.282Zm-1.673,0h-.558a.139.139,0,1,1,0-.279h.558a.141.141,0,0,1,0,.282Zm-1.673,0h-.558a.139.139,0,1,1,0-.279h.558a.141.141,0,0,1,0,.282Zm-1.673,0h-.558a.139.139,0,1,1,0-.279h.558a.141.141,0,0,1,0,.282Zm-1.673,0H157.2a.139.139,0,1,1,0-.279h.558a.141.141,0,0,1,0,.282Zm-1.673,0h-.558a.139.139,0,1,1,0-.279h.558a.141.141,0,0,1,0,.282Zm-1.673,0h-.558a.139.139,0,0,1,0-.279h.558a.141.141,0,0,1,0,.282Zm-1.673,0h-.558a.139.139,0,1,1,0-.279h.558a.141.141,0,0,1,0,.282Zm-1.673,0H150.5a.139.139,0,1,1,0-.279h.558a.141.141,0,0,1,0,.282Zm-1.673,0h-.558a.139.139,0,1,1,0-.279h.558a.141.141,0,0,1,0,.282Zm-1.673,0h-.558a.139.139,0,1,1,0-.279h.558a.141.141,0,0,1,0,.282Zm-1.673,0h-.558a.139.139,0,1,1,0-.279h.558a.141.141,0,0,1,0,.282Zm-1.673,0h-.558a.139.139,0,1,1,0-.279h.558a.141.141,0,0,1,0,.282Zm-1.673,0h-.558a.139.139,0,0,1,0-.279h.558a.141.141,0,0,1,0,.282Zm-1.673,0h-.558a.139.139,0,1,1,0-.279h.558a.141.141,0,0,1,0,.282Zm-1.673,0h-.558a.139.139,0,1,1,0-.279h.558a.141.141,0,0,1,0,.282Zm-1.673,0h-.558a.139.139,0,1,1,0-.279h.558a.141.141,0,0,1,0,.282Zm-1.673,0h-.558a.139.139,0,1,1,0-.279H136a.141.141,0,0,1,0,.282Zm-1.673,0h-.558a.139.139,0,1,1,0-.279h.558a.141.141,0,0,1,0,.282Z" transform="translate(-124.582 -137.71)" fill="#263238"/>
      <path id="Path_74062" data-name="Path 74062" d="M332.847,161.259a17.887,17.887,0,1,0,17.987,17.778A17.887,17.887,0,0,0,332.847,161.259Zm.181,32.242A14.355,14.355,0,1,1,347.3,179.065,14.355,14.355,0,0,1,333.028,193.5Z" transform="translate(-255.41 -154.691)" fill="#fff"/>
      <path id="Path_74063" data-name="Path 74063" d="M332.45,196.792a18.026,18.026,0,0,1-.1-36.052h.1a18.026,18.026,0,1,1,.1,36.052Zm0-35.773h-.1a17.747,17.747,0,1,0,.1,35.494h.1a17.747,17.747,0,1,0-.1-35.494Zm0,32.242a14.5,14.5,0,0,1-.081-28.987h.081a14.5,14.5,0,0,1,.081,28.987Zm.081-.279h0a14.224,14.224,0,0,0-.081-28.429h-.081a14.224,14.224,0,0,0,.081,28.429Z" transform="translate(-254.915 -154.317)" fill="#263238"/>
      <path id="Path_74064" data-name="Path 74064" d="M332.827,157.589a17.887,17.887,0,1,0,17.987,17.783A17.886,17.886,0,0,0,332.827,157.589Zm.181,32.239a14.356,14.356,0,1,1,14.272-14.434A14.356,14.356,0,0,1,333.008,189.828Z" transform="translate(-255.396 -152.045)" fill="#fff"/>
      <path id="Path_74065" data-name="Path 74065" d="M332.812,193.377a17.979,17.979,0,1,1,.1,0Zm0-35.77h-.1a17.746,17.746,0,1,0,.1,35.493h.1a17.746,17.746,0,1,0-.1-35.493Zm0,32.239a14.5,14.5,0,0,1-.078-28.987h.084a14.5,14.5,0,0,1,.078,28.987Zm0-28.708h-.084a14.224,14.224,0,0,0,.078,28.429h.084a14.224,14.224,0,0,0-.078-28.429Z" transform="translate(-255.283 -151.923)" fill="#263238"/>
      <rect id="Rectangle_5208" data-name="Rectangle 5208" width="4.329" height="15.948" rx="2.164" transform="translate(75.942 41.269) rotate(-0.573)" fill="#4866fc"/>
      <path id="Path_74066" data-name="Path 74066" d="M372.734,303a.948.948,0,0,1-.943-.94l-.081-14.339a.951.951,0,0,1,.279-.669.934.934,0,0,1,.667-.279l2.719-.017a.979.979,0,0,1,.669.279.934.934,0,0,1,.279.667l.081,14.339a.948.948,0,0,1-.937.951h0l-2.719.014Zm2.728-.153Zm-.086-15.811h0l-2.722.017a.661.661,0,0,0-.469.2.669.669,0,0,0-.192.471l.081,14.342a.669.669,0,0,0,.2.469.653.653,0,0,0,.466.192h0l2.719-.014a.667.667,0,0,0,.661-.669l-.081-14.342a.661.661,0,0,0-.2-.469.669.669,0,0,0-.466-.2Z" transform="translate(-296.259 -245.188)" fill="#263238"/>
      <path id="Path_74067" data-name="Path 74067" d="M371.736,349.035l-3.656.022a2.039,2.039,0,0,1-2.05-2.028V325.623a1.593,1.593,0,0,1,1.584-1.6l4.543-.022a1.59,1.59,0,0,1,1.6,1.584V346.99A2.036,2.036,0,0,1,371.736,349.035Z" transform="translate(-292.163 -272.042)" fill="#263238"/>
      <path id="Path_74068" data-name="Path 74068" d="M367.708,348.826a2.178,2.178,0,0,1-2.178-2.164V325.255a1.732,1.732,0,0,1,1.721-1.74l4.549-.025h0a1.729,1.729,0,0,1,1.732,1.721V346.62a2.176,2.176,0,0,1-2.164,2.187h0l-3.656.02Zm3.668-.159Zm.421-24.9h0l-4.546.025a1.453,1.453,0,0,0-1.445,1.462v21.406a1.9,1.9,0,0,0,1.9,1.885h0l3.656-.02a1.9,1.9,0,0,0,1.888-1.908V325.214A1.453,1.453,0,0,0,371.8,323.769Z" transform="translate(-291.803 -271.674)" fill="#263238"/>
    </g>
  </g>
</svg>
