<svg xmlns="http://www.w3.org/2000/svg" width="132.507" height="76.271" viewBox="0 0 132.507 76.271">
  <g id="City_driver-pana_1_" data-name="City driver-pana (1)" transform="translate(-32.813 -52.33)">
    <g id="freepik--Floor--inject-48" transform="translate(34.214 127.996)">
      <path id="Path_73866" data-name="Path 73866" d="M169.545,443.87c0,.029-28.992.05-64.737.05s-64.748-.021-64.748-.05,28.98-.05,64.748-.05S169.545,443.843,169.545,443.87Z" transform="translate(-40.06 -443.82)" fill="#263238"/>
    </g>
    <g id="freepik--Device--inject-48" transform="translate(57.863 52.33)">
      <path id="Path_73867" data-name="Path 73867" d="M193.681,128.047l-25.691-.118a5.605,5.605,0,0,1-5.57-5.621l.273-64.406a5.605,5.605,0,0,1,5.622-5.572l25.691.118a5.605,5.605,0,0,1,5.57,5.617L199.3,122.47a5.605,5.605,0,0,1-5.622,5.576Z" transform="translate(-162.42 -52.33)" fill="#455a64"/>
      <path id="Path_73868" data-name="Path 73868" d="M201.092,63.948l-4.981-.023a1.239,1.239,0,0,0-1.216,1.258v.9a1.235,1.235,0,0,1-1.218,1.254l-9.71-.044a1.241,1.241,0,0,1-1.2-1.27v-.9a1.239,1.239,0,0,0-1.2-1.26h-1.751l-4.358-.033a3.92,3.92,0,0,0-3.939,3.9l-.265,62.866a3.92,3.92,0,0,0,3.9,3.937l25.64.118a3.92,3.92,0,0,0,3.937-3.9l.265-62.864A3.918,3.918,0,0,0,201.092,63.948Z" transform="translate(-169.543 -61.607)" fill="#fafafa"/>
      <path id="Path_73869" data-name="Path 73869" d="M172.46,123.05h4.2l3.75,3.752-3.9,3.9-4.009-4.011Z" transform="translate(-170.519 -109.381)" fill="#ebebeb"/>
      <path id="Path_73870" data-name="Path 73870" d="M209.237,125.155l-2.107-2.1h4.739Z" transform="translate(-198.489 -109.381)" fill="#ebebeb"/>
      <path id="Path_73871" data-name="Path 73871" d="M227.56,127.44l3.69-3.69h12.892a14.7,14.7,0,0,1-5.8,14.473Z" transform="translate(-214.97 -109.946)" fill="#ebebeb"/>
      <path id="Path_73872" data-name="Path 73872" d="M202.917,148.92l-3.947,3.949,10.922,10.922,3.947-4.08Z" transform="translate(-191.906 -130.251)" fill="#ebebeb"/>
      <path id="Path_73873" data-name="Path 73873" d="M172.21,160.092l2.474-2.567-2.426-2.426Z" transform="translate(-170.318 -135.237)" fill="#ebebeb"/>
      <path id="Path_73874" data-name="Path 73874" d="M176.81,175.48l-3.8,3.8v5.28l7.845,8.027L187.5,186.4Z" transform="translate(-170.963 -151.678)" fill="#ebebeb"/>
      <path id="Path_73875" data-name="Path 73875" d="M291,139.33s8.141-5.968,5.508-15.58h5.062l-.062,27.129Z" transform="translate(-266.148 -109.946)" fill="#ebebeb"/>
      <path id="Path_73876" data-name="Path 73876" d="M266.655,212.46l-3.935,4.109,12.068,12.07,3.692-3.912Z" transform="translate(-243.334 -181.51)" fill="#ebebeb"/>
      <path id="Path_73877" data-name="Path 73877" d="M228.387,239.54l-6.187,6.142,12.374,12.287,6.175-5.97Z" transform="translate(-210.646 -203.356)" fill="#ebebeb"/>
      <path id="Path_73878" data-name="Path 73878" d="M237.43,357.853l9.459-9.8,9,9.171Z" transform="translate(-222.932 -290.894)" fill="#ebebeb"/>
      <path id="Path_73879" data-name="Path 73879" d="M294,300.761,303.857,291c0,.433-.085,20.238-.085,20.238Z" transform="translate(-268.568 -244.87)" fill="#ebebeb"/>
      <path id="Path_73880" data-name="Path 73880" d="M206.371,313.14l5.588,5.588-11.032,11.384L195.83,324Z" transform="translate(-189.373 -262.731)" fill="#ebebeb"/>
      <path id="Path_73881" data-name="Path 73881" d="M172.26,259.664c.528-.052,14.04-12.706,14.04-12.706L172.26,232.41Z" transform="translate(-170.358 -197.604)" fill="#ebebeb"/>
      <path id="Path_73882" data-name="Path 73882" d="M171.25,376.3l3.253-2.884,4.505,5.321H171.25v-2.035" transform="translate(-169.543 -311.36)" fill="#ebebeb"/>
      <path id="Path_73883" data-name="Path 73883" d="M188.966,95.921a8.089,8.089,0,0,1-.966-.839h0v-.073h0l.014-.012.023-.021.048-.044.093-.087.176-.162.3-.271a1.48,1.48,0,0,1,.309-.242,1.354,1.354,0,0,1-.247.282l-.29.286-.172.166-.093.089-.046.044-.025.021-.012.012h0V95h0A8.209,8.209,0,0,1,188.966,95.921Z" transform="translate(-183.056 -86.083)" fill="#263238"/>
      <path id="Path_73884" data-name="Path 73884" d="M329.491,94.729a.211.211,0,1,1-.209-.209.211.211,0,0,1,.209.209Z" transform="translate(-296.86 -86.366)" fill="#263238"/>
      <path id="Path_73885" data-name="Path 73885" d="M329.44,98.316a.211.211,0,1,1-.3,0A.211.211,0,0,1,329.44,98.316Z" transform="translate(-296.868 -89.379)" fill="#263238"/>
      <path id="Path_73886" data-name="Path 73886" d="M329.5,102.107a.211.211,0,1,1-.1-.2A.211.211,0,0,1,329.5,102.107Z" transform="translate(-296.864 -92.3)" fill="#263238"/>
      <rect id="Rectangle_5156" data-name="Rectangle 5156" width="9.042" height="0.754" transform="translate(14.533 9.219)" fill="#263238"/>
      <path id="Path_73887" data-name="Path 73887" d="M237.56,150.78c0-3.522-3.7-5.752-7.472-3.987a4.283,4.283,0,0,0-1.987,1.9,6.3,6.3,0,0,0,.331,5.68l2.938,7.443a1.266,1.266,0,0,0,2.358,0l2.878-7.482A9.221,9.221,0,0,0,237.56,150.78Zm-3.537,3.073c-2.536,1.475-5.106-1.251-3.717-3.941a2.126,2.126,0,0,1,.806-.854c2.538-1.475,5.108,1.251,3.717,3.941A2.108,2.108,0,0,1,234.023,153.853Z" transform="translate(-214.969 -128.037)" fill="#4866fc"/>
    </g>
    <g id="freepik--Car--inject-48" transform="translate(43.38 80.844)">
      <rect id="Rectangle_5157" data-name="Rectangle 5157" width="107.235" height="15.735" transform="translate(6.72 21.118)" fill="#4866fc"/>
      <g id="Group_14845" data-name="Group 14845" transform="translate(6.72 21.118)" opacity="0.5">
        <rect id="Rectangle_5158" data-name="Rectangle 5158" width="107.235" height="15.735"/>
      </g>
      <circle id="Ellipse_1163" data-name="Ellipse 1163" cx="10.34" cy="10.34" r="10.34" transform="translate(10.119 27.123) rotate(-3.85)" fill="#263238"/>
      <path id="Path_73888" data-name="Path 73888" d="M143.315,389.07v.027a10.341,10.341,0,0,0,20.681.3v-.027Z" transform="translate(-132.523 -352.499)" fill="#263238"/>
      <path id="Path_73889" data-name="Path 73889" d="M159.247,359.588a7.26,7.26,0,1,0,7.362-7.151A7.259,7.259,0,0,0,159.247,359.588Z" transform="translate(-145.376 -322.946)" fill="#fafafa"/>
      <path id="Path_73890" data-name="Path 73890" d="M166.612,352.427a7.258,7.258,0,0,0-7.362,7.151l14.517.211A7.26,7.26,0,0,0,166.612,352.427Z" transform="translate(-145.379 -322.938)" fill="#e0e0e0"/>
      <path id="Path_73891" data-name="Path 73891" d="M173.928,371.464a4.422,4.422,0,1,0,4.484-4.356A4.422,4.422,0,0,0,173.928,371.464Z" transform="translate(-157.22 -334.782)" fill="#263238"/>
      <circle id="Ellipse_1164" data-name="Ellipse 1164" cx="10.34" cy="10.34" r="10.34" transform="matrix(0.998, -0.058, 0.058, 0.998, 89.282, 27.012)" fill="#263238"/>
      <path id="Path_73892" data-name="Path 73892" d="M552.415,389.07v.027a10.341,10.341,0,0,0,20.681.3v-.027Z" transform="translate(-462.553 -352.499)" fill="#263238"/>
      <path id="Path_73893" data-name="Path 73893" d="M568.347,359.588a7.26,7.26,0,1,0,7.362-7.151,7.259,7.259,0,0,0-7.362,7.151Z" transform="translate(-475.406 -322.946)" fill="#fafafa"/>
      <path id="Path_73894" data-name="Path 73894" d="M575.712,352.427a7.258,7.258,0,0,0-7.362,7.151l14.517.211a7.26,7.26,0,0,0-7.155-7.362Z" transform="translate(-475.409 -322.938)" fill="#e0e0e0"/>
      <path id="Path_73895" data-name="Path 73895" d="M583,371.464a4.422,4.422,0,1,0,4.484-4.356A4.422,4.422,0,0,0,583,371.464Z" transform="translate(-487.225 -334.782)" fill="#263238"/>
      <path id="Path_73896" data-name="Path 73896" d="M122.166,212.123s-15.226,1.123-20.874,2.389c-3.978.891-11.647,2.431-11.554,7.256l.609,3.46a5.207,5.207,0,0,0-2.843,4.615c0,3.317-.694,8.458,5.947,8.665,1.094.033,3.172,0,3.172,0s-1.274-14.144,11.718-14.558c13.218-.421,12.341,14.428,12.341,14.428h55.167s-2.265-14.467,11.964-14.5,12.064,14.591,12.064,14.591,5.234.452,7.669-3.947,1.8-7.538,1.8-7.538l-.081-2.781a1.8,1.8,0,0,0-1.74-1.739h0s.951-7-.508-8.212-9.455-8.524-9.455-8.524l.387-.238a.9.9,0,0,0-.193-1.608c-3.036-1.044-9.04-3.11-10.451-3.6a2.539,2.539,0,0,0-.655-.139c-.843-.064-3.228-.215-7.605-.261-5.333-.058-26.5,0-26.5,0s-7.287.6-11.345,2.385C136.942,204.146,122.166,212.123,122.166,212.123Z" transform="translate(-87.483 -199.857)" fill="#4866fc"/>
      <g id="Group_14846" data-name="Group 14846" transform="translate(1.561 29.531)" opacity="0.4">
        <path id="Path_73897" data-name="Path 73897" d="M97.881,352.715a2.351,2.351,0,0,0-1.821.251,1.737,1.737,0,0,0-.443,1.144,4.863,4.863,0,0,0,.039,1.714,2.091,2.091,0,0,0,.966,1.366A1.344,1.344,0,0,0,98.213,357a2.061,2.061,0,0,0,.387-1.482,12,12,0,0,0-.091-2.111,1.017,1.017,0,0,0-.193-.427.58.58,0,0,0-.441-.265" transform="translate(-95.56 -352.647)"/>
      </g>
      <path id="Path_73898" data-name="Path 73898" d="M99.779,314.868c1.616,0,3.183-.089,4.8-.193a.773.773,0,0,0,.491-.149.785.785,0,0,0,.168-.58,3.076,3.076,0,0,0-.692-2.416,2.6,2.6,0,0,0-1.481-.5,9.535,9.535,0,0,0-3.893.387Z" transform="translate(-96.911 -289.498)" fill="#fafafa"/>
      <path id="Path_73899" data-name="Path 73899" d="M146.75,322.565a1.264,1.264,0,0,0-.012-.139c-.012-.093-.015-.23-.027-.406-.019-.359-.048-.883-.085-1.56s-.083-1.506-.18-2.464a19.483,19.483,0,0,0-.57-3.214,14.64,14.64,0,0,0-1.556-3.624,11.4,11.4,0,0,0-3.009-3.355,17.533,17.533,0,0,0-9.817-2.949,15.864,15.864,0,0,0-9.755,3.069,14.3,14.3,0,0,0-3.164,3.23,15.2,15.2,0,0,0-1.852,3.479,14.088,14.088,0,0,0-.783,3.164,13.265,13.265,0,0,0-.095,2.46,12.311,12.311,0,0,0,.193,1.546c.031.172.056.305.072.4s.021.137.021.137-.012-.044-.031-.133l-.083-.387a11.276,11.276,0,0,1-.209-1.546,13.028,13.028,0,0,1,.077-2.47,14.09,14.09,0,0,1,.773-3.181,15.27,15.27,0,0,1,1.852-3.508,14.3,14.3,0,0,1,3.177-3.255,15.937,15.937,0,0,1,9.8-3.092,17.564,17.564,0,0,1,9.873,2.975,11.481,11.481,0,0,1,3.025,3.386,14.6,14.6,0,0,1,1.546,3.651,19.146,19.146,0,0,1,.559,3.228c.091.966.131,1.79.162,2.466s.052,1.2.068,1.562c0,.176.012.311.015.406A1.145,1.145,0,0,0,146.75,322.565Z" transform="translate(-110.313 -284.487)" fill="#fff"/>
      <path id="Path_73900" data-name="Path 73900" d="M276.989,245.99v-.116l-.012-.342c-.01-.305-.023-.752-.043-1.336-.033-1.173-.081-2.888-.143-5.07s-.133-4.832-.216-7.866c-.021-.76-.041-1.546-.064-2.348a7.971,7.971,0,0,1,.054-1.227l.087-.622.128-.624a12.64,12.64,0,0,1,.86-2.476,12.47,12.47,0,0,1,1.411-2.346h0l9.554-6.019,2.58-1.624a20.269,20.269,0,0,1,2.731-1.525,28.066,28.066,0,0,1,2.98-1.2c.506-.178,1.026-.323,1.546-.477s1.049-.282,1.587-.387a36.2,36.2,0,0,1,6.156-.773,58.338,58.338,0,0,1,5.963.019h.056l-.014.056-2.567,11.483h0a12.679,12.679,0,0,0-1.16,2.468,6.737,6.737,0,0,0-.387,2.551c.066.848.089,1.68.11,2.486s.031,1.587.046,2.346c.044,3.034.056,5.68.064,7.861s0,3.895,0,5.066v0c0-1.171-.017-2.886-.031-5.064s-.033-4.832-.085-7.863q-.023-1.136-.05-2.344c-.023-.806-.046-1.633-.114-2.482a6.807,6.807,0,0,1,.387-2.584,12.579,12.579,0,0,1,1.16-2.487v.014c.787-3.535,1.647-7.393,2.557-11.485l.044.058a58.073,58.073,0,0,0-5.949-.015,35.8,35.8,0,0,0-6.14.773c-.535.106-1.057.255-1.581.387s-1.036.3-1.546.475a28.027,28.027,0,0,0-2.98,1.2,20.153,20.153,0,0,0-2.717,1.515l-2.582,1.624-9.554,6.005v-.01A12.3,12.3,0,0,0,277.708,224a12.439,12.439,0,0,0-.858,2.458,17.9,17.9,0,0,0-.213,4.8l.193,7.866c.052,2.18.093,3.9.12,5.068.014.58.021,1.032.029,1.337v.342A1.052,1.052,0,0,1,276.989,245.99Z" transform="translate(-239.973 -207.672)" fill="#263238"/>
      <path id="Path_73901" data-name="Path 73901" d="M460.55,210.269h.091l.265-.01,1.026-.025,3.806-.073,12.83-.22h.025l.015.019,1.8,2.2c1.821,2.236,3.556,4.362,5.133,6.3l.58.715a4.239,4.239,0,0,1,.481.773,4.018,4.018,0,0,1,.071,3.263l-.58,1.353-1.774,4.105-.487,1.113-.13.29c-.029.064-.046.1-.046.1s.012-.035.037-.1.07-.168.12-.294c.11-.259.267-.638.47-1.121l1.74-4.117a7.281,7.281,0,0,0,.877-2.915,3.947,3.947,0,0,0-.387-1.645,4.108,4.108,0,0,0-.472-.752l-.58-.715-5.139-6.289-1.8-2.2.039.019-12.832.193-3.806.044h-1.289Z" transform="translate(-388.444 -207.991)" fill="#263238"/>
      <path id="Path_73902" data-name="Path 73902" d="M404.522,290.425a.746.746,0,0,0,.153-.023,1.075,1.075,0,0,0,.406-.162,1.026,1.026,0,0,0,.414-.537,1.161,1.161,0,0,0,.054-.425,1.059,1.059,0,0,0-.12-.46,1.026,1.026,0,0,0-.891-.543h-4.289a1.019,1.019,0,0,0-1.005.9,1.16,1.16,0,0,0,.124.682,1.028,1.028,0,0,0,.495.439,1.571,1.571,0,0,0,.644.079h1.768l1.645.015.446.01a.83.83,0,0,1,.157.012,1.421,1.421,0,0,1-.157.01h-.446l-1.645.015h-2.1a1.071,1.071,0,0,1-.344-.079,1.111,1.111,0,0,1-.543-.477,1.22,1.22,0,0,1-.137-.74,1.111,1.111,0,0,1,1.1-.988h4.291a1.1,1.1,0,0,1,.951.593,1.124,1.124,0,0,1,.122.491,1.227,1.227,0,0,1-.064.445,1.073,1.073,0,0,1-.446.553.991.991,0,0,1-.423.149A.686.686,0,0,1,404.522,290.425Z" transform="translate(-338.901 -271.085)" fill="#263238"/>
      <path id="Path_73903" data-name="Path 73903" d="M552.522,290.425a.746.746,0,0,0,.153-.023,1.076,1.076,0,0,0,.406-.162,1.026,1.026,0,0,0,.414-.537,1.159,1.159,0,0,0,.054-.425,1.059,1.059,0,0,0-.12-.46,1.026,1.026,0,0,0-.891-.543h-4.289a1.019,1.019,0,0,0-1.005.9,1.16,1.16,0,0,0,.124.682,1.028,1.028,0,0,0,.495.439,1.571,1.571,0,0,0,.644.079h1.768l1.645.015.446.01a.83.83,0,0,1,.157.012,1.421,1.421,0,0,1-.157.01h-.446l-1.645.015h-2.1a1.072,1.072,0,0,1-.344-.079,1.111,1.111,0,0,1-.543-.477,1.22,1.22,0,0,1-.137-.74,1.111,1.111,0,0,1,1.1-.988h4.291a1.1,1.1,0,0,1,.951.593,1.124,1.124,0,0,1,.122.491,1.227,1.227,0,0,1-.064.445,1.073,1.073,0,0,1-.446.553.992.992,0,0,1-.423.149A.688.688,0,0,1,552.522,290.425Z" transform="translate(-458.295 -271.085)" fill="#263238"/>
      <path id="Path_73904" data-name="Path 73904" d="M672,275.78h-5.721a2.113,2.113,0,0,0-1.869,1.127h0a2.115,2.115,0,0,0-.062,1.834l2.242,5.1,5.729-.056S673.541,277.32,672,275.78Z" transform="translate(-552.709 -261.106)" fill="#fafafa"/>
      <path id="Path_73905" data-name="Path 73905" d="M293.6,220.947l29.519-.545,19.212-.352,6.336-3.659a.984.984,0,0,0,.288-1.446l-3.945-5.182a2.192,2.192,0,0,0-1.728-.866l-21.489-.174s-8.091-.472-14.467,3.092A137.317,137.317,0,0,0,293.6,220.947Z" transform="translate(-253.762 -206.993)" fill="#263238"/>
      <path id="Path_73906" data-name="Path 73906" d="M284.959,211.58s1.48.675.518,1.3-15.918,10.05-15.918,10.05l-3.438-1.556C272.21,217.985,278.36,214.69,284.959,211.58Z" transform="translate(-231.593 -209.314)" fill="#455a64"/>
      <path id="Path_73907" data-name="Path 73907" d="M136.537,271.54l-.093.023-.273.06-1.049.216c-.912.182-2.234.437-3.866.719-3.286.564-7.832,1.221-12.89,1.658-1.266.11-2.513.193-3.7.278s-2.346.153-3.44.251a29.93,29.93,0,0,0-5.742.984,16.172,16.172,0,0,0-3.628,1.5c-.412.216-.705.429-.912.557l-.236.149-.083.048a.937.937,0,0,1,.077-.056l.23-.158c.2-.133.495-.352.9-.58a15.77,15.77,0,0,1,3.618-1.546,29.233,29.233,0,0,1,5.754-1.007c1.1-.1,2.248-.178,3.442-.257s2.43-.172,3.694-.282c5.056-.437,9.608-1.082,12.888-1.629,1.641-.273,2.963-.516,3.877-.686l1.053-.193.274-.05Z" transform="translate(-98.089 -257.685)" fill="#263238"/>
      <path id="Path_73908" data-name="Path 73908" d="M679.838,339.72c0,.029-1.968.05-4.393.05s-4.4-.021-4.4-.05,1.968-.05,4.4-.05S679.838,339.693,679.838,339.72Z" transform="translate(-558.259 -312.647)" fill="#263238"/>
      <path id="Path_73909" data-name="Path 73909" d="M323.229,365.7c0,.029-11.106.05-24.8.05s-24.805-.021-24.805-.05,11.1-.05,24.805-.05S323.229,365.673,323.229,365.7Z" transform="translate(-237.644 -333.606)" fill="#263238"/>
      <path id="Path_73910" data-name="Path 73910" d="M98.716,340.58c0,.029-1.571.05-3.508.05s-3.508-.021-3.508-.05,1.571-.05,3.508-.05S98.716,340.553,98.716,340.58Z" transform="translate(-90.885 -313.341)" fill="#263238"/>
      <path id="Path_73911" data-name="Path 73911" d="M652.427,229.21s-1.318,1.475-.8,2.557,5.874,4.874,5.874,4.874l3.887.729Z" transform="translate(-542.493 -223.537)" fill="#455a64"/>
      <path id="Path_73912" data-name="Path 73912" d="M461.424,215.54l-.874,9.44,15.64-.446,6.3-3.665-4.08-5.329Z" transform="translate(-388.444 -212.509)" fill="#455a64"/>
      <path id="Path_73913" data-name="Path 73913" d="M312.76,225.347s9.436-6.815,13.158-8.17a23.973,23.973,0,0,1,8.841-1.74c3.226-.093,5.191,0,5.191,0l-2.493,9.6Z" transform="translate(-269.219 -212.393)" fill="#455a64"/>
      <path id="Path_73914" data-name="Path 73914" d="M305.62,253.689h0a1.656,1.656,0,0,1,.843-1.442l2.169-1.218a4.119,4.119,0,0,1,2.024-.53h0a4.169,4.169,0,0,1,1.285.2,2.35,2.35,0,0,1,1.581,2.159h0a2.387,2.387,0,0,1-2.387,2.478h-3.866A1.653,1.653,0,0,1,305.62,253.689Z" transform="translate(-263.459 -240.712)" fill="#4866fc"/>
      <path id="Path_73915" data-name="Path 73915" d="M305.6,253.471a1.279,1.279,0,0,0,.025.209,1.641,1.641,0,0,0,.193.566,1.7,1.7,0,0,0,.665.655,1.636,1.636,0,0,0,.557.174,6.224,6.224,0,0,0,.667.014l3.307-.012a2.48,2.48,0,0,0,.92-.151,2.35,2.35,0,0,0,1.368-1.353,2.406,2.406,0,0,0,.145-1.022,2.341,2.341,0,0,0-.976-1.73,2.49,2.49,0,0,0-.895-.387,4.1,4.1,0,0,0-2.632.253c-.249.112-.477.253-.7.375l-.646.359-1.111.615a1.664,1.664,0,0,0-.665.655,1.7,1.7,0,0,0-.193.566c-.019.135-.017.209-.023.209a1.04,1.04,0,0,1,0-.213,1.6,1.6,0,0,1,.178-.58,1.67,1.67,0,0,1,.671-.684l1.1-.628.642-.365c.224-.124.452-.267.707-.387a4.155,4.155,0,0,1,2.688-.271,2.561,2.561,0,0,1,.93.387,2.436,2.436,0,0,1,1.021,1.8,2.488,2.488,0,0,1-.151,1.067,2.443,2.443,0,0,1-1.43,1.411,2.6,2.6,0,0,1-.953.153l-3.307-.01a6.371,6.371,0,0,1-.675-.021,1.672,1.672,0,0,1-.58-.193,1.712,1.712,0,0,1-.673-.684,1.626,1.626,0,0,1-.176-.58A1.26,1.26,0,0,1,305.6,253.471Z" transform="translate(-263.438 -240.494)" fill="#263238"/>
      <path id="Path_73916" data-name="Path 73916" d="M556.642,325.922v-.133c0-.089.015-.222.027-.387s.031-.387.043-.638.019-.545.029-.872,0-.694,0-1.092a11.291,11.291,0,0,0-.083-1.3,16.73,16.73,0,0,0-.559-3.108,14.031,14.031,0,0,0-.617-1.739,11.317,11.317,0,0,0-.932-1.755,11.943,11.943,0,0,0-3.023-3.15,14.3,14.3,0,0,0-4.333-2.138,18.172,18.172,0,0,0-5.153-.686,16.974,16.974,0,0,0-5.141.748,14.469,14.469,0,0,0-2.288.945,13.127,13.127,0,0,0-1.987,1.3,16.48,16.48,0,0,0-3.062,3.139,12.089,12.089,0,0,0-1.017,1.709,16.6,16.6,0,0,0-.7,1.7,20.275,20.275,0,0,0-1.117,5.412c-.031.655-.027,1.16-.01,1.511.01.17.017.3.021.387a1.174,1.174,0,0,1,0,.133.876.876,0,0,0-.016-.133c-.015-.089-.019-.222-.033-.387a14.936,14.936,0,0,1,0-1.513,19.926,19.926,0,0,1,1.088-5.445,17.52,17.52,0,0,1,.7-1.709A12.587,12.587,0,0,1,529.5,315a16.638,16.638,0,0,1,3.071-3.162,13.305,13.305,0,0,1,2-1.31,14.567,14.567,0,0,1,2.3-.953,16.957,16.957,0,0,1,5.172-.756,18.2,18.2,0,0,1,5.182.692,14.371,14.371,0,0,1,4.36,2.157,13.252,13.252,0,0,1,1.709,1.5,10.451,10.451,0,0,1,1.328,1.683,11.4,11.4,0,0,1,.933,1.77,13.757,13.757,0,0,1,.613,1.74,16.524,16.524,0,0,1,.547,3.123c.052.464.052.9.073,1.3s0,.773,0,1.094-.029.62-.041.874-.037.464-.052.638-.027.3-.035.387S556.642,325.922,556.642,325.922Z" transform="translate(-441.785 -287.757)" fill="#fff"/>
      <path id="Path_73917" data-name="Path 73917" d="M366.182,272.05h-.176l-.5.012-1.854.033c-1.566.029-3.726.087-6.115.153s-4.552.11-6.117.122h-2.489a.124.124,0,0,1-.046,0,.146.146,0,0,1,.046,0h.129l.5-.012,1.854-.033c1.566-.029,3.728-.087,6.117-.151s4.552-.112,6.117-.124h2.534Z" transform="translate(-298.358 -258.097)" fill="#fff"/>
      <path id="Path_73918" data-name="Path 73918" d="M411.006,286.845a28.542,28.542,0,0,1-3.386,0,28.542,28.542,0,0,1,3.386,0Z" transform="translate(-345.745 -269.987)" fill="#fff"/>
      <path id="Path_73919" data-name="Path 73919" d="M389.008,233.568c.01.025-2.091.9-4.695,1.954s-4.722,1.888-4.733,1.861,2.091-.9,4.695-1.954S389,233.543,389.008,233.568Z" transform="translate(-323.124 -227.052)" fill="#fff"/>
      <path id="Path_73920" data-name="Path 73920" d="M368.84,237c.012.027-1.991.908-4.471,1.97s-4.5,1.9-4.509,1.877,1.991-.906,4.471-1.97S368.828,236.968,368.84,237Z" transform="translate(-307.215 -229.818)" fill="#fff"/>
      <path id="Path_73921" data-name="Path 73921" d="M506.728,231.677c.012.025-2.091.9-4.695,1.954s-4.722,1.886-4.733,1.861,2.091-.9,4.7-1.954S506.712,231.65,506.728,231.677Z" transform="translate(-418.091 -225.527)" fill="#fff"/>
      <path id="Path_73922" data-name="Path 73922" d="M486.519,235.089c.012.027-1.991.908-4.469,1.97s-4.5,1.9-4.511,1.877,1.991-.906,4.471-1.969S486.519,235.071,486.519,235.089Z" transform="translate(-402.15 -228.279)" fill="#fff"/>
      <path id="Path_73923" data-name="Path 73923" d="M470.265,271.925c0,.027-4.181.075-9.337.106s-9.337.033-9.337,0,4.179-.075,9.337-.1S470.265,271.9,470.265,271.925Z" transform="translate(-381.216 -257.982)" fill="#fff"/>
      <path id="Path_73924" data-name="Path 73924" d="M550.3,286.114c0,.027-1.171.06-2.619.073s-2.619,0-2.619-.025,1.171-.062,2.619-.075S550.3,286.085,550.3,286.114Z" transform="translate(-456.62 -269.416)" fill="#fff"/>
      <path id="Path_73925" data-name="Path 73925" d="M114.542,278.85a.468.468,0,0,1-.114.023l-.327.043c-.143.015-.317.037-.518.072s-.431.06-.682.11c-.5.089-1.1.22-1.755.387a21.758,21.758,0,0,0-2.089.692c-.727.288-1.4.6-2,.914a16.375,16.375,0,0,0-1.546.9c-.218.133-.408.269-.58.387s-.313.215-.429.3l-.269.193a.6.6,0,0,1-.1.062.557.557,0,0,1,.085-.077l.259-.207c.112-.089.251-.193.419-.315a6.022,6.022,0,0,1,.58-.387c.425-.288.951-.6,1.546-.926a18.922,18.922,0,0,1,4.113-1.614c.657-.17,1.258-.3,1.767-.375.253-.046.483-.07.686-.1s.387-.044.52-.054l.331-.025A.752.752,0,0,1,114.542,278.85Z" transform="translate(-100.912 -263.582)" fill="#fff"/>
      <path id="Path_73926" data-name="Path 73926" d="M312.475,253.07a1.045,1.045,0,0,0-.193-.18,1.287,1.287,0,0,0-.638-.257,2.754,2.754,0,0,0-1.032.11,7.924,7.924,0,0,0-3.195,1.645c-.46.387-.7.671-.717.657a1.243,1.243,0,0,1,.162-.2,6.811,6.811,0,0,1,.506-.506,7.412,7.412,0,0,1,1.987-1.268,7.173,7.173,0,0,1,1.235-.412,2.739,2.739,0,0,1,1.063-.093,1.241,1.241,0,0,1,.653.3.837.837,0,0,1,.129.147C312.467,253.047,312.479,253.069,312.475,253.07Z" transform="translate(-264.33 -242.362)" fill="#fff"/>
      <path id="Path_73927" data-name="Path 73927" d="M573,213.3a3.093,3.093,0,0,1-.823.085,5.218,5.218,0,0,1-.966-.12,8.819,8.819,0,0,1-1.231-.387c-.446-.168-.922-.387-1.436-.6l-.8-.323c-.276-.11-.568-.2-.862-.313a33.687,33.687,0,0,0-3.939-1.073,45.328,45.328,0,0,0-7.36-.912c-.475-.025-.9-.025-1.283-.035h-.966l-.611.014H552.5a.145.145,0,0,1,.054,0l.159-.012.613-.033.966-.017c.387,0,.808,0,1.283.023a42.635,42.635,0,0,1,7.379.889,32.285,32.285,0,0,1,3.945,1.075c.294.108.58.2.864.317l.8.331c.514.222.988.439,1.43.611a8.472,8.472,0,0,0,1.216.387,5.113,5.113,0,0,0,.955.135,4.4,4.4,0,0,0,.609-.021l.156-.019Z" transform="translate(-462.622 -207.693)" fill="#263238"/>
    </g>
    <g id="freepik--Character--inject-48" transform="translate(38.805 68.851)">
      <path id="Path_73928" data-name="Path 73928" d="M118.769,188.222a31.933,31.933,0,0,0-1.73-6.334,3.914,3.914,0,0,0-1.995-2.735c-.58-.224-3.493-1.274-4.505-.926a12.708,12.708,0,0,0-2.808,1.411,3.761,3.761,0,0,0-1.465,1.875l-1.546,4.362,2.721,2.706,1.365-2.9,1.481,3.479-.218,3.508,8.491,2.285C119.324,193.717,119.208,190.621,118.769,188.222Z" transform="translate(-96.814 -170.359)" fill="#4866fc"/>
      <g id="Group_14847" data-name="Group 14847" transform="translate(14.025 13.25)" opacity="0.2">
        <path id="Path_73929" data-name="Path 73929" d="M142.1,206.36c-.375,2.2-.435,2.513-.81,4.706a5.382,5.382,0,0,1-1.044,2.482,2.887,2.887,0,0,1-1.343.924,3.218,3.218,0,0,1-1.78-.077,1.586,1.586,0,0,1-.7-1.645c.721.155.943.387,1.564,0a5.416,5.416,0,0,0,1.6-1.676,49,49,0,0,0,2.513-4.714" transform="translate(-136.375 -206.36)"/>
      </g>
      <path id="Path_73930" data-name="Path 73930" d="M123.707,211.634a5.356,5.356,0,0,1-.375-.58l-.874-1.436-.9-1.413a5.179,5.179,0,0,1-.361-.6.738.738,0,0,1,.122.143c.073.095.176.236.3.412.247.352.58.845.924,1.4s.644,1.069.85,1.446c.1.193.193.34.24.448A.613.613,0,0,1,123.707,211.634Z" transform="translate(-110.108 -194.118)" fill="#263238"/>
      <path id="Path_73931" data-name="Path 73931" d="M143.524,244.96a.968.968,0,0,1-.193.075,2.19,2.19,0,0,1-.242.066,2.79,2.79,0,0,1-.325.068,5.135,5.135,0,0,1-.858.079,6.032,6.032,0,0,1-1.053-.091,5.928,5.928,0,0,1-1.019-.288,5.428,5.428,0,0,1-.773-.375c-.108-.06-.193-.126-.278-.178a2.245,2.245,0,0,1-.2-.149.894.894,0,0,1-.16-.141c.012-.015.251.172.676.406a6.112,6.112,0,0,0,.773.35,5.924,5.924,0,0,0,2.039.373,6.342,6.342,0,0,0,.848-.056C143.229,245.031,143.519,244.94,143.524,244.96Z" transform="translate(-124 -223.496)" fill="#263238"/>
      <path id="Path_73932" data-name="Path 73932" d="M111.5,201.754c-.015.075-.928,1.892-.928,1.892l-4.306-2.269-.439-1.855a1.16,1.16,0,0,0-1.4-.854l-1.27.52a.34.34,0,0,0-.209.245c-.017.093,0,.193.168.172.315-.025.966-.095.966-.095l-.3,1.057a1.123,1.123,0,0,0,.085.829l.193.365.419.678h-.01s4.186,4.3,6.537,4.581c1.413.168,3.013-3.792,3.013-3.792Z" transform="translate(-95.388 -186.879)" fill="#b78876"/>
      <path id="Path_73933" data-name="Path 73933" d="M108.69,202.723a.453.453,0,0,1,.1-.093.561.561,0,0,1,.327-.1.34.34,0,0,1,.288.193c.041.087.014.145,0,.141s0-.054-.046-.12a.334.334,0,0,0-.253-.145.655.655,0,0,0-.3.077C108.75,202.706,108.7,202.731,108.69,202.723Z" transform="translate(-100.016 -190.02)" fill="#aa6550"/>
      <path id="Path_73934" data-name="Path 73934" d="M108.885,205.585s-.029-.035-.07-.087a.472.472,0,0,0-.446-.176c-.066,0-.106.023-.11.015s.031-.037.1-.06a.433.433,0,0,1,.493.193C108.887,205.536,108.891,205.583,108.885,205.585Z" transform="translate(-99.668 -192.223)" fill="#aa6550"/>
      <path id="Path_73935" data-name="Path 73935" d="M146.98,185.086l-1.16,5.526,3.092,1.857,1.187-3.4S149.6,184.949,146.98,185.086Z" transform="translate(-129.97 -175.945)" fill="#4866fc"/>
      <path id="Path_73936" data-name="Path 73936" d="M124.073,185.6a.5.5,0,0,1-.079.05c-.054.029-.131.072-.234.124-.2.1-.506.251-.883.419a13.024,13.024,0,0,1-3.071.966,7.69,7.69,0,0,1-3.212-.108,5.46,5.46,0,0,1-.916-.331,1.86,1.86,0,0,1-.238-.12.549.549,0,0,1-.079-.048,3.241,3.241,0,0,1,.332.133,6.725,6.725,0,0,0,.924.3,7.971,7.971,0,0,0,3.178.077,14.077,14.077,0,0,0,3.062-.934c.387-.158.682-.3.893-.387A2.672,2.672,0,0,1,124.073,185.6Z" transform="translate(-105.397 -176.363)" fill="#ebebeb"/>
      <path id="Path_73937" data-name="Path 73937" d="M122.781,188.76a.459.459,0,0,1-.087.062l-.255.164a4.665,4.665,0,0,1-.417.244c-.166.087-.352.193-.57.29l-.336.155c-.118.054-.245.1-.375.151-.257.106-.543.193-.841.29a11.653,11.653,0,0,1-4.03.477c-.313-.025-.611-.043-.885-.087-.139-.021-.273-.035-.4-.058l-.365-.073c-.232-.041-.439-.1-.62-.149a4.66,4.66,0,0,1-.462-.137l-.288-.1a.409.409,0,0,1-.1-.041.364.364,0,0,1,.1.021l.294.081c.126.039.28.083.464.122s.387.1.622.133l.363.066c.126.023.259.035.387.052.274.041.58.056.879.077a12,12,0,0,0,4-.474c.3-.093.58-.176.837-.28.128-.05.255-.093.373-.143l.338-.149c.218-.089.4-.193.58-.274a4.634,4.634,0,0,0,.423-.226l.267-.147A.408.408,0,0,1,122.781,188.76Z" transform="translate(-103.292 -178.912)" fill="#ebebeb"/>
      <path id="Path_73938" data-name="Path 73938" d="M148.09,192.013a2.013,2.013,0,0,1-.251-.128l-.68-.387-2.319-1.339-.029-.017v-.033c.083-.412.172-.856.265-1.312.139-.688.274-1.341.387-1.933.064-.3.116-.58.174-.848a3.063,3.063,0,0,1,.247-.717,1.451,1.451,0,0,1,.8-.733.887.887,0,0,1,.3-.048.286.286,0,0,1,.1.012,1.281,1.281,0,0,0-.387.073,1.442,1.442,0,0,0-.75.727,3.115,3.115,0,0,0-.23.705c-.052.265-.106.549-.164.845-.12.6-.251,1.252-.387,1.933-.093.458-.184.9-.267,1.312l-.023-.05,2.306,1.37.667.406a1.75,1.75,0,0,1,.244.162Z" transform="translate(-129.155 -175.488)" fill="#263238"/>
      <path id="Path_73939" data-name="Path 73939" d="M162.967,204.88a2.013,2.013,0,0,1-.015.516,7.731,7.731,0,0,1-.22,1.223,8.062,8.062,0,0,1-.41,1.175,2,2,0,0,1-.242.456,3.683,3.683,0,0,1,.176-.483,11.5,11.5,0,0,0,.626-2.381,4.045,4.045,0,0,1,.085-.506Z" transform="translate(-143.087 -191.916)" fill="#263238"/>
      <path id="Path_73940" data-name="Path 73940" d="M66.964,363.91l-.035,2.949s-3.011.957-3.069,1.5l5.717.271.244-4.594Z" transform="translate(-63.851 -320.209)" fill="#455a64"/>
      <path id="Path_73941" data-name="Path 73941" d="M87.81,378.293a.234.234,0,0,1,.149.274.224.224,0,0,1-.271.151.249.249,0,0,1-.157-.292.234.234,0,0,1,.3-.124" transform="translate(-82.942 -331.807)" fill="#e0e0e0"/>
      <path id="Path_73942" data-name="Path 73942" d="M69.54,386.041v-.464l-5.485-.087s-.261.1-.24.28Z" transform="translate(-63.814 -337.618)" fill="#e0e0e0"/>
      <path id="Path_73943" data-name="Path 73943" d="M79.269,378.907c0,.027.139.046.271.143s.193.216.228.207,0-.172-.172-.286S79.264,378.88,79.269,378.907Z" transform="translate(-76.282 -332.29)" fill="#263238"/>
      <path id="Path_73944" data-name="Path 73944" d="M76.1,380.091c0,.027.112.081.193.2s.11.249.139.249.052-.157-.062-.307S76.1,380.066,76.1,380.091Z" transform="translate(-73.725 -333.256)" fill="#263238"/>
      <path id="Path_73945" data-name="Path 73945" d="M73.3,381.731c.025,0,.072-.13,0-.286s-.193-.222-.2-.193.064.108.114.238S73.269,381.728,73.3,381.731Z" transform="translate(-71.3 -334.194)" fill="#263238"/>
      <path id="Path_73946" data-name="Path 73946" d="M79.687,375.153c.012.027.141,0,.3.012s.276.075.292.052-.1-.129-.282-.149S79.676,375.132,79.687,375.153Z" transform="translate(-76.619 -329.208)" fill="#263238"/>
      <g id="Group_14848" data-name="Group 14848" transform="translate(3.099 44.285)" opacity="0.3">
        <path id="Path_73947" data-name="Path 73947" d="M79.858,366.93l-.008.526,2.812.108.025-.474Z" transform="translate(-79.85 -366.93)"/>
      </g>
      <path id="Path_73948" data-name="Path 73948" d="M79.79,370.663a.53.53,0,0,0,.286.014,1.241,1.241,0,0,0,.3-.079,1.1,1.1,0,0,0,.168-.079.345.345,0,0,0,.091-.062.122.122,0,0,0,.019-.149.157.157,0,0,0-.12-.07.385.385,0,0,0-.108.01,1.023,1.023,0,0,0-.18.052,1.057,1.057,0,0,0-.273.16c-.139.118-.193.22-.18.226s.081-.075.22-.17a1.189,1.189,0,0,1,.263-.131,1.1,1.1,0,0,1,.166-.043c.062-.014.114-.012.128.015s0,.015,0,.033a.344.344,0,0,1-.066.046c-.052.029-.1.056-.155.079a1.647,1.647,0,0,1-.282.093A2.222,2.222,0,0,0,79.79,370.663Z" transform="translate(-76.702 -325.314)" fill="#263238"/>
      <path id="Path_73949" data-name="Path 73949" d="M78.574,368.828a.456.456,0,0,0,.087-.273.908.908,0,0,0-.023-.315.9.9,0,0,0-.066-.178.236.236,0,0,0-.176-.153.129.129,0,0,0-.122.073.348.348,0,0,0-.035.1.648.648,0,0,0,0,.193.655.655,0,0,0,.108.3c.1.155.22.193.222.184a1.151,1.151,0,0,1-.164-.218.655.655,0,0,1-.077-.273.61.61,0,0,1,.014-.166c.012-.06.037-.108.06-.1a.2.2,0,0,1,.095.1.906.906,0,0,1,.064.158,1.028,1.028,0,0,1,.043.288C78.588,368.719,78.553,368.822,78.574,368.828Z" transform="translate(-75.446 -323.436)" fill="#263238"/>
      <path id="Path_73950" data-name="Path 73950" d="M79.552,237.07s-8.933-3.75-11.7-3.906a2.435,2.435,0,0,0-2.81,2.806c.118.9,2.586,11.4,2.586,11.4l3.761-1.716-1.809-7.265,7.345,3.568Z" transform="translate(-64.785 -214.728)" fill="#263238"/>
      <path id="Path_73951" data-name="Path 73951" d="M82.822,250.725a10.429,10.429,0,0,0,.58.91c.313.5.522.939.557.926a4.1,4.1,0,0,0-1.136-1.836Z" transform="translate(-79.146 -228.9)" fill="#455a64"/>
      <path id="Path_73952" data-name="Path 73952" d="M79.048,252.879a9.957,9.957,0,0,0,.966.709,10.279,10.279,0,0,0,.966.705,3.559,3.559,0,0,0-.895-.814A4.014,4.014,0,0,0,79.048,252.879Z" transform="translate(-76.103 -230.636)" fill="#455a64"/>
      <path id="Path_73953" data-name="Path 73953" d="M95.63,255.654a6.621,6.621,0,0,1-2.194,1.844c-1.353.5-11.3,5.191-11.3,5.191S80.332,276.1,80.475,275.54l-4.165-.1.452-12.352a5.748,5.748,0,0,1,2.685-4.206l9.215-5.481Z" transform="translate(-73.895 -231.058)" fill="#263238"/>
      <path id="Path_73954" data-name="Path 73954" d="M78.211,268.067a.654.654,0,0,0,.017-.17c0-.124.015-.284.025-.485a16.668,16.668,0,0,1,.166-1.776,6.1,6.1,0,0,1,.9-2.443,4.668,4.668,0,0,1,1.071-1.106,12.862,12.862,0,0,1,1.413-.895c2-1.148,3.734-2.319,5.014-3.121.638-.406,1.16-.729,1.515-.949l.414-.255a.89.89,0,0,0,.141-.1.841.841,0,0,0-.153.073c-.1.052-.244.129-.427.234-.369.207-.895.52-1.546.914-1.293.785-3.033,1.942-5.025,3.092a12.808,12.808,0,0,0-1.426.906,4.728,4.728,0,0,0-1.094,1.14,6.117,6.117,0,0,0-.891,2.5,13.915,13.915,0,0,0-.124,1.788v.487A.887.887,0,0,0,78.211,268.067Z" transform="translate(-75.422 -233.777)" fill="#455a64"/>
      <path id="Path_73955" data-name="Path 73955" d="M153.822,261.14a3.141,3.141,0,0,0-.255-.342,2.5,2.5,0,0,1-.387-1.933,3.126,3.126,0,0,0,.1-.416.932.932,0,0,0-.193.387,2.217,2.217,0,0,0-.043,1.055,2.188,2.188,0,0,0,.448.955C153.669,261.069,153.814,261.152,153.822,261.14Z" transform="translate(-135.763 -235.132)" fill="#455a64"/>
      <path id="Path_73956" data-name="Path 73956" d="M84.213,277.448a.261.261,0,0,0,.012-.068c0-.054.015-.12.025-.2.021-.193.048-.448.083-.773.068-.688.164-1.668.284-2.874.056-.607.12-1.272.193-1.985s.141-1.477.193-2.281a24.516,24.516,0,0,1,.284-2.513,10.282,10.282,0,0,1,.773-2.58,8.7,8.7,0,0,1,1.511-2.217,13.739,13.739,0,0,1,1.886-1.662,38.16,38.16,0,0,1,3.616-2.256c1.057-.607,1.9-1.125,2.458-1.515.282-.193.495-.35.638-.46l.16-.126q.054-.043.052-.046a.246.246,0,0,0-.06.035l-.168.116c-.147.1-.365.253-.649.441-.568.375-1.415.879-2.478,1.477a36.312,36.312,0,0,0-3.641,2.238,13.583,13.583,0,0,0-1.91,1.672,8.756,8.756,0,0,0-1.537,2.25,10.377,10.377,0,0,0-.773,2.611c-.145.87-.218,1.714-.278,2.513s-.12,1.567-.193,2.281-.12,1.378-.172,1.987c-.1,1.208-.193,2.188-.242,2.878q-.039.5-.058.773c0,.083-.01.151-.014.2A.216.216,0,0,0,84.213,277.448Z" transform="translate(-80.267 -233.067)" fill="#455a64"/>
      <path id="Path_73957" data-name="Path 73957" d="M112.209,138.876a1.629,1.629,0,0,0-1.861-1,1.933,1.933,0,0,1-.518.112,3.7,3.7,0,0,1-.63-.166.947.947,0,0,0-1.067.692,1.285,1.285,0,0,0-1.061.211.833.833,0,0,0-.249,1c.075.141.193.253.269.4a5.677,5.677,0,0,1,.141.773,1.044,1.044,0,0,0,.9.646,3.067,3.067,0,0,0,1.16-.164" transform="translate(-98.45 -137.806)" fill="#263238"/>
      <path id="Path_73958" data-name="Path 73958" d="M115.912,152.259c-.048-.375-.079-.638-.079-.638a1.965,1.965,0,0,1-1.739-1.546,17.217,17.217,0,0,1-.516-3.131,1.691,1.691,0,0,1,1.595-1.852l3.309-.172.072.512.872,6.363a1.767,1.767,0,0,1-1.521,1.991h0a1.77,1.77,0,0,1-1.991-1.527Z" transform="translate(-103.953 -143.545)" fill="#b78876"/>
      <path id="Path_73959" data-name="Path 73959" d="M115.994,159.189a.207.207,0,0,0,.228.174.193.193,0,0,0,.18-.216.2.2,0,0,0-.228-.174.193.193,0,0,0-.18.216Z" transform="translate(-105.907 -154.88)" fill="#263238"/>
      <path id="Path_73960" data-name="Path 73960" d="M115.537,157.432c.029.021.164-.116.387-.151s.387.05.416.019-.023-.058-.1-.1a.553.553,0,0,0-.338-.048.53.53,0,0,0-.3.153C115.537,157.37,115.521,157.423,115.537,157.432Z" transform="translate(-105.535 -153.409)" fill="#263238"/>
      <path id="Path_73961" data-name="Path 73961" d="M126.714,157.371a.2.2,0,0,0,.228.172.193.193,0,0,0,.182-.215.207.207,0,0,0-.228-.174.193.193,0,0,0-.182.216Z" transform="translate(-114.556 -153.414)" fill="#263238"/>
      <path id="Path_73962" data-name="Path 73962" d="M126.68,155.877c.029.023.164-.116.387-.149s.387.048.416.017-.023-.056-.1-.1a.58.58,0,0,0-.338-.048.549.549,0,0,0-.3.153C126.68,155.815,126.667,155.865,126.68,155.877Z" transform="translate(-114.526 -152.155)" fill="#263238"/>
      <path id="Path_73963" data-name="Path 73963" d="M121.441,158.468a1.366,1.366,0,0,0-.365,0c-.056,0-.11,0-.126-.037a.284.284,0,0,1,0-.172c.031-.143.064-.294.1-.45a7.7,7.7,0,0,0,.193-1.169,7.513,7.513,0,0,0-.288,1.16c-.031.159-.062.309-.089.454a.315.315,0,0,0,0,.222.145.145,0,0,0,.1.068.386.386,0,0,0,.1,0A1.514,1.514,0,0,0,121.441,158.468Z" transform="translate(-109.822 -153)" fill="#263238"/>
      <path id="Path_73964" data-name="Path 73964" d="M125.28,175.823a4.076,4.076,0,0,0,2.029-.9,2.03,2.03,0,0,1-1.95,1.274Z" transform="translate(-113.4 -167.747)" fill="#aa6550"/>
      <path id="Path_73965" data-name="Path 73965" d="M124.855,166.349c-.037,0,0,.24-.174.441s-.433.215-.431.247.064.039.172.023a.58.58,0,0,0,.359-.193.512.512,0,0,0,.131-.367C124.907,166.4,124.87,166.345,124.855,166.349Z" transform="translate(-112.569 -160.832)" fill="#263238"/>
      <path id="Path_73966" data-name="Path 73966" d="M125.689,151.666c.031.056.245,0,.506-.017s.479.027.5-.031-.033-.077-.126-.122a.874.874,0,0,0-.773.037C125.716,151.585,125.676,151.639,125.689,151.666Z" transform="translate(-113.728 -148.791)" fill="#263238"/>
      <path id="Path_73967" data-name="Path 73967" d="M115.41,154.051c.046.043.193-.033.369-.064s.34-.019.367-.077c.012-.027-.021-.073-.095-.108a.522.522,0,0,0-.315-.035.514.514,0,0,0-.278.147C115.4,153.976,115.389,154.03,115.41,154.051Z" transform="translate(-105.43 -150.674)" fill="#263238"/>
      <path id="Path_73968" data-name="Path 73968" d="M112.081,143.882a2.273,2.273,0,0,0,1.881-.377c.659-.441,1.459-.717,1.658-.6s.329.839,1.053.966c0,0,.128,1.392.675,1.272.387-.085.162-1.62,0-2.5a.773.773,0,0,0-.723-.62l-1.019-.041-1.272.356-1.365.371-1.04.435Z" transform="translate(-102.63 -141.181)" fill="#263238"/>
      <path id="Path_73969" data-name="Path 73969" d="M139.33,154.894c.019-.014.864-.458,1.021.464a.7.7,0,0,1-.808.862C139.535,156.194,139.33,154.894,139.33,154.894Z" transform="translate(-124.734 -151.495)" fill="#b78876"/>
      <path id="Path_73970" data-name="Path 73970" d="M141.4,157.028a.281.281,0,0,0,.048.017.164.164,0,0,0,.12-.017.408.408,0,0,0,.124-.387.549.549,0,0,0-.083-.222.193.193,0,0,0-.143-.1.083.083,0,0,0-.087.06v.048s-.021-.014-.021-.052a.106.106,0,0,1,.027-.064.126.126,0,0,1,.085-.039.228.228,0,0,1,.193.114.543.543,0,0,1,.1.247.419.419,0,0,1-.166.439.176.176,0,0,1-.151,0C141.408,157.051,141.4,157.032,141.4,157.028Z" transform="translate(-126.372 -152.701)" fill="#aa6550"/>
      <path id="Path_73971" data-name="Path 73971" d="M115,139.68a.977.977,0,0,0,.1.124.794.794,0,0,0,.348.224,1.16,1.16,0,0,0,.615.027,5.71,5.71,0,0,0,.744-.236,2.035,2.035,0,0,1,.789-.141.874.874,0,0,1,.6.271.638.638,0,0,1,.184.4.265.265,0,0,1-.027.16,1.2,1.2,0,0,1-.012-.157.643.643,0,0,0-.193-.358.814.814,0,0,0-.553-.226,2.057,2.057,0,0,0-.752.143,4.833,4.833,0,0,1-.76.232,1.187,1.187,0,0,1-.655-.05.773.773,0,0,1-.356-.267A.268.268,0,0,1,115,139.68Z" transform="translate(-105.107 -139.316)" fill="#455a64"/>
      <path id="Path_73972" data-name="Path 73972" d="M113.088,142.9a1.049,1.049,0,0,0-.143-.116.868.868,0,0,0-.458-.128,1.5,1.5,0,0,0-.7.172,7.287,7.287,0,0,1-.839.387,2.085,2.085,0,0,1-1.651-.18,1.812,1.812,0,0,1-.408-.313.543.543,0,0,1-.116-.147,3.252,3.252,0,0,0,.557.4,2.1,2.1,0,0,0,1.587.149,9,9,0,0,0,.831-.387,1.488,1.488,0,0,1,.746-.158.841.841,0,0,1,.483.176A.354.354,0,0,1,113.088,142.9Z" transform="translate(-100.081 -141.65)" fill="#455a64"/>
      <path id="Path_73973" data-name="Path 73973" d="M91.388,209.555,86.9,205.73l-1.481.334a24.389,24.389,0,0,0,2.688,4.432,2.653,2.653,0,0,0,2.955.847C92.9,210.7,91.388,209.555,91.388,209.555Z" transform="translate(-81.244 -192.602)" fill="#b78876"/>
      <path id="Path_73974" data-name="Path 73974" d="M81.443,183.93H79.535a.485.485,0,0,0-.443.609l1.919,3.736a.433.433,0,0,0,.387.236h2.319a.332.332,0,0,0,.253-.493l-1.85-3.659A.773.773,0,0,0,81.443,183.93Z" transform="translate(-76.126 -175.015)" fill="#455a64"/>
      <path id="Path_73975" data-name="Path 73975" d="M81.358,185.1H79.451a.319.319,0,0,0-.286.464l1.873,3.655a.437.437,0,0,0,.387.236h2.3a.193.193,0,0,0,.168-.273l-1.852-3.657A.76.76,0,0,0,81.358,185.1Z" transform="translate(-76.169 -175.959)" fill="#263238"/>
      <path id="Path_73976" data-name="Path 73976" d="M83.947,193l-1.16.464-.247.935.559,1.392,2.043.3-.6-.613.075-.535s.58-.18.58-.267-.072-.387-.158-.4a4.4,4.4,0,0,0-.671.211s.709-.562.69-.653-.1-.321-.238-.348a8.266,8.266,0,0,0-1.289.516l-.193.423-.162-.678S84.2,193.466,83.947,193Z" transform="translate(-78.921 -182.332)" fill="#b78876"/>
      <path id="Path_73977" data-name="Path 73977" d="M90.391,201.371a.273.273,0,0,1-.041-.116.632.632,0,0,1,.193-.537c.058-.05.1-.068.106-.062a1.263,1.263,0,0,0-.215.329A1.281,1.281,0,0,0,90.391,201.371Z" transform="translate(-85.217 -188.507)" fill="#aa6550"/>
      <path id="Path_73978" data-name="Path 73978" d="M87.72,198.034a2.162,2.162,0,0,0,.046-.3,1.32,1.32,0,0,1,.058-.336.46.46,0,0,1,.3-.3c.276-.1.528-.182.709-.242a1.716,1.716,0,0,1,.3-.083,1.439,1.439,0,0,1-.284.124c-.18.07-.431.158-.7.257a.46.46,0,0,0-.17.1.449.449,0,0,0-.1.159,1.378,1.378,0,0,0-.068.323A.617.617,0,0,1,87.72,198.034Z" transform="translate(-83.099 -185.374)" fill="#aa6550"/>
      <path id="Path_73979" data-name="Path 73979" d="M86.283,200.358a.489.489,0,0,1,0-.23c.021-.124.05-.22.068-.218a.493.493,0,0,1,0,.23C86.329,200.264,86.3,200.36,86.283,200.358Z" transform="translate(-81.929 -187.907)" fill="#aa6550"/>
      <path id="Path_73980" data-name="Path 73980" d="M86.18,187.733a.242.242,0,1,0,.071-.173A.244.244,0,0,0,86.18,187.733Z" transform="translate(-81.857 -177.887)" fill="#fafafa"/>
    </g>
    <g id="freepik--Plant--inject-48" transform="translate(32.813 115.535)">
      <path id="Path_73981" data-name="Path 73981" d="M46.9,379.351a2.354,2.354,0,0,1,1.407,1.193,4.152,4.152,0,0,1,.431,1.83,7.333,7.333,0,0,1-1.065,3.6,4.988,4.988,0,0,1-1.784-3.025c-.29-1.233-.068-3.638,1.011-3.6" transform="translate(-43.265 -379.348)" fill="#4866fc"/>
      <path id="Path_73982" data-name="Path 73982" d="M62.7,411.023a2.012,2.012,0,0,1,.367-1.985,2.663,2.663,0,0,1,1.861-.891,1.115,1.115,0,0,1,.91.259.86.86,0,0,1,.139.86,1.74,1.74,0,0,1-.547.721,3.449,3.449,0,0,1-2.731,1.036" transform="translate(-56.831 -402.576)" fill="#4866fc"/>
      <path id="Path_73983" data-name="Path 73983" d="M59.223,420.236a1.2,1.2,0,0,1,0-.251c0-.18.015-.41.025-.686a7.068,7.068,0,0,1,.387-2.236,4.322,4.322,0,0,1,1.295-1.852,2.986,2.986,0,0,1,.58-.367c.073-.037.135-.054.174-.071s.062-.021.064-.017a4.018,4.018,0,0,0-2.033,2.339,7.61,7.61,0,0,0-.4,2.209c-.019.288-.037.522-.052.684a1.529,1.529,0,0,1-.039.249Z" transform="translate(-54.113 -407.91)" fill="#263238"/>
      <path id="Path_73984" data-name="Path 73984" d="M51.544,388.91a.758.758,0,0,1,.027.106l.064.307c.054.267.128.655.213,1.135.172.966.387,2.29.6,3.763s.367,2.81.468,3.781c.05.485.087.878.11,1.15q.014.193.023.313a.353.353,0,0,1,0,.108.619.619,0,0,1-.019-.108c-.01-.079-.023-.182-.041-.311-.035-.28-.081-.669-.139-1.144-.116-.966-.284-2.3-.491-3.777s-.416-2.793-.57-3.759c-.077-.474-.139-.86-.193-1.14-.019-.128-.035-.23-.048-.309A.431.431,0,0,1,51.544,388.91Z" transform="translate(-47.921 -387.062)" fill="#263238"/>
      <path id="Path_73985" data-name="Path 73985" d="M37.038,415.12a4.7,4.7,0,0,0-3.029-3.038.993.993,0,0,0-1.063.137.971.971,0,0,0,.075,1.067,4.012,4.012,0,0,0,4.014,1.933" transform="translate(-32.813 -405.686)" fill="#4866fc"/>
      <path id="Path_73986" data-name="Path 73986" d="M40.669,418.22a1.3,1.3,0,0,1,.228.062,2.226,2.226,0,0,1,.261.095c.1.044.218.083.338.149a4.275,4.275,0,0,1,.387.215,5.029,5.029,0,0,1,.427.288,4.857,4.857,0,0,1,1.477,1.813,4.6,4.6,0,0,1,.193.477,3.564,3.564,0,0,1,.126.429,3.273,3.273,0,0,1,.07.363,2.192,2.192,0,0,1,.033.276,1.384,1.384,0,0,1,0,.236c-.021,0-.035-.338-.172-.862a4.263,4.263,0,0,0-.131-.419,4.428,4.428,0,0,0-.193-.468,5.33,5.33,0,0,0-.62-.966,5.507,5.507,0,0,0-.831-.808,4.916,4.916,0,0,0-.416-.288,4.1,4.1,0,0,0-.387-.222C40.988,418.332,40.662,418.237,40.669,418.22Z" transform="translate(-39.151 -410.707)" fill="#263238"/>
    </g>
  </g>
</svg>
